<?xml version="1.0" standalone="no"?><!DOCTYPE svg PUBLIC "-//W3C//DTD SVG 1.1//EN" "http://www.w3.org/Graphics/SVG/1.1/DTD/svg11.dtd"><svg t="1614067034652" class="icon" viewBox="0 0 1024 1024" version="1.1" xmlns="http://www.w3.org/2000/svg" p-id="2953" xmlns:xlink="http://www.w3.org/1999/xlink"><defs><style type="text/css"></style></defs><path d="M508.825 348.442c-105.26 0-190.923 85.173-190.923 189.871 0 104.699 85.664 189.906 190.923 189.906 105.259 0 190.892-85.207 190.892-189.906s-85.633-189.871-190.892-189.871M508.825 669.607c-72.846 0-132.082-58.91-132.082-131.295 0-72.383 59.236-131.261 132.082-131.261 72.814 0 132.081 58.876 132.081 131.261 0.001 72.385-59.267 131.295-132.081 131.295z" p-id="2954"></path><path d="M964.276 772.070h-0.756c-0.229 0.623-0.623 1.217-0.954 1.775v-483.918c0-30.588-25.015-55.472-55.751-55.472h-168.93l-0.955-1.841-21.827-43.391c-2.497-5.556-24.819-53.024-55.227-53.024h-296.381c-31.097 0-54.009 50.361-54.962 52.514l-22.090 43.901-0.955 1.841h-168.964c-30.734 0-55.751 24.884-55.751 55.472v540.229c0 30.605 25.018 55.489 55.751 55.489h790.291c30.735 0 55.751-24.884 55.751-55.489v-55.718c0.559-0.79 1.215-1.514 1.709-2.368M900.438 805.601c0 10.027-8.218 18.211-18.343 18.211h-740.867c-10.091 0-18.342-8.185-18.342-18.211v-495.26c0-10.043 8.251-18.179 18.342-18.179h170.724l9.697-8.317 37.573-58.365c4.374-7.545 19.166-27.418 33.958-27.418h237.045c17.814 0 34.121 27.647 34.317 27.909l37.541 58.415 8.383 6.394 171.726-0.607c10.123 0 18.342 8.166 18.342 18.211v452.54c0 0.163-0.098 0.295-0.098 0.461v44.215z" p-id="2955"></path><path d="M897.38 771.183h0.066v-0.394l-0.066 0.394z" p-id="2956"></path></svg>