<?xml version="1.0" encoding="UTF-8"?>
<svg width="160px" height="160px" viewBox="0 0 160 160" version="1.1" xmlns="http://www.w3.org/2000/svg" xmlns:xlink="http://www.w3.org/1999/xlink">
    <!-- Generator: Sketch 64 (93537) - https://sketch.com -->
    <title>delete</title>
    <desc>Created with Sketch.</desc>
    <defs>
        <circle id="path-1" cx="80" cy="80" r="80"></circle>
        <path d="M68.7945672,19.3089519 L64.6613061,70.5361569 C64.3819152,73.9988988 61.4902292,76.6666667 58.0162343,76.6666667 L21.9951565,76.6666667 C18.5164358,76.6666667 15.6224819,73.9918619 15.349107,70.5238995 L11.3118992,19.3089519 L68.7945672,19.3089519 Z M47.5,30 C46.1192881,30 45,31.1192881 45,32.5 L45,32.5 L45,62.5 C45,63.8807119 46.1192881,65 47.5,65 C48.8807119,65 50,63.8807119 50,62.5 L50,62.5 L50,32.5 C50,31.1192881 48.8807119,30 47.5,30 Z M32.5,30 C31.1192881,30 30,31.1192881 30,32.5 L30,32.5 L30,62.5 C30,63.8807119 31.1192881,65 32.5,65 C33.8807119,65 35,63.8807119 35,62.5 L35,62.5 L35,32.5 C35,31.1192881 33.8807119,30 32.5,30 Z M49.625305,3.33333333 C51.1548638,3.33333333 52.4881408,4.37432458 52.8591133,5.85821458 L53.8945597,10 L73.75,10 C75.3608305,10 76.6666667,11.3058361 76.6666667,12.9166667 C76.6666667,14.5274972 75.3608305,15.8333333 73.75,15.8333333 L6.25,15.8333333 C4.63916948,15.8333333 3.33333333,14.5274972 3.33333333,12.9166667 C3.33333333,11.3058361 4.63916948,10 6.25,10 L27.1225259,10 L28.1579722,5.85821458 C28.5289447,4.37432458 29.8622218,3.33333333 31.3917806,3.33333333 L49.625305,3.33333333 Z" id="path-3"></path>
    </defs>
    <g id="port" stroke="none" stroke-width="1" fill="none" fill-rule="evenodd">
        <g id="message_list_-notifications" transform="translate(-1184.000000, -1472.000000)">
            <g id="sliceGroup" transform="translate(1184.000000, 1472.000000)">
                <g id="delete">
                    <g id="分组-2">
                        <g id="color/backplane/#636363">
                            <mask id="mask-2" fill="white">
                                <use xlink:href="#path-1"></use>
                            </mask>
                            <use id="Mask" fill="#D8D8D8" xlink:href="#path-1"></use>
                            <g mask="url(#mask-2)" fill="#FA2A2D" id="color/#67C74E">
                                <rect x="0" y="0" width="160" height="160"></rect>
                            </g>
                        </g>
                        <g id="分组" transform="translate(40.000000, 40.000000)">
                            <rect id="矩形" x="0" y="0" width="80" height="80"></rect>
                            <mask id="mask-4" fill="white">
                                <use xlink:href="#path-3"></use>
                            </mask>
                            <use id="Combined-Shape" fill="#FFFFFF" fill-rule="nonzero" xlink:href="#path-3"></use>
                            <g id="color/light/#000000" mask="url(#mask-4)" fill="#FFFFFF">
                                <rect id="color/#000000" x="0" y="0" width="80" height="80"></rect>
                            </g>
                        </g>
                    </g>
                </g>
            </g>
        </g>
    </g>
</svg>