<?xml version="1.0" encoding="UTF-8"?>
<svg viewBox="0 0 160 160" version="1.1" xmlns="http://www.w3.org/2000/svg" xmlns:xlink="http://www.w3.org/1999/xlink">
    <!-- Generator: Sketch 64 (93537) - https://sketch.com -->
    <title>entrance_icon01</title>
    <desc>Created with Sketch.</desc>
    <defs>
        <path d="M88,116 C88,120.414205 84.4184163,123.993775 79.9995016,123.993775 C75.5815837,123.993775 72,120.414205 72,116 L88,116 Z M80,36 C83.8206886,36 86.9264462,39.0609839 86.9987127,42.8643916 C99.379211,45.9848292 108.543209,57.1935546 108.543209,70.5426464 L108.543209,96.6881 L117.655072,108.797482 C118.319204,109.680093 118.142092,110.933976 117.259481,111.598109 C116.912837,111.858945 116.490781,112 116.056963,112 L43.9429055,112 C42.838336,112 41.9429055,111.104569 41.9429055,110 C41.9429055,109.56614 42.0839872,109.144046 42.3448702,108.797385 L51.4579164,96.6879666 L51.4579164,70.5426464 C51.4579164,57.1935546 60.6219144,45.9848292 73.0021132,42.8642675 L73,43 C73,39.1340068 76.1340068,36 80,36 Z M80.0005627,48 C67.5506029,48 57.4579164,58.0926866 57.4579164,70.5426464 L57.4579164,96.6879666 C57.4579164,97.9895451 57.0346713,99.2558277 56.2520223,100.295812 L51.9592869,106 L108.041193,106 L103.748883,100.295653 C102.966373,99.2557211 102.543209,97.9895534 102.543209,96.6881 L102.543209,70.5426464 C102.543209,58.0926866 92.4505225,48 80.0005627,48 Z" id="path-1"></path>
    </defs>
    <g id="entrance-icon01" stroke="none" stroke-width="1" fill="none" fill-rule="evenodd">
        <circle id="椭圆形" fill="#FFFFFF" cx="80" cy="80" r="74"></circle>
        <path d="M80,0 C124.18278,0 160,35.81722 160,80 C160,124.18278 124.18278,160 80,160 C35.81722,160 0,124.18278 0,80 C0,35.81722 35.81722,0 80,0 Z M80,6 C39.1309285,6 6,39.1309285 6,80 C6,120.869071 39.1309285,154 80,154 C120.869071,154 154,120.869071 154,80 C154,39.1309285 120.869071,6 80,6 Z" id="合并形状" fill-opacity="0.2" fill="#000000"></path>
        <mask id="mask-2" fill="white">
            <use xlink:href="#path-1"></use>
        </mask>
        <use id="合并形状" fill="#000000" xlink:href="#path-1"></use>
    </g>
</svg>