<?xml version="1.0" encoding="utf-8"?>
<!-- Generator: Adobe Illustrator 19.0.0, SVG Export Plug-In . SVG Version: 6.00 Build 0)  -->
<svg version="1.0" id="图层_1" xmlns="http://www.w3.org/2000/svg" xmlns:xlink="http://www.w3.org/1999/xlink" x="0px" y="0px"
	 viewBox="0 0 96 96" style="enable-background:new 0 0 96 96;" xml:space="preserve">
<path id="path-1" d="M45,45H27c-1.7,0-3,1.3-3,3s1.3,3,3,3h18v18c0,1.7,1.3,3,3,3s3-1.3,3-3V51h18c1.7,0,3-1.3,3-3s-1.3-3-3-3H51V27
	c0-1.7-1.3-3-3-3s-3,1.3-3,3V45z M48,92C23.7,92,4,72.3,4,48S23.7,4,48,4s44,19.7,44,44S72.3,92,48,92z"/>
</svg>
