<?xml version="1.0" encoding="utf-8"?>
<!-- Generator: Adobe Illustrator 19.0.0, SVG Export Plug-In . SVG Version: 6.00 Build 0)  -->
<svg version="1.0" id="图层_1" xmlns="http://www.w3.org/2000/svg" xmlns:xlink="http://www.w3.org/1999/xlink" x="0px" y="0px"
	 viewBox="-23 25 48 48" style="enable-background:new -23 25 48 48;" xml:space="preserve">
<g id="ic_contacts_13_mini">
	<g id="Group-3" transform="translate(6.000000, 2.000000)">
		<path id="Combined-Shape" d="M1,25l12,12v26c0,3.3-2.7,6-6,6h-24c-3.3,0-6-2.7-6-6V31c0-3.3,2.7-6,6-6H1z M1.8,56.1h-9V56l7-8.6
			C1.2,45.7,2,43.9,2,41.7c0-3.8-2.6-6.8-7-6.8c-4.5,0-6.8,3-7.1,5.9c0,0.2,0.1,0.4,0.3,0.4l3.1,0.6c0.2,0,0.4-0.1,0.4-0.3
			c0.2-1.9,1.3-3.1,3.2-3.1c2,0,3.2,1.4,3.2,3.2c0,1.4-0.6,2.6-1.5,3.7l-8.4,10.8c-0.1,0.1-0.2,0.3-0.2,0.5v2.7
			c0,0.2,0.1,0.4,0.4,0.4H1.8c0.2,0,0.4-0.1,0.4-0.4v-3C2.1,56.2,2,56.1,1.8,56.1z" fill="#01DF01"/>
	</g>
</g>
</svg>
