<?xml version="1.0" encoding="UTF-8"?>
<svg viewBox="0 0 96 96"
     version="1.1"
     xmlns="http://www.w3.org/2000/svg"
     xmlns:xlink="http://www.w3.org/1999/xlink">
    <!-- Generator: Sketch 64 (93537) - https://sketch.com -->
    <title>Public_cancel2</title>
    <desc>Created with Sketch.</desc>
    <g
        id="port"
        stroke="none"
        stroke-width="1"
        fill="none"
        fill-rule="evenodd">
        <g
            id="message_rcs_group_chat_vcard"
            transform="translate(-1056.000000, -2084.000000)">
            <g
                id="3-copy-2"
                transform="translate(96.000000, 1812.000000)">
                <g
                    id="分组"
                    transform="translate(160.000000, 272.000000)">
                    <g
                        id="sliceGroup"
                        transform="translate(800.000000, 0.000000)">
                        <g id="ic/24x24/Light/Public_cancel">
                            <g
                                id="Group"
                                transform="translate(8.000000, 8.000000)">
                                <circle
                                    id="Oval-31"
                                    fill-opacity="0.3"
                                    fill="#000000"
                                    cx="40"
                                    cy="40"
                                    r="40"></circle>
                                <path
                                    d="M58.8336667,21.166 C60.3896667,22.722 60.3896667,25.2673333 58.8336667,26.8233333 L45.657,39.999 L58.8336667,53.1766667 C60.3378,54.6795111 60.3879378,57.1093244 58.98408,58.6739668 L58.8336667,58.8326667 L58.6748422,58.98308 C57.109077,60.3869378 54.6804667,60.3368 53.1763333,58.8326667 L53.1763333,58.8326667 L40,45.656 L26.8243333,58.8326667 C25.3202,60.3368 22.8915896,60.3869378 21.3258245,58.98308 L21.167,58.8326667 C19.611,57.278 19.611,54.7313333 21.167,53.1766667 L34.343,39.999 L21.167,26.8233333 C19.6628667,25.3192 19.6127289,22.8905896 21.0165867,21.3248245 L21.167,21.166 C22.723,19.6113333 25.2683333,19.6113333 26.8243333,21.166 L26.8243333,21.166 L40,34.342 L53.1763333,21.166 C54.7323333,19.6113333 57.2776667,19.6113333 58.8336667,21.166 Z"
                                    id="Fill-4"
                                    fill="#FFFFFF"></path>
                            </g>
                        </g>
                    </g>
                </g>
            </g>
        </g>
    </g>
</svg>