<?xml version="1.0" encoding="utf-8"?>
<!-- Generator: Adobe Illustrator 19.0.0, SVG Export Plug-In . SVG Version: 6.00 Build 0)  -->
<svg version="1.1"
     id="图层_1"
     xmlns="http://www.w3.org/2000/svg"
     x="0px"
     y="0px"
     viewBox="-257 349 96 96"
     style="enable-background:new -257 349 96 96;"
     xml:space="preserve">
<path
    id="path-1_1_"
    d="M-223,387c0,3.3-2.7,6-6,6s-6-2.7-6-6c0-3.3,2.7-6,6-6S-223,383.7-223,387z M-234.4,431h43.4
	c3.3,0,6-2.7,6-6v-4.4l-17.7-18.5c-0.8-0.8-2-0.8-2.8,0L-234.4,431z M-241.2,429.3l31.4-31.4c3.1-3.1,8.2-3.1,11.3,0l0,0l13.5,14
	V379c0-3.3-2.7-6-6-6h-46c-3.3,0-6,2.7-6,6v46C-243,426.7-242.3,428.2-241.2,429.3z M-237,367h46c6.6,0,12,5.4,12,12v46
	c0,6.6-5.4,12-12,12h-46c-6.6,0-12-5.4-12-12v-46C-249,372.4-243.6,367-237,367z M-235.4,363c2.1-3.6,6-6,10.4-6h44
	c6.6,0,12,5.4,12,12v44c0,4.4-2.4,8.3-6,10.4V375v-6c0-3.3-2.7-6-6-6h-6H-235.4z"/>
</svg>
