<?xml version="1.0" standalone="no"?><!DOCTYPE svg PUBLIC "-//W3C//DTD SVG 1.1//EN" "http://www.w3.org/Graphics/SVG/1.1/DTD/svg11.dtd"><svg t="1623117443424" class="icon" viewBox="0 0 1024 1024" version="1.1" xmlns="http://www.w3.org/2000/svg" p-id="3138" xmlns:xlink="http://www.w3.org/1999/xlink" width="45" height="45"><defs><style type="text/css"></style></defs><path d="M629.826051 947.722014H274.430295a100.567624 100.567624 0 0 1-100.567623-100.567624V294.032459a100.567624 100.567624 0 0 1 100.567623-100.141489h355.395756a100.567624 100.567624 0 0 1 100.567624 100.141489v553.974199a100.567624 100.567624 0 0 1-100.567624 99.715356zM274.430295 236.50437A57.52809 57.52809 0 0 0 216.476072 294.032459v553.974199a57.954224 57.954224 0 0 0 57.954223 57.954224h355.395756a57.954224 57.954224 0 0 0 57.954224-57.954224v-553.974199a57.52809 57.52809 0 0 0-57.954224-57.528089z" p-id="3139"></path><path d="M827.552226 749.995839a21.3067 21.3067 0 0 1-21.3067-21.3067V283.379109A166.19226 166.19226 0 0 0 639.200999 117.612984H392.895547a21.3067 21.3067 0 0 1-21.3067-21.3067 21.3067 21.3067 0 0 1 21.3067-21.3067H639.200999a208.80566 208.80566 0 0 1 208.379525 208.379525V728.689139a21.3067 21.3067 0 0 1-20.028298 21.3067z" p-id="3140"></path></svg>