<?xml version="1.0" encoding="utf-8"?>
<!-- Generator: Adobe Illustrator 19.0.0, SVG Export Plug-In . SVG Version: 6.00 Build 0)  -->
<svg version="1.1" id="图层_1" xmlns="http://www.w3.org/2000/svg" xmlns:xlink="http://www.w3.org/1999/xlink" x="0px" y="0px"
	 viewBox="-23 0 48 96" style="enable-background:new -23 0 48 96;" xml:space="preserve">
<path id="path-1_1_" d="M1,20c-3.3,0-6-2.7-6-6s2.7-6,6-6s6,2.7,6,6S4.3,20,1,20z M1,54c-3.3,0-6-2.7-6-6s2.7-6,6-6s6,2.7,6,6
	S4.3,54,1,54z M1,88c-3.3,0-6-2.7-6-6s2.7-6,6-6s6,2.7,6,6S4.3,88,1,88z"/>
</svg>
