<?xml version="1.0" encoding="UTF-8"?>
<svg width="96px" height="96px" viewBox="0 0 96 96" version="1.1" xmlns="http://www.w3.org/2000/svg" xmlns:xlink="http://www.w3.org/1999/xlink">
    <!-- Generator: Sketch 64 (93537) - https://sketch.com -->
    <title>ic/notification/ic_notification_disable</title>
    <desc>Created with Sketch.</desc>
    <defs>
        <path d="M12,0 C13.092074,0 15.092074,0.087483724 18,0.262451172 L17.9143473,0.257423196 C20.7226165,0.321272961 25.2512308,0.424812101 29.7537707,0.529375029 C34.2346324,0.432767911 38.7402782,0.336179059 41.5511972,0.276126266 L41.55,0.262451172 L41.55,0.262451172 C44.457926,0.087483724 46.457926,0 47.55,0 C50.8637085,0 53.55,2.6862915 53.55,6 C53.55,8.09131435 52.9285149,9.97162032 52.113759,11.3925669 C51.7876654,11.9612791 51.3493305,12.5840646 50.7987543,13.2609236 C49.9750485,14.3558938 49.0132605,15.2423677 48.2340893,15.9590679 C47.8383298,16.3413923 47.4036622,16.757251 47.006571,17.1543421 C45.3860099,18.7749032 44.5370865,21.8003012 44.6191471,25.6708259 C44.7345975,31.1282252 46.6891331,36.3721778 48.4421965,37.8435212 C49.0184722,38.3017427 51.7893831,40.375876 52.5039514,40.8913866 C53.5922501,41.6765174 54.5418977,42.3922053 55.3378296,43.174157 C55.5852802,43.4172613 55.8198573,43.6586055 56.0422046,43.8977438 C56.8490897,44.704785 57.3964784,45.3099036 57.6841762,45.7127211 C59.5712409,48.3548773 60,50.1793149 60,51.4 C60,54.5324155 57.5996019,57.104188 54.5379079,57.3762155 C54.3463217,57.3997937 54.1660726,57.4125046 54,57.4158936 L54,57.4158936 L36.8669849,57.7914425 L32.5620607,85.8145656 L32.555361,85.8320133 C32.4725645,86.428028 32.2152273,87.0051188 31.7577676,87.4625785 C30.6429611,88.577385 28.8345945,88.5747098 27.7194871,87.4596025 C27.3003142,87.0404296 27.0381432,86.523369 26.9330274,85.9809164 L26.9330274,85.9809164 L22.7249481,57.7810204 L5.66643467,57.3964509 C5.44875112,57.3915138 5.20605342,57.3619052 4.94716894,57.3074101 C2.13508267,56.8097953 0,54.3542353 0,51.4 C0,50.8244461 0.0953186858,50.1146702 0.393873854,49.2482442 C0.895081216,47.6440306 2.06286398,45.603492 4.58550225,43.174157 C5.05389875,42.7230848 6.75020001,41.2789233 7.23533021,40.8913866 L7.41009523,40.7519123 C8.77610498,39.6627167 10.7129991,38.1396758 11.1203224,37.8160166 C12.8712191,36.3472555 14.8180277,31.106178 14.9254345,25.6489429 C15.0017904,21.778535 14.1484068,18.7518824 12.5254554,17.128931 C12.1277786,16.7312542 11.6924975,16.3147544 11.2961741,15.9318462 C10.5238346,15.2200918 9.57175273,14.3422753 8.75238123,13.2611591 L8.70469295,13.2034912 C8.17590767,12.5487986 7.75309027,11.9451572 7.43624074,11.3925669 C6.62148481,9.97162032 6,8.09131435 6,6 C6,2.6862915 8.6862915,0 12,0 Z" id="path-1"></path>
    </defs>
    <g id="ic/notification/ic_notification_disable-copy" stroke="none" stroke-width="1" fill="none" fill-rule="evenodd">
        <g id="color/light/#000000" transform="translate(18.000000, 4.000000)">
            <mask id="mask-2" fill="white">
                <use xlink:href="#path-1"></use>
            </mask>
            <use id="Mask" fill="#000000" xlink:href="#path-1"></use>
            <g mask="url(#mask-2)" fill="#000000" id="color/#000000">
                <g transform="translate(-18.000000, -4.000000)">
                    <rect x="0" y="0" width="96" height="96"></rect>
                </g>
            </g>
        </g>
    </g>
</svg>