<?xml version="1.0" encoding="UTF-8"?>
<svg
     viewBox="0 0 72 72"
     version="1.1"
     xmlns="http://www.w3.org/2000/svg"
     xmlns:xlink="http://www.w3.org/1999/xlink">
    <!-- Generator: Sketch 64 (93537) - https://sketch.com -->
    <title>ic_play_filled</title>
    <desc>Created with Sketch.</desc>
    <g
        id="组件"
        stroke="none"
        stroke-width="1"
        fill="none"
        fill-rule="evenodd">
        <g
            id="bg/Gallery_Photo_video"
            transform="translate(-16.000000, -56.000000)">
            <g id="sliceGroup">
                <g transform="translate(16.000000, 56.000000)">
                    <g id="ic_gallery_tag_video">
                        <g id="video2">
                            <rect
                                id="Rectangle-2566-Copy-2611"
                                fill="#5C5C5C"
                                opacity="0"
                                x="0"
                                y="0"
                                width="72"
                                height="72"></rect>
                            <path
                                d="M49.2,37.791075 L49.2033,37.792725 L31.0764,49.3848 C30.72,49.639725 30.28605,49.794825 29.811675,49.794825 C28.607175,49.794825 27.633675,48.8205 27.633675,47.616 C27.633675,47.61105 27.6345,47.606925 27.6345,47.6028 L27.633675,24.401325 L27.6345,24.402975 C27.6345,24.39555 27.633675,24.3906 27.633675,24.384 C27.633675,23.180325 28.607175,22.205175 29.811675,22.205175 C30.291825,22.205175 30.64575,22.366875 31.088775,22.614375 L49.2033,34.2081 C49.20165,34.208925 49.2,34.210575 49.2,34.210575 C49.76595,34.604925 50.141325,35.258325 50.141325,36 C50.141325,36.7425 49.76595,37.396725 49.2,37.791075 M36,3 C17.7741,3 3,17.7741 3,36 C3,54.2259 17.7741,69 36,69 C54.2259,69 69,54.2259 69,36 C69,17.7741 54.2259,3 36,3"
                                id="Fill-1"
                                fill="#FFFFFF"></path>
                        </g>
                    </g>
                </g>
            </g>
        </g>
    </g>
</svg>