<?xml version="1.0" encoding="UTF-8"?>
<svg
     viewBox="0 0 120 120"
     version="1.1"
     xmlns="http://www.w3.org/2000/svg"
     xmlns:xlink="http://www.w3.org/1999/xlink">
    <!-- Generator: Sketch 64 (93537) - https://sketch.com -->
    <title>ic_play</title>
    <desc>Created with Sketch.</desc>
    <defs>
        <path
            d="M42.5,37.6542653 L42.5,72.3457347 C42.5,74.9230636 44.5893378,77.0124014 47.1666667,77.0124014 C48.0253555,77.0124014 48.8673964,76.77548 49.6001,76.3277166 L77.9840296,58.9819819 C80.1832175,57.6380337 80.8765263,54.7657545 79.5325781,52.5665666 C79.1465347,51.9348591 78.6157371,51.4040616 77.9840296,51.0180181 L49.6001,33.6722834 C47.4009122,32.3283352 44.5286329,33.021644 43.1846848,35.2208319 C42.7369215,35.9535355 42.5,36.7955764 42.5,37.6542653 Z"
            id="path-1"></path>
    </defs>
    <g
        id="port"
        stroke="none"
        stroke-width="1"
        fill="none"
        fill-rule="evenodd">
        <g
            id="message_rcs_group_chat_music"
            transform="translate(-320.000000, -874.000000)">
            <g
                id="Group-8"
                transform="translate(96.000000, 806.000000)">
                <g
                    id="9-copy-5"
                    transform="translate(160.000000, 0.000000)">
                    <g
                        id="sliceGroup"
                        transform="translate(64.000000, 68.000000)">
                        <g
                            id="ic/play-norm/ic_play"
                            transform="translate(5.000000, 5.000000)">
                            <path
                                d="M55,0 C85.3756612,0 110,24.6243388 110,55 C110,85.3756612 85.3756612,110 55,110 C24.6243388,110 0,85.3756612 0,55 C0,24.6243388 24.6243388,0 55,0 Z M55,4 C26.8334778,4 4,26.8334778 4,55 C4,83.1665222 26.8334778,106 55,106 C83.1665222,106 106,83.1665222 106,55 C106,26.8334778 83.1665222,4 55,4 Z"
                                id="Oval-5"
                                fill="#000000"
                                fill-rule="nonzero"
                                opacity="0.200000003"></path>
                            <mask
                                id="mask-2"
                                fill="white">
                                <use xlink:href="#path-1"></use>
                            </mask>
                            <use
                                id="Path-46"
                                fill="#000000"
                                xlink:href="#path-1"></use>
                        </g>
                    </g>
                </g>
            </g>
        </g>
    </g>
</svg>