<?xml version="1.0" encoding="UTF-8"?>
<svg
     viewBox="0 0 96 96"
     version="1.1"
     xmlns="http://www.w3.org/2000/svg"
     xmlns:xlink="http://www.w3.org/1999/xlink">
    <title>Checkbox/Light/on</title>
    <desc>Created with Sketch.</desc>
    <g
        id="Checkbox/Light/on"
        stroke="none"
        stroke-width="1"
        fill="none"
        fill-rule="evenodd">
        <path
            d="M37.5807538,64.5034353 C35.3733606,64.5034353 33.5839149,62.7080792 33.5839149,60.5034353 C33.5839149,58.2942963 35.3780352,56.5034353 37.5807538,56.5034353 L53.5829149,56.5024353 L53.5839149,23.4968851 C53.5839149,21.3581977 55.2721102,19.6121781 57.3846588,19.5083226 L57.5839149,19.5034353 C59.7930539,19.5034353 61.5839149,21.295258 61.5839149,23.4968851 L61.5829149,60.4624353 L61.5839149,60.5034353 L61.5799149,60.6774353 L61.5790076,60.7092989 C61.5117972,62.0711455 60.7596828,63.2536489 59.6610602,63.9222546 C59.4881842,64.0275306 59.3069458,64.1200314 59.1184666,64.1984959 C59.0974121,64.2069739 59.0761224,64.2156138 59.0547428,64.2240748 C58.6000523,64.4044824 58.1048526,64.5034353 57.5870761,64.5034353 L37.5807538,64.5034353 Z"
            id="Rectangle-62"
            fill="#888888"
            transform="translate(47.583915, 42.003435) rotate(43.000000) translate(-47.583915, -42.003435) "></path>
    </g>
</svg>