<?xml version="1.0" encoding="UTF-8"?>
<svg width="150px"
     height="150px"
     viewBox="0 0 288 288"
     version="1.1"
     xmlns="http://www.w3.org/2000/svg"
     xmlns:xlink="http://www.w3.org/1999/xlink">
    <!-- Generator: Sketch 64 (93537) - https://sketch.com -->
    <title>ic_voice</title>
    <desc>Created with Sketch.</desc>
    <defs>
        <path
            d="M178.666667,142.666667 C180.875806,142.666667 182.666667,144.457528 182.666667,146.666667 C182.666667,166.671135 167.475431,183.127501 147.999753,185.12897 L148,197.439939 C148,199.649078 146.209139,201.439939 144,201.439939 C141.790861,201.439939 140,199.649078 140,197.439939 L139.999246,185.128868 C120.524048,183.126937 105.333333,166.670793 105.333333,146.666667 C105.333333,144.457528 107.124194,142.666667 109.333333,142.666667 C111.542472,142.666667 113.333333,144.457528 113.333333,146.666667 C113.333333,163.603399 127.063268,177.333333 144,177.333333 C160.936732,177.333333 174.666667,163.603399 174.666667,146.666667 C174.666667,144.457528 176.457528,142.666667 178.666667,142.666667 Z M144,85.3333333 C155.782075,85.3333333 165.333333,94.884592 165.333333,106.666667 L165.333333,146.666667 C165.333333,158.448741 155.782075,168 144,168 C132.217925,168 122.666667,158.448741 122.666667,146.666667 L122.666667,106.666667 C122.666667,94.884592 132.217925,85.3333333 144,85.3333333 Z M144,93.3333333 C136.636203,93.3333333 130.666667,99.30287 130.666667,106.666667 L130.666667,146.666667 C130.666667,154.030463 136.636203,160 144,160 C151.363797,160 157.333333,154.030463 157.333333,146.666667 L157.333333,106.666667 C157.333333,99.30287 151.363797,93.3333333 144,93.3333333 Z"
            id="path-1"></path>
    </defs>
    <g
        id="port"
        stroke="none"
        stroke-width="1"
        fill="none"
        fill-rule="evenodd">
        <g
            id="message_conversation_record"
            transform="translate(-576.000000, -2210.000000)">
            <g
                id="分组"
                transform="translate(96.000000, 2210.000000)">
                <g
                    id="sliceGroup"
                    transform="translate(480.000000, 0.000000)">
                    <g id="ic/voice">
                        <g>
                            <path
                                d="M144,16 C214.692448,16 272,73.307552 272,144 C272,214.692448 214.692448,272 144,272 C73.307552,272 16,214.692448 16,144 C16,73.307552 73.307552,16 144,16 Z M144,18 C74.4121215,18 18,74.4121215 18,144 C18,213.587878 74.4121215,270 144,270 C213.587878,270 270,213.587878 270,144 C270,74.4121215 213.587878,18 144,18 Z"
                                id="合并形状"
                                fill-opacity="0.38"
                                fill="#000000"></path>
                            <mask
                                id="mask-2"
                                fill="white">
                                <use xlink:href="#path-1"></use>
                            </mask>
                            <use
                                id="合并形状"
                                fill="#000000"
                                fill-rule="nonzero"
                                xlink:href="#path-1"></use>
                        </g>
                    </g>
                </g>
            </g>
        </g>
    </g>
</svg>