<?xml version="1.0" encoding="UTF-8"?>
<svg
     viewBox="0 0 64 64"
     version="1.1"
     xmlns="http://www.w3.org/2000/svg"
     xmlns:xlink="http://www.w3.org/1999/xlink">
    <!-- Generator: Sketch 64 (93537) - https://sketch.com -->
    <title>ic_voice_left</title>
    <desc>Created with Sketch.</desc>
    <defs>
        <polygon
            id="path-1"
            points="0 0.076912844 7.96957021 0.076912844 7.96957021 24.6638889 0 24.6638889"></polygon>
        <polygon
            id="path-3"
            points="0 5.64729655e-05 14.0709484 5.64729655e-05 14.0709484 58.6666667 0 58.6666667"></polygon>
    </defs>
    <g
        id="port"
        stroke="none"
        stroke-width="1"
        fill="none"
        fill-rule="evenodd"
        opacity="0.38">
        <g
            id="message_rcs_group_chat_multi_select_1"
            transform="translate(-832.000000, -1440.000000)">
            <g
                id="对话框"
                transform="translate(96.000000, 1392.000000)">
                <g id="4">
                    <g
                        id="sliceGroup"
                        transform="translate(736.000000, 48.000000)">
                        <g id="ic16dp/voice_left/ic_voice_left">
                            <g id="分组-2">
                                <g
                                    id="分组"
                                    transform="translate(32.000000, 32.000000) scale(-1, 1) translate(-32.000000, -32.000000) translate(13.333333, 2.666667)">
                                    <g transform="translate(29.333333, 16.962963)">
                                        <mask
                                            id="mask-2"
                                            fill="white">
                                            <use xlink:href="#path-1"></use>
                                        </mask>
                                        <g id="Clip-2"></g>
                                        <path
                                            d="M2.44008511,23.0098148 C0.820638298,19.6438148 0,16.0643333 0,12.369963 C0,8.67640741 0.820638298,5.09692593 2.44008511,1.73092593 C3.14025532,0.272407407 4.23884967,-0.292235079 5.6852752,0.411764921 C7.13170073,1.11902418 6.55731915,2.83217864 5.85634043,4.28988235 C4.62417021,6.85166013 4,9.56988235 4,12.3704009 C4,15.1709194 4.62417021,17.8899564 5.85634043,20.4509194 C6.55731915,21.9094379 6.92275853,23.0098148 6.42167428,23.8357895 C6.15345857,24.2779096 5.32581501,24.6466999 4.86087662,24.6466999 C3.78070641,24.6466999 2.94217021,24.0552222 2.44008511,23.0098148 Z"
                                            id="Fill-1"
                                            fill="#000000"
                                            mask="url(#mask-2)"></path>
                                    </g>
                                    <path
                                        d="M20.3228851,48.8443185 C16.6813532,42.9963926 14.6712138,36.2501958 14.6712138,29.3332328 C14.6712138,22.4162699 16.6813532,15.6699481 20.3228851,9.82202222 C21.1782894,8.45068889 22.3805072,7.7455725 23.9214744,8.70393 C25.4624417,9.6622875 24.1984965,11.5703704 23.3439007,12.9425185 C20.2844965,17.8534074 18.6666667,23.5212593 18.6666667,29.3333333 C18.6666667,35.1462222 20.2844965,40.8140741 23.3439007,45.724963 C24.1984965,47.0971111 24.9786193,47.7689943 24.4356052,49.0745401 C24.1250517,49.8211909 23.320034,50.2180963 22.7912681,50.2180963 C21.8226723,50.2180963 20.8767149,49.7316519 20.3228851,48.8443185 Z"
                                        id="Fill-3"
                                        fill="#000000"></path>
                                    <g>
                                        <mask
                                            id="mask-4"
                                            fill="white">
                                            <use xlink:href="#path-3"></use>
                                        </mask>
                                        <g id="Clip-6"></g>
                                        <path
                                            d="M8.77549362,57.4142963 C3.03506809,49.1455556 -8.08510638e-05,39.4345926 -8.08510638e-05,29.3333333 C-8.08510638e-05,19.2312593 3.03506809,9.5202963 8.77549362,1.25155556 C9.69638723,-0.074962963 11.1619729,-0.23170711 12.3169121,0.632277422 C13.4718514,1.49626195 12.6454043,3.28780601 11.7237021,4.61513935 C6.67131915,11.8930653 4,20.4404727 4,29.3333616 C4,38.2254356 6.67131915,46.7728431 11.7237021,54.0515838 C12.6454043,55.3789171 13.5141724,56.7356886 12.7629012,57.7687769 C12.2721322,58.4436434 11.7386851,58.6666667 11.1630255,58.6666667 C10.2445574,58.6666667 9.34225957,58.2299259 8.77549362,57.4142963 Z"
                                            id="Fill-5"
                                            fill="#000000"
                                            mask="url(#mask-4)"></path>
                                    </g>
                                </g>
                            </g>
                        </g>
                    </g>
                </g>
            </g>
        </g>
    </g>
</svg>