<?xml version="1.0" standalone="no"?><!DOCTYPE svg PUBLIC "-//W3C//DTD SVG 1.1//EN" "http://www.w3.org/Graphics/SVG/1.1/DTD/svg11.dtd">
<svg t="1635905205917"
     class="icon"
     viewBox="0 0 1024 1024"
     version="1.1"
     xmlns="http://www.w3.org/2000/svg"
     p-id="6450"
     xmlns:xlink="http://www.w3.org/1999/xlink"
     >
    <defs>
        <style type="text/css"></style>
    </defs>
    <path
        d="M738.99008 408.150016l-139.431936-12.978176-74.016768-133.644288c-2.369536-6.070272-7.835648-10.006528-13.860864-10.006528-6.027264 0-11.495424 3.936256-13.86496 10.006528l-74.819584 133.644288-138.627072 12.978176c-6.107136 0.524288-11.251712 5.025792-13.139968 11.411456-1.847296 6.3488-0.043008 13.34272 4.620288 17.641472l109.094912 114.638848-37.57056 161.656832c-1.406976 6.465536 0.843776 13.217792 5.746688 17.156096 4.902912 3.936256 11.413504 4.298752 16.637952 0.884736l141.961216-88.604672 142.323712 88.604672a14.002176 14.002176 0 0 0 7.714816 2.328576c3.135488 0 6.273024-1.083392 8.923136-3.211264 4.859904-3.938304 7.14752-10.69056 5.701632-17.156096l-38.97344-162.37568 110.098432-113.917952c4.661248-4.298752 6.469632-11.292672 4.620288-17.641472-1.888256-6.38976-7.071744-10.891264-13.13792-11.415552z m-50.427904 46.047232l-82.57536 89.204736 29.253632 114.88256c1.04448 4.820992-0.641024 9.92256-4.3008 12.855296a10.56768 10.56768 0 0 1-6.709248 2.412544c-1.970176 0-3.979264-0.60416-5.787648-1.728512l-107.362304-66.4576-105.84064 66.4576c-3.936256 2.57024-8.802304 2.291712-12.455936-0.641024-3.659776-2.975744-5.34528-8.0384-4.3008-12.859392l28.166144-114.356224-81.809408-89.767936c-3.495936-3.254272-4.861952-8.476672-3.457024-13.2608 1.409024-4.780032 5.265408-8.157184 9.846784-8.556544l96.436224-12.857344 63.647744-100.255744c1.769472-4.540416 5.86752-7.473152 10.407936-7.473152s8.599552 2.971648 10.366976 7.51616l63.045632 100.251648 97.040384 12.86144c4.540416 0.39936 8.439808 3.776512 9.842688 8.556544 1.404928 4.74112 0.038912 10.00448-3.454976 13.215744zM511.719424 110.925824c-221.923328 0-401.819648 179.894272-401.819648 401.819648s179.894272 401.8176 401.819648 401.8176 401.8176-179.894272 401.8176-401.8176-179.892224-401.819648-401.8176-401.819648z m0 763.455488c-199.743488 0-361.63584-161.8944-361.63584-361.637888s161.890304-361.63584 361.63584-361.63584 361.639936 161.890304 361.639936 361.63584c0 199.706624-161.8944 361.637888-361.639936 361.637888z m0 0"
        fill="#FFA42F"
        p-id="6451"></path>
</svg>