<?xml version="1.0" encoding="UTF-8"?>
<svg
     viewBox="0 0 96 96"
     version="1.1"
     xmlns="http://www.w3.org/2000/svg"
     xmlns:xlink="http://www.w3.org/1999/xlink">
    <!-- Generator: Sketch 64 (93537) - https://sketch.com -->
    <title>ic_search</title>
    <desc>Created with Sketch.</desc>
    <defs>
        <path
            d="M56.5100213,55.8017715 C53.3189591,56.3453733 50.3484042,56.5965934 47.5392054,56.5537381 C44.7629818,56.5113858 42.0647151,56.2584577 39.4112541,55.7869506 C34.3145422,54.8502069 30.9997283,52.3701817 29.9311136,47.7719081 L28.6354001,43.1546934 L28.5962012,42.9719618 C28.3960038,42.0387106 27.6810151,41.3013983 26.7543579,41.0726117 L7.56411293,36.3346463 C6.22605287,36.0042867 4.87353147,36.8211893 4.54317183,38.1592493 C4.52947896,38.2147097 4.51769447,38.270624 4.50783919,38.3268932 L4.04531581,40.9676932 C3.33503137,45.0230972 5.58867501,49.45759 9.01160116,50.9587453 C16.573398,54.2750291 22.683511,56.476068 27.310063,57.5741289 C33.5677577,59.0593235 40.4544497,59.7840403 48.0495975,59.7375219 C55.5483788,59.784049 62.4345351,59.0587793 68.689937,57.5741289 C73.3164889,56.476068 79.4266018,54.2750292 86.9883967,50.9587463 C90.4113248,49.4575901 92.6649687,45.0230974 91.9546842,40.9676932 L91.4921608,38.3268932 C91.4823055,38.270624 91.470521,38.2147097 91.4568282,38.1592493 C91.1264685,36.8211893 89.7739471,36.0042867 88.4358871,36.3346463 L69.2456421,41.0726117 C68.3189849,41.3013983 67.6039962,42.0387106 67.4037988,42.9719618 L67.3645999,43.1546934 L66.0662756,47.7812114 C65.0089051,52.2387564 61.2190406,55.1095337 56.5100213,55.8017715 Z M6.60180464,56.4535502 C0.550754948,53.7998075 -3.03385015,46.6077778 -1.86472125,39.9325787 L-1.40219787,37.2917787 C-1.36864747,37.100221 -1.32852945,36.9098719 -1.28191473,36.7210676 C-0.157269281,32.1659011 4.44712808,29.3849143 9.00229462,30.5095597 L28.1925396,35.2475252 C31.3471648,36.0263847 33.7812052,38.5364217 34.4627386,41.7134949 L35.7504935,46.3023494 C36.1841147,48.3237413 37.4644982,49.3286503 40.4958497,49.8857938 C42.7926975,50.2938392 45.1706924,50.5169075 47.6307268,50.5544361 C50.067729,50.5916134 52.6959921,50.368952 55.5767608,49.8742666 C58.1027673,49.520723 59.8423662,48.2002967 60.2495065,46.3023494 L61.5372614,41.7134949 C62.2187948,38.5364217 64.6528352,36.0263847 67.8074604,35.2475252 L86.9977054,30.5095597 C91.5528719,29.3849143 96.1572693,32.1659011 97.2819147,36.7210676 C97.3285294,36.9098719 97.3686475,37.100221 97.4021979,37.2917787 L97.8647212,39.9325787 C99.0338502,46.6077778 95.4492451,53.7998075 89.3981932,56.4535512 C81.5476664,59.8964597 75.1149613,62.2158947 70.0754815,63.4119595 C63.3298596,65.0129582 55.966793,65.7867606 48.0123705,65.7374065 C40.033207,65.7867606 32.6701404,65.0129582 25.9245185,63.4119595 C20.8850387,62.2158947 14.4523336,59.8964597 6.60180464,56.4535502 Z"
            id="path-1"></path>
    </defs>
    <g
        id="port"
        stroke="none"
        stroke-width="1"
        fill="none"
        fill-rule="evenodd">
        <g
            id="message_single_chat"
            transform="translate(-1104.000000, -160.000000)">
            <g id="Bars/Light/AppBar/Regular/basic备份">
                <g
                    id="Bars/Light/AppBar/Regular/ItemItem/Right/ic+menu"
                    transform="translate(1101.000000, 160.000000)">
                    <g id="sliceGroup">
                        <g
                            id="ic/search/ic_search"
                            transform="translate(0.000000, 3.000000)">
                            <g id="分组">
                                <mask
                                    id="mask-2"
                                    fill="white">
                                    <use xlink:href="#path-1"></use>
                                </mask>
                                <use
                                    id="phonecall"
                                    fill="#000000"
                                    fill-rule="nonzero"
                                    transform="translate(48.000000, 47.999766) rotate(45.000000) translate(-48.000000, -47.999766) "
                                    xlink:href="#path-1"></use>
                            </g>
                        </g>
                    </g>
                </g>
            </g>
        </g>
    </g>
</svg>