<?xml version="1.0" standalone="no"?><!DOCTYPE svg PUBLIC "-//W3C//DTD SVG 1.1//EN" "http://www.w3.org/Graphics/SVG/1.1/DTD/svg11.dtd"><svg t="1614067102885" class="icon" viewBox="0 0 1024 1024" version="1.1" xmlns="http://www.w3.org/2000/svg" p-id="3708" xmlns:xlink="http://www.w3.org/1999/xlink"><defs><style type="text/css"></style></defs><path d="M897.563094 914.236092H126.436906c-62.523745 0-112.542741-50.018996-112.54274-112.542741V222.306649c0-62.523745 50.018996-112.542741 112.54274-112.542741h771.126188c62.523745 0 112.542741 50.018996 112.54274 112.542741v579.386702c0 62.523745-51.408412 112.542741-112.54274 112.542741zM126.436906 173.677069c-26.398915 0-48.629579 22.230665-48.629579 48.62958v579.386702c0 26.398915 22.230665 48.629579 48.629579 48.62958h771.126188c26.398915 0 48.629579-22.230665 48.629579-48.62958V222.306649c0-26.398915-22.230665-48.629579-48.629579-48.62958H126.436906z" p-id="3709"></path><path d="M293.166893 430.719132c40.29308 0 72.249661-31.956581 72.249661-72.249661 0-40.29308-31.956581-72.249661-72.249661-72.249661-40.29308 0-72.249661 31.956581-72.249661 72.249661 0 40.29308 33.345997 72.249661 72.249661 72.249661zM847.544098 769.736771c-9.725916 0-19.451832-4.16825-25.009498-12.504749L643.299864 516.862958 469.622795 690.540027c-5.557666 5.557666-13.894166 9.725916-22.230665 9.725916-8.336499 0-16.672999-2.778833-22.230665-9.725916L344.575305 611.343284 198.686567 760.010855c-12.504749 12.504749-31.956581 12.504749-45.850746 0-12.504749-12.504749-12.504749-31.956581 0-45.850746L320.955224 541.872456c5.557666-5.557666 13.894166-9.725916 22.230665-9.725916 8.336499 0 16.672999 2.778833 22.230665 9.725916l80.58616 80.58616L623.848033 444.613297c6.947083-6.947083 15.283582-9.725916 25.009498-9.725916s18.062415 5.557666 23.620081 12.504749l201.4654 270.936228c11.115332 13.894166 6.947083 34.735414-6.947083 44.46133-5.557666 5.557666-12.504749 6.947083-19.451831 6.947083z" p-id="3710"></path></svg>