<?xml version="1.0" standalone="no"?><!DOCTYPE svg PUBLIC "-//W3C//DTD SVG 1.1//EN" "http://www.w3.org/Graphics/SVG/1.1/DTD/svg11.dtd"><svg t="1614070955140" class="icon" viewBox="0 0 1024 1024" version="1.1" xmlns="http://www.w3.org/2000/svg" p-id="14954" xmlns:xlink="http://www.w3.org/1999/xlink" width="48" height="48"><defs><style type="text/css"></style></defs><path d="M894.678 383.687c0-210.929-171.328-381.923-382.67-381.923-211.356 0-382.685 170.994-382.685 381.923 0 84.808 28.011 162.896 74.874 226.235h-1.75l309.562 412.314L821.57 609.922h-1.764c46.809-63.339 74.872-141.427 74.872-226.235z m-382.67 180.554c-99.922 0-180.922-80.827-180.922-180.555 0-99.709 81-180.553 180.922-180.553 99.906 0 180.906 80.844 180.906 180.553 0 99.729-81 180.555-180.906 180.555z" fill="#007DFF" p-id="14955"></path></svg>