<?xml version="1.0" standalone="no"?><!DOCTYPE svg PUBLIC "-//W3C//DTD SVG 1.1//EN" "http://www.w3.org/Graphics/SVG/1.1/DTD/svg11.dtd"><svg t="1614071699699" class="icon" viewBox="0 0 1024 1024" version="1.1" xmlns="http://www.w3.org/2000/svg" p-id="18601" xmlns:xlink="http://www.w3.org/1999/xlink"><defs><style type="text/css"></style></defs><path d="M818.212571 597.010286 216.192 597.010286c-13.366857 0-24.228571-11.062857-24.228571-24.685714 0-13.586286 10.861714-24.649143 24.228571-24.649143l602.020571 0c13.366857 0 24.210286 11.044571 24.210286 24.649143C842.422857 585.947429 831.597714 597.010286 818.212571 597.010286L818.212571 597.010286z" p-id="18602"></path><path d="M622.592 734.390857 216.192 734.390857c-13.366857 0-24.228571-11.044571-24.228571-24.667429 0-13.586286 10.861714-24.649143 24.228571-24.649143l406.4 0c13.385143 0 24.210286 11.044571 24.210286 24.649143C646.802286 723.346286 635.977143 734.390857 622.592 734.390857L622.592 734.390857z" p-id="18603"></path><path d="M342.656 293.595429c26.130286 0 47.36-21.485714 47.36-47.908571L390.016 102.747429c0-26.422857-21.229714-47.890286-47.36-47.890286-26.112 0-47.36 21.467429-47.36 47.890286l0 142.939429C295.296 272.109714 316.562286 293.595429 342.656 293.595429z" p-id="18604"></path><path d="M697.051429 293.595429c26.112 0 47.36-21.485714 47.36-47.908571L744.411429 102.747429C744.411429 76.324571 723.163429 54.857143 697.051429 54.857143c-26.130286 0-47.396571 21.467429-47.396571 47.890286l0 142.939429C649.654857 272.109714 670.921143 293.595429 697.051429 293.595429z" p-id="18605"></path><path d="M450.998857 222.098286l137.654857 0c26.112 0 47.378286-21.485714 47.378286-47.908571 0-26.404571-21.266286-47.890286-47.378286-47.890286l-137.654857 0c-26.130286 0-47.378286 21.467429-47.378286 47.890286C403.620571 200.612571 424.868571 222.098286 450.998857 222.098286z" p-id="18606"></path><path d="M818.230857 126.281143l-13.824 0c-26.112 0-47.36 21.485714-47.36 47.890286 0 26.422857 21.248 47.926857 47.36 47.926857l13.824 0c41.069714 0 74.477714 34.102857 74.477714 76.050286l0 45.44L131.291429 343.588571l0-42.422857c0-43.574857 34.742857-79.030857 77.421714-79.030857l24.777143 0c26.130286 0 47.36-21.485714 47.36-47.908571 0-26.404571-21.229714-47.890286-47.36-47.890286l-24.777143 0C113.810286 126.317714 36.571429 204.726857 36.571429 301.129143l0 500.900571C36.571429 894.153143 110.409143 969.142857 201.161143 969.142857l611.181714 0c46.774857 0 90.752-18.578286 123.849143-52.297143 33.042286-33.627429 51.254857-78.244571 51.236571-125.659429L987.428571 298.130286C987.428571 203.373714 911.524571 126.281143 818.230857 126.281143zM812.306286 873.325714 201.106286 873.325714c-38.473143 0-69.814857-32-69.814857-71.332571L131.291429 392.850286 892.708571 392.850286l0 398.317714C892.708571 836.461714 856.649143 873.325714 812.306286 873.325714z" p-id="18607"></path></svg>