<?xml version="1.0" standalone="no"?><!DOCTYPE svg PUBLIC "-//W3C//DTD SVG 1.1//EN" "http://www.w3.org/Graphics/SVG/1.1/DTD/svg11.dtd"><svg t="1614071055730" class="icon" viewBox="0 0 1024 1024" version="1.1" xmlns="http://www.w3.org/2000/svg" p-id="16178" xmlns:xlink="http://www.w3.org/1999/xlink" width="48" height="48"><defs><style type="text/css"></style></defs><path d="M512.748308 1024H512c-17.998769 0-35.406769-7.404308-47.773538-20.243692a2583.394462 2583.394462 0 0 1-186.486154-219.884308C158.798769 625.624615 98.461538 499.475692 98.461538 408.891077 98.461538 183.414154 283.963077 0 512 0c227.997538 0 413.499077 183.414154 413.499077 408.891077 0 54.784-21.307077 121.895385-63.369846 199.443692-40.526769 74.791385-101.494154 161.634462-181.208616 258.205539l-0.669538 0.748307-118.665846 134.419693c-12.563692 14.178462-30.365538 22.291692-48.836923 22.291692zM512 61.558154c-193.732923 0-351.310769 155.805538-351.310769 347.332923 0 75.972923 57.777231 192.945231 167.030154 338.274461a2538.929231 2538.929231 0 0 0 181.602461 214.134154 3.623385 3.623385 0 0 0 2.678154 1.142154h0.748308c0.275692 0 1.142154-0.315077 2.008615-1.260308l118.272-133.986461c77.036308-93.302154 135.640615-176.718769 174.237539-247.926154 37.139692-68.529231 56.004923-125.833846 56.004923-170.377846 0-191.527385-157.577846-347.332923-351.271385-347.332923z m0 538.702769c-106.771692 0-193.575385-85.858462-193.575385-191.369846 0-105.550769 86.803692-191.409231 193.575385-191.409231 106.732308 0 193.536 85.858462 193.536 191.409231 0 105.511385-86.803692 191.369846-193.536 191.369846z m0-321.220923c-72.428308 0-131.347692 58.249846-131.347692 129.851077s58.919385 129.851077 131.347692 129.851077c72.388923 0 131.308308-58.249846 131.308308-129.851077S584.388923 279.04 512 279.04z" p-id="16179" fill="#2c2c2c"></path></svg>