<?xml version="1.0" standalone="no"?><!DOCTYPE svg PUBLIC "-//W3C//DTD SVG 1.1//EN" "http://www.w3.org/Graphics/SVG/1.1/DTD/svg11.dtd"><svg t="1614070747269" class="icon" viewBox="0 0 1024 1024" version="1.1" xmlns="http://www.w3.org/2000/svg" p-id="13963" xmlns:xlink="http://www.w3.org/1999/xlink" width="48" height="48"><defs><style type="text/css"></style></defs><path d="M837.083429 475.428571c22.454857 0 40.630857 18.907429 40.630857 42.203429 0 195.474286-142.226286 356.461714-325.046857 377.453714v86.710857c0 23.296-18.212571 42.203429-40.667429 42.203429-21.028571 0-38.326857-16.603429-40.411429-37.888l-0.219428-4.315429v-86.674285C288.548571 874.057143 146.285714 713.069714 146.285714 517.595429 146.285714 494.336 164.461714 475.428571 186.916571 475.428571s40.630857 18.907429 40.630858 42.203429c0 163.108571 127.341714 295.387429 284.452571 295.387429 157.110857 0 284.452571-132.242286 284.452571-295.387429 0-23.296 18.176-42.203429 40.594286-42.203429zM512 0a182.857143 182.857143 0 0 1 182.857143 182.857143v365.714286a182.857143 182.857143 0 0 1-365.714286 0V182.857143a182.857143 182.857143 0 0 1 182.857143-182.857143z m0 91.428571c-50.468571 0-91.428571 43.337143-91.428571 96.804572v354.962286c0 53.467429 40.96 96.804571 91.428571 96.804571s91.428571-43.337143 91.428571-96.804571V188.233143C603.428571 134.765714 562.468571 91.428571 512 91.428571z" p-id="13964"></path></svg>