<?xml version="1.0" standalone="no"?><!DOCTYPE svg PUBLIC "-//W3C//DTD SVG 1.1//EN" "http://www.w3.org/Graphics/SVG/1.1/DTD/svg11.dtd"><svg t="1615255687257" class="icon" viewBox="0 0 1024 1024" version="1.1" xmlns="http://www.w3.org/2000/svg" p-id="4618" xmlns:xlink="http://www.w3.org/1999/xlink" width="96" height="96"><defs><style type="text/css"></style></defs><path d="M512.1 119.5c216.5 0 392.6 176.1 392.6 392.6S728.6 904.8 512.1 904.8 119.5 728.6 119.5 512.1s176.1-392.6 392.6-392.6m0-54.8C265 64.7 64.7 265 64.7 512.1S265 959.6 512.1 959.6c247.1 0 447.4-200.3 447.4-447.4S759.2 64.7 512.1 64.7z" fill="#ffffff" p-id="4619"></path><path d="M422.9 665.1c-15.1 0-27.4-12.3-27.4-27.4V386.5c0-15.1 12.3-27.4 27.4-27.4 15.1 0 27.4 12.3 27.4 27.4v251.2c0 15.2-12.3 27.4-27.4 27.4zM601.3 665.1c-15.1 0-27.4-12.3-27.4-27.4V386.5c0-15.1 12.3-27.4 27.4-27.4s27.4 12.3 27.4 27.4v251.2c0 15.2-12.3 27.4-27.4 27.4z" fill="#ffffff" p-id="4620"></path></svg>