<?xml version="1.0" standalone="no"?><!DOCTYPE svg PUBLIC "-//W3C//DTD SVG 1.1//EN" "http://www.w3.org/Graphics/SVG/1.1/DTD/svg11.dtd">
<svg t="1636943928169"
     class="icon"
     viewBox="0 0 1024 1024"
     version="1.1"
     xmlns="http://www.w3.org/2000/svg"
     p-id="8015"
     xmlns:xlink="http://www.w3.org/1999/xlink"
    >
    <defs>
        <style type="text/css"></style>
    </defs>
    <path
        d="M426.666667 565.333333a21.333333 21.333333 0 0 0-21.333334 21.333334v128a21.333333 21.333333 0 0 0 42.666667 0v-128a21.333333 21.333333 0 0 0-21.333333-21.333334zM734.293333 130.346667A192 192 0 0 0 512 320v42.666667a21.333333 21.333333 0 0 0 42.666667 0v-37.12a153.386667 153.386667 0 0 1 129.28-153.6A149.333333 149.333333 0 0 1 853.333333 320v42.666667a21.333333 21.333333 0 0 0 42.666667 0v-36.906667a195.84 195.84 0 0 0-161.706667-195.413333z"
        p-id="8016"></path>
    <path
        d="M609.706667 405.333333H243.626667A115.626667 115.626667 0 0 0 128 520.96v259.413333A115.626667 115.626667 0 0 0 243.626667 896h366.08A115.626667 115.626667 0 0 0 725.333333 780.373333V520.96A115.626667 115.626667 0 0 0 609.706667 405.333333zM682.666667 780.373333A72.96 72.96 0 0 1 609.706667 853.333333H243.626667A72.96 72.96 0 0 1 170.666667 780.373333V520.96A72.96 72.96 0 0 1 243.626667 448h366.08A72.96 72.96 0 0 1 682.666667 520.96z"
        p-id="8017"></path>
</svg>