<?xml version="1.0" encoding="utf-8"?>
<!-- Generator: Adobe Illustrator 19.0.0, SVG Export Plug-In . SVG Version: 6.00 Build 0)  -->
<svg version="1.1" id="图层_1" xmlns="http://www.w3.org/2000/svg" xmlns:xlink="http://www.w3.org/1999/xlink" x="0px" y="0px"
	 viewBox="-257 349 96 96" style="enable-background:new -257 349 96 96;" xml:space="preserve">
<style type="text/css">
	.st0{fill:none;stroke:#000000;stroke-width:6;stroke-linecap:round;stroke-linejoin:round;}
</style>
<g id="ic_slide_card_colorprimary_nor">
	<path id="合并形状" d="M-245,363h-1c-1.7,0-3-1.3-3-3s1.3-3,3-3h74c1.7,0,3,1.3,3,3s-1.3,3-3,3h-1v44c0,6.6-5.4,12-12,12h-15.5
		l13.1,13.1c1.2,1.2,1.2,3.1,0,4.2s-3.1,1.2-4.2,0l-17-17c-0.1-0.1-0.2-0.2-0.3-0.4h-0.2c-0.1,0.1-0.2,0.2-0.3,0.4l-17,17
		c-1.2,1.2-3.1,1.2-4.2,0c-1.2-1.2-1.2-3.1,0-4.2l13.1-13.1H-233c-6.6,0-12-5.4-12-12V363z M-179,363h-60v44c0,3.3,2.7,6,6,6h48
		c3.3,0,6-2.7,6-6V363z"/>
	<polyline id="Stroke-9" class="st0" points="-227.5,398.5 -219.3,390.4 -203.8,390.4 -190.5,377 	"/>
</g>
</svg>
