<?xml version="1.0" standalone="no"?><!DOCTYPE svg PUBLIC "-//W3C//DTD SVG 1.1//EN" "http://www.w3.org/Graphics/SVG/1.1/DTD/svg11.dtd"><svg t="1614081022725" class="icon" viewBox="0 0 1024 1024" version="1.1" xmlns="http://www.w3.org/2000/svg" p-id="24003" xmlns:xlink="http://www.w3.org/1999/xlink" width="36" height="36"><defs><style type="text/css"></style></defs><path d="M200.296327 146.249899h168.902828c22.605857 0 40.932248-18.326391 40.932248-40.932248s-18.326391-40.932248-40.932248-40.932248H109.80229c-12.363585 0-23.437805 5.489014-30.942733 14.154371-0.231267 0.200568-0.465604 0.393973-0.692778 0.600681a41.162492 41.162492 0 0 0-2.866281 2.86628c-0.210801 0.232291-0.408299 0.471744-0.613983 0.708128-0.231267 0.267083-0.466628 0.531096-0.690732 0.804319-0.25378 0.309038-0.494257 0.624217-0.737804 0.938372-0.161682 0.209778-0.328481 0.415462-0.48607 0.62831a39.10053 39.10053 0 0 0-0.753154 1.059122c-0.130983 0.188288-0.265036 0.373507-0.392949 0.563841-0.246617 0.367367-0.480954 0.740874-0.714268 1.113358-0.118704 0.191358-0.2415 0.379647-0.358157 0.573051-0.221034 0.367367-0.430812 0.73985-0.639567 1.113357-0.118704 0.212848-0.239454 0.422625-0.355087 0.63752-0.189312 0.352017-0.367367 0.708128-0.545422 1.065262-0.12382 0.24764-0.249687 0.494257-0.367367 0.744967-0.154519 0.325411-0.299829 0.654916-0.445138 0.983397-0.128937 0.290619-0.258896 0.581238-0.381693 0.87595-0.12075 0.292666-0.233314 0.586354-0.346901 0.881067a43.531446 43.531446 0 0 0-0.384763 1.020236c-0.091074 0.257873-0.176009 0.51677-0.261967 0.775666-0.127913 0.381693-0.254803 0.763386-0.370437 1.149173-0.069585 0.231267-0.132006 0.463558-0.197498 0.695848a39.059598 39.059598 0 0 0-0.335644 1.24434c-0.054235 0.216941-0.101307 0.434905-0.150426 0.65287-0.099261 0.430812-0.197498 0.861624-0.283456 1.298575-0.044002 0.221034-0.078795 0.444115-0.118703 0.665149-0.077771 0.429789-0.154519 0.859577-0.217965 1.294483-0.037862 0.25685-0.065492 0.514723-0.098237 0.772596-0.050142 0.399089-0.104377 0.796132-0.144286 1.198291-0.033769 0.345877-0.053212 0.692778-0.078795 1.03968-0.022513 0.318248-0.052189 0.63445-0.067538 0.954744-0.033769 0.673335-0.051165 1.346671-0.051165 2.02103v259.399935c0 22.605857 18.326391 40.932248 40.932248 40.932248 22.603811 0 40.932248-18.327414 40.932248-40.932248V208.30114l232.930073 232.930073c7.993045 7.993045 18.467607 11.989055 28.943193 11.989056s20.951171-3.996011 28.943192-11.989056c15.985066-15.985066 15.985066-41.902342 0-57.886385L200.296327 146.249899zM947.088818 940.090938c0.24457-0.297782 0.476861-0.602727 0.712221-0.905626 0.169869-0.220011 0.344854-0.436952 0.51063-0.661055 0.252757-0.339738 0.493234-0.686638 0.734734-1.032516 0.138146-0.197498 0.277316-0.391926 0.412392-0.591471 0.240477-0.361227 0.470721-0.725524 0.698918-1.090845 0.124843-0.198521 0.251733-0.394996 0.372484-0.595564 0.216941-0.36225 0.423649-0.727571 0.629333-1.093914 0.121773-0.218988 0.245593-0.434905 0.364297-0.654916 0.186242-0.346901 0.36225-0.697895 0.536212-1.047866 0.12689-0.25378 0.255827-0.506537 0.376577-0.762363 0.151449-0.320295 0.294712-0.64366 0.437975-0.966001 0.130983-0.296759 0.26299-0.592494 0.387833-0.893346 0.118704-0.287549 0.230244-0.578168 0.341784-0.868787 0.13303-0.341784 0.26606-0.683569 0.388857-1.03047 0.091074-0.254803 0.174985-0.511653 0.260943-0.768503 0.127913-0.382717 0.254803-0.766456 0.37146-1.155312 0.068562-0.229221 0.130983-0.458441 0.195451-0.688685 0.11768-0.415462 0.234337-0.831948 0.337691-1.252527 0.053212-0.213871 0.099261-0.429789 0.149403-0.644683 0.100284-0.433882 0.198521-0.867764 0.285503-1.305739 0.042979-0.220011 0.077771-0.441045 0.11768-0.661056 0.077771-0.430812 0.154519-0.861624 0.218987-1.296529 0.037862-0.255827 0.064468-0.5137 0.098238-0.769526 0.051165-0.401136 0.105401-0.799202 0.144286-1.203408 0.033769-0.343831 0.054235-0.688685 0.078794-1.034562 0.022513-0.319272 0.053212-0.636496 0.068562-0.957815 0.032746-0.674359 0.051165-1.348718 0.051165-2.025123V654.737912c0-22.606881-18.325367-40.932248-40.932248-40.932248s-40.932248 18.325367-40.932248 40.932248v160.577208L641.577682 582.38607c-15.985066-15.985066-41.901319-15.985066-57.886385 0s-15.985066 41.901319 0 57.886385L820.78418 877.365338H651.880329c-22.606881 0-40.932248 18.325367-40.932248 40.932248s18.325367 40.932248 40.932248 40.932248h259.395842c12.362562 0 23.436782-5.487991 30.941709-14.153348l0.033769-0.028652c0.218988-0.190335 0.442068-0.373507 0.657986-0.568959a41.624003 41.624003 0 0 0 2.874467-2.874467c0.193405-0.214894 0.376577-0.436952 0.566912-0.654916 0.246617-0.284479 0.497327-0.566912 0.737804-0.858554z" p-id="24004"></path></svg>