<?xml version="1.0" encoding="UTF-8"?>
<svg width="48"
     height="48"
     viewBox="0 0 96 96"
     version="1.1"
     xmlns="http://www.w3.org/2000/svg"
     xmlns:xlink="http://www.w3.org/1999/xlink">
    <!-- Generator: Sketch 64 (93537) - https://sketch.com -->
    <title>ic_voice_select</title>
    <desc>Created with Sketch.</desc>
    <defs>
        <path
            d="M56,42 C58.209139,42 60,43.790861 60,46 C60,61.2119282 48.6780022,73.7794622 34.0010974,75.7355111 L34,84.0799542 C34,86.2890932 32.209139,88.0799542 30,88.0799542 C27.790861,88.0799542 26,86.2890932 26,84.0799542 L25.9999038,75.7356445 C11.3225127,73.7800337 0,61.2122741 0,46 C0,43.790861 1.790861,42 4,42 C6.209139,42 8,43.790861 8,46 C8,58.1502645 17.8497355,68 30,68 C42.1502645,68 52,58.1502645 52,46 C52,43.790861 53.790861,42 56,42 Z M30,0 C38.836556,-1.623249e-15 46,7.163444 46,16 L46,46 C46,54.836556 38.836556,62 30,62 C21.163444,62 14,54.836556 14,46 L14,16 C14,7.163444 21.163444,1.623249e-15 30,0 Z"
            id="path-1"></path>
    </defs>
    <g
        id="port"
        stroke="none"
        stroke-width="1"
        fill="none"
        fill-rule="evenodd">
        <g
            id="message_conversation_record"
            transform="translate(-672.000000, -2863.000000)">
            <g
                id="BottomNavigationBar/Light/Port/Basic/Item_5备份"
                transform="translate(0.000000, 2832.000000)">
                <g
                    id="Bars/BottomNavigationBar/item_normal"
                    transform="translate(576.000000, 31.000000)">
                    <g
                        id="ic/favourites/ic_favourites"
                        transform="translate(96.000000, 0.000000)">
                        <g id="symbol/frame/symbol_grid24"></g>
                        <g
                            id="voice"
                            transform="translate(18.000000, 5.000000)">
                            <mask
                                id="mask-2"
                                fill="white">
                                <use xlink:href="#path-1"></use>
                            </mask>
                            <use
                                id="合并形状"
                                fill="#007DFF"
                                xlink:href="#path-1"></use>
                        </g>
                    </g>
                </g>
            </g>
        </g>
    </g>
</svg>