<?xml version="1.0" encoding="UTF-8"?>
<svg
     viewBox="0 0 96 96"
     version="1.1"
     xmlns="http://www.w3.org/2000/svg"
     xmlns:xlink="http://www.w3.org/1999/xlink">
    <!-- Generator: Sketch 64 (93537) - https://sketch.com -->
    <title>画板</title>
    <desc>Created with Sketch.</desc>
    <g
        id="画板"
        stroke="none"
        stroke-width="1"
        fill="none"
        fill-rule="evenodd">
        <path
            d="M48,4 C72.300529,4 92,21.7295239 92,43.6 C92,65.4704761 72.300529,83.2 48,83.2 C45.9607633,83.2 43.9539278,83.0751465 41.9884161,82.8334696 C40.6843695,82.6892385 39.4141594,82.700786 38.1775273,82.8649478 C36.847326,83.0415309 35.6994569,83.3771521 34.7339201,83.8718116 L34.7661147,83.8555523 C33.0487805,84.7561432 31.225276,85.6826003 29.2956012,86.6349235 C25.7700359,88.3748423 22.0893487,89.7994466 18.2535395,90.9087363 C16.4743091,91.4232776 14.4529241,92.2401636 13.6409758,91.7846672 C12.8290275,91.3291708 14.0971951,90.0430901 14.6763177,88.9899684 C16.1449862,86.3192268 17.3494791,83.8617997 18.2897963,81.6176871 C18.8047445,80.3887385 19.2853011,79.1485062 19.7314662,77.8969902 C20.0227891,76.728078 20.0515468,75.7849082 19.8158917,75.066317 C19.5789429,74.3437809 19.0762809,73.5960577 18.3079056,72.8231476 C9.51545684,65.5853239 4,55.1723537 4,43.6 C4,21.7295239 23.699471,4 48,4 Z"
            id="Combined-Shape"
            fill="#007DFF"></path>
    </g>
</svg>