<?xml version="1.0" standalone="no"?><!DOCTYPE svg PUBLIC "-//W3C//DTD SVG 1.1//EN" "http://www.w3.org/Graphics/SVG/1.1/DTD/svg11.dtd"><svg t="1614067309222" class="icon" viewBox="0 0 1024 1024" version="1.1" xmlns="http://www.w3.org/2000/svg" p-id="5394" xmlns:xlink="http://www.w3.org/1999/xlink"><defs><style type="text/css"></style></defs><path d="M517.492364 1021.998545c-21.271273 0-38.306909-12.753455-51.060364-29.78909-38.306909-42.542545-276.666182-289.466182-314.973091-353.28-38.306909-63.860364-59.578182-140.474182-59.578182-212.852364C91.834182 191.953455 283.368727 0.465455 517.445818 0.465455c238.359273 0 425.658182 187.298909 429.940364 425.658181 0 72.378182-21.317818 144.756364-59.578182 212.852364-38.353455 63.813818-272.430545 310.737455-315.019636 353.28-12.753455 17.035636-34.024727 29.789091-55.342546 29.789091z m0-936.448c-187.252364 0-340.526545 153.227636-340.526546 340.526546 0 59.578182 17.035636 119.156364 51.106909 170.263273 25.506909 42.589091 187.298909 217.088 293.701818 327.773091 106.402909-114.967273 268.148364-285.184 293.701819-327.773091 34.024727-59.578182 51.060364-114.920727 51.060363-170.263273-8.517818-191.534545-157.463273-340.526545-349.044363-340.526546z m0 510.789819A170.775273 170.775273 0 0 1 347.229091 426.077091a170.775273 170.775273 0 0 1 170.263273-170.263273 170.775273 170.775273 0 0 1 170.263272 170.263273 170.775273 170.775273 0 0 1-170.263272 170.263273z m0-255.394909a85.364364 85.364364 0 0 0-85.131637 85.178181c0 46.778182 38.306909 85.085091 85.178182 85.085091a85.364364 85.364364 0 0 0 85.085091-85.131636 85.364364 85.364364 0 0 0-85.131636-85.131636z" fill="#999999" p-id="5395"></path></svg>