<?xml version="1.0" standalone="no"?><!DOCTYPE svg PUBLIC "-//W3C//DTD SVG 1.1//EN" "http://www.w3.org/Graphics/SVG/1.1/DTD/svg11.dtd"><svg t="1614064612018" class="icon" viewBox="0 0 1024 1024" version="1.1" xmlns="http://www.w3.org/2000/svg" p-id="2026" xmlns:xlink="http://www.w3.org/1999/xlink"><defs><style type="text/css"></style></defs><path d="M512 984C251.7 984 40 772.3 40 512S251.8 40 512 40s472 211.7 472 472-211.7 472-472 472m0-876.6c-223.1 0-404.6 181.5-404.6 404.6 0 223.1 181.5 404.6 404.6 404.6 223.1 0 404.6-181.5 404.6-404.6 0-223.1-181.5-404.6-404.6-404.6m1.1 679.9c-94 0-181.1-42.5-239.1-116.5-11.5-14.7-8.9-35.8 5.8-47.3 14.6-11.5 35.8-8.9 47.3 5.8 45.1 57.6 112.9 90.7 186 90.7 73.9 0 142.1-33.6 187.2-92.2 11.4-14.8 32.5-17.6 47.3-6.2 14.8 11.4 17.6 32.5 6.2 47.3-58 75.2-145.7 118.4-240.7 118.4M361.4 515.4c-27.9 0-50.6-22.6-50.6-50.6v-67.4c0-28 22.6-50.6 50.6-50.6 27.9 0 50.6 22.6 50.6 50.6v67.4c0 27.9-22.7 50.6-50.6 50.6m303.4 0c-27.9 0-50.6-22.6-50.6-50.6v-67.4c0-28 22.7-50.6 50.6-50.6 27.9 0 50.6 22.6 50.6 50.6v67.4c0 27.9-22.7 50.6-50.6 50.6m0 0" p-id="2027"></path></svg>