<svg width="24.000000" height="24.000000" viewBox="0 0 24 24" fill="none" xmlns="http://www.w3.org/2000/svg" xmlns:xlink="http://www.w3.org/1999/xlink">
	<desc>
			Created with Pixso.
	</desc>
	<defs/>
	<g opacity="0.000000">
		<rect id="矩形" width="24.000000" height="24.000000" fill="#000000" fill-opacity="1.000000"/>
	</g>
	<path id="路径" d="M15.17 8C15.01 8.01 14.88 8.1 14.79 8.28L12 13.5L9.28 8.22C9.25 8.15 9.19 8.09 9.13 8.05C9.05 8.01 8.97 8 8.88 8L7.46 8C7.33 8 7.23 8.03 7.15 8.11C7.07 8.18 7.02 8.28 7 8.4C6.98 8.51 7 8.61 7.06 8.7L10.66 15.15C10.82 15.45 11.01 15.67 11.24 15.79C11.48 15.93 11.78 16 12.14 16C12.41 16 12.66 15.92 12.89 15.76C13.12 15.59 13.3 15.4 13.43 15.18L13.45 15.15L16.94 8.84C16.99 8.71 17.01 8.58 16.98 8.44C16.96 8.32 16.9 8.21 16.81 8.12C16.72 8.04 16.61 8 16.48 8L15.17 8Z" fill="#000000" fill-opacity="0.901961" fill-rule="evenodd"/>
	<path id="形状" d="M12.0001 22.99C12.2068 22.99 12.4067 22.9667 12.6001 22.92C13.6764 22.5892 14.6749 22.1347 15.5961 21.5566C16.1412 21.2144 16.6593 20.8289 17.15 20.4C17.8285 19.8072 18.4277 19.1562 18.9476 18.4473C19.4393 17.7768 19.8601 17.0544 20.2101 16.28C20.4545 15.7413 20.6575 15.1908 20.8188 14.6284L20.8188 14.6283C21.1331 13.5339 21.29 12.3945 21.29 11.21L21.29 6.40997C21.29 5.98999 21.1868 5.61664 20.9801 5.28998C20.7667 4.96332 20.4768 4.71332 20.1101 4.53998L12.9601 1.19995C12.7449 1.09705 12.5247 1.03021 12.2997 0.999512L12.2997 0.999512L12.2996 0.999512C12.204 0.986511 12.1074 0.97998 12.0101 0.97998C11.9127 0.97998 11.8162 0.986511 11.7206 0.999512L11.7206 0.999512L11.7206 0.999512C11.4955 1.03021 11.2753 1.09705 11.0601 1.19995L3.89014 4.53998C3.65894 4.64923 3.45825 4.789 3.28796 4.95923C3.18823 5.05902 3.09888 5.16925 3.02014 5.28998C2.97095 5.36761 2.92773 5.44788 2.89026 5.53082C2.77014 5.79675 2.71008 6.08978 2.71008 6.40997L2.71008 11.18C2.71008 11.9783 2.78625 12.7615 2.93848 13.5295L2.93848 13.5296C3.12183 14.455 3.41577 15.3584 3.82007 16.24C4.19739 17.0667 4.65234 17.8351 5.18506 18.5453C5.68762 19.2154 6.25928 19.8336 6.90002 20.4C7.5282 20.9551 8.19849 21.4363 8.91113 21.8435L8.91113 21.8435C9.69617 22.2921 10.5325 22.6509 11.42 22.92C11.6134 22.9667 11.8068 22.99 12.0001 22.99ZM7.88013 19.26C9.04004 20.2933 10.3667 21.0333 11.8601 21.48C11.9534 21.5133 12.0635 21.5133 12.1901 21.48C13.6968 21.0333 15.0201 20.3 16.16 19.28C17.3068 18.2667 18.2001 17.06 18.8401 15.66C19.098 15.0958 19.304 14.5181 19.4579 13.9268C19.686 13.0508 19.8 12.1453 19.8 11.21L19.8 6.40997C19.8 6.31 19.7667 6.19666 19.7001 6.07001C19.6735 6.01001 19.6034 5.95331 19.4901 5.90002L12.3401 2.57001C12.2268 2.52332 12.1134 2.5 12.0001 2.5C11.8867 2.5 11.7834 2.52332 11.6901 2.57001L4.51013 5.90002C4.41675 5.95331 4.3468 6.01001 4.30005 6.07001C4.2334 6.19666 4.20007 6.31 4.20007 6.40997L4.20007 11.18C4.20007 12.0176 4.29407 12.8329 4.48218 13.626C4.64282 14.3036 4.87207 14.965 5.17004 15.61C5.46484 16.2481 5.81287 16.8481 6.21423 17.41C6.69348 18.081 7.24878 18.6976 7.88013 19.26Z" clip-rule="evenodd" fill="#000000" fill-opacity="0.901961" fill-rule="evenodd"/>
</svg>
