<?xml version="1.0" encoding="UTF-8"?>
<svg width="40px" height="40px" viewBox="0 0 40 40" version="1.1" xmlns="http://www.w3.org/2000/svg"
     xmlns:xlink="http://www.w3.org/1999/xlink">
    <title>light</title>
    <g id="light" stroke="none" stroke-width="1" fill="none" fill-rule="evenodd">
        <g id="Public/avatar/1" transform="translate(-0.000000, -0.000000)">
            <path d="M1.4791142e-30,20 C1.22731686e-15,31.05 8.95,40 20,40 C31.05,40 40,31.05 40,20 C40,8.95 31.05,6.15826834e-16 20,1.45446229e-30 C8.95,-6.16911036e-16 -1.22731686e-15,8.95 1.4791142e-30,20 Z"
                  id="Fill-1备份" fill="#ED6F21"
                  transform="translate(20.000000, 20.000000) scale(-1, 1) rotate(-270.000000) translate(-20.000000, -20.000000) "></path>
            <g id="编组-2"
               transform="translate(19.970213, 20.209552) rotate(60.000000) translate(-19.970213, -20.209552) translate(5.109930, 7.803429)">
                <path d="M15.2737056,7.25980776 L16.4955765,3.15543957 C16.5702307,2.90466976 16.5014724,2.63315586 16.3164606,2.44814404 L14.077075,0.208758464 C13.8959977,0.0276811442 13.6316916,-0.0423267365 13.3847201,0.0253714214 L10.273576,0.878176995 C10.030833,0.944716055 9.84118801,1.13436103 9.77464895,1.37710405 L8.92693389,4.46967726 C8.85653928,4.72648584 8.93518024,5.00111736 9.13083439,5.18174265 L12.2732927,8.08281803 C12.453998,8.24964279 12.7079468,8.31151075 12.9451341,8.24649458 L14.7790496,7.74379419 C15.0164543,7.67871845 15.2034694,7.4957372 15.2737056,7.25980776 Z M14.9877345,17.5524384 L13.7658635,21.6568066 C13.6912093,21.9075764 13.7599677,22.1790903 13.9449795,22.3641021 L16.1843651,24.6034877 C16.3654424,24.784565 16.6297484,24.8545729 16.87672,24.7868747 L19.9878641,23.9340692 C20.2306071,23.8675301 20.4202521,23.6778851 20.4867911,23.4351421 L21.3345062,20.3425689 C21.4049008,20.0857603 21.3262598,19.8111288 21.1306057,19.6305035 L17.9881474,16.7294281 C17.807442,16.5626034 17.5534933,16.5007354 17.3163059,16.5657516 L15.4823905,17.068452 C15.2449858,17.1335277 15.0579707,17.316509 14.9877345,17.5524384 Z"
                      id="形状结合" fill="#F5B38B"></path>
                <polygon id="路径" fill="#FFFFFF" fill-rule="nonzero" opacity="0.400000006"
                         transform="translate(16.043806, 12.306494) scale(-1, 1) rotate(-255.000000) translate(-16.043806, -12.306494) "
                         points="17.0858303 4.72102115 14.9342728 4.73060137 15.0017817 19.8919672 17.1533392 19.882387"></polygon>
                <path d="M4.53780392,11.9192343 L11.5485713,11.9192343 C11.7699636,11.9192343 11.9494376,12.0987083 11.9494376,12.3201006 L11.9494376,16.0492696 C11.9494197,16.270655 11.7699566,16.4501261 11.5485713,16.4501538 L4.53780392,16.4504664 C4.31641156,16.4504942 4.13692959,16.2710282 4.13691972,16.0496358 C4.13691972,16.0496299 4.13691972,16.0496239 4.1369376,16.049618 L4.1369376,12.3201006 C4.1369376,12.0987083 4.31641156,11.9192343 4.53780392,11.9192343 Z"
                      id="矩形备份" fill="#FFEEE3"
                      transform="translate(8.043188, 14.184859) scale(-1, 1) rotate(-615.000000) translate(-8.043188, -14.184859) "></path>
                <path d="M-0.30594608,13.1692343 L6.70482127,13.1692343 C6.92621363,13.1692343 7.1056876,13.3487083 7.1056876,13.5701006 L7.1056876,17.2992696 C7.10566972,17.520655 6.92620665,17.7001261 6.70482127,17.7001538 L-0.305946081,17.7004664 C-0.527338437,17.7004942 -0.706820407,17.5210282 -0.706830279,17.2996358 C-0.706830279,17.2996299 -0.706830279,17.2996239 -0.706812405,17.299618 L-0.706812405,13.5701006 C-0.706812405,13.3487083 -0.527338438,13.1692343 -0.30594608,13.1692343 Z"
                      id="矩形备份-2" fill="#FFEEE3"
                      transform="translate(3.199438, 15.434859) scale(-1, 1) rotate(-615.000000) translate(-3.199438, -15.434859) "></path>
                <path d="M23.0157444,7.0701602 L30.0265117,7.0701602 C30.2479041,7.0701602 30.4273781,7.24963417 30.4273781,7.47102652 L30.4273781,11.2001955 C30.4273602,11.4215809 30.2478971,11.601052 30.0265117,11.6010797 L23.0157444,11.6013923 C22.794352,11.6014201 22.6148701,11.4219541 22.6148602,11.2005617 C22.6148602,11.2005558 22.6148602,11.2005498 22.6148781,11.2005439 L22.6148781,7.47102652 C22.6148781,7.24963417 22.794352,7.0701602 23.0157444,7.0701602 Z"
                      id="矩形备份-4" fill="#FFEEE3"
                      transform="translate(26.521128, 9.335785) scale(-1, 1) rotate(-615.000000) translate(-26.521128, -9.335785) "></path>
                <path d="M18.1719944,8.3201602 L25.1827617,8.3201602 C25.4041541,8.3201602 25.5836281,8.49963417 25.5836281,8.72102652 L25.5836281,12.4501955 C25.5836102,12.6715809 25.4041471,12.851052 25.1827617,12.8510797 L18.1719944,12.8513923 C17.950602,12.8514201 17.7711201,12.6719541 17.7711102,12.4505617 C17.7711102,12.4505558 17.7711102,12.4505498 17.7711281,12.4505439 L17.7711281,8.72102652 C17.7711281,8.49963417 17.950602,8.3201602 18.1719944,8.3201602 Z"
                      id="矩形备份-3" fill="#FFEEE3"
                      transform="translate(21.677378, 10.585785) scale(-1, 1) rotate(-615.000000) translate(-21.677378, -10.585785) "></path>
                <path d="M10.2754801,9.17594967 L19.5958011,9.17594967 C20.0423727,9.17594967 20.4043906,9.53796753 20.4043906,9.9845392 L20.4043906,14.9669558 C20.4043567,15.4135142 20.0423595,15.7755266 19.5958011,15.7755793 L10.2754801,15.7759705 C9.82890846,15.7760232 9.4668754,15.4140205 9.46685666,14.9674488 C9.46685666,14.9674375 9.46685666,14.9674262 9.4668906,14.9674149 L9.4668906,9.9845392 C9.4668906,9.53796753 9.82890846,9.17594967 10.2754801,9.17594967 Z"
                      id="矩形" fill="#FFFFFF"
                      transform="translate(14.935641, 12.475977) scale(-1, 1) rotate(-255.000000) translate(-14.935641, -12.475977) "></path>
            </g>
        </g>
    </g>
</svg>