<?xml version="1.0" encoding="UTF-8"?>
<svg width="288px" height="288px" viewBox="0 0 288 288" version="1.1" xmlns="http://www.w3.org/2000/svg" xmlns:xlink="http://www.w3.org/1999/xlink">
    <title>编组 3备份</title>
    <defs>
        <path d="M62.3818013,16.031837 C29.8329769,31.5936336 -12.6092005,70.6340015 3.54581378,127.142067 C9.27417343,148.992065 35.5558235,162.809693 45.5264495,189.957058 C55.4970755,217.104423 80.6769027,238.5 126.610787,239.962742 C172.544671,241.425476 203.838546,199.544267 211.985062,162.746048 C220.131579,125.947829 242.391494,33.2549393 160.907378,4.69081451 C126.188198,-4.69545223 94.9306257,0.470040341 62.3818013,16.031837 Z" id="path-1"></path>
        <linearGradient x1="50%" y1="0%" x2="50%" y2="100%" id="linearGradient-3">
            <stop stop-color="#8FD9FD" offset="0%"></stop>
            <stop stop-color="#E5F8FF" offset="100%"></stop>
        </linearGradient>
        <linearGradient x1="56.0602817%" y1="43.2944194%" x2="19.856543%" y2="59.6669106%" id="linearGradient-4">
            <stop stop-color="#95B2C5" offset="0%"></stop>
            <stop stop-color="#ABC3D2" offset="100%"></stop>
        </linearGradient>
        <linearGradient x1="50%" y1="49.1401784%" x2="55.941329%" y2="51.9594683%" id="linearGradient-5">
            <stop stop-color="#CFD9D1" offset="0%"></stop>
            <stop stop-color="#B8C2BA" offset="100%"></stop>
        </linearGradient>
        <linearGradient x1="50%" y1="0%" x2="50%" y2="100%" id="linearGradient-6">
            <stop stop-color="#0F3668" offset="0%"></stop>
            <stop stop-color="#274A57" offset="100%"></stop>
        </linearGradient>
        <linearGradient x1="50%" y1="0%" x2="50%" y2="100%" id="linearGradient-7">
            <stop stop-color="#2B3959" offset="0%"></stop>
            <stop stop-color="#091831" offset="100%"></stop>
        </linearGradient>
        <path d="M62.3818013,16.031837 C29.8329769,31.5936336 -12.6092005,70.6340015 3.54581378,127.142067 C9.27417343,148.992065 35.5558235,162.809693 45.5264495,189.957058 C55.4970755,217.104423 80.6769027,238.5 126.610787,239.962742 C172.544671,241.425476 203.838546,199.544267 211.985062,162.746048 C220.131579,125.947829 242.391494,33.2549393 160.907378,4.69081451 C126.188198,-4.69545223 94.9306257,0.470040341 62.3818013,16.031837 Z" id="path-8"></path>
        <linearGradient x1="31.0881275%" y1="16.6849058%" x2="52.1611396%" y2="50%" id="linearGradient-10">
            <stop stop-color="#20597F" offset="0%"></stop>
            <stop stop-color="#1D5076" offset="17.5787035%"></stop>
            <stop stop-color="#070C2A" offset="100%"></stop>
        </linearGradient>
        <linearGradient x1="50%" y1="-47.9726271%" x2="50%" y2="100%" id="linearGradient-11">
            <stop stop-color="#B9CECF" offset="0%"></stop>
            <stop stop-color="#7D95A0" offset="100%"></stop>
        </linearGradient>
        <linearGradient x1="38.0614143%" y1="5.57774617%" x2="85.3675341%" y2="94.6540136%" id="linearGradient-12">
            <stop stop-color="#244B7A" offset="0%"></stop>
            <stop stop-color="#01040E" offset="100%"></stop>
        </linearGradient>
        <linearGradient x1="43.7344971%" y1="17.5357576%" x2="50%" y2="71.0626346%" id="linearGradient-13">
            <stop stop-color="#B7CECF" offset="0%"></stop>
            <stop stop-color="#698192" offset="100%"></stop>
        </linearGradient>
        <linearGradient x1="30.1051574%" y1="15.9628291%" x2="50%" y2="70.6055929%" id="linearGradient-14">
            <stop stop-color="#B9CECF" offset="0%"></stop>
            <stop stop-color="#7D95A0" offset="100%"></stop>
        </linearGradient>
        <linearGradient x1="41.9939339%" y1="62.5226162%" x2="84.9997545%" y2="21.1750622%" id="linearGradient-15">
            <stop stop-color="#30565E" offset="0%"></stop>
            <stop stop-color="#163947" offset="100%"></stop>
        </linearGradient>
        <linearGradient x1="50%" y1="-51.7558766%" x2="50%" y2="100%" id="linearGradient-16">
            <stop stop-color="#FFFFFF" stop-opacity="0.5" offset="0%"></stop>
            <stop stop-color="#E7F9FF" stop-opacity="0" offset="100%"></stop>
        </linearGradient>
        <linearGradient x1="48.6112041%" y1="44.1563683%" x2="50%" y2="59.0319524%" id="linearGradient-17">
            <stop stop-color="#778C9F" offset="0%"></stop>
            <stop stop-color="#646F80" offset="100%"></stop>
        </linearGradient>
        <linearGradient x1="56.6596638%" y1="100%" x2="56.6596638%" y2="0%" id="linearGradient-18">
            <stop stop-color="#646F80" offset="0%"></stop>
            <stop stop-color="#778C9F" offset="100%"></stop>
        </linearGradient>
        <linearGradient x1="50%" y1="0%" x2="50%" y2="100%" id="linearGradient-19">
            <stop stop-color="#0D346A" offset="0%"></stop>
            <stop stop-color="#2C4F54" offset="100%"></stop>
        </linearGradient>
        <path d="M76.6123763,29.6220331 C77.6007333,29.6220331 78.9302109,31.3539124 78.8022708,35.0742235 C78.6743307,38.7945347 74.4440702,43.905157 70.8365049,44.6557376 C67.2289396,45.4063181 55.0486309,35.9763608 49.9346128,27.6961206 C48.4387956,27.3947756 47.313564,26.4269748 46.4184774,25.3520514 C45.5233907,24.2771281 45.7943852,22.1676766 46.383494,22.1439585 C47.1899282,22.1114907 49.8276968,23.8582231 50.887239,25.6669525 C52.1974661,27.9036228 57.9555916,31.78734 68.1616155,37.3181043 C70.7846519,37.0017709 71.780825,35.391425 71.1501347,32.4870664 C70.2040993,28.1305286 75.6240193,29.6220331 76.6123763,29.6220331 Z" id="path-20"></path>
        <linearGradient x1="14.0945791%" y1="36.8718538%" x2="85.9054209%" y2="60.9710421%" id="linearGradient-22">
            <stop stop-color="#FECDB9" offset="0%"></stop>
            <stop stop-color="#FECBB7" offset="78.4746503%"></stop>
            <stop stop-color="#FDC4B2" offset="100%"></stop>
        </linearGradient>
        <path d="M17.6626345,0 C13.6320847,0.932740695 10.6917592,2.28479987 8.84165796,4.05617753 C6.9915567,5.82755518 4.0512312,10.2217425 0.0206814494,17.2387396 C1.17408569,29.5546993 2.26460864,37.9960271 3.29225028,42.5627228 C4.31989193,47.1294185 6.64280586,50.4103695 10.2609921,52.405576 C13.8945598,53.0799875 16.0111208,51.9202192 16.6106749,48.9262709 C17.210229,45.9323226 16.7761028,38.6402273 15.3082962,27.049985 C14.8281877,22.9831825 14.684241,19.0536251 14.8764561,15.2613128 C15.0686711,11.4690004 15.9973972,6.38189619 17.6626345,0 Z" id="path-23"></path>
        <linearGradient x1="-7.19727266%" y1="56.6155461%" x2="37.6032511%" y2="56.6155461%" id="linearGradient-25">
            <stop stop-color="#2D2E42" offset="0%"></stop>
            <stop stop-color="#121324" offset="100%"></stop>
        </linearGradient>
        <filter x="-8.5%" y="-3.9%" width="117.0%" height="107.9%" filterUnits="objectBoundingBox" id="filter-26">
            <feGaussianBlur stdDeviation="0.511384437" in="SourceGraphic"></feGaussianBlur>
        </filter>
        <path d="M0.957487136,12.509598 C0.957487136,9.67370538 1.53004924,9.63496151 4.75269987,5.47925472 C7.97535051,1.32354792 8.36065417,4.4957212 11.24574,1.19765244 C14.1308258,-2.10041631 19.9572346,2.18043859 21.2069234,4.81686138 C22.4566122,7.45328417 31.7747307,32.506157 29.5717511,42.5368268 C27.3687715,52.5674967 17.3985436,53.1654029 12.208922,53.8606518 C7.01930035,54.5559006 1.41105838,53.1654029 0.470352792,51.045154 C-0.156784264,49.6316547 -0.156784264,47.5345193 0.470352792,44.7537478 C3.64012514,31.703138 5.35755481,24.0758594 5.62264178,21.8719121 C6.02027224,18.5659911 4.69627024,17.5653137 2.8853892,17.0610223 C1.54347595,16.6873283 0.957487136,15.3454906 0.957487136,12.509598 Z" id="path-27"></path>
        <filter x="-33.7%" y="-9.0%" width="167.5%" height="118.0%" filterUnits="objectBoundingBox" id="filter-29">
            <feGaussianBlur stdDeviation="1.00720443" in="SourceGraphic"></feGaussianBlur>
        </filter>
        <path d="M50.613362,27.3770904 C51.8777901,27.276325 53.1799064,28.1193529 53.6961781,29.8511705 C54.2124499,31.582988 54.2102578,33.4631936 53.848419,35.4148067 C53.4865801,37.3664199 53.1853362,37.774948 52.0784819,38.576373 C50.9716276,39.3777979 49.4098047,40.3911842 48.3937026,39.5195528 C47.3776004,38.6479214 46.5920703,34.5200257 47.3767724,31.4046489 C48.1614746,28.289272 49.348934,27.4778559 50.613362,27.3770904 Z" id="path-30"></path>
        <path d="M6.01690823,0.0773000043 C5.87048111,0.397482526 5.75325354,0.637384893 5.6652255,0.797007105 C5.28618052,1.48433355 4.90025693,1.95889938 4.50745474,2.22070459 C3.61746328,2.81388967 1.44316108,4.66723611 0.225464431,6.93749869 C-0.992232215,9.20776127 3.03324814,9.561058 4.8727115,10.7728015 C6.71217485,11.9845451 10.2559232,15.1710342 12.8041756,15.8564621 C15.352428,16.5418899 17.7314622,17.4995353 19.1067817,16.9701053 C20.0236614,16.617152 20.3561783,16.0377045 20.1043324,15.231763 C18.9718084,14.1863039 17.7649732,13.4307572 16.4838268,12.9651231 C14.5621072,12.2666718 11.6098993,8.35859625 11.584656,6.11465536 C11.5688896,4.7131419 11.8525315,3.33360286 12.4355817,1.97603822 L12.4355929,1.97604303 C12.495527,1.83649345 12.4309859,1.67477999 12.2914363,1.6148459 C12.277522,1.60886993 12.2631378,1.60405352 12.2484305,1.60044579 C11.8364652,1.49939 11.4062145,1.52728112 10.9576784,1.68411914 C10.1695269,1.95970926 9.77449506,1.93022117 9.40174134,1.81435303 C8.77005636,1.61799775 7.75742803,1.04870971 7.09436985,0.450205727 C6.97413629,0.341677902 6.81427294,0.183550081 6.61477979,-0.0241777373 L6.614777,-0.0241750618 C6.47451927,-0.170222347 6.24242319,-0.174915706 6.09637591,-0.0346579725 C6.06307325,-0.00267548234 6.03611139,0.0353097039 6.01690823,0.0773000043 Z" id="path-32"></path>
        <path d="M4.83130301,0.153427768 C4.73203697,0.367372961 4.65105745,0.531109738 4.58836446,0.6446381 C4.28136935,1.2005639 3.96880314,1.58440391 3.65066582,1.79615812 C2.9298463,2.27594017 1.1688412,3.77497038 0.182607556,5.61121217 C-0.803626092,7.44745397 2.45668031,7.73320867 3.94649361,8.71329536 C5.4363069,9.69338205 8.30645018,12.2706895 10.370324,12.8250796 C12.4341979,13.3794698 14.361019,14.1540359 15.4749141,13.7258205 C16.2175109,13.4403435 16.4868221,12.9716728 16.2828477,12.3198083 C15.3655968,11.4742164 14.3881601,10.8631125 13.3505374,10.4864966 C11.7941034,9.9215728 9.40305892,6.76062932 9.38261394,4.94567713 C9.37006476,3.83165571 9.591717,2.73479976 10.0475706,1.6551093 L10.0475825,1.6551143 C10.1066562,1.51519796 10.0411204,1.35388462 9.90120405,1.29481087 C9.8840102,1.28755149 9.86612199,1.28206134 9.84781607,1.27842532 C9.53623313,1.21653704 9.21189907,1.244447 8.8748139,1.36215519 C8.23647635,1.58505896 7.91653319,1.5612083 7.61463348,1.46749142 C7.10302085,1.30867465 6.28287559,0.848221086 5.74585327,0.364136985 C5.66279673,0.289267943 5.55639071,0.185214538 5.4266352,0.0519767685 L5.42669684,0.0519167397 C5.28538866,-0.0931837419 5.05320857,-0.0962580093 4.90810809,0.0450501712 C4.8761227,0.0761995934 4.85009412,0.112927827 4.83130301,0.153427768 Z" id="path-34"></path>
        <linearGradient x1="100%" y1="0.623698045%" x2="3.55271368e-13%" y2="93.7593748%" id="linearGradient-36">
            <stop stop-color="#FFFFFF" stop-opacity="0" offset="0%"></stop>
            <stop stop-color="#FFFFFF" stop-opacity="0.845655135" offset="25.2922858%"></stop>
            <stop stop-color="#FFFFFF" offset="50.1393138%"></stop>
            <stop stop-color="#FFFFFF" stop-opacity="0.828083055" offset="77.6251093%"></stop>
            <stop stop-color="#FFFFFF" stop-opacity="0" offset="100%"></stop>
        </linearGradient>
        <linearGradient x1="100%" y1="0.6419031%" x2="1.00524476%" y2="98.3657575%" id="linearGradient-37">
            <stop stop-color="#FFFFFF" stop-opacity="0" offset="0%"></stop>
            <stop stop-color="#FFFFFF" stop-opacity="0.875720967" offset="26.3029939%"></stop>
            <stop stop-color="#FFFFFF" offset="51.4122596%"></stop>
            <stop stop-color="#FFFFFF" stop-opacity="0.882036546" offset="73.5549607%"></stop>
            <stop stop-color="#FFFFFF" stop-opacity="0" offset="100%"></stop>
        </linearGradient>
        <linearGradient x1="94.8431477%" y1="0.623698045%" x2="0.56219851%" y2="92.2361089%" id="linearGradient-38">
            <stop stop-color="#FFFFFF" stop-opacity="0" offset="0%"></stop>
            <stop stop-color="#FFFFFF" stop-opacity="0.817937402" offset="26.9312719%"></stop>
            <stop stop-color="#FFFFFF" offset="53.8488855%"></stop>
            <stop stop-color="#FFFFFF" stop-opacity="0.851121238" offset="78.1386582%"></stop>
            <stop stop-color="#FFFFFF" stop-opacity="0" offset="100%"></stop>
        </linearGradient>
        <linearGradient x1="67.2163794%" y1="0%" x2="32.7836206%" y2="100%" id="linearGradient-39">
            <stop stop-color="#FFFFFF" stop-opacity="0" offset="0%"></stop>
            <stop stop-color="#FFFFFF" offset="47.7495747%"></stop>
            <stop stop-color="#FFFFFF" stop-opacity="0.0517100087" offset="100%"></stop>
        </linearGradient>
        <linearGradient x1="67.2161459%" y1="0%" x2="32.7838541%" y2="100%" id="linearGradient-40">
            <stop stop-color="#FFFFFF" stop-opacity="0" offset="0%"></stop>
            <stop stop-color="#FFFFFF" offset="47.7495747%"></stop>
            <stop stop-color="#FFFFFF" stop-opacity="0.0517100087" offset="100%"></stop>
        </linearGradient>
        <linearGradient x1="100%" y1="46.7497111%" x2="0%" y2="53.2502889%" id="linearGradient-41">
            <stop stop-color="#FFFFFF" stop-opacity="0" offset="0%"></stop>
            <stop stop-color="#FFFFFF" offset="47.7495747%"></stop>
            <stop stop-color="#FFFFFF" stop-opacity="0.106889205" offset="100%"></stop>
        </linearGradient>
    </defs>
    <g id="页面-1" stroke="none" stroke-width="1" fill="none" fill-rule="evenodd">
        <g id="编组-3备份">
            <rect id="矩形" x="0" y="0" width="288" height="288"></rect>
            <g id="编组-10" transform="translate(34.000000, 8.000000)">
                <mask id="mask-2" fill="white">
                    <use xlink:href="#path-1"></use>
                </mask>
                <use id="蒙版备份" fill="#FFFFFF" fill-rule="nonzero" xlink:href="#path-1"></use>
                <g id="编组-28备份" mask="url(#mask-2)">
                    <g transform="translate(-22.000000, -4.000000)">
                        <polygon id="路径-102" fill-opacity="0.5" fill="url(#linearGradient-3)" points="0.0783899876 0.5745685 0.0783899876 181.574569 268.695531 181.574569 268.695531 0.5745685"></polygon>
                        <path d="M69.9175918,178.612838 C108.109281,151.376473 138.276815,134.013125 160.420192,126.522795 C182.56357,119.032465 218.627189,113.335615 268.611049,109.432243 L268.611049,213.942076 L60.9653032,208.012074 L69.9175918,178.612838 Z" id="路径-100" fill="url(#linearGradient-4)"></path>
                        <path d="M269.32297,143.775938 C234.075016,148.074768 208.708308,154.545538 193.222846,163.188248 C177.737384,171.830958 159.437425,189.026855 138.32297,214.775938 L269.32297,214.775938 L269.32297,143.775938 Z" id="路径-101" fill="#002F54"></path>
                        <path d="M122.09307,206.696314 C102.704549,188.723077 88.3887947,176.645002 79.1458087,170.462089 C43.1715495,146.397817 17.4845558,136.91938 13.7376845,135.130409 C8.54676919,132.651967 6.62150962,138.489334 7.96190582,152.642508 L7.96190582,207.523029 L122.09307,206.696314 Z" id="路径-99" fill="#002F54"></path>
                        <polygon id="路径-81" fill="url(#linearGradient-5)" points="0.607966093 202.342663 268.673532 210.565815 268.673532 243.781762 0.607966093 243.781762"></polygon>
                        <polygon id="路径-59备份" fill="#00000C" points="219.249604 32.0548938 168.930878 100.360023 172.012649 117.463539 174.37486 99.0602162 182.091412 115.380725 182.091412 93.7276543 194.324907 120.427782 193.112159 83.1998482 205.606912 108.281512 204.635077 65.8326093 220.319949 105.54784 217.29344 54.2758266 238.583181 91.8124538 235.846421 35.4383108 254.249161 83.1998482 258.840864 32.0548938"></polygon>
                        <polygon id="路径-60" fill="#2A3756" points="240.734407 48.411421 240.734407 69.5929829 248.237726 76.8965955"></polygon>
                        <polygon id="路径-61" fill="#1A2746" points="240.324364 73.5984714 240.324364 93.789365 252.874438 98.1669937 249.900275 82.3173765"></polygon>
                        <polygon id="路径-62" fill="#07173B" points="240.324364 47.2163093 224.082455 112.004585 239.716781 103.929963"></polygon>
                        <polygon id="路径-63" fill="#1B2B4E" points="202.610177 79.6104471 208.250093 94.8077661 203.563458 92.0783104 203.563458 94.8077661 208.961758 98.1669937 211.775123 109.630259 202.171114 106.674965"></polygon>
                        <g id="编组-25" stroke-width="1" fill="none" transform="translate(35.950113, 107.340612)">
                            <path d="M15.1679561,0.0563528504 L14.5716533,58.8814296 L12.6648395,58.8814296 L13.3846714,51.5036798 L0.091566301,59.4646189 L2.86716977,47.6143581 L13.0098077,42.1729119 L13.3846714,40.3517837 L4.55509647,41.2838942 L15.1679561,0.0563528504 Z M15.1679561,31.4107155 L24.9608955,37.2887048 L30.9797796,56.897595 L15.1679561,50.8390579 L15.1679561,31.4107155 Z M15.5461986,4.09024746 L20.4048541,17.1784497 L16.3674278,14.8277938 L16.3674278,17.1784497 L21.0179363,20.0714764 L23.4415847,29.9438447 L15.1679561,27.3986928 L15.5461986,4.09024746 Z" id="形状结合" fill="url(#linearGradient-6)"></path>
                        </g>
                        <polygon id="路径-65" fill="#0D1A37" points="202.171114 109.733714 202.171114 110.377158 213.553343 117.179506 213.553343 116.635365"></polygon>
                        <polygon id="路径-66" fill="#0C1C3A" points="202.171114 111.401793 202.171114 134.084713 220.549028 141.158158 213.553343 118.264445"></polygon>
                        <polygon id="路径-67" fill="#061234" points="199.238478 143.300136 200.081829 134.719754 184.50771 143.97839 187.75959 130.196441 199.642641 123.867995 200.081829 121.750008 189.737154 122.83406 202.171114 74.8860965 201.472489 143.300136"></polygon>
                        <polygon id="路径-68" fill="#142B31" points="176.729237 111.401793 176.074589 145.931689 185.951962 148.812165 183.165565 137.426869 176.449625 130.961495 176.449625 128.343035 182.166035 133.793946"></polygon>
                        <polygon id="路径-69" fill="url(#linearGradient-7)" points="176.074589 112.362652 170.523823 134.652577 175.084371 134.129443 169.777907 137.479416 163.463993 162.249603 175.51119 162.249603"></polygon>
                        <polygon id="路径-70" fill="#05132F" points="176.074589 148.628806 176.074589 149.22379 186.712021 155.303798 186.712021 154.548334"></polygon>
                        <polygon id="路径-71" fill="#05122F" points="176.258447 150.386741 176.258447 162.482281 188.921092 170.995565 186.89588 156.373057"></polygon>
                        <polygon id="路径-74" fill="#0A1829" points="240.324364 125.196939 240.324364 147.340157 262.92296 155.634149 262.92296 135.927593"></polygon>
                        <polygon id="路径-72" fill="#060F2F" points="224.266313 113.462632 239.768637 105.76438 239.768637 148.628806 220.732886 155.634149 221.700617 142.820554 234.56713 137.963301 235.120281 133.483844 222.650409 137.963301"></polygon>
                        <polygon id="路径-73备份" fill="#08022B" points="240.734407 99.8172233 240.324364 123.489838 261.571494 130.4085 254.190236 104.466423"></polygon>
                        <polygon id="路径-73" fill="#0B1B33" points="240.734407 98.1669937 240.324364 121.839608 261.571494 128.758271 254.190236 102.816194"></polygon>
                        <g id="编组-22备份-2" stroke-width="1" fill="none" transform="translate(50.290706, 186.327141)">
                            <path d="M2.84980539,6.69840489 C4.9413726,8.26559899 6.17550115,9.42582386 6.55219105,10.1790795 C8.29546522,13.6650532 7.41457004,15.8663472 7.35627219,15.8663472 C7.27907868,15.8663472 6.86488927,15.8663472 6.11370396,15.8663472 L5.85986848,14.1241871 L6.55219105,13.7470756 L5.55971876,13.2495136 L5.48231233,12.9837807 L5.85986848,12.9837807 L4.7498299,10.8528312 L5.55971876,11.0534961 L5.55971876,10.8528312 L4.46023183,10.0541074 L3.87889869,8.78308663 L4.46023183,8.78308663 L3.56155593,8.20850626 L2.84980539,6.69840489 Z" id="路径-82" fill="#7E6153"></path>
                            <path d="M10.8087941,0.0974864456 L9.46494186,2.15523434 L9.70024601,3.04236887 L9.01723442,3.04236887 L7.76763159,6.75125531 L8.7609454,7.02250751 L8.7609454,7.21698924 L7.76763159,7.21698924 C7.65955363,7.78678836 7.58741688,8.21637426 7.55122133,8.50574694 C7.51502578,8.79511962 7.48355946,9.1938096 7.45682236,9.70181688 L8.26837099,10.6185012 L7.45682236,10.3716938 L7.45682236,10.6185012 L7.94185969,10.8736594 L7.45682236,10.8736594 L7.2624073,12.7249407 L8.7609454,14.5552304 L7.45682236,13.8479799 L8.26837099,15.0876314 L9.70024601,15.3162706 C10.151001,14.0138802 10.4660752,13.0293344 10.6454688,12.3626333 C10.8248623,11.6959322 10.9971936,10.8690756 11.1624628,9.88206354 L9.93594478,8.16039805 L11.4911508,7.96814213 L11.4911508,7.21698924 L10.3718605,6.15774314 L11.4911508,6.75125531 L11.4911508,6.42459801 L10.3718605,5.8093529 L11.4911508,5.11021667 C11.4805004,4.24263532 11.4325921,3.49602025 11.3474258,2.87037145 C11.2622595,2.24472265 11.0827156,1.32042765 10.8087941,0.0974864456 Z" id="路径-83" fill="#8E7566"></path>
                            <path d="M19.0293457,5.59825182 C16.253889,6.59540069 14.3657037,7.85003204 13.3647897,9.36214586 C12.3638758,10.8742597 11.555471,12.7349191 10.9395755,14.944124 L12.5505121,15.6829883 L13.0779471,14.5496504 L12.278701,13.784983 L13.5876463,13.4906192 L13.802676,13.1426565 L12.5505121,13.1426565 L13.802676,12.7499435 L15.3160766,10.6406201 L13.802676,10.6406201 L13.9293122,10.3557203 L15.7219138,10.0738515 L15.7219138,9.90424098 L14.4993828,10.0055395 L15.9758796,9.55010542 L17.0735777,8.10373431 L16.2275337,8.0172588 L16.3298967,7.77368768 L17.2170431,7.63277683 L17.971959,6.79408672 L17.7805947,6.71433917 L17.859933,6.54312895 L18.2616178,6.54312895 L19.0293457,5.59825182 Z" id="路径-84" fill="#735F56"></path>
                            <polygon id="路径-85" fill="#586272" points="0.0919292063 18.9834476 4.55073508 15.38706 7.42623689 15.512048 8.03555145 14.7932137 9.81834658 14.7932137 10.5760989 14.7661941 14.9774182 16.8748208 16.4553279 18.9834476"></polygon>
                        </g>
                        <g id="编组-22备份-4" stroke-width="1" fill="none" transform="translate(138.290706, 188.327141)">
                            <path d="M2.84980539,6.69840489 C4.9413726,8.26559899 6.17550115,9.42582386 6.55219105,10.1790795 C8.29546522,13.6650532 7.41457004,15.8663472 7.35627219,15.8663472 C7.27907868,15.8663472 6.86488927,15.8663472 6.11370396,15.8663472 L5.85986848,14.1241871 L6.55219105,13.7470756 L5.55971876,13.2495136 L5.48231233,12.9837807 L5.85986848,12.9837807 L4.7498299,10.8528312 L5.55971876,11.0534961 L5.55971876,10.8528312 L4.46023183,10.0541074 L3.87889869,8.78308663 L4.46023183,8.78308663 L3.56155593,8.20850626 L2.84980539,6.69840489 Z" id="路径-82" fill="#7E6153"></path>
                            <path d="M10.8087941,0.0974864456 L9.46494186,2.15523434 L9.70024601,3.04236887 L9.01723442,3.04236887 L7.76763159,6.75125531 L8.7609454,7.02250751 L8.7609454,7.21698924 L7.76763159,7.21698924 C7.65955363,7.78678836 7.58741688,8.21637426 7.55122133,8.50574694 C7.51502578,8.79511962 7.48355946,9.1938096 7.45682236,9.70181688 L8.26837099,10.6185012 L7.45682236,10.3716938 L7.45682236,10.6185012 L7.94185969,10.8736594 L7.45682236,10.8736594 L7.2624073,12.7249407 L8.7609454,14.5552304 L7.45682236,13.8479799 L8.26837099,15.0876314 L9.70024601,15.3162706 C10.151001,14.0138802 10.4660752,13.0293344 10.6454688,12.3626333 C10.8248623,11.6959322 10.9971936,10.8690756 11.1624628,9.88206354 L9.93594478,8.16039805 L11.4911508,7.96814213 L11.4911508,7.21698924 L10.3718605,6.15774314 L11.4911508,6.75125531 L11.4911508,6.42459801 L10.3718605,5.8093529 L11.4911508,5.11021667 C11.4805004,4.24263532 11.4325921,3.49602025 11.3474258,2.87037145 C11.2622595,2.24472265 11.0827156,1.32042765 10.8087941,0.0974864456 Z" id="路径-83" fill="#8E7566"></path>
                            <path d="M19.0293457,5.59825182 C16.253889,6.59540069 14.3657037,7.85003204 13.3647897,9.36214586 C12.3638758,10.8742597 11.555471,12.7349191 10.9395755,14.944124 L12.5505121,15.6829883 L13.0779471,14.5496504 L12.278701,13.784983 L13.5876463,13.4906192 L13.802676,13.1426565 L12.5505121,13.1426565 L13.802676,12.7499435 L15.3160766,10.6406201 L13.802676,10.6406201 L13.9293122,10.3557203 L15.7219138,10.0738515 L15.7219138,9.90424098 L14.4993828,10.0055395 L15.9758796,9.55010542 L17.0735777,8.10373431 L16.2275337,8.0172588 L16.3298967,7.77368768 L17.2170431,7.63277683 L17.971959,6.79408672 L17.7805947,6.71433917 L17.859933,6.54312895 L18.2616178,6.54312895 L19.0293457,5.59825182 Z" id="路径-84" fill="#735F56"></path>
                            <polygon id="路径-85" fill="#586272" points="0.0919292063 18.9834476 4.55073508 15.38706 7.42623689 15.512048 8.03555145 14.7932137 9.81834658 14.7932137 10.5760989 14.7661941 14.9774182 16.8748208 16.4553279 18.9834476"></polygon>
                        </g>
                        <g id="编组-22备份-3" stroke-width="1" fill="none" transform="translate(101.000000, 194.000000)">
                            <path d="M1.79987709,4.23057151 C3.1208669,5.22037831 3.90031652,5.95315191 4.13822593,6.42889231 C5.23924119,8.6305599 4.68288634,10.0208509 4.64606665,10.0208509 C4.59731285,10.0208509 4.33571954,10.0208509 3.86128671,10.0208509 L3.70096957,8.92053922 L4.13822593,8.68236354 L3.51140132,8.36811386 L3.46251305,8.20028257 L3.70096957,8.20028257 L2.99989257,6.85441971 L3.51140132,6.98115541 L3.51140132,6.85441971 L2.81698853,6.3499626 L2.44983075,5.54721261 L2.81698853,5.54721261 L2.24940374,5.18431974 L1.79987709,4.23057151 Z" id="路径-82" fill="#7E6153"></path>
                            <path d="M6.82660679,0.0615703867 L5.97785802,1.36120064 L6.12647117,1.92149613 L5.69509542,1.92149613 L4.90587258,4.26395072 L5.53322868,4.4352679 L5.53322868,4.55809846 L4.90587258,4.55809846 C4.83761282,4.9179716 4.79205277,5.18928901 4.76919242,5.3720507 C4.74633207,5.55481239 4.72645861,5.80661659 4.70957202,6.1274633 L5.22212905,6.7064218 L4.70957202,6.55054342 L4.70957202,6.7064218 L5.01591138,6.86757436 L4.70957202,6.86757436 L4.58678356,8.03680466 L5.53322868,9.19277708 L4.70957202,8.74609255 L5.22212905,9.52903034 L6.12647117,9.67343409 C6.41115852,8.85087168 6.61015279,8.22905328 6.72345396,7.80797891 C6.83675513,7.38690453 6.94559598,6.86467933 7.04997651,6.24130329 L6.27533354,5.15393561 L7.25756892,5.03251082 L7.25756892,4.55809846 L6.55064872,3.88910093 L7.25756892,4.26395072 L7.25756892,4.05764085 L6.55064872,3.66906499 L7.25756892,3.22750527 C7.25084237,2.67955915 7.22058447,2.20801279 7.16679524,1.81286618 C7.113006,1.41771957 6.99960985,0.833954305 6.82660679,0.0615703867 Z" id="路径-83" fill="#8E7566"></path>
                            <path d="M12.0185341,3.53573799 C10.2656141,4.16551623 9.07307599,4.95791497 8.44091982,5.91293423 C7.80876364,6.86795349 7.29819224,8.04310678 6.90920561,9.4383941 L7.92663921,9.90504527 L8.25975608,9.1892529 L7.75496908,8.70630503 L8.58167135,8.52039105 L8.71747955,8.30062513 L7.92663921,8.30062513 L8.71747955,8.05259591 L9.67331156,6.72039163 L8.71747955,6.72039163 L8.79746034,6.54045492 L9.9296298,6.36243255 L9.9296298,6.25531009 L9.15750494,6.31928812 L10.0900292,6.03164553 L10.7833122,5.11814798 L10.2489686,5.06353187 L10.313619,4.90969748 L10.873922,4.82070115 L11.350711,4.29100214 L11.2298493,4.24063527 L11.2799577,4.1325025 L11.5336533,4.1325025 L12.0185341,3.53573799 Z" id="路径-84" fill="#735F56"></path>
                            <polygon id="路径-85" fill="#586272" points="0.0580605513 11.9895458 2.87414847 9.71814317 4.69025488 9.79708292 5.07508513 9.34308235 6.201061 9.34308235 6.67964143 9.32601733 9.459422 10.6577816 10.3928387 11.9895458"></polygon>
                        </g>
                        <g id="编组-4" stroke-width="1" fill="none" transform="translate(22.000000, 4.000000)">
                            <mask id="mask-9" fill="white">
                                <use xlink:href="#path-8"></use>
                            </mask>
                            <g id="蒙版备份" fill-rule="nonzero"></g>
                            <g id="编组-20" mask="url(#mask-9)">
                                <g transform="translate(140.787274, 168.559759)">
                                    <path d="M21.4399418,19.5698524 L37.9664471,36.4405103 L36.9863212,38.1870024 L20.4160873,22.2448297 L21.4399418,19.5698524 Z M29.5823657,9.26363444 L42.4634154,33.5453412 L41.6336319,34.6967764 L27.8852951,14.3366662 L29.5823657,9.26363444 Z M40.1221323,4.95269892 L46.0597763,32.1988455 L43.9977937,33.0673172 L35.8033236,5.88835016 L40.1221323,4.95269892 Z" id="形状结合" fill="#1F445C"></path>
                                    <path d="M51.7979774,0.0211932363 C63.5609718,-0.5827453 71.9942794,11.7210341 77.0979003,36.9325316 L34.0233941,38.2534257 C34.1101219,13.3692093 40.034983,0.625131773 51.7979774,0.0211932363 Z" id="路径-77" fill="url(#linearGradient-10)"></path>
                                    <path d="M1.06358612,55.7865926 C2.57142209,44.3806538 7.94409613,38.538668 17.1816083,38.2606352 C26.4191204,37.9826024 33.1053172,45.7463418 37.2401986,61.5518532 L1.06358612,61.9228384 L1.06358612,55.7865926 Z" id="路径-75备份" fill="url(#linearGradient-11)"></path>
                                    <path d="M54.7519948,58.1537444 C58.3314283,21.7752973 68.307512,3.58607382 84.6802458,3.58607382 C101.05298,3.58607382 109.846425,9.88454301 111.060583,22.4814814 L112.493775,58.1537444 L54.7519948,58.1537444 Z" id="路径-76" fill="url(#linearGradient-12)"></path>
                                    <path d="M20.4849328,53.8807314 C22.7457687,36.9155799 30.8015086,28.2262318 44.6521524,27.8126868 C58.5027963,27.3991419 68.5280206,38.9468993 74.7278252,62.4559589 L20.4849328,63.0077608 L20.4849328,53.8807314 Z" id="路径-75" fill="url(#linearGradient-13)"></path>
                                    <path d="M0,65.8334696 C1.10825289,57.6079417 5.05714499,53.3949244 11.8466763,53.1944177 C18.6362076,52.9939111 23.5505332,58.5928237 26.5896531,69.9911557 L0,70.258696 L0,65.8334696 Z" id="路径-75备份-2" fill="url(#linearGradient-14)"></path>
                                </g>
                            </g>
                        </g>
                        <path d="M120.488961,206.856749 C119.443291,203.312838 118.579633,200.65523 117.897988,198.883925 C117.216342,197.11262 116.653547,195.762337 116.209601,194.833077 L118.38206,194.833077 C119.150446,196.233479 119.724974,197.583761 120.105644,198.883925 C120.486313,200.184088 120.934014,201.988212 121.448747,204.296297 L121.058115,193.471553 L124.056289,193.471553 L124.501253,204.726508 C125.076318,202.423586 125.618107,200.594138 126.12662,199.238163 C126.635132,197.882187 127.323616,196.234417 128.192072,194.294854 L130.366699,194.833077 C129.737968,196.031371 129.138013,197.499733 128.566834,199.238163 C127.995654,200.976592 127.278775,203.516121 126.416195,206.856749 L120.488961,206.856749 Z" id="路径-86" fill="#61755D"></path>
                        <polygon id="路径-56备份" fill="#1C353A" points="262.92296 74.3896585 154.205947 177.62451 154.205947 194.957456 159.761813 177.62451 164.481331 194.957456 168.472189 173.546913 175.60922 201.989572 180.80369 165.138855 188.810062 191.873327 195.47864 150.290284 203.713312 191.873327 209.419144 140.115169 224.19082 181.316855 231.352744 124.998726 245.927176 166.620307 248.652785 108.048791 262.92296 145.254352"></polygon>
                        <polygon id="路径-56" fill="url(#linearGradient-15)" points="262.92296 74.8209416 156.412248 175.97428 156.412248 193.307226 161.968114 175.97428 166.687632 193.307226 170.67849 171.896684 177.815521 200.339342 183.009991 163.488625 191.016363 190.223098 197.684941 148.640054 205.919613 190.223098 211.625445 138.464939 226.397121 179.666626 233.559045 123.348497 248.133477 164.970078 250.859086 106.398562 262.92296 141.467564"></polygon>
                        <polygon id="路径-59" fill="#163947" points="222.745746 28.0586045 170.585604 98.3430761 173.667374 115.446592 176.029586 97.0432689 183.746137 113.363778 183.746137 91.710707 195.979633 118.410835 194.766885 81.1829009 207.261638 106.264565 206.289803 63.815662 221.974675 103.530893 218.948165 52.2588793 240.237907 89.7955064 237.501147 33.4213635 255.903887 81.1829009 259.982409 28.0586045"></polygon>
                        <path d="M55.8929574,58.6510472 L97.8126755,58.6510472 C96.4656427,57.201102 95.3266019,56.028211 94.3955533,55.1323741 C92.9989804,53.7886188 89.77626,53.7089764 87.115375,55.1323741 C84.4544901,56.5557718 78.9111923,54.606596 76.0918129,53.1933983 C73.2724335,51.7802006 68.8670166,50.8675292 63.5204706,52.0304637 C59.9561065,52.8057534 57.4136022,55.0126146 55.8929574,58.6510472 Z" id="路径-24复制备份-2" fill="url(#linearGradient-16)" transform="translate(76.852816, 55.075550) scale(-1, 1) translate(-76.852816, -55.075550) "></path>
                        <path d="M16.914974,103.573964 L58.834692,103.573964 C57.4876592,102.124019 56.3486185,100.951128 55.4175699,100.055291 C54.020997,98.711536 50.7982765,98.6318936 48.1373916,100.055291 C45.4765066,101.478689 39.9332089,99.5295132 37.1138295,98.1163155 C34.2944501,96.7031178 29.8890331,95.7904464 24.5424871,96.9533809 C20.9781231,97.7286707 18.4356187,99.9355318 16.914974,103.573964 Z" id="路径-24复制备份-3" fill="url(#linearGradient-16)"></path>
                        <polygon id="路径-104" fill="#657599" points="154.679841 121.35023 153.923135 130.196526 156.297935 129.570857"></polygon>
                        <polygon id="路径-105" fill="#657599" points="142.350674 126.500593 141.257416 134.830605 143.809067 134.830605"></polygon>
                        <polygon id="路径-106" fill="#566892" points="126.803564 134.79996 125.149592 148.918591 129.378336 148.918591"></polygon>
                        <polygon id="路径-96" fill="url(#linearGradient-17)" points="56.7303207 204.74843 59.9906722 200.3599 82.0687395 203.620692 111.520128 223.646473 56.7303207 223.646473"></polygon>
                        <polygon id="路径-97" fill="url(#linearGradient-18)" points="96.2598794 223.552355 102.916942 211.395919 117.198539 207.694254 127.331951 217.594291 114.674135 224.379909"></polygon>
                        <g id="编组-24" stroke-width="1" fill="none" transform="translate(17.848130, 93.432626)">
                            <path d="M12.6105956,0.960859329 L12.0471969,50.8478099 L11.942,50.847 L11.9423631,68.4219163 L10.8392127,68.4219163 L10.839,50.847 L-4.70734562e-14,50.8478099 L6.31391376,26.0776233 L11.6203779,22.72765 L7.05983036,23.2507837 L12.6105956,0.960859329 Z M12.794454,38.9849479 L23.4318868,44.9712639 L25.4570994,59.5937721 L12.794454,51.0804877 L12.794454,38.9849479 Z M12.6105956,37.227013 L23.2480284,43.1465415 L23.2480284,43.9020048 L12.6105956,37.8219972 L12.6105956,37.227013 Z M13.2652439,5.00932629e-13 L18.7020424,22.3921535 L12.9856319,16.9412423 L12.9856319,19.5597025 L19.701572,26.0250761 L22.487969,37.4103719 L12.6105956,34.529896 L13.2652439,5.00932629e-13 Z" id="形状结合" fill="url(#linearGradient-19)"></path>
                        </g>
                    </g>
                </g>
                <g id="编组-29备份" transform="translate(16.000000, 118.000000)">
                    <g id="编组-12备份-2" transform="translate(0.016460, 0.123391)">
                        <mask id="mask-21" fill="white">
                            <use xlink:href="#path-20"></use>
                        </mask>
                        <use id="合并形状" fill="#FFC1A7" transform="translate(62.325899, 33.420670) scale(-1, 1) rotate(12.000000) translate(-62.325899, -33.420670) " xlink:href="#path-20"></use>
                        <path d="M41.4210412,11.3494715 L41.4206052,11.8764232 C41.5854976,12.4938918 41.5851383,12.9281683 41.4195272,13.1792528 C41.1711106,13.5558794 41.3011668,15.0415225 41.3160465,15.5878283 C41.3309263,16.134134 41.6783772,16.6675047 41.5145407,16.6676392 C41.4053164,16.6677289 41.5961752,16.6675722 42.0871171,16.6671691 C42.2726411,18.6464594 42.6989007,19.6621508 43.3658957,19.7142434 C43.7554358,19.7446666 44.1840544,19.6694339 44.5407272,19.7979573 C44.7947719,19.8894997 45.0147753,19.8467281 45.1537755,20.3090912 C45.2464423,20.6173332 45.9192354,22.4348809 47.1721548,25.7617344 C48.9766026,25.0175902 50.3141222,24.4419554 51.1847136,24.03483 C52.0553049,23.6277045 52.9880024,22.7759664 53.9828058,21.4796155 L54.4114114,18.9585458 L52.7199707,17.4308187 L52.999015,16.0512507 L43.6803958,10.2526401 L41.4210412,11.3494715 Z" id="路径-27" fill="url(#linearGradient-22)" transform="translate(47.840109, 18.007187) scale(-1, 1) rotate(6.000000) translate(-47.840109, -18.007187) "></path>
                        <polygon id="Fill-281" fill="#FFFFFF" points="16.3954882 152.035909 25.9178413 152.035909 25.9178413 151.657557 16.3954882 151.657557"></polygon>
                        <path d="M30.6888872,123.31453 L32.9375599,123.848705 L33.7261708,121.900773 C33.7261708,121.900773 33.4633005,119.96468 32.9375599,116.092494 C30.9240063,116.679001 29.9172295,116.972255 29.9172295,116.972255 L30.6888872,123.31453 Z" id="Fill-283" fill="#FFD0BC"></path>
                        <path d="M61.272414,123.203984 L64.6589331,124.235676 L64.9522292,121.717243 C64.9522292,121.717243 64.1226354,116.201219 61.2540941,110.638052 C60.3329274,108.851745 54.1807461,113.49587 54.1807461,113.49587 L61.272414,123.203984 Z" id="Fill-283" fill="#FFD0BC" transform="translate(59.566488, 117.232386) rotate(22.000000) translate(-59.566488, -117.232386) "></path>
                        <path d="M44.5110949,69.1168049 C39.1857916,72.4311305 35.2751436,78.753235 32.7791508,88.0831184 C31.8550077,91.5375143 32.0095483,97.7128951 31.8289286,101.216594 C31.2778021,111.90746 31.9710364,116.508213 32.7791508,118.206229 C33.5872651,119.904245 37.3068898,119.904245 41.1107466,120.063674 C42.2777287,120.112585 43.763971,118.970162 44.0445029,117.481049 C44.1682042,116.82442 43.9732985,113.655714 44.5110949,107.377328 C44.6946191,105.234815 45.1993741,101.184939 46.0253599,95.2277019 C46.2083974,94.2286882 46.5852652,93.3039958 47.1559635,92.4536245 C47.7266618,91.6032531 48.8371278,90.3133815 50.4873617,88.5840096 L67.2448535,68.4201762 L44.5110949,69.1168049 Z" id="路径-24" fill="#2C2D3E" transform="translate(49.438053, 94.242682) scale(-1, 1) translate(-49.438053, -94.242682) "></path>
                        <g id="Fill-292" transform="translate(35.772100, 93.217593) scale(-1, 1) translate(-35.772100, -93.217593) translate(26.772100, 66.717593)">
                            <mask id="mask-24" fill="white">
                                <use xlink:href="#path-23"></use>
                            </mask>
                            <use id="蒙版" fill="#2C2D3E" xlink:href="#path-23"></use>
                            <path d="M4.04301875,-3.99636172 C3.82869937,-3.84550314 -0.337817529,-2.26906398 -0.267387579,-1.78983901 C0.0361579967,0.275569536 4.62030523,1.03706696 7.12163005,3.44324371 C9.62295486,5.84942047 11.3688263,8.74180404 12.8859868,11.0393654 C15.4196149,14.8762473 16.713932,16.7011285 16.713932,19.2234374 C16.713932,23.8771608 15.3431481,32.8007286 15.5350169,34.9634441 C15.5967992,35.6597825 18.7641442,20.0024718 17.4454525,15.8095012 C9.03800633,2.23426898 4.5705284,-4.36768532 4.04301875,-3.99636172 Z" fill="url(#linearGradient-25)" filter="url(#filter-26)" mask="url(#mask-24)" transform="translate(8.749056, 15.487383) scale(-1, 1) translate(-8.749056, -15.487383) "></path>
                        </g>
                        <path d="M38.8196976,7.82951788 C39.8192685,5.73300484 40.7395291,4.3778686 41.5804792,3.76410914 C43.6875814,2.2262608 46.3314663,1.32327039 49.5121341,1.05513792 C51.9708045,1.0862436 54.1032626,2.48598738 55.9095084,5.25436928 C57.5796292,7.81411632 54.0021407,16.6700971 53.8293897,17.0092037 C53.6566387,17.3483103 52.5301239,17.5605066 51.9898207,17.7199553 C51.3957192,17.8952805 50.9944934,18.211257 50.5361094,18.1680585 C49.2232203,18.0443306 48.3012968,17.5322673 46.6048104,15.8934768 C44.9083241,14.2546863 44.3881024,12.2563986 43.8324034,11.8956792 C43.2767045,11.5349598 42.3114779,11.3981458 41.6813597,11.3430731 C41.0512415,11.2880004 40.5786479,11.6624336 40.3063161,11.5373985 C40.0339844,11.4123633 39.7000187,10.8899181 39.2944876,10.3667547 C38.8889566,9.84359123 38.4581815,9.63749142 38.4585815,9.1536921 C38.4588485,8.83115923 38.5792206,8.38976782 38.8196976,7.82951788 Z" id="路径-26" fill="#191919" transform="translate(47.405559, 9.613605) scale(-1, 1) rotate(6.000000) translate(-47.405559, -9.613605) "></path>
                        <g id="Fill-964" transform="translate(39.675347, 47.301979) scale(-1, 1) translate(-39.675347, -47.301979) translate(24.675347, 19.801979)">
                            <mask id="mask-28" fill="white">
                                <use xlink:href="#path-27"></use>
                            </mask>
                            <use id="蒙版" fill="#FFC656" xlink:href="#path-27"></use>
                            <path d="M2.96473846,14.0412 L2.41641731,28.4959975 C-0.223024669,41.2700754 -1.5201618,47.6608037 -1.47499408,47.6681823 C1.95097972,48.2278452 7.14911985,25.7612022 7.46480532,21.3419057 C7.7804908,16.9226093 2.96473846,14.0412 2.96473846,14.0412 Z" fill="#88035D" opacity="0.133570499" filter="url(#filter-29)" mask="url(#mask-28)"></path>
                        </g>
                        <g id="编组-6" transform="translate(23.015001, 44.511557) rotate(-6.000000) translate(-23.015001, -44.511557) translate(3.015001, 16.511557)">
                            <path d="M24.8530257,3.11200529 C24.7964974,2.71120294 24.8350679,2.4249446 24.9687374,2.25323029 C25.500217,1.57048164 27.9896691,0.666936697 28.9170038,0.938137025 C29.0994041,0.991480266 29.1876609,1.26208374 29.1817741,1.74994743 L30.2597266,1.66850219 C30.026735,0.873029016 29.697562,0.409926335 29.2722077,0.279194149 C28.6341761,0.0830958715 27.792148,0.00793258873 26.5400878,0.400980867 C25.2880275,0.794029144 24.6772625,1.39765455 24.3352623,1.90770737 C24.1072622,2.24774258 24.0630607,2.771099 24.202658,3.4777766 L24.8530257,3.11200529 Z" id="路径-23" fill="#555AA6" transform="translate(27.191433, 1.798293) scale(-1, 1) translate(-27.191433, -1.798293) "></path>
                            <path d="M6.51448325,8.39343474 C8.14379826,4.9900428 13.4802923,3.01943687 15.4289957,2.33761116 C16.7281313,1.88306069 18.6960068,1.43344428 21.3326223,0.98876195 C24.3319718,0.79217713 26.5242671,1.55498059 27.909508,3.27717232 C29.294749,4.99936406 30.9711771,9.04632558 32.9387924,15.4180569 C36.7629673,29.0465942 38.3662976,37.6306752 37.7487831,41.1702999 C36.8225115,46.4797369 29.1532935,52.8388822 23.3202046,54.2586087 C17.4871157,55.6783352 9.99905098,53.3426239 7.96784515,52.1062682 C5.93663932,50.8699124 6.3031902,49.4910583 5.97634195,43.1578756 C5.64949371,36.8246928 6.99484801,30.7652023 6.859243,27.3900793 C6.43245555,16.7676092 5.69018201,10.115275 6.51448325,8.39343474 Z" id="路径-13" fill="#555AA6" transform="translate(21.901271, 27.830292) scale(-1, 1) translate(-21.901271, -27.830292) "></path>
                            <path d="M27.2136211,5.15726045 C24.8027746,5.15726045 22.9160803,8.11397338 22.9160803,10.8093258 C22.9160803,13.5046783 23.8473179,19.6608148 23.3581881,27.4053632 C23.0471609,32.329956 22.25536,39.9969494 23.6603314,48.8159828 C24.241196,52.4620814 24.4247165,52.1214737 28.6088559,53.5631533 C34.3354791,55.5363084 39.9610544,54.5455557 37.1146758,36.2221078 C36.1255664,29.8547552 34.637014,19.3110931 32.3990185,13.2602769 C30.2883587,7.55373523 29.0839893,5.15726045 27.2136211,5.15726045 Z" id="路径-4" fill="#151958" transform="translate(30.365530, 29.719712) scale(-1, 1) translate(-30.365530, -29.719712) "></path>
                            <path d="M36.0804851,36.8377448 C32.6771098,35.5234428 27.9319819,37.3497186 27.4837806,43.7683437 C27.0355792,50.1869688 27.3577613,50.620945 28.8578264,51.4351501 C30.3578914,52.2493553 34.7632398,53.0225501 35.6421141,53.0225501 C36.5209884,53.0225501 39.1372755,53.0331489 39.1372755,49.8536552 C39.1372755,46.6741614 39.4838603,38.1520467 36.0804851,36.8377448 Z" id="路径-5" fill="#555AA6" transform="translate(33.222217, 44.730099) scale(-1, 1) translate(-33.222217, -44.730099) "></path>
                            <path d="M36.8768575,41.1439384 C36.3979381,41.5627986 36.0266463,41.9066442 35.7629823,42.1754752 C35.0547944,42.8975414 34.4170549,43.8733289 33.7903756,44.077083 C32.816582,44.3936954 31.727261,44.1541091 30.5224128,43.358324 C30.3612502,43.2518699 30.1443057,43.2962279 30.0378576,43.4573944 C30.0333553,43.464211 30.0290932,43.4711833 30.0250793,43.4782984 C29.9094963,43.6831788 29.9580021,43.941501 30.140046,44.0904822 C31.0734949,44.85453 32.3453939,45.1261335 33.955743,44.9052928 C34.1561667,44.877807 34.2598003,44.9269516 34.266644,45.0527267 L34.5219155,49.4342173 C34.5341965,49.6450098 34.7150334,49.8059352 34.925826,49.7936541 C34.9436647,49.7926148 34.9614085,49.7903262 34.9789271,49.786805 C35.2166539,49.7390231 35.3775114,49.5162644 35.3480927,49.2755744 C35.2542701,48.5079058 35.2073588,47.423946 35.2073588,46.0236949 C35.2073588,44.4553146 35.9815475,43.0287858 37.5299249,41.7441085 C37.6967055,41.6057383 37.7197311,41.358364 37.581357,41.1915865 C37.5712962,41.1794606 37.5605141,41.1679516 37.5490694,41.1571222 C37.3619265,40.9800407 37.0708047,40.9743367 36.8768575,41.1439384 Z" id="路径-9" fill="#151958" transform="translate(33.857037, 45.359905) scale(-1, 1) translate(-33.857037, -45.359905) "></path>
                            <path d="M35.035778,41.6622221 L34.9035071,41.9454992 C34.8199335,42.1244838 34.8972795,42.3373293 35.0762641,42.4209028 C35.1060798,42.4348247 35.137674,42.4445654 35.1701528,42.4498495 L35.3222027,42.4745867 C35.5065206,42.5045737 35.6872298,42.4037325 35.758493,42.2311235 L35.8401114,42.0334326 C35.9164359,41.8485644 35.8453046,41.6357021 35.6731713,41.5338601 L35.5969059,41.4887379 C35.4084521,41.3772399 35.165293,41.4396249 35.053795,41.6280787 C35.0472385,41.6391605 35.0412257,41.6505552 35.035778,41.6622221 Z" id="路径-12" fill="#151958" transform="translate(35.338282, 41.895970) scale(-1, 1) translate(-35.338282, -41.895970) "></path>
                            <path d="M3.59909232,42.7888266 C0.831810296,44.4786555 -0.339684003,46.8902548 0.0846094275,50.0236245 C0.721049573,54.7236791 6.23979067,56.7423578 10.6773127,53.6264792 C15.1148347,50.5106005 23.5247134,47.3121811 25.4027847,42.7888266 C26.501158,40.1433829 25.40978,37.5431663 22.1286506,34.9881767 C21.2594417,34.3113473 20.0752995,34.2037341 19.0983256,34.7127961 L3.59909232,42.7888266 L3.59909232,42.7888266 Z" id="路径-19" fill="#558AA6" transform="translate(12.907995, 44.520163) scale(-1, 1) translate(-12.907995, -44.520163) "></path>
                            <path d="M24.3625651,33.6719593 C16.5087428,39.1172669 11.5785796,41.9078829 9.57207544,42.0438074 C7.54261471,42.181287 5.83316825,38.9829755 4.44373607,32.448873 C4.45109972,36.7976639 4.69868885,39.492325 5.18650346,40.5328564 C5.91822537,42.0936536 7.82367179,43.7853889 10.008101,43.7853889 C12.1925303,43.7853889 17.3960017,39.9363026 20.1921084,38.117131 C21.9526282,36.9717213 23.470898,35.6992162 24.7469177,34.2996157 C24.8800845,34.1535796 24.9022001,33.9376842 24.8014232,33.7676725 C24.7149969,33.6218703 24.5267384,33.5737366 24.3809361,33.660163 C24.3746739,33.663875 24.3685457,33.6678087 24.3625651,33.6719593 Z" id="路径-18" fill="#151958" transform="translate(14.706650, 38.117131) scale(-1, 1) translate(-14.706650, -38.117131) "></path>
                            <path d="M11.4267499,42.046356 C13.0604455,42.2539261 14.1003645,43.2447905 14.5465068,45.0189492 C14.9793171,46.740091 14.7560593,48.8653407 13.8767334,51.3946985 C13.8264449,51.5391878 13.8625425,51.6996835 13.9698153,51.8087643 L14.0656333,51.9061974 C14.1696245,52.0119413 14.3396484,52.0133621 14.4453923,51.909371 C14.4688951,51.8862577 14.4879416,51.8590147 14.5015655,51.8289981 C15.5552501,49.5103183 16.0820924,47.4552315 16.0820924,45.6637375 C16.0820924,43.7816424 15.1747863,42.1758273 13.3601739,40.8462922 L11.4267499,42.046356 Z" id="路径-20" fill="#151958" transform="translate(13.754421, 46.514550) scale(-1, 1) translate(-13.754421, -46.514550) "></path>
                            <path d="M3.38570367,37.7090517 C4.99706055,38.5310862 6.15886282,39.575218 6.87111047,40.8414472 C7.55853902,42.0635532 7.80554551,43.9367347 7.61212995,46.4609919 C7.59955763,46.6249054 7.69654515,46.7774841 7.85029322,46.8356842 C7.99886701,46.8919256 8.16561974,46.8235265 8.23192694,46.6791636 C9.27016639,44.4178194 9.3760939,42.328476 8.54970947,40.4111335 C7.6923198,38.421854 6.5440501,37.0973585 5.10490037,36.4376471 L3.38570367,37.7090517 Z" id="路径-21" fill="#151958" transform="translate(6.242391, 41.686034) scale(-1, 1) translate(-6.242391, -41.686034) "></path>
                            <path d="M20.5518358,45.381878 L20.647088,45.4918014 C20.7617675,45.6239672 20.7777261,45.8151187 20.6866488,45.9645311 C20.1903528,46.7787051 19.9422048,47.5803397 19.9422048,48.3694348 C19.9422048,49.6719966 20.4732933,51.0802805 20.9641136,51.9252898 C21.4549339,52.7702991 22.4918203,53.1231022 23.0518571,52.2515812 C23.611894,51.3800602 23.2719049,49.0872056 23.0518571,48.3694348 C22.8318094,47.6516639 22.2552813,47.1721628 21.8715916,47.4267171 C21.4879019,47.6812713 21.3545156,48.3604478 21.6359772,49.4396386 C21.8236182,50.1590991 22.3982618,50.4951834 23.3599078,50.4478912 C23.3646214,50.6150665 23.3646214,50.7650752 23.3599078,50.8979173 C23.3551943,51.0307595 23.3457987,51.1455487 23.331721,51.2422847 C22.0499824,51.4248044 21.26078,51.0971425 20.9641136,50.2592991 C20.5191141,49.0025339 20.2457637,47.1311866 21.9814381,46.5360107 C23.7171125,45.9408347 24.8187318,50.1703626 24.1238447,52.0769899 C23.4289576,53.9836172 21.2677607,55.0254589 19.752794,51.7262844 C19.119952,50.3481313 18.8743839,48.5079054 19.1673441,47.108045 C19.2658724,46.6372442 19.5419775,46.0721907 19.9956593,45.4128847 C20.105874,45.252654 20.3251207,45.2121482 20.4853311,45.3223922 C20.509932,45.3393206 20.5322796,45.3593096 20.5518358,45.381878 Z" id="路径-22" fill="#151958" transform="translate(21.689664, 49.453647) scale(-1, 1) translate(-21.689664, -49.453647) "></path>
                            <path d="M4.4649662,28.3220943 C6.46039861,24.9333984 13.9876,20.2254949 18.7758798,19.8608746 C23.5641596,19.4962542 27.5170554,31.5035473 23.5641596,34.1317258 C19.6112637,36.7599042 14.0025875,40.2335441 11.4670294,41.3034647 C8.93147126,42.3733852 7.90647862,42.3733852 6.10297912,41.3034647 C4.29947961,40.2335441 2.46953379,31.7107903 4.4649662,28.3220943 Z" id="路径-14" fill="#558AA6" transform="translate(14.389241, 30.979325) scale(-1, 1) translate(-14.389241, -30.979325) "></path>
                            <path d="M16.800213,11.6421287 L17.0564371,11.4807721 C17.2443752,11.3624185 17.4926737,11.4188279 17.6110273,11.606766 C17.6177223,11.6173972 17.6239154,11.6283363 17.6295862,11.6395473 L25.0255471,26.2610422 C25.1257961,26.4592301 25.367727,26.5386253 25.5659149,26.4383763 C25.5729452,26.4348201 25.5798695,26.4310582 25.5866789,26.4270953 L26.0023385,26.1851872 C26.1808931,26.081271 26.4091392,26.1295521 26.530319,26.2968716 L26.8061591,26.6777387 C26.9364351,26.8576177 26.8962239,27.109048 26.7163449,27.239324 C26.6980142,27.2525999 26.6785955,27.2643046 26.6582955,27.2743133 L23.3741579,28.8935436 C23.1749548,28.9917599 22.9338488,28.9098939 22.8356326,28.7106908 C22.8297667,28.6987936 22.8244931,28.6866136 22.8198311,28.6741953 L22.7801663,28.5685397 C22.7067267,28.372918 22.7953376,28.1536446 22.9840691,28.0639693 L23.2560219,27.9347515 C23.4532013,27.8410622 23.5396237,27.607171 23.4507368,27.4077807 L16.6472085,12.1461618 C16.5657698,11.9634794 16.6309646,11.7487125 16.800213,11.6421287 Z" id="路径-15" fill="#151958" transform="translate(21.795467, 20.167647) scale(-1, 1) translate(-21.795467, -20.167647) "></path>
                            <path d="M8.37380185,6.53764071 L8.61210346,6.39964463 C8.79830331,6.29182344 9.03638466,6.34966395 9.15235773,6.53089871 C11.3532198,9.97025523 12.9736098,12.5936687 14.0135278,14.4011392 C15.0419017,16.1885452 16.224261,18.4323007 17.5606058,21.1324056 C17.648176,21.3092937 17.8625539,21.3817236 18.0394516,21.2941729 C18.0484637,21.2897126 18.0572835,21.2848739 18.0658876,21.2796698 C18.2462683,21.1705674 18.4809407,21.2283499 18.5900431,21.4087306 C18.5913356,21.4108674 18.592607,21.4130168 18.5938573,21.4151786 L18.8365762,21.8348544 C18.94777,22.0271152 18.8820522,22.2731139 18.6897913,22.3843077 C18.6860084,22.3864955 18.6821901,22.3886216 18.6783379,22.3906849 L15.8937247,23.8822223 C15.7136624,23.97867 15.4899002,23.9248092 15.3734488,23.7569889 L15.2303107,23.5507099 C15.1036924,23.3682377 15.1489708,23.1176703 15.3314429,22.9910519 C15.3355524,22.9882004 15.3397146,22.9854258 15.3439276,22.9827295 L15.9043589,22.624055 C16.0797319,22.5118167 16.140432,22.2842772 16.0442659,22.0996012 L8.21864187,7.07138549 C8.11929748,6.88060596 8.18766325,6.64543015 8.37380185,6.53764071 Z" id="路径-16" fill="#151958" transform="translate(13.542815, 15.129196) scale(-1, 1) translate(-13.542815, -15.129196) "></path>
                            <path d="M17.2077657,30.1244127 L17.4431514,29.7270328 C17.4996374,29.6313001 17.6230891,29.5996953 17.718725,29.6563447 C17.732101,29.6642679 17.744514,29.6737143 17.7557156,29.6844949 C19.3515603,31.2203574 20.3746669,32.725909 20.8250355,34.2011496 C21.2435106,35.571919 21.4219701,37.4908354 21.3604141,39.9578986 C21.3520914,40.2909371 21.0753738,40.554182 20.742335,40.5458723 C20.6652657,40.5439493 20.5892795,40.5272706 20.5184897,40.496739 L19.8121169,40.1920803 C19.7294985,40.1565274 19.6805948,40.0704074 19.6923174,39.9812313 C19.9834683,37.7663898 19.9767568,36.0639619 19.672183,34.8739475 C19.3666773,33.6802917 18.5486793,32.1707334 17.2181893,30.3452726 C17.1709703,30.2803218 17.1668408,30.1935023 17.2077657,30.1244127 Z" id="路径-17" fill="#151958" transform="translate(19.256190, 35.178034) scale(-1, 1) translate(-19.256190, -35.178034) "></path>
                        </g>
                        <path d="M39.1125178,27.1152009 C39.4356529,27.967749 42.7072098,28.7216493 44.8094504,29.4518694 C46.2109441,29.9386829 48.3568941,30.820863 51.2473004,32.0984099 L51.2473004,27.9820645 C45.6627448,25.8334413 42.3064192,24.8117894 41.1783235,24.9171089 C39.9770453,25.0292607 38.7893827,26.2626529 39.1125178,27.1152009 Z" id="路径-28" fill="#151958" transform="translate(45.152994, 28.504068) scale(-1, 1) translate(-45.152994, -28.504068) "></path>
                        <mask id="mask-31" fill="white">
                            <use xlink:href="#path-30"></use>
                        </mask>
                        <use id="路径-30" fill="#FFC656" xlink:href="#path-30"></use>
                        <g id="编组-13" transform="translate(69.530218, 19.423627)">
                            <path d="M7.13235028,0 L7.13235028,0.231148822 L3.4470286,3.7232855 C3.40967822,3.75867797 3.36018063,3.77840459 3.30872505,3.77840459 L0.525235144,3.77840459 C0.428010368,3.77840459 0.3447125,3.70884078 0.327381828,3.6131731 L0.297612958,3.44884488 L0.297612958,3.44884488 L3.23184622,3.44884488 L7.13235028,0 Z" id="路径-33" fill="#252942"></path>
                            <path d="M7.13235028,0 L4.19022147,0 C4.14881971,2.01894409e-16 4.10885916,0.0152022381 4.07792625,0.0427206053 L0.331805285,3.37532394 C0.262090886,3.43734288 0.255852481,3.54413385 0.317871418,3.61384824 C0.349931316,3.64988621 0.395865947,3.67050272 0.444100503,3.67050272 L3.14598795,3.67050272 C3.18887855,3.67050272 3.2301637,3.65419 3.26147044,3.6248729 L7.13235028,0 L7.13235028,0 Z" id="矩形备份" fill="#464B6B"></path>
                            <path d="M6.75104031,0.165993981 L4.2269958,0.165993981 C4.18564777,0.165993981 4.14573525,0.181156871 4.11481713,0.208611008 L0.445771892,3.4665859 L0.445771892,3.4665859 L3.09907337,3.4665859 C3.14146115,3.4665859 3.1823003,3.45065255 3.21348861,3.42194692 L6.75104031,0.165993981 L6.75104031,0.165993981 Z" id="矩形备份-5" fill="#D1D3E2"></path>
                        </g>
                        <g id="编组" transform="translate(53.420457, 120.314619)">
                            <g id="休闲鞋/橙色" transform="translate(12.868870, 7.187374) scale(-1, 1) rotate(-5.000000) translate(-12.868870, -7.187374) ">
                                <g id="编组-29复制" transform="translate(14.175448, 7.870495) scale(-1, 1) rotate(-29.000000) translate(-14.175448, -7.870495) translate(4.082579, -0.691208)">
                                    <g id="编组-28" transform="translate(0.000000, 0.000000)">
                                        <mask id="mask-33" fill="white">
                                            <use xlink:href="#path-32"></use>
                                        </mask>
                                        <use id="路径-104" fill="#D46A17" xlink:href="#path-32"></use>
                                        <path d="M6.47398232,-0.265581989 C6.13099998,1.2519432 5.68726769,2.17226132 5.14278546,2.49537235 C4.3260621,2.98003889 3.22047328,3.91841509 2.62939091,4.46892985 C2.23533599,4.8359397 1.57551841,5.75954671 0.649938169,7.23975088 L-0.312065996,6.23371186 L5.5279078,-0.771485957 L6.47398232,-0.265581989 Z" id="路径" fill-opacity="0.5" fill="#D9D9D9" mask="url(#mask-33)"></path>
                                        <path d="M10.2224473,1.92237558 C8.79865528,3.63322662 8.73553324,5.91320251 10.0330812,8.76230327 C11.9794031,13.0359544 15.9946365,13.5944106 16.6657213,15.8710259" id="路径-107" stroke="#D9D9D9" stroke-width="0.5" stroke-linecap="round" mask="url(#mask-33)"></path>
                                        <path d="M9.47728015,1.7471799 L11.0135344,2.23434012 C11.2548445,2.31081619 11.3884247,2.56845577 11.3119073,2.80975281 C11.3066931,2.82619565 11.3005548,2.84233102 11.2935218,2.85808193 C10.4464814,4.75508355 10.3956749,6.4460233 11.1411022,7.9309012 C12.3497605,10.338527 14.0992262,12.5728073 16.4123174,12.7280947 C17.9543783,12.8316196 16.6965375,8.90404465 12.6387951,0.945369943 L9.47728015,1.7471799 Z" id="路径-109" fill="#801F0A" mask="url(#mask-33)"></path>
                                        <path d="M0.76167285,5.55315548 C0.793234387,5.90279609 0.997559025,6.27558686 1.37464677,6.67152779 C1.94027837,7.26543917 4.93878949,9.06790339 6.45126722,9.78180074 C7.96374494,10.4956981 10.7029628,12.9508248 12.4464076,13.8585529 C14.1898524,14.7662811 19.1066208,15.9964238 20.1857369,15.4321268 C20.9051476,15.0559287 20.7044046,15.9726367 19.5835079,18.1822508 L10.2853007,17.123405 L2.57930046,12.1799914 L-1.99854205,7.91189218 L0.76167285,5.55315548 Z" id="路径-105" fill="#D9D9D9" mask="url(#mask-33)"></path>
                                        <path d="M10.2724404,6.50068356 C10.8092768,6.52694761 11.3883847,6.74912465 12.009764,7.16721468" id="路径-106" stroke="#FFFFFF" stroke-width="0.5" stroke-linecap="round"></path>
                                        <path d="M10.9465663,7.9309012 C11.3200804,7.93766925 11.6969511,8.01154837 12.0771785,8.15253856" id="路径-106复制" stroke="#FFFFFF" stroke-width="0.5" stroke-linecap="round"></path>
                                        <path d="M11.6755225,9.23526208 C12.0141102,9.14180927 12.335201,9.14756769 12.6387951,9.25253735" id="路径-106复制-2" stroke="#FFFFFF" stroke-width="0.5" stroke-linecap="round"></path>
                                        <path d="M13.567396,11.6514777 C13.9119297,11.5586539 14.1938278,11.5111311 14.4130905,11.5089093" id="路径-106复制-4" stroke="#FFFFFF" stroke-width="0.5" stroke-linecap="round"></path>
                                        <path d="M12.8106466,10.498961 C12.9156659,10.3867565 13.1099919,10.3421457 13.3936246,10.3651285" id="路径-106复制-3" stroke="#FFFFFF" stroke-width="0.5" stroke-linecap="round"></path>
                                        <path d="M14.8607378,12.7280947 C15.0134767,12.5653256 15.1569086,12.3919473 15.2910333,12.2079598" id="路径-106复制-5" stroke="#FFFFFF" stroke-width="0.5" stroke-linecap="round"></path>
                                    </g>
                                </g>
                            </g>
                        </g>
                        <g id="编组" transform="translate(26.894327, 119.564161)">
                            <g id="休闲鞋/橙色-copy" transform="translate(10.422721, 5.813318) scale(-1, 1) rotate(7.000000) translate(-10.422721, -5.813318) ">
                                <g id="编组-29复制" transform="translate(11.480941, 6.365841) scale(-1, 1) rotate(-29.000000) translate(-11.480941, -6.365841) translate(3.306552, -0.559065)">
                                    <g id="编组-28" transform="translate(0.000000, 0.000000)">
                                        <mask id="mask-35" fill="white">
                                            <use xlink:href="#path-34"></use>
                                        </mask>
                                        <use id="路径-104" fill="#D46A17" xlink:href="#path-34"></use>
                                        <path d="M5.24339064,-0.214808962 C4.96560329,1.01260112 4.60621681,1.75697606 4.1652312,2.01831587 C3.50375278,2.41032557 2.60831721,3.16930632 2.12958933,3.61457562 C1.81043741,3.91142181 1.27603971,4.6584569 0.526396203,5.85568086 L-0.252747666,5.04197283 L4.47714847,-0.623995994 L5.24339064,-0.214808962 Z" id="路径" fill-opacity="0.5" fill="#D9D9D9" mask="url(#mask-35)"></path>
                                        <path d="M8.27933748,1.5548626 C7.12618361,2.93863918 7.07505998,4.78273733 8.12596657,7.08715706 C9.70232645,10.5437867 12.9543337,10.9954792 13.497857,12.8368592" id="路径-107" stroke="#D9D9D9" stroke-width="0.5" stroke-linecap="round" mask="url(#mask-35)"></path>
                                        <path d="M7.67581368,1.41316022 L8.82709821,1.77774998 C9.06844352,1.85412701 9.2021259,2.11171824 9.12570124,2.35304847 C9.12098758,2.36793303 9.11551648,2.38256701 9.10930933,2.3968932 C8.45948193,3.89670396 8.43083616,5.23597273 9.02337202,6.4146995 C10.0022854,8.36204393 11.419208,10.1691824 13.2926207,10.2947824 C14.5415626,10.3785158 13.5228155,7.20180082 10.2363795,0.764637454 L7.67581368,1.41316022 Z" id="路径-109" fill="#801F0A" mask="url(#mask-35)"></path>
                                        <path d="M0.61689206,4.49152282 C0.642454297,4.77432037 0.807940368,5.07584231 1.11335027,5.39608865 C1.57146513,5.87645816 4.00001132,7.33433363 5.22499328,7.9117506 C6.44997524,8.48916757 8.66851536,10.4749318 10.0805616,11.2091237 C11.4926078,11.9433156 15.4747838,12.9382839 16.3487786,12.4818672 C16.9314419,12.1775894 16.7688566,12.9190444 15.8610229,14.7062322 L8.33024354,13.8498129 L2.08902021,9.85146365 L-1.6186539,6.39932456 L0.61689206,4.49152282 Z" id="路径-105" fill="#D9D9D9" mask="url(#mask-35)"></path>
                                        <path d="M8.31982774,5.25790582 C8.75462089,5.2791488 9.2236504,5.45885082 9.72691629,5.79701188" id="路径-106" stroke="#FFFFFF" stroke-width="0.5" stroke-linecap="round"></path>
                                        <path d="M8.865814,6.4146995 C9.16832956,6.42017366 9.47356372,6.47992883 9.78151647,6.59396501" id="路径-106复制" stroke="#FFFFFF" stroke-width="0.5" stroke-linecap="round"></path>
                                        <path d="M9.45620827,7.46969727 C9.73043632,7.39411044 9.9904934,7.39876798 10.2363795,7.48366991" id="路径-106复制-2" stroke="#FFFFFF" stroke-width="0.5" stroke-linecap="round"></path>
                                        <path d="M10.9884695,9.42398929 C11.2675133,9.34891125 11.4958275,9.31047369 11.6734121,9.3086766" id="路径-106复制-4" stroke="#FFFFFF" stroke-width="0.5" stroke-linecap="round"></path>
                                        <path d="M10.375565,8.49180666 C10.4606219,8.40105302 10.61801,8.36497075 10.847729,8.38355985" id="路径-106复制-3" stroke="#FFFFFF" stroke-width="0.5" stroke-linecap="round"></path>
                                        <path d="M12.0359695,10.2947824 C12.1596754,10.163131 12.2758433,10.0228986 12.3844733,9.87408516" id="路径-106复制-5" stroke="#FFFFFF" stroke-width="0.5" stroke-linecap="round"></path>
                                    </g>
                                </g>
                            </g>
                        </g>
                    </g>
                    <g id="编组-18备份" transform="translate(81.001138, 11.612382) rotate(-102.000000) translate(-81.001138, -11.612382) translate(75.501138, 6.112382)" fill-rule="nonzero">
                        <path d="M9.83638536,0.769203831 C9.83638536,5.78268088 5.73188455,9.86074967 0.68591264,9.86074967 C0.445162227,9.86074967 0.2494302,10.0552212 0.2494302,10.2944213 C0.2494302,10.5336213 0.445162227,10.7280929 0.68591264,10.7280929 C6.21142804,10.7280929 10.7074218,6.26108093 10.7074218,0.771148544 C10.7093502,0.530003793 10.5136182,0.335532234 10.2728678,0.335532234 C10.0321174,0.335532234 9.83638536,0.530003793 9.83638536,0.769203831 Z" id="路径" fill="url(#linearGradient-36)"></path>
                        <path d="M0.520054944,4.40961837 C0.279304531,4.40961837 0.0835725038,4.60408993 0.0835725038,4.84328997 C0.0835725038,5.08249001 0.279304531,5.27696156 0.520054944,5.27696156 C3.16243743,5.27696156 5.31353253,3.14166374 5.31353253,0.514352854 C5.31353253,0.275152817 5.1178005,0.0806812575 4.87705007,0.0806812575 C4.63629964,0.0806812575 4.44056763,0.275152817 4.44056763,0.514352854 C4.44056763,2.66131897 2.68289395,4.40961837 0.520054944,4.40961837 L0.520054944,4.40961837 Z" id="路径" fill="url(#linearGradient-37)"></path>
                        <path d="M0.736000889,7.22210903 C0.495234791,7.22210903 0.299490011,7.41662912 0.299490011,7.65588887 C0.299490011,7.89514863 0.495234791,8.0896687 0.736000889,8.0896687 C4.82119465,8.0896687 8.14298372,4.78671738 8.14298372,0.729028049 C8.14298372,0.489768316 7.94723894,0.295248224 7.70647284,0.295248224 C7.46570674,0.295248224 7.26996196,0.489768316 7.26996196,0.729028049 C7.27191941,4.30819791 4.33966247,7.22210905 0.736000889,7.22210903 L0.736000889,7.22210903 Z" id="路径" fill="url(#linearGradient-38)"></path>
                    </g>
                </g>
                <g id="编组-19备份-4" transform="translate(151.998383, 26.404854) rotate(-5.000000) translate(-151.998383, -26.404854) translate(131.998383, 12.404854)">
                    <ellipse id="椭圆形" stroke-opacity="0.5" stroke="#FFFFFF" stroke-width="0.5" transform="translate(4.244885, 17.779199) rotate(18.000000) translate(-4.244885, -17.779199) " cx="4.2448849" cy="17.779199" rx="3.12447197" ry="3.06268392"></ellipse>
                    <ellipse id="椭圆形备份-6" stroke-opacity="0.5" stroke="#FFFFFF" stroke-width="0.5" transform="translate(21.303740, 4.359688) rotate(18.000000) translate(-21.303740, -4.359688) " cx="21.3037401" cy="4.35968796" rx="3.12447197" ry="3.06268392"></ellipse>
                    <ellipse id="椭圆形" fill-opacity="0.5" fill="#FFFFFF" transform="translate(4.244885, 17.779199) rotate(18.000000) translate(-4.244885, -17.779199) " cx="4.2448849" cy="17.779199" rx="2.38198022" ry="2.33836512"></ellipse>
                    <ellipse id="椭圆形备份-7" fill-opacity="0.5" fill="#FFFFFF" transform="translate(21.303740, 4.359688) rotate(18.000000) translate(-21.303740, -4.359688) " cx="21.3037401" cy="4.35968796" rx="2.38198022" ry="2.33836512"></ellipse>
                    <ellipse id="椭圆形" fill="#FFFFFF" transform="translate(21.303740, 4.359688) rotate(18.000000) translate(-21.303740, -4.359688) " cx="21.3037401" cy="4.35968796" rx="1" ry="1"></ellipse>
                    <ellipse id="椭圆形备份-13" fill="#FFFFFF" transform="translate(4.244885, 17.779199) rotate(18.000000) translate(-4.244885, -17.779199) " cx="4.2448849" cy="17.779199" rx="1" ry="1"></ellipse>
                    <ellipse id="椭圆形" stroke-opacity="0.5" stroke="#FFFFFF" stroke-width="0.5" transform="translate(35.261906, 19.938612) rotate(18.000000) translate(-35.261906, -19.938612) " cx="35.2619058" cy="19.9386117" rx="3.12447197" ry="3.06268392"></ellipse>
                    <ellipse id="椭圆形" fill-opacity="0.5" fill="#FFFFFF" transform="translate(35.261906, 19.938612) rotate(18.000000) translate(-35.261906, -19.938612) " cx="35.2619058" cy="19.9386117" rx="2.38198022" ry="2.33836512"></ellipse>
                    <ellipse id="椭圆形" fill="#FFFFFF" transform="translate(35.261906, 19.938612) rotate(18.000000) translate(-35.261906, -19.938612) " cx="35.2619058" cy="19.9386117" rx="1" ry="1"></ellipse>
                    <path d="M8.04097788,15.6899816 C9.5073229,10.0319201 11.2116541,6.5244619 15.5546246,2.88541567" id="路径-10" stroke="url(#linearGradient-39)" stroke-width="0.5" stroke-linecap="round" transform="translate(11.797801, 9.287699) rotate(18.000000) translate(-11.797801, -9.287699) "></path>
                    <path d="M25.7921343,17.2274264 C27.2562038,11.571518 28.959331,8.06576598 33.301721,4.42969274" id="路径-10备份-2" stroke="url(#linearGradient-40)" stroke-width="0.5" stroke-linecap="round" transform="translate(29.546928, 10.828560) scale(-1, 1) rotate(11.000000) translate(-29.546928, -10.828560) "></path>
                    <path d="M8.78256717,25.3104603 C14.4537734,20.3512206 22.8350653,18.0970833 32.0152279,20.1361713" id="路径-11" stroke="url(#linearGradient-41)" stroke-width="0.5" opacity="0.680868459" stroke-linecap="round" transform="translate(20.398898, 22.348734) scale(1, -1) rotate(10.000000) translate(-20.398898, -22.348734) "></path>
                </g>
            </g>
        </g>
    </g>
</svg>