<?xml version="1.0" encoding="UTF-8"?>
<svg width="64px" height="64px" viewBox="0 0 64 64" version="1.1" xmlns="http://www.w3.org/2000/svg" xmlns:xlink="http://www.w3.org/1999/xlink">
    <title>安全隐私（新）</title>
    <defs>
        <linearGradient x1="50%" y1="0.938429474%" x2="50%" y2="99.7962365%" id="linearGradient-1">
            <stop stop-color="#00B5FF" offset="0%"></stop>
            <stop stop-color="#0087FF" offset="100%"></stop>
        </linearGradient>
        <polygon id="path-2" points="0 0 64 0 64 64 0 64"></polygon>
    </defs>
    <g id="安全隐私（新）" stroke="none" stroke-width="1" fill="none" fill-rule="evenodd">
        <mask id="mask-3" fill="white">
            <use xlink:href="#path-2"></use>
        </mask>
        <use id="蒙版" fill="url(#linearGradient-1)" xlink:href="#path-2"></use>
        <path d="M34.0833333,13.25 L36.0115377,13.9634005 L36.8155967,14.2669728 L37.8511442,14.695958 L39.1976602,15.2499034 L40.6118718,15.82448 L41.5274863,16.1915612 L42.5319105,16.5887282 L44.5659633,17.3752676 L44.743952,17.4482889 C45.8830015,17.9346385 46.9563528,18.7066567 47.4161488,19.495492 C47.66862,19.9286366 47.7732117,20.3436865 47.81245,20.9713849 L47.81245,20.9713849 L47.8227648,21.1769433 C47.824154,21.2124708 47.8253862,21.2486547 47.8264735,21.2855285 L47.8264735,21.2855285 L47.8313538,21.5153205 L47.8333333,21.7632867 L47.8329893,22.0310418 L47.825711,22.7072711 L47.8238602,32.6051685 L47.822474,32.8307883 C47.7624453,37.7051373 45.754771,41.6674833 42.2270102,45.3771472 L42.2270102,45.3771472 L42.0805638,45.529961 L42.0271418,45.5868083 L41.9799573,45.6340202 L41.8675382,45.7342422 C40.5780808,46.7979782 38.982557,47.9363463 37.1561648,49.1134243 L37.1561648,49.1134243 L37.0235723,49.1960943 L36.8663843,49.2890393 L36.6843302,49.3924193 L36.4771392,49.5063945 L36.161315,49.6751198 L35.7996808,49.8633457 L35.1699323,50.1830783 L34.0901948,50.75 L34.0833333,46.7696115 L34.778579,46.4068385 L34.9922228,46.2894782 L35.121691,46.2153698 L35.22451,46.1533518 L35.5089412,45.9695537 C37.0351398,44.9766942 38.3703865,44.0235173 39.4526302,43.1455987 L39.4526302,43.1455987 L39.556055,43.0610733 L39.689686,42.9215125 C42.6920527,39.7603402 44.2999785,36.5390063 44.2999785,32.6051685 L44.2999785,32.6051685 L44.3002482,22.8707402 L44.3091472,22.0142666 C44.2801533,21.6251822 44.1912015,21.3460744 44.0422922,21.1769433 C43.818928,20.9232466 43.5946992,20.7973966 43.2945812,20.6753661 L43.2945812,20.6753661 L40.921125,19.7555619 L39.6831518,19.2628719 L38.0864627,18.6162217 L36.5113863,17.968842 L35.5299438,17.5616815 L35.062146,17.3834878 L34.0833333,17.0088605 L34.0833333,13.25 Z M30.3333333,13.25 L30.3333333,17.0088605 L29.3545207,17.3834878 L28.8867228,17.5616815 L27.9052803,17.968842 L26.330204,18.6162217 L24.7335149,19.2628719 L23.4955417,19.7555619 L21.1220855,20.6753661 C20.8219675,20.7973966 20.5977387,20.9232466 20.3743746,21.1769433 C20.2254651,21.3460744 20.1365134,21.6251822 20.1075195,22.0142666 L20.1164185,22.8707402 L20.1166882,32.6051685 C20.1166882,36.5390063 21.724614,39.7603402 24.7269807,42.9215125 L24.8606117,43.0610733 L24.9640365,43.1455987 C26.0462801,44.0235173 27.3815269,44.9766942 28.9077255,45.9695537 L29.1921567,46.1533518 L29.2949757,46.2153698 L29.4244438,46.2894782 L29.6380877,46.4068385 L30.3333333,46.7696115 L30.3264718,50.75 L29.2467343,50.1830783 L28.6169858,49.8633457 L28.2553516,49.6751198 L27.9395276,49.5063945 L27.7323366,49.3924193 L27.5502824,49.2890393 L27.3930943,49.1960943 L27.2605018,49.1134243 C25.4341097,47.9363463 23.8385858,46.7979782 22.5491284,45.7342422 L22.4367093,45.6340202 L22.3895249,45.5868083 L22.3361028,45.529961 L22.1896565,45.3771472 C18.6618956,41.6674833 16.6542214,37.7051373 16.5941926,32.8307883 L16.5928065,32.6051685 L16.5909557,22.7072711 L16.5836774,22.0310418 L16.5833333,21.7632867 L16.5853128,21.5153205 L16.5901932,21.2855285 C16.5912805,21.2486547 16.5925127,21.2124708 16.5939018,21.1769433 L16.6042167,20.9713849 C16.6434549,20.3436865 16.7480468,19.9286366 17.0005179,19.495492 C17.4603139,18.7066567 18.5336653,17.9346385 19.6727146,17.4482889 L19.8507034,17.3752676 L21.8847561,16.5887282 L22.8891803,16.1915612 L23.8047948,15.82448 L25.2190065,15.2499034 L26.5655224,14.695958 L27.60107,14.2669728 L28.405129,13.9634005 L30.3333333,13.25 Z M34.5,25.75 L34.5,36.5833333 L29.9166667,36.5833333 L29.9166667,25.75 L34.5,25.75 Z" id="TMG_mianxing" fill="#FFFFFF" fill-rule="nonzero" mask="url(#mask-3)"></path>
    </g>
</svg>