<svg width="24.000000" height="24.000000" viewBox="0 0 24 24" fill="none" xmlns="http://www.w3.org/2000/svg" xmlns:xlink="http://www.w3.org/1999/xlink">
	<desc>
			Created with Pixso.
	</desc>
	<defs>
		<clipPath id="clip89_46197">
			<rect id="yingyonghao" width="24.000000" height="24.000000" fill="white" fill-opacity="0"/>
		</clipPath>
	</defs>
	<rect id="yingyonghao" width="24.000000" height="24.000000" fill="#FFFFFF" fill-opacity="0"/>
	<g clip-path="url(#clip89_46197)">
		<path id="差集" d="M12.29 23.01C12.4967 23.01 12.6967 22.9867 12.89 22.94C14.6034 22.4133 16.12 21.5734 17.4399 20.42C18.1184 19.8272 18.7177 19.1763 19.2375 18.4673C19.7292 17.7968 20.15 17.0744 20.5 16.3C20.7444 15.7614 20.9474 15.2108 21.1088 14.6483C21.423 13.554 21.58 12.4146 21.58 11.23L21.58 6.42999C21.58 6.01001 21.4767 5.63666 21.27 5.31C21.0566 4.98334 20.7667 4.73334 20.4 4.56L13.25 1.21997C13.0348 1.11707 12.8146 1.05023 12.5896 1.01953C12.4939 1.00653 12.3975 1 12.3 1C12.2026 1 12.1061 1.00653 12.0105 1.01953C11.7854 1.05023 11.5652 1.11707 11.35 1.21997L4.18005 4.56C3.94885 4.66925 3.74817 4.80902 3.57788 4.97925C3.47815 5.07904 3.38879 5.18927 3.31006 5.31C3.26086 5.38763 3.21765 5.4679 3.18018 5.55084C3.06006 5.81677 3 6.1098 3 6.42999L3 11.2C3 11.9983 3.07617 12.7815 3.22839 13.5496C3.41174 14.475 3.70569 15.3784 4.10999 16.26C4.84338 17.8667 5.87 19.2534 7.18994 20.42C7.81812 20.9752 8.4884 21.4563 9.20105 21.8635Q10.3787 22.5364 11.71 22.94C11.9033 22.9867 12.0967 23.01 12.29 23.01ZM15.085 8.30267C15.1744 8.12988 15.3014 8.03558 15.4656 8.0199L16.7751 8.0199Q16.877 8.0199 16.9626 8.05688Q17.0372 8.08917 17.0999 8.14948C17.1893 8.2359 17.249 8.34192 17.2789 8.46759C17.3013 8.60114 17.2864 8.73468 17.2341 8.86823L13.7417 15.1716L13.7192 15.2069C13.5924 15.4269 13.4133 15.6193 13.182 15.7842C12.9507 15.9413 12.7007 16.0199 12.432 16.0199Q11.8947 16.0199 11.5365 15.8196C11.3052 15.6939 11.1111 15.4779 10.9543 15.1716L7.34998 8.72681C7.29773 8.63257 7.27905 8.53046 7.29395 8.42047C7.31641 8.30267 7.36487 8.20844 7.43945 8.1377C7.52161 8.05914 7.6261 8.0199 7.75293 8.0199L9.17456 8.0199Q9.27625 8.0199 9.36511 8.05365Q9.39368 8.06451 9.42078 8.0788C9.48804 8.1181 9.54016 8.17303 9.57751 8.24377L12.2891 13.5199L15.085 8.30267Z" clip-rule="evenodd" fill="#FFFFFF" fill-opacity="1.000000" fill-rule="evenodd"/>
	</g>
</svg>
