<svg width="24.000000" height="24.000000" viewBox="0 0 24 24" fill="none" xmlns="http://www.w3.org/2000/svg" xmlns:xlink="http://www.w3.org/1999/xlink">
	<desc>
			Created with Pixso.
	</desc>
	<defs>
		<clipPath id="clip8_47626">
			<rect id="dot_grid_1x2" width="24.000000" height="24.000000" fill="white" fill-opacity="0"/>
		</clipPath>
	</defs>
	<g clip-path="url(#clip8_47626)">
		<g opacity="0.000000">
			<rect id="rect" width="24.000000" height="24.000000" fill="#000000" fill-opacity="1.000000"/>
		</g>
		<path id="path" d="M13.75 17.5C13.75 17.02 13.58 16.6 13.24 16.26C12.89 15.91 12.48 15.74 12 15.74C11.52 15.74 11.1 15.91 10.76 16.26C10.42 16.6 10.25 17.02 10.25 17.5C10.25 17.98 10.42 18.39 10.76 18.73C11.1 19.07 11.52 19.25 12 19.25C12.48 19.25 12.89 19.07 13.24 18.73C13.58 18.39 13.75 17.98 13.75 17.5ZM13.75 6.5C13.75 6 13.58 5.59 13.24 5.26C12.89 4.92 12.48 4.75 12 4.75C11.52 4.75 11.1 4.92 10.76 5.26C10.42 5.59 10.25 6 10.25 6.5C10.25 6.97 10.42 7.39 10.76 7.73C11.1 8.08 11.52 8.26 12 8.26C12.48 8.26 12.89 8.08 13.24 7.73C13.58 7.39 13.75 6.97 13.75 6.5Z" fill="#FFFFFF" fill-opacity="0.901961" fill-rule="nonzero"/>
	</g>
</svg>
