<?xml version="1.0" encoding="UTF-8"?>
<svg width="24px" height="24px" viewBox="0 0 24 24" version="1.1" xmlns="http://www.w3.org/2000/svg" xmlns:xlink="http://www.w3.org/1999/xlink">
    <title>选中/苹果</title>
    <g id="选中/苹果" stroke="none" stroke-width="1" fill="none" fill-rule="evenodd">
        <rect id="矩形备份" x="0" y="0" width="24" height="24"></rect>
        <path d="M14.0456884,2.9842255 C14.2244141,2.8293548 14.8997531,2.80714957 15.0571329,2.9842255 C15.2145126,3.16130144 15.2040084,3.43324252 15.0334516,3.59730446 C13.268775,5.22255854 13.3077822,5.91361642 12.9946623,6.43615773 C13.8727444,6.07253274 14.6117341,5.52101926 15.6839839,5.52101926 L15.9000394,5.52101926 C18.5329209,5.52101926 20.6666667,7.30334137 20.6666667,11.6704301 C20.6666667,16.0367196 17.6663331,21.3333333 15.0334516,21.3333333 C13.6551118,21.3333333 12.8137567,20.941702 12,20.5380821 C11.1862433,20.9409028 10.3440997,21.3333333 8.9665484,21.3333333 C6.33366694,21.3333333 3.33333333,16.0367196 3.33333333,11.6704301 C3.33333333,7.30414061 5.46707913,5.52101926 8.09996059,5.52101926 L8.31601614,5.52101926 C9.27407273,5.52101926 10.7486125,5.86389648 11.6096807,6.28669843 C12.1647126,4.76790001 12.9767152,3.6670757 14.0456884,2.9842255 Z" id="路径" fill="#0A59F7" fill-rule="nonzero"></path>
        <path d="M9.86430431,5.30894841 C11.6872671,5.3110402 13.1620886,3.46741712 13.1620886,3.46741712 C13.1620886,3.46741712 11.683063,1.61996487 9.86011982,1.61786954 C8.03717665,1.61577778 6.56233557,3.45940082 6.56233557,3.45940082 C6.56233557,3.45940082 8.04136114,5.30685308 9.86430431,5.30894841 Z" id="路径" fill-opacity="0.6" fill="#0A59F7" fill-rule="nonzero" transform="translate(9.862212, 3.463409) rotate(5.000000) translate(-9.862212, -3.463409) "></path>
    </g>
</svg>