<?xml version="1.0" encoding="UTF-8"?>
<svg width="24px" height="24px" viewBox="0 0 24 24" version="1.1" xmlns="http://www.w3.org/2000/svg" xmlns:xlink="http://www.w3.org/1999/xlink">
    <title>选中/小花</title>
    <g id="选中/小花" stroke="none" stroke-width="1" fill="none" fill-rule="evenodd">
        <path d="M12,2 C10.0324444,2 8.43555554,3.6 8.43555554,5.57138889 L8.46383378,5.84277778 C7.89355593,5.44277778 7.19519429,5.21444444 6.43916722,5.21444444 C4.47188886,5.21444444 2.875,6.81444444 2.875,8.78555556 C2.875,10.2144444 3.71613903,11.4286111 4.91380568,12 C3.71613903,12.5713889 2.875,13.7855556 2.875,15.2141667 C2.875,17.1855556 4.47188886,18.7855556 6.43916722,18.7855556 C7.19519429,18.7855556 7.87941681,18.5569444 8.46383378,18.1572222 L8.43555554,18.4286111 C8.43555554,20.4 10.0324444,22 12,22 C13.9675556,22 15.5644445,20.4 15.5644445,18.4286111 L15.535889,18.1572222 C16.1064441,18.5569444 16.8050829,18.7855556 17.5605555,18.7855556 C19.5281111,18.7855556 21.125,17.1855556 21.125,15.2141667 C21.125,13.7855556 20.283861,12.5713889 19.0861943,12 C20.283861,11.4286111 21.125,10.2144444 21.125,8.78555556 C21.125,6.81444444 19.5281111,5.21444444 17.5605555,5.21444444 C16.8050829,5.21444444 16.1205832,5.44277778 15.535889,5.84277778 L15.5644445,5.57138889 C15.5644445,3.6 13.9675556,2 12,2" id="路径" fill="#0A59F7"></path>
        <path d="M14.5,12 C14.5,13.380625 13.380625,14.5 12,14.5 C10.619375,14.5 9.5,13.380625 9.5,12 C9.5,10.619375 10.619375,9.5 12,9.5 C13.380625,9.5 14.5,10.619375 14.5,12 Z" id="路径" fill-opacity="0.8" fill="#FFFFFF" fill-rule="nonzero"></path>
    </g>
</svg>