<svg width="72.000000" height="72.000000" viewBox="0 0 72 72" fill="none" xmlns="http://www.w3.org/2000/svg" xmlns:xlink="http://www.w3.org/1999/xlink">
	<desc>
			Created with Pixso.
	</desc>
	<defs/>
	<rect id="矩形 14" width="72.000000" height="72.000000" fill="#C4C4C4" fill-opacity="0"/>
	<rect id="编组" width="64.000000" height="64.000000" transform="translate(4.000000 4.000000)" fill="#FFFFFF" fill-opacity="0"/>
	<g opacity="0.000000">
		<rect id="矩形" x="4.000000" y="4.000000" width="64.000000" height="64.000000" fill="#000000" fill-opacity="1.000000"/>
	</g>
	<path id="路径" d="M44.47 25.33C44.03 25.37 43.69 25.62 43.45 26.08L36 40L28.76 25.93C28.66 25.74 28.53 25.59 28.35 25.49C28.15 25.38 27.93 25.33 27.69 25.33L23.9 25.33C23.56 25.33 23.28 25.43 23.06 25.64C22.86 25.83 22.73 26.08 22.67 26.4C22.64 26.69 22.68 26.96 22.82 27.21L32.44 44.4C32.85 45.22 33.37 45.79 33.99 46.13C34.62 46.48 35.42 46.66 36.38 46.66C37.09 46.66 37.76 46.45 38.38 46.03C38.99 45.59 39.47 45.08 39.81 44.49L39.87 44.4L49.18 27.59C49.32 27.23 49.36 26.88 49.3 26.52C49.22 26.19 49.06 25.9 48.82 25.67C48.58 25.44 48.3 25.33 47.96 25.33L44.47 25.33Z" fill="#000000" fill-opacity="0.400000" fill-rule="evenodd"/>
	<path id="形状" d="M36.0005 65.3067C36.5513 65.3067 37.085 65.2445 37.6006 65.1201Q41.9053 63.7968 45.5894 61.4843Q47.7705 60.1155 49.7339 58.4001C53.2539 55.3245 55.9736 51.6623 57.8936 47.4134Q58.8716 45.2588 59.5171 43.009Q60.7739 38.6315 60.7739 33.8934L60.7739 21.0934C60.7739 19.9734 60.498 18.9778 59.9473 18.1067C59.3779 17.2356 58.605 16.569 57.627 16.1067L38.5605 7.20007Q37.6997 6.78835 36.7993 6.66557L36.7993 6.66557Q36.4165 6.6134 36.0269 6.6134C35.1558 6.6134 34.3115 6.80896 33.4937 7.20007L14.3735 16.1067Q13.4492 16.5438 12.7681 17.2247Q12.3691 17.6238 12.0537 18.1067Q11.8574 18.4173 11.7075 18.7489Q11.2271 19.8127 11.2271 21.0934L11.2271 33.8134C11.2271 38.5067 12.2139 43.0045 14.187 47.3067Q15.6963 50.6135 17.8271 53.4543L17.8271 53.4545Q19.8374 56.1346 22.4004 58.4001C25.9204 61.5112 29.938 63.7512 34.4536 65.1201C34.9692 65.2445 35.4849 65.3067 36.0005 65.3067ZM29.7988 58.8008Q32.5342 60.355 35.627 61.2801C35.876 61.3689 36.1694 61.3689 36.5068 61.2801C40.5249 60.0889 44.0537 58.1334 47.0938 55.4134Q49.2295 53.5259 50.9258 51.3031Q52.8726 48.7524 54.2402 45.76Q55.272 43.5032 55.8882 41.1381Q56.8003 37.6345 56.8003 33.8934L56.8003 21.0934C56.8003 20.8267 56.7114 20.5245 56.5337 20.1867C56.4624 20.0267 56.2759 19.8756 55.9736 19.7334L36.9072 10.8534C36.605 10.7289 36.3027 10.6667 36.0005 10.6667C35.6982 10.6667 35.4229 10.7289 35.1738 10.8534L16.0269 19.7334C15.7783 19.8756 15.5913 20.0267 15.4673 20.1867C15.2891 20.5245 15.2002 20.8267 15.2002 21.0934L15.2002 33.8134Q15.2002 37.1639 15.9526 40.336Q16.5952 43.0464 17.7871 45.6267Q18.9658 48.1791 20.5713 50.4268Q22.4888 53.1106 25.0137 55.36Q27.2515 57.3533 29.7988 58.8008Z" clip-rule="evenodd" fill="#000000" fill-opacity="0.400000" fill-rule="evenodd"/>
</svg>
