<svg viewBox="0 0 24 24" xmlns="http://www.w3.org/2000/svg" xmlns:xlink="http://www.w3.org/1999/xlink" width="24" height="24" fill="none">
	<rect id="simcard_fill_2_and_simcard_e" width="24" height="24" x="0" y="0" />
	<g id="simcard_fill_2_and_simcard_e">
		<path id="矢量 4" d="M11.0449 1.97694C10.9148 1.84684 10.7847 1.7577 10.6546 1.70951C10.5197 1.65651 10.3655 1.63 10.192 1.63L4.81453 1.63C4.31822 1.63 3.85564 1.75288 3.4268 1.99862C2.99795 2.24918 2.66065 2.58648 2.41491 3.01051C2.16434 3.42972 2.03906 3.89471 2.03906 4.40547L2.03906 14.7267C2.03906 15.2327 2.16434 15.7001 2.41491 16.1289C2.66065 16.5578 2.99795 16.8975 3.4268 17.148C3.85564 17.3938 4.31822 17.5167 4.81453 17.5167L12.2591 17.5167C12.7651 17.5167 13.2325 17.3938 13.6613 17.148C14.0902 16.8975 14.4275 16.5578 14.6732 16.1289C14.9238 15.7001 15.0491 15.2327 15.0491 14.7267L15.0491 6.46539C15.0491 6.14255 14.9286 5.86066 14.6877 5.61974L11.0449 1.97694ZM8.47178 12.3343L10.1197 12.3343C10.3992 12.3343 10.6305 12.4114 10.8136 12.5656C11.0015 12.7198 11.0955 12.9198 11.0955 13.1655C11.0955 13.4209 11.0015 13.6281 10.8136 13.7871C10.6305 13.951 10.3992 14.0329 10.1197 14.0329L6.98286 14.0329C6.70339 14.0329 6.46969 13.9654 6.28177 13.8305C6.08903 13.7004 5.99266 13.5366 5.99266 13.339L5.99266 12.8692C5.99266 12.7439 6.02157 12.6283 6.07939 12.5223L6.12998 12.45L7.81406 9.86967C8.23327 9.23363 8.51033 8.77587 8.64525 8.49639C8.78499 8.22174 8.85486 7.93985 8.85486 7.65074C8.85486 7.38091 8.79463 7.18335 8.67416 7.05807C8.5537 6.93278 8.41155 6.8846 8.24772 6.91351C8.08871 6.94242 7.9562 7.03156 7.8502 7.18094C7.66709 7.43632 7.47676 7.6122 7.2792 7.70857C7.08164 7.80494 6.87204 7.80253 6.65038 7.70134C6.4191 7.59533 6.25527 7.43632 6.1589 7.2243C6.06253 7.00747 6.06494 6.79064 6.16612 6.5738C6.38778 6.08713 6.69857 5.72334 7.09851 5.48241C7.49363 5.23667 7.95138 5.11379 8.47178 5.11379C9.23793 5.11379 9.82338 5.33063 10.2281 5.76429C10.6329 6.19796 10.8353 6.77859 10.8353 7.50619C10.8353 7.94949 10.7534 8.36388 10.5895 8.74937C10.4305 9.13485 10.0908 9.74439 9.57041 10.578L8.47178 12.3343Z" fill="rgb(10,89,247)" fill-rule="nonzero" />
		<rect id="rect" width="24" height="24" x="0" y="0" opacity="0" fill="rgb(0,0,0)" />
		<path id="减去顶层" d="M22.9688 11.86C23.1426 12 23.2285 12.2 23.2285 12.46L23.2285 20.88C23.2285 21.3733 23.1055 21.8367 22.8594 22.27C22.6133 22.7034 22.2734 23.0433 21.8398 23.29C21.4062 23.5366 20.9434 23.66 20.4492 23.66L13.0098 23.66C12.4961 23.66 12.0254 23.5366 11.5996 23.29C11.1797 23.0433 10.8398 22.7034 10.5801 22.27C10.3262 21.8367 10.1992 21.3733 10.1992 20.88L10.1992 18.84L12.2598 18.84C12.9316 18.84 13.5586 18.689 14.1406 18.3873C14.3203 18.6246 14.5254 18.8302 14.7539 19.0039C14.8789 19.0992 15.0117 19.1851 15.1523 19.2612C15.2637 19.3221 15.3789 19.3767 15.4961 19.4249Q16.1738 19.7021 16.9609 19.7021C17.5117 19.7021 18.0176 19.6011 18.4785 19.3988L18.707 19.2886C19.0684 19.099 19.3477 18.8555 19.5488 18.5581C19.6406 18.4231 19.7148 18.2769 19.7734 18.1196L18.6973 17.4907C18.543 17.7719 18.3477 17.9905 18.1113 18.1469C17.8164 18.3429 17.4551 18.4409 17.0293 18.4409C16.6367 18.4409 16.2891 18.3596 15.9844 18.1969C15.832 18.1152 15.6895 18.0132 15.5586 17.8906C15.4492 17.7867 15.3516 17.6687 15.2676 17.5364Q15.5781 17.2 15.8184 16.79C15.9219 16.6117 16.0098 16.4294 16.084 16.2432L19.9824 16.2432C20.0293 15.9447 20.0547 15.6884 20.0547 15.4741C20.0547 14.8671 19.9336 14.3181 19.6953 13.8274L19.6602 13.7583C19.5137 13.4701 19.332 13.2163 19.1133 12.9969C18.9492 12.8296 18.7637 12.6824 18.5566 12.5552L18.4219 12.4767C17.9766 12.2351 17.4648 12.1143 16.8887 12.1143C16.7129 12.1143 16.5391 12.126 16.3691 12.1495L16.3691 7.75L18.5 7.75Q18.6699 7.75 18.8398 7.81995C18.9531 7.87329 19.0488 7.93994 19.1289 8.02002L22.9688 11.86ZM16.3496 15.1528C16.3633 15.0171 16.3691 14.8794 16.3691 14.74L16.3691 13.4261C16.5156 13.3901 16.6719 13.3721 16.834 13.3721C17.1875 13.3721 17.4902 13.4509 17.7461 13.6086C17.8496 13.672 17.9434 13.748 18.0312 13.8369C18.3398 14.1625 18.5 14.5947 18.5254 15.1528L16.3496 15.1528Z" fill="rgb(0,0,0)" fill-opacity="0.400000006" fill-rule="evenodd" />
	</g>
</svg>
