<?xml version="1.0" encoding="UTF-8"?>
<svg width="24px" height="24px" viewBox="0 0 24 24" version="1.1" xmlns="http://www.w3.org/2000/svg"
     xmlns:xlink="http://www.w3.org/1999/xlink">
    <title>ic_simcard_1</title>
    <g id="ic_simcard_1" stroke="none" stroke-width="1" fill="none" fill-rule="evenodd">
        <g id="simcard_1-(1)" fill="#000000" fill-rule="nonzero">
            <rect id="矩形" opacity="0" x="0" y="0" width="24" height="24"></rect>
            <path d="M15.46,1.49 C15.28,1.31 15.1,1.18666667 14.92,1.12 C14.7333333,1.04666667 14.52,1.01 14.28,1.01 L6.84,1.01 C6.15333333,1.01 5.51333333,1.18 4.92,1.52 C4.32666667,1.86666667 3.86,2.33333333 3.52,2.92 C3.17333333,3.5 3,4.14333333 3,4.85 L3,19.13 C3,19.83 3.17333333,20.4766667 3.52,21.07 C3.86,21.6633333 4.32666667,22.1333333 4.92,22.48 C5.51333333,22.82 6.15333333,22.99 6.84,22.99 L17.14,22.99 C17.84,22.99 18.4866667,22.82 19.08,22.48 C19.6733333,22.1333333 20.14,21.6633333 20.48,21.07 C20.8266667,20.4766667 21,19.83 21,19.13 L21,7.7 C21,7.25333333 20.8333333,6.86333333 20.5,6.53 L15.46,1.49 Z M11.28,9.41 C11.12,9.50333333 11,9.57 10.92,9.61 C10.84,9.65 10.72,9.72 10.56,9.82 L10.13,10.03 C9.82333333,10.1766667 9.54666667,10.2266667 9.3,10.18 C9.05333333,10.1266667 8.85666667,10.0066667 8.71,9.82 C8.43666667,9.43333333 8.36,9.07666667 8.48,8.75 C8.6,8.42333333 8.80666667,8.15333333 9.1,7.94 L11.4,6.26 C11.56,6.13333333 11.7266667,6.06 11.9,6.04 C12.08,6.01333333 12.2966667,6 12.55,6 L12.65,6 C13.03,6 13.35,6.13333333 13.61,6.4 C13.8633333,6.66 13.99,6.98333333 13.99,7.37 L13.99,16.8 C13.99,17.2 13.8633333,17.5266667 13.61,17.78 C13.35,18.04 13.03,18.17 12.65,18.17 C12.25,18.17 11.92,18.04 11.66,17.78 C11.4066667,17.5266667 11.28,17.2 11.28,16.8 L11.28,9.41 Z"
                  id="形状"></path>
        </g>
    </g>
</svg>