<svg viewBox="0 0 24 24" xmlns="http://www.w3.org/2000/svg" xmlns:xlink="http://www.w3.org/1999/xlink" width="24" height="24" fill="none">
	<rect id="simcard_fill_e_and_simcard_fill_2" width="24" height="24" x="0" y="0" />
	<g id="simcard_fill_e_and_simcard_fill_2">
		<rect id="rect" width="24" height="24" x="0" y="0" opacity="0" fill="rgb(0,0,0)" />
		<g id="g">
			<path id="path" d="M16.4892 18.65L17.7592 16.58C18.2726 15.7667 18.6059 15.1767 18.7592 14.81C18.9059 14.4433 18.9792 14.05 18.9792 13.63C18.9792 12.93 18.7959 12.39 18.4292 12.01C18.0626 11.6367 17.5359 11.45 16.8492 11.45C16.6692 11.45 16.5092 11.4733 16.3692 11.52L16.3692 12.91C16.4492 12.8633 16.5526 12.84 16.6792 12.84C16.7726 12.84 16.8726 12.8633 16.9792 12.91C17.0859 12.9567 17.1726 13.05 17.2392 13.19C17.3126 13.3233 17.3492 13.52 17.3492 13.78C17.3492 14.1133 17.2826 14.4367 17.1492 14.75C17.0092 15.0633 16.7392 15.5133 16.3392 16.1L14.6392 18.7C14.5926 18.76 14.5692 18.8533 14.5692 18.98L14.5692 19.44C14.5692 19.5867 14.6459 19.7067 14.7992 19.8C14.9459 19.8933 15.1326 19.94 15.3592 19.94L18.4792 19.94C18.7059 19.94 18.8926 19.88 19.0392 19.76C19.1926 19.64 19.2692 19.4867 19.2692 19.3C19.2692 19.1067 19.1926 18.95 19.0392 18.83C18.8926 18.71 18.7059 18.65 18.4792 18.65L16.4892 18.65ZM22.9692 11.86C23.1426 12 23.2292 12.2 23.2292 12.46L23.2292 20.88C23.2292 21.3733 23.1059 21.8367 22.8592 22.27C22.6126 22.7033 22.2726 23.0433 21.8392 23.29C21.4059 23.5367 20.9426 23.66 20.4492 23.66L13.0092 23.66C12.4959 23.66 12.0259 23.5367 11.5992 23.29C11.1792 23.0433 10.8392 22.7033 10.5792 22.27C10.3259 21.8367 10.1992 21.3733 10.1992 20.88L10.1992 18.84L12.2592 18.84C12.9992 18.84 13.6859 18.6567 14.3192 18.29C14.9459 17.9233 15.4459 17.4233 15.8192 16.79C16.1859 16.1567 16.3692 15.4733 16.3692 14.74L16.3692 7.75L18.4992 7.75C18.6126 7.75 18.7259 7.77333 18.8392 7.82C18.9526 7.87333 19.0492 7.94 19.1292 8.02L22.9692 11.86Z" fill="rgb(0,0,0)" fill-opacity="0.400000006" fill-rule="nonzero" />
		</g>
		<path id="减去顶层" d="M14.6797 16.13C14.9258 15.6967 15.0488 15.2334 15.0488 14.74L15.0488 6.33997C15.0488 6.11328 14.9688 5.90332 14.8086 5.70996L10.9688 1.87C10.7754 1.70996 10.5664 1.63 10.3398 1.63L4.84961 1.63C4.33594 1.63 3.86328 1.7533 3.42969 2C2.99609 2.2533 2.65625 2.58997 2.4082 3.01001C2.16211 3.43665 2.03906 3.90662 2.03906 4.42004L2.03906 14.74Q2.03906 15.2001 2.17383 15.6161Q2.26172 15.8875 2.4082 16.14C2.65625 16.5667 2.99609 16.9033 3.42969 17.15C3.86328 17.3967 4.33594 17.52 4.84961 17.52L12.2598 17.52C12.7598 17.52 13.2266 17.3967 13.6582 17.15C14.0859 16.9033 14.4258 16.5634 14.6797 16.13ZM11.8828 9.30042Q11.8828 9.62183 11.8125 10.0695L6.70312 10.0695C6.76758 10.7986 6.99805 11.3478 7.38867 11.7169C7.51953 11.8395 7.66211 11.9415 7.81445 12.0232C8.11914 12.1859 8.4668 12.2672 8.85938 12.2672C9.28516 12.2672 9.64648 12.1692 9.94141 11.9731C10.1777 11.8168 10.373 11.5981 10.5273 11.317L11.6035 11.9459C11.5449 12.1031 11.4707 12.2494 11.3789 12.3844C11.1777 12.6818 10.8984 12.9253 10.5371 13.1149L10.3086 13.2251C9.84766 13.4274 9.3418 13.5284 8.79102 13.5284Q8.02734 13.5284 7.36719 13.2679L7.32617 13.2512C7.20898 13.203 7.09375 13.1484 6.98242 13.0875C6.8418 13.0114 6.70898 12.9255 6.58398 12.8302C6.22656 12.5577 5.92578 12.2072 5.6875 11.7784C5.36523 11.1997 5.20508 10.5093 5.20508 9.70715C5.20508 8.92334 5.36523 8.24658 5.6875 7.67688C5.92383 7.26001 6.2168 6.91699 6.56836 6.64771C6.69531 6.54907 6.83203 6.46033 6.97656 6.38147C7.20312 6.25671 7.43945 6.15845 7.68359 6.08667C8.01367 5.98926 8.35938 5.94055 8.71875 5.94055C9.29492 5.94055 9.80664 6.0614 10.252 6.30298L10.3867 6.38147C10.5938 6.50867 10.7793 6.65588 10.9434 6.82324C11.1621 7.0426 11.3438 7.29639 11.4902 7.58459L11.5254 7.65369C11.7637 8.14441 11.8828 8.69336 11.8828 9.30042ZM6.74609 8.97913L10.3555 8.97913C10.3301 8.42102 10.1699 7.98877 9.85938 7.66321C9.77344 7.57434 9.67969 7.49829 9.57617 7.43494C9.32031 7.27722 9.01758 7.19836 8.66406 7.19836C8.40234 7.19836 8.16211 7.24487 7.93945 7.33789C7.75586 7.41467 7.58594 7.52307 7.42969 7.66321C7.08594 7.97083 6.85742 8.40942 6.74609 8.97913Z" fill="rgb(10,89,247)" fill-rule="evenodd" />
	</g>
</svg>
