<?xml version="1.0" encoding="UTF-8"?>
<svg width="288px" height="192px" viewBox="0 0 288 192" version="1.1" xmlns="http://www.w3.org/2000/svg" xmlns:xlink="http://www.w3.org/1999/xlink">
    <title>可语音聊天</title>
    <defs>
        <rect id="path-1" x="0" y="0" width="288" height="192"></rect>
        <path d="M11.2258065,6.38709677 C11.6533817,6.38709677 12,6.73371503 12,7.16129032 C12,10.2124448 9.72252867,12.7316673 6.77482162,13.1117223 L6.77419355,14.7096774 C6.77419355,15.1372527 6.42757529,15.483871 6,15.483871 C5.58538154,15.483871 5.24688796,15.1579416 5.22675393,14.7483175 L5.22580645,14.7096774 L5.22517838,13.1117223 C2.27747133,12.7316673 0,10.2124448 0,7.16129032 C0,6.73371503 0.346618258,6.38709677 0.774193548,6.38709677 C1.20176884,6.38709677 1.5483871,6.73371503 1.5483871,7.16129032 C1.5483871,9.61984824 3.54144208,11.6129032 6,11.6129032 C8.43397234,11.6129032 10.4117053,9.65951004 10.4510165,7.23490588 L10.4516129,7.16129032 C10.4516129,6.73371503 10.7982312,6.38709677 11.2258065,6.38709677 Z M6,0 C7.71030116,0 9.09677419,1.38647303 9.09677419,3.09677419 L9.09677419,3.09677419 L9.09677419,7.16129032 C9.09677419,8.87159148 7.71030116,10.2580645 6,10.2580645 C4.28969884,10.2580645 2.90322581,8.87159148 2.90322581,7.16129032 L2.90322581,7.16129032 L2.90322581,3.09677419 C2.90322581,1.38647303 4.28969884,0 6,0 Z" id="path-3"></path>
    </defs>
    <g id="可语音聊天" stroke="none" stroke-width="1" fill="none" fill-rule="evenodd">
        <g id="编组-8备份-2-+-Group-2-蒙版">
            <mask id="mask-2" fill="white">
                <use xlink:href="#path-1"></use>
            </mask>
            <g id="蒙版"></g>
            <g id="编组-8备份-2" mask="url(#mask-2)">
                <g transform="translate(90.400000, -72.000000)">
                    <path d="M87.7875008,-2.99698739e-15 C94.5134745,1.74133598e-15 96.9524751,0.700313511 99.4113905,2.01535589 C101.870306,3.33039826 103.800077,5.2601695 105.11512,7.71908495 C106.430162,10.1780004 107.130475,12.617001 107.130475,19.3429747 L107.130475,206.989016 C107.130475,213.714989 106.430162,216.15399 105.11512,218.612905 C103.800077,221.071821 101.870306,223.001592 99.4113905,224.316635 C96.9524751,225.631677 94.5134745,226.33199 87.7875008,226.33199 L19.3429747,226.33199 C12.617001,226.33199 10.1780004,225.631677 7.71908495,224.316635 C5.2601695,223.001592 3.33039826,221.071821 2.01535589,218.612905 C0.700313511,216.15399 3.63971044e-15,213.714989 -6.26425137e-15,206.989016 L5.20986219e-16,19.3429747 C-3.02707997e-16,12.617001 0.700313511,10.1780004 2.01535589,7.71908495 C3.33039826,5.2601695 5.2601695,3.33039826 7.71908495,2.01535589 C10.1780004,0.700313511 12.617001,4.54061995e-16 19.3429747,-7.81479329e-16 L87.7875008,-2.99698739e-15 Z M87.1360954,4.52663981 L19.99438,4.52663981 C13.8289041,4.52663981 11.5931536,5.16859386 9.33914777,6.37404937 C7.08514194,7.57950488 5.31618497,9.34846185 4.11072947,11.6024677 C2.90527396,13.8564735 2.2633199,16.092224 2.2633199,22.2576999 L2.2633199,22.2576999 L2.2633199,202.062451 C2.2633199,208.227926 2.90527396,210.463677 4.11072947,212.717683 C5.31618497,214.971689 7.08514194,216.740646 9.33914777,217.946101 C11.5931536,219.151557 13.8289041,219.793511 19.99438,219.793511 L19.99438,219.793511 L87.1360954,219.793511 C93.3015713,219.793511 95.5373219,219.151557 97.7913277,217.946101 C100.045334,216.740646 101.81429,214.971689 103.019746,212.717683 C104.225202,210.463677 104.867156,208.227926 104.867156,202.062451 L104.867156,202.062451 L104.867156,22.2576999 C104.867156,16.092224 104.225202,13.8564735 103.019746,11.6024677 C101.81429,9.34846185 100.045334,7.57950488 97.7913277,6.37404937 C95.5373219,5.16859386 93.3015713,4.52663981 87.1360954,4.52663981 L87.1360954,4.52663981 Z" id="形状结合" fill="#505259"></path>
                    <g id="Rectangle-2" stroke-width="1" fill="none" transform="translate(2.179493, 4.526640)" opacity="0.1">
                        <g id="形状结合" transform="translate(0.081907, 0.000000)" >
                            <path d="M17.73298,-3.43685847e-15 L84.8746954,1.62319019e-15 C91.0401713,-9.43120245e-16 93.2759219,0.641954052 95.5299277,1.84740956 C97.7839335,3.05286507 99.5528905,4.82182204 100.758346,7.07582787 C101.963802,9.3298337 102.605756,11.5655842 102.605756,17.7310601 L102.605756,197.535811 C102.605756,203.701287 101.963802,205.937037 100.758346,208.191043 C99.5528905,210.445049 97.7839335,212.214006 95.5299277,213.419461 C93.2759219,214.624917 91.0401713,215.266871 84.8746954,215.266871 L17.73298,215.266871 C11.5675041,215.266871 9.3317536,214.624917 7.07774777,213.419461 C4.82374194,212.214006 3.05478497,210.445049 1.84932947,208.191043 C0.643873956,205.937037 0.00191990416,203.701287 0.00191990416,197.535811 L0.00191990416,17.7310601 C0.00191990416,11.5655842 0.643873956,9.3298337 1.84932947,7.07582787 C3.05478497,4.82182204 4.82374194,3.05286507 7.07774777,1.84740956 C9.3317536,0.641954052 11.5675041,1.99691374e-15 17.73298,-3.43685847e-15 Z" id="蒙版"></path>
                        </g>
                    </g>
                </g>
            </g>
            <g id="Group-2" mask="url(#mask-2)">
                <g transform="translate(116.800000, 47.200000)">
                    <path d="M11.9925078,0 L42.3608741,0 C46.3331865,-7.29701945e-16 49.5533819,3.22019543 49.5533819,7.1925078 L49.5533819,36.9614984 C49.5533819,40.9338108 46.3331865,44.1540062 42.3608741,44.1540062 L11.9925078,44.1540062 C8.02019543,44.1540062 4.8,40.9338108 4.8,36.9614984 L4.8,7.1925078 C4.8,3.22019543 8.02019543,-1.58476475e-16 11.9925078,0 Z" id="Rectangle-7" fill="#2E88E6" opacity="0.1"></path>
                    <ellipse id="Oval" fill="#2E88E6" opacity="0.2" cx="27.2840791" cy="22.0842872" rx="15.2840791" ry="15.0842872"></ellipse>
                    <g id="编组" stroke-width="1" fill="none" transform="translate(21.000000, 14.000000)">
                        <mask id="mask-4" fill="white">
                            <use xlink:href="#path-3"></use>
                        </mask>
                        <g id="形状结合" fill-rule="nonzero"></g>
                        <rect id="color/#000000" fill="#2E88E6" mask="url(#mask-4)" x="-3.29032258" y="-1.5483871" width="18.5806452" height="18.5806452"></rect>
                    </g>
                    <rect id="Rectangle-2" fill-opacity="0.2" fill="#596080" x="0" y="84.8" width="55.1425598" height="12.7866805" rx="6.39334027"></rect>
                </g>
            </g>
        </g>
    </g>
</svg>