<svg viewBox="0 0 288 192" xmlns="http://www.w3.org/2000/svg" xmlns:xlink="http://www.w3.org/1999/xlink" width="288" height="192" fill="none">
	<defs>
		<linearGradient id="paint_linear_6" x1="24.4988041" x2="4.69760323" y1="12.6559296" y2="8.453022" gradientUnits="userSpaceOnUse">
			<stop stop-color="rgba(204,61,136,1)" offset="0" stop-opacity="0" />
			<stop stop-color="rgba(204,61,136,1)" offset="1" stop-opacity="1" />
		</linearGradient>
	</defs>
	<rect id="illustration_three" width="288" height="192" x="0" y="0" />
	<g id="组合 126">
		<rect id="矩形" width="288" height="192" x="0.5" y="0" rx="1" />
		<path id="减去顶层" d="M211.3 122C215.276 122 218.5 125.224 218.5 129.2L218.5 154.8C218.5 158.776 215.276 162 211.3 162L81.7 162C77.7235 162 74.5 158.776 74.5 154.8L74.5 129.2C74.5 125.224 77.7235 122 81.7 122L211.3 122Z" fill="rgba(255,255,255,1)" fill-rule="evenodd" />
		<path id="减去顶层" d="M218.5 129.2C218.5 125.224 215.276 122 211.3 122L81.7 122C77.7235 122 74.5 125.224 74.5 129.2L74.5 154.8C74.5 158.776 77.7235 162 81.7 162L211.3 162C215.276 162 218.5 158.776 218.5 154.8L218.5 129.2ZM81.7 122.5L211.3 122.5Q212.061 122.5 212.784 122.664Q213.358 122.794 213.908 123.026Q214.469 123.264 214.971 123.593Q215.543 123.968 216.038 124.462Q216.532 124.957 216.908 125.53Q217.236 126.031 217.474 126.592Q217.707 127.144 217.837 127.718Q218 128.441 218 129.2L218 154.8Q218 155.559 217.837 156.282Q217.707 156.856 217.474 157.408Q217.236 157.969 216.908 158.47Q216.532 159.043 216.038 159.538Q215.543 160.032 214.971 160.407Q214.47 160.736 213.908 160.974Q213.358 161.206 212.784 161.336Q212.061 161.5 211.3 161.5L81.7 161.5Q80.9395 161.5 80.2162 161.336Q79.6425 161.206 79.0922 160.974Q78.5308 160.736 78.0293 160.407Q77.4568 160.032 76.9624 159.538Q76.4678 159.043 76.0924 158.47Q75.7637 157.969 75.5263 157.408Q75.2935 156.857 75.1637 156.283Q75 155.56 75 154.8L75 129.2Q75 128.44 75.1637 127.716Q75.2935 127.143 75.5263 126.592Q75.7638 126.031 76.0926 125.529Q76.4679 124.957 76.9624 124.462Q77.4569 123.968 78.0296 123.592Q78.531 123.264 79.0922 123.026Q79.6426 122.794 80.2164 122.664Q80.9396 122.5 81.7 122.5Z" fill="rgba(151,151,151,1)" fill-opacity="0" fill-rule="evenodd" />
		<path id="减去顶层" d="M182.542 36C190.875 36 197.63 42.7559 197.63 51.0889L197.63 122L195.367 122L195.367 54.3584C195.367 46.7197 189.175 40.5273 181.536 40.5273L106.595 40.5273C98.9559 40.5273 92.7634 46.7197 92.7634 54.3584L92.7634 122L90.5 122L90.5 51.0889C90.5 42.7559 97.2555 36 105.589 36L182.542 36ZM92.7634 162L90.5 162L90.5 192L92.7634 192L92.7634 162ZM195.367 192L197.63 192L197.63 162L195.367 162L195.367 192Z" fill="rgba(44,44,65,1)" fill-rule="evenodd" />
		<g id="应用号">
			<rect id="Mask Copy" width="94" height="32" x="97.5" y="75" rx="7.19999981" opacity="0.300000012" fill="rgba(46,136,230,1)" />
			<rect id="Mask Copy" width="93.5" height="31.5" x="97.75" y="75.25" rx="7.19999981" opacity="0.300000012" stroke="rgba(151,151,151,1)" stroke-opacity="0" stroke-width="0.5" />
			<path id="减去顶层" d="M113.42 98.9619C113.285 98.9941 113.145 99.0098 113 99.0098C112.865 99.0098 112.729 98.9941 112.594 98.9619C111.409 98.6123 110.355 98.0391 109.432 97.2441C108.508 96.4482 107.79 95.502 107.277 94.4072C106.759 93.3066 106.5 92.1562 106.5 90.9561L106.5 87.7031C106.5 87.417 106.572 87.1621 106.717 86.9395C106.866 86.7168 107.069 86.5459 107.326 86.4277L112.342 84.1504C112.557 84.0498 112.778 84 113.007 84C113.236 84 113.457 84.0498 113.672 84.1504L118.674 86.4277C118.931 86.5459 119.134 86.7168 119.283 86.9395C119.428 87.1621 119.5 87.417 119.5 87.7031L119.5 90.9766C119.5 92.1992 119.248 93.3516 118.744 94.4336C118.241 95.5205 117.527 96.457 116.603 97.2441C115.68 98.0303 114.619 98.6035 113.42 98.9619ZM114.956 88.9795C115.018 88.8623 115.107 88.7979 115.222 88.7871L116.138 88.7871C116.227 88.7871 116.303 88.8164 116.365 88.876C116.428 88.9346 116.47 89.0068 116.491 89.0928C116.506 89.1836 116.496 89.2744 116.459 89.3652L114.016 93.6641L114 93.6885C113.911 93.8389 113.786 93.9697 113.624 94.082Q113.479 94.1787 113.32 94.2168Q113.213 94.2432 113.099 94.2432C112.849 94.2432 112.64 94.1973 112.473 94.1064Q112.23 93.9775 112.066 93.6641L109.544 89.2695C109.507 89.2051 109.494 89.1357 109.505 89.0605C109.52 88.9795 109.554 88.916 109.606 88.8672C109.664 88.8135 109.737 88.7871 109.826 88.7871L110.82 88.7871C110.883 88.7871 110.94 88.8008 110.993 88.8271C111.04 88.8545 111.076 88.8916 111.102 88.9395L112.999 92.5381L114.956 88.9795Z" fill="rgba(46,136,230,1)" fill-rule="evenodd" />
			<path id="减去顶层" d="M113 99.784Q113.31 99.784 113.599 99.715L113.621 99.7099L113.642 99.7037Q114.919 99.3217 116.008 98.6386Q116.583 98.278 117.106 97.8334Q117.971 97.0962 118.611 96.1987Q119.092 95.5247 119.446 94.7604Q119.762 94.0814 119.958 93.3693Q120.274 92.2163 120.274 90.9766L120.274 87.7031Q120.274 87.3087 120.15 86.9586Q120.066 86.7236 119.926 86.5085Q119.798 86.3175 119.637 86.1601Q119.364 85.8929 118.995 85.7231L114 83.4494Q113.712 83.314 113.408 83.2606Q113.211 83.2258 113.007 83.2258Q112.755 83.2258 112.514 83.2782Q112.262 83.3331 112.022 83.4454L107.002 85.7246Q106.683 85.8714 106.433 86.0951Q106.227 86.2801 106.068 86.5177Q105.948 86.7013 105.871 86.901Q105.726 87.2739 105.726 87.7031L105.726 90.9561Q105.726 91.8206 105.889 92.6532Q106.098 93.7208 106.576 94.7358Q106.966 95.5686 107.501 96.2952Q108.118 97.1337 108.927 97.8309Q109.594 98.405 110.343 98.837Q111.293 99.3851 112.375 99.7045L112.395 99.7103L112.415 99.715Q112.587 99.756 112.761 99.7726Q112.88 99.784 113 99.784ZM113 99.0098C113.145 99.0098 113.285 98.9941 113.42 98.9619C114.619 98.6035 115.68 98.0303 116.603 97.2441C117.527 96.457 118.241 95.5205 118.744 94.4336C119.248 93.3516 119.5 92.1992 119.5 90.9766L119.5 87.7031C119.5 87.417 119.428 87.1621 119.283 86.9395C119.134 86.7168 118.931 86.5459 118.674 86.4277L113.672 84.1504C113.457 84.0498 113.236 84 113.007 84C112.778 84 112.557 84.0498 112.342 84.1504L107.326 86.4277C107.069 86.5459 106.866 86.7168 106.717 86.9395C106.572 87.1621 106.5 87.417 106.5 87.7031L106.5 90.9561C106.5 92.1562 106.759 93.3066 107.277 94.4072C107.79 95.502 108.508 96.4482 109.432 97.2441C110.355 98.0391 111.409 98.6123 112.594 98.9619C112.729 98.9941 112.865 99.0098 113 99.0098ZM113.446 91.7254L112.999 92.5381L112.567 91.7177L111.102 88.9395C111.076 88.8916 111.04 88.8545 110.993 88.8271C110.94 88.8008 110.883 88.7871 110.82 88.7871L109.826 88.7871C109.737 88.7871 109.664 88.8135 109.606 88.8672C109.554 88.916 109.52 88.9795 109.505 89.0605C109.494 89.1357 109.507 89.2051 109.544 89.2695L112.066 93.6641Q112.23 93.9775 112.473 94.1064C112.64 94.1973 112.849 94.2432 113.099 94.2432Q113.208 94.2432 113.311 94.2188Q113.316 94.2178 113.32 94.2168Q113.479 94.1787 113.624 94.082C113.786 93.9697 113.911 93.8389 114 93.6885L114.016 93.6641L116.459 89.3652C116.496 89.2744 116.506 89.1836 116.491 89.0928C116.47 89.0068 116.428 88.9346 116.365 88.876C116.303 88.8164 116.227 88.7871 116.138 88.7871L115.222 88.7871C115.107 88.7979 115.018 88.8623 114.956 88.9795L113.446 91.7254Z" fill="rgba(0,0,0,1)" fill-opacity="0" fill-rule="evenodd" />
			<path id="Fill 8 Copy 3" d="M128.6 96.5997L151.8 96.5997C152.739 96.5997 153.5 95.8386 153.5 94.8997C153.5 93.9608 152.739 93.1997 151.8 93.1997L128.6 93.1997C127.661 93.1997 126.9 93.9608 126.9 94.8997C126.9 95.8386 127.661 96.5997 128.6 96.5997Z" opacity="0.800000012" fill="rgba(46,136,230,1)" fill-rule="evenodd" />
			<path id="Fill 8 Copy 2" d="M128.6 89.5997L167.4 89.5997C168.339 89.5997 169.1 88.8386 169.1 87.8997C169.1 86.9608 168.339 86.1997 167.4 86.1997L128.6 86.1997C127.661 86.1997 126.9 86.9608 126.9 87.8997C126.9 88.8386 127.661 89.5997 128.6 89.5997Z" opacity="0.800000012" fill="rgba(46,136,230,1)" fill-rule="evenodd" />
		</g>
		<rect id="Mask Copy" width="144" height="40" x="74.5" y="122" rx="7.19999981" opacity="0.200000003" fill="rgba(204,61,136,1)" />
		<rect id="Mask Copy" width="143.5" height="39.5" x="74.75" y="122.25" rx="7.19999981" opacity="0.200000003" stroke="rgba(151,151,151,1)" stroke-opacity="0" stroke-width="0.5" />
		<rect id="矩形 157" width="26" height="14" x="185.5" y="135" rx="6.5" fill="rgba(210,89,152,1)" />
		<circle id="椭圆 1" cx="204.5" cy="142" r="5" fill="rgba(255,255,255,1)" />
		<path id="Fill 8 Copy 3" d="M87.2 147.4L110.4 147.4C111.339 147.4 112.1 146.639 112.1 145.7C112.1 144.761 111.339 144 110.4 144L87.2 144C86.2611 144 85.5 144.761 85.5 145.7C85.5 146.639 86.2611 147.4 87.2 147.4Z" opacity="0.800000012" fill="rgba(204,61,136,1)" fill-rule="evenodd" />
		<path id="Fill 8 Copy 2" d="M87.2 140.4L126 140.4C126.939 140.4 127.7 139.639 127.7 138.7C127.7 137.761 126.939 137 126 137L87.2 137C86.2611 137 85.5 137.761 85.5 138.7C85.5 139.639 86.2611 140.4 87.2 140.4Z" opacity="0.800000012" fill="rgba(204,61,136,1)" fill-rule="evenodd" />
		<path id="Combined-Shape" d="M8.59105 0L8.5919 3.68331C16.5695 4.89558 22.6296 10.0611 26.7721 19.18C21.3222 12.2738 15.2621 8.97594 8.59194 9.28638L8.59105 13.3861L0 6.69302L8.59105 0Z" fill="url(#paint_linear_6)" fill-rule="evenodd" transform="matrix(0.889368,0.457192,-0.457192,0.889368,175.5,95)" />
	</g>
</svg>
