<?xml version="1.0" encoding="UTF-8"?>
<svg width="288px" height="192px" viewBox="0 0 288 192" version="1.1" xmlns="http://www.w3.org/2000/svg" xmlns:xlink="http://www.w3.org/1999/xlink">
    <title>可发送图片</title>
    <defs>
        <rect id="path-1" x="0" y="0" width="288" height="192"></rect>
        <path d="M84.8746954,1.62319019e-15 C91.0401713,-9.43120245e-16 93.2759219,0.641954052 95.5299277,1.84740956 C97.7839335,3.05286507 99.5528905,4.82182204 100.758346,7.07582787 C101.963802,9.3298337 102.605756,11.5655842 102.605756,17.7310601 L102.6048,91.673 L50.1685867,91.6733602 C47.0737431,91.6733602 45.8810288,91.9840892 44.747727,92.5689295 L44.6219555,92.6350379 C43.4486221,93.2625435 42.5277833,94.1833823 41.9002777,95.3567157 C41.2727722,96.530049 40.9386,97.6938794 40.9386,100.903347 L40.9386,100.903347 L40.9386,114.443373 C40.9386,117.652841 41.2727722,118.816671 41.9002777,119.990005 C42.5277833,121.163338 43.4486221,122.084177 44.6219555,122.711682 C45.7952888,123.339188 46.9591193,123.67336 50.1685867,123.67336 L50.1685867,123.67336 L102.6048,123.673 L102.605756,197.535811 C102.605756,203.701287 101.963802,205.937037 100.758346,208.191043 C99.5528905,210.445049 97.7839335,212.214006 95.5299277,213.419461 C93.2759219,214.624917 91.0401713,215.266871 84.8746954,215.266871 L17.73298,215.266871 C11.5675041,215.266871 9.3317536,214.624917 7.07774777,213.419461 C4.82374194,212.214006 3.05478497,210.445049 1.84932947,208.191043 C0.643873956,205.937037 0.00191990416,203.701287 0.00191990416,197.535811 L0.0018,79.673 L52.3086133,79.6733602 C55.4034569,79.6733602 56.5961712,79.3626312 57.729473,78.7777909 L57.8552445,78.7116825 C59.0285779,78.0841769 59.9494167,77.1633381 60.5769223,75.9900047 C61.1820169,74.8585762 61.5143564,73.7359838 61.5373231,70.7795109 L61.5386,70.4433735 L61.5386,25.5033469 C61.5386,22.2938794 61.2044278,21.130049 60.5769223,19.9567157 C59.9494167,18.7833823 59.0285779,17.8625435 57.8552445,17.2350379 C56.723816,16.6299433 55.6012236,16.2976038 52.6447507,16.2746371 L52.3086133,16.2733602 L0.0151958254,16.2720215 C0.112597774,11.1935718 0.744129375,9.14237236 1.84932947,7.07582787 C3.05478497,4.82182204 4.82374194,3.05286507 7.07774777,1.84740956 C9.3317536,0.641954052 11.5675041,1.99691374e-15 17.73298,-3.43685847e-15 L84.8746954,1.62319019e-15 Z" id="path-3"></path>
        <path d="M8.72,0.1466 L0.5014,1.5164 C0.212,1.5646 0,1.815 0,2.1082 L0,2.1082 L0,11.8 L1.2,11.8 L1.2,2.6 L8.1672,1.4388 L8.4,1.4032 L8.4,9.8 L9.6,9.8 L9.6,0.9444 C9.6,0.6328 9.418,0.325 9.0676,0.1802 L9.0676,0.1802 C8.9948,0.1502 8.9166,0.1368 8.838,0.1368 L8.838,0.1368 C8.7986,0.1368 8.759,0.1402 8.72,0.1466 L8.72,0.1466 Z" id="path-5"></path>
        <path d="M0,11.8 C0,13.2358 1.1644,14.4 2.6,14.4 L2.6,14.4 C4.0358,14.4 5.2,13.2358 5.2,11.8 L5.2,11.8 C5.2,10.3642 4.0358,9.2 2.6,9.2 L2.6,9.2 C1.1644,9.2 0,10.3642 0,11.8 L0,11.8 Z" id="path-7"></path>
        <path d="M8.4,9.8 C8.4,11.236 9.5644,12.4 11,12.4 L11,12.4 C12.436,12.4 13.6,11.236 13.6,9.8 L13.6,9.8 C13.6,8.3642 12.436,7.2 11,7.2 L11,7.2 C9.5644,7.2 8.4,8.3642 8.4,9.8 L8.4,9.8 Z" id="path-9"></path>
        <path d="M78.6971965,40.9007334 L5.41026683,40.9007334 C2.47681386,40.9007334 0.0766970297,38.5453041 0.0766970297,35.6664688 L0.0766970297,0 L84.0307663,0 L84.0307663,35.6664688 C84.0307663,38.5453041 81.6306495,40.9007334 78.6971965,40.9007334 Z" id="path-11"></path>
    </defs>
    <g id="可发送图片" stroke="none" stroke-width="1" fill="none" fill-rule="evenodd">
        <g id="编组-8备份-2-+-Group-5-+-Group-3-蒙版">
            <mask id="mask-2" fill="white">
                <use xlink:href="#path-1"></use>
            </mask>
            <g id="蒙版"></g>
            <g id="编组-8备份-2" mask="url(#mask-2)">
                <g transform="translate(90.400000, 36.000000)">
                    <path d="M2.263,84.2 L2.2633199,202.062451 C2.2633199,208.227926 2.90527396,210.463677 4.11072947,212.717683 C5.31618497,214.971689 7.08514194,216.740646 9.33914777,217.946101 C11.5407349,219.123523 13.7249059,219.763348 19.5705569,219.79247 L19.99438,219.793511 L87.1360954,219.793511 C93.3015713,219.793511 95.5373219,219.151557 97.7913277,217.946101 C100.045334,216.740646 101.81429,214.971689 103.019746,212.717683 C104.197168,210.516096 104.836992,208.331925 104.866115,202.486274 L104.867156,202.062451 L104.867,128.199 L107.13,128.199 L107.130475,206.989016 C107.130475,213.714989 106.430162,216.15399 105.11512,218.612905 C103.800077,221.071821 101.870306,223.001592 99.4113905,224.316635 C96.9524751,225.631677 94.5134745,226.33199 87.7875008,226.33199 L19.3429747,226.33199 C12.617001,226.33199 10.1780004,225.631677 7.71908495,224.316635 C5.2601695,223.001592 3.33039826,221.071821 2.01535589,218.612905 C0.700313511,216.15399 -1.66890546e-13,213.714989 -1.76794508e-13,206.989016 L-1.70530257e-13,84.2 L2.263,84.2 Z M87.7875008,-2.99698739e-15 C94.5134745,1.74133598e-15 96.9524751,0.700313511 99.4113905,2.01535589 C101.870306,3.33039826 103.800077,5.2601695 105.11512,7.71908495 C106.430162,10.1780004 107.130475,12.617001 107.130475,19.3429747 L107.13,96.2 L104.867,96.2 L104.867156,22.2576999 C104.867156,16.092224 104.225202,13.8564735 103.019746,11.6024677 C101.81429,9.34846185 100.045334,7.57950488 97.7913277,6.37404937 C95.5373219,5.16859386 93.3015713,4.52663981 87.1360954,4.52663981 L19.99438,4.52663981 C13.8289041,4.52663981 11.5931536,5.16859386 9.33914777,6.37404937 C7.08514194,7.57950488 5.31618497,9.34846185 4.11072947,11.6024677 C3.00548774,13.66909 2.37395019,15.7203662 2.27658482,20.7992353 L-1.70530257e-13,20.8 L-1.7000927e-13,19.3429747 C-1.70832965e-13,12.617001 0.700313511,10.1780004 2.01535589,7.71908495 C3.33039826,5.2601695 5.2601695,3.33039826 7.71908495,2.01535589 C10.1780004,0.700313511 12.617001,4.54061995e-16 19.3429747,-7.81479329e-16 L87.7875008,-2.99698739e-15 Z" id="形状结合" fill="#505259"></path>
                    <g id="Rectangle-2" stroke-width="1" fill="none" transform="translate(2.179493, 4.526640)">
                        <g id="形状结合" transform="translate(0.081907, 0.000000)">
                            <mask id="mask-4" fill="white">
                                <use xlink:href="#path-3"></use>
                            </mask>
                            <use fill="#FFFFFF" opacity="0.1" xlink:href="#path-3"></use>
                        </g>
                    </g>
                </g>
            </g>
            <g id="Group-5" mask="url(#mask-2)">
                <g transform="translate(133.600000, 132.200000)">
                    <path d="M9.22998672,5.33931628e-16 L75.7700133,3.72902511e-16 C78.9794807,-2.16667098e-16 80.1433112,0.3341722 81.3166445,0.961677734 C82.4899779,1.58918327 83.4108167,2.51002213 84.0383223,3.68335547 C84.6658278,4.8566888 85,6.02051926 85,9.22998672 L85,22.7700133 C85,25.9794807 84.6658278,27.1433112 84.0383223,28.3166445 C83.4108167,29.4899779 82.4899779,30.4108167 81.3166445,31.0383223 C80.1433112,31.6658278 78.9794807,32 75.7700133,32 L9.22998672,32 C6.02051926,32 4.8566888,31.6658278 3.68335547,31.0383223 C2.51002213,30.4108167 1.58918327,29.4899779 0.961677734,28.3166445 C0.3341722,27.1433112 9.34789857e-16,25.9794807 -1.60885288e-15,22.7700133 L1.15543581e-15,9.22998672 C-6.71341482e-16,6.02051926 0.3341722,4.8566888 0.961677734,3.68335547 C1.58918327,2.51002213 2.51002213,1.58918327 3.68335547,0.961677734 C4.8566888,0.3341722 6.02051926,-3.10229652e-16 9.22998672,5.33931628e-16 Z" id="Mask-Copy" fill="#CC3D88" opacity="0.2"></path>
                    <g id="Group" stroke-width="1" fill="none" transform="translate(9.600000, 9.400000)">
                        <polygon id="Fill-1" fill="#CC3D88" points="4.80004 2.38736597 4.80004 5.27772 12.80004 3.94432 12.6538928 0.965156916"></polygon>
                        <g id="Group-4" transform="translate(4.000000, 0.000000)">
                            <mask id="mask-6" fill="white">
                                <use xlink:href="#path-5"></use>
                            </mask>
                            <g id="Clip-3"></g>
                            <polygon id="Fill-2" fill="#CC3D88" mask="url(#mask-6)" points="-1 12.8 10.6 12.8 10.6 -0.8558 -1 -0.8558"></polygon>
                        </g>
                        <mask id="mask-8" fill="white">
                            <use xlink:href="#path-7"></use>
                        </mask>
                        <use id="Clip-8" fill="#CC3D88" xlink:href="#path-7"></use>
                        <mask id="mask-10" fill="white">
                            <use xlink:href="#path-9"></use>
                        </mask>
                        <use id="Clip-13" fill="#CC3D88" xlink:href="#path-9"></use>
                        <polygon id="Fill-15" fill="#CC3D88" mask="url(#mask-10)" points="4.75012 2.24704 13.02512 0.89704 12.79992 3.94424 4.80012 5.27764"></polygon>
                    </g>
                    <path d="M34.1,21.6 L57.3,21.6 C58.2388841,21.6 59,20.8388841 59,19.9 C59,18.9611159 58.2388841,18.2 57.3,18.2 L34.1,18.2 C33.1611159,18.2 32.4,18.9611159 32.4,19.9 C32.4,20.8388841 33.1611159,21.6 34.1,21.6 Z" id="Fill-8-Copy-3" fill="#CC3D88" opacity="0.8"></path>
                    <path d="M34.1,14.6 L72.9,14.6 C73.8388841,14.6 74.6,13.8388841 74.6,12.9 C74.6,11.9611159 73.8388841,11.2 72.9,11.2 L34.1,11.2 C33.1611159,11.2 32.4,11.9611159 32.4,12.9 C32.4,13.8388841 33.1611159,14.6 34.1,14.6 Z" id="Fill-8-Copy-2" fill="#CC3D88" opacity="0.8"></path>
                </g>
            </g>
            <g id="Group-3" mask="url(#mask-2)">
                <g transform="translate(70.000000, 56.800000)">
                    <path d="M9.22998672,-3.72902511e-16 L74.9700133,3.72902511e-16 C78.1794807,-2.16667098e-16 79.3433112,0.3341722 80.5166445,0.961677734 C81.6899779,1.58918327 82.6108167,2.51002213 83.2383223,3.68335547 C83.8658278,4.8566888 84.2,6.02051926 84.2,9.22998672 L84.2,54.1700133 C84.2,57.3794807 83.8658278,58.5433112 83.2383223,59.7166445 C82.6108167,60.8899779 81.6899779,61.8108167 80.5166445,62.4383223 C79.3433112,63.0658278 78.1794807,63.4 74.9700133,63.4 L9.22998672,63.4 C6.02051926,63.4 4.8566888,63.0658278 3.68335547,62.4383223 C2.51002213,61.8108167 1.58918327,60.8899779 0.961677734,59.7166445 C0.3341722,58.5433112 9.34789857e-16,57.3794807 -1.60885288e-15,54.1700133 L2.48601674e-16,9.22998672 C-1.44444732e-16,6.02051926 0.3341722,4.8566888 0.961677734,3.68335547 C1.58918327,2.51002213 2.51002213,1.58918327 3.68335547,0.961677734 C4.8566888,0.3341722 6.02051926,2.16667098e-16 9.22998672,-3.72902511e-16 Z" id="Mask" fill="#2E88E6" opacity="0.3"></path>
                    <path d="M10.7864747,16.7745833 L28.6389371,16.7745833 C29.6723616,16.7745833 30.5101176,15.9368273 30.5101176,14.9034028 C30.5101176,13.8699783 29.6723616,13.0322222 28.6389371,13.0322222 L10.7864747,13.0322222 C9.75305019,13.0322222 8.91529412,13.8699783 8.91529412,14.9034028 C8.91529412,15.9368273 9.75305019,16.7745833 10.7864747,16.7745833 Z" id="Fill-8-Copy" fill="#2E88E6" opacity="0.8"></path>
                    <path d="M10.7864747,9.84020833 L73.2154077,9.84020833 C74.2488322,9.84020833 75.0865882,9.00245226 75.0865882,7.96902778 C75.0865882,6.93560329 74.2488322,6.09784722 73.2154077,6.09784722 L10.7864747,6.09784722 C9.75305019,6.09784722 8.91529412,6.93560329 8.91529412,7.96902778 C8.91529412,9.00245226 9.75305019,9.84020833 10.7864747,9.84020833 Z" id="Fill-8" fill="#2E88E6" opacity="0.8"></path>
                    <g id="Group-51" stroke-width="1" fill="none" transform="translate(0.000000, 22.278056)">
                        <mask id="mask-12" fill="white">
                            <use xlink:href="#path-11"></use>
                        </mask>
                        <g id="Clip-19"></g>
                        <g id="编组" opacity="0.507789249" mask="url(#mask-12)" fill="#FFFFFF">
                            <g transform="translate(-3.543069, -14.114240)" opacity="0.4">
                                <polygon id="Fill-18" points="2.04636308e-13 16.0933341 89.4189411 16.0933341 89.4189411 14.0361845 2.04636308e-13 14.0361845"></polygon>
                                <polygon id="Fill-21" points="72.6815025 93.514723 72.6815025 4.2819327 74.7429436 4.2819327 74.7429436 93.514723"></polygon>
                                <polygon id="Fill-24" points="3.60184257 39.901132 93.0207837 39.901132 93.0207837 37.8439824 3.60184257 37.8439824"></polygon>
                                <polygon id="Fill-27" points="24.2147946 89.2327903 26.2762356 89.2327903 26.2762356 1.70530257e-14 24.2147946 1.70530257e-14"></polygon>
                            </g>
                        </g>
                        <polygon id="Fill-30" fill="#2E88E6" opacity="0.20203218" mask="url(#mask-12)" points="22.7331663 31.53073 111.667541 31.53073 111.667541 29.4735803 22.7331663 29.4735803"></polygon>
                        <polygon id="Fill-33" fill="#2E88E6" opacity="0.20203218" mask="url(#mask-12)" points="24.3137921 22.3974099 36.7078653 22.3974099 36.7078653 15.5342131 24.3137921 15.5342131"></polygon>
                        <polygon id="Fill-48" fill="#2E88E6" opacity="0.20203218" mask="url(#mask-12)" points="73.1054118 13.9203351 89.4266647 13.9203351 89.4266647 8.03506944 73.1054118 8.03506944"></polygon>
                    </g>
                    <path d="M39.9621104,39.4218324 C39.9684851,40.6437355 40.9240693,41.5972206 42.070669,41.6092393 C43.3082165,41.6220092 44.2389737,40.6299641 44.2463205,39.4353535 C44.2546806,38.1924176 43.3021364,37.2677274 42.1834037,37.226413 C40.9273627,37.1805916 39.954805,38.226721 39.9621104,39.4218324 M47.5021975,39.4155727 C47.4938374,39.9331288 47.4165699,40.4344095 47.2678615,40.927177 C47.1434734,41.338067 46.9742448,41.7274234 46.7672691,42.0995029 C46.6438944,42.3213484 46.5210263,42.5441955 46.3824514,42.7557751 C46.2727569,42.923286 46.1407687,43.0747719 46.0173939,43.2335191 C45.8778057,43.4127984 45.7374574,43.5915768 45.5973625,43.7706057 C45.4473875,43.962154 45.2971591,44.153452 45.147184,44.3450003 C45.0086091,44.5222764 44.8710476,44.6995525 44.732726,44.8763278 C44.5830043,45.0678762 44.4325226,45.2591741 44.2825475,45.4504721 C44.145746,45.6252443 44.0081844,45.7992653 43.8718895,45.9747887 C43.7274879,46.1605781 43.5843529,46.3471186 43.4407113,46.532908 C43.293523,46.722954 43.1460813,46.9132504 42.9981329,47.1027956 C42.8073708,47.3474266 42.5717681,47.5106809 42.2621912,47.5544991 C41.8720534,47.6093345 41.5452497,47.4856419 41.2850734,47.1889297 C41.132565,47.0149087 40.9995635,46.8223588 40.8564286,46.6390733 C40.7132936,46.4555375 40.5676253,46.2740047 40.4244903,46.0904689 C40.2583017,45.8778878 40.0946465,45.6633036 39.9282047,45.4509729 C39.7794963,45.2614276 39.6280012,45.0738855 39.4787862,44.8848411 C39.3412246,44.7105697 39.2049298,44.5355471 39.0686349,44.3605245 C38.9475402,44.2045315 38.8274588,44.0472866 38.7061107,43.8907929 C38.5358688,43.6712008 38.3651202,43.4518592 38.1946249,43.2325176 C38.0826503,43.0892945 37.9645956,42.9503281 37.8599678,42.8020972 C37.7588866,42.6588741 37.6651522,42.5088905 37.5787646,42.3554015 C37.4695767,42.1621004 37.3664688,41.9652939 37.2689344,41.7654827 C37.0741188,41.3656099 36.9249038,40.9467074 36.828636,40.5102777 C36.7860756,40.315975 36.7647953,40.1161638 36.7463018,39.917855 C36.7275549,39.7145383 36.7060213,39.5089681 36.7166614,39.3059018 C36.7318616,39.0146983 36.769102,38.7239955 36.8078625,38.4345447 C36.8585297,38.0547031 36.972531,37.6913872 37.1131326,37.336835 C37.2717211,36.936211 37.4756567,36.5608764 37.7206329,36.2090785 C37.9248219,35.9158718 38.1566245,35.6484553 38.4107207,35.40107 C38.6997773,35.1203828 39.0167009,34.8767534 39.3602249,34.6701816 C39.7042554,34.4633595 40.0619662,34.2860834 40.4455172,34.1739087 C40.7330538,34.0897777 41.0251505,34.0141599 41.3195272,33.9623292 C41.6726778,33.8997317 42.0324153,33.8907176 42.3898727,33.9112496 C42.7952106,33.9342855 43.1952285,34.0031427 43.5858729,34.122078 C43.9200234,34.2234859 44.2425204,34.3536887 44.5508306,34.5189461 C44.8783943,34.6949703 45.1915179,34.895783 45.4727211,35.1444203 C45.6510698,35.302166 45.8304318,35.4611636 45.9943404,35.6344335 C46.2953038,35.9531799 46.5526934,36.3077322 46.7703092,36.6925816 C46.9866583,37.0759286 47.1632337,37.4770534 47.2754616,37.9052203 C47.342089,38.1588653 47.3950363,38.4172678 47.4337967,38.6769222 C47.4707838,38.920802 47.4806639,39.1689385 47.5021975,39.4155727" id="Fill-53" fill="#2E88E6"></path>
                </g>
            </g>
        </g>
    </g>
</svg>