<?xml version="1.0" encoding="UTF-8"?>
<svg width="32px" height="32px" viewBox="0 0 32 32" version="1.1" xmlns="http://www.w3.org/2000/svg" xmlns:xlink="http://www.w3.org/1999/xlink">
    <title>light_卫星网络</title>
    <g id="light_卫星网络" stroke="none" stroke-width="1" fill="none" fill-rule="evenodd">
        <g id="light-(1)" fill-rule="nonzero">
            <path d="M-8.52651283e-15,16 C-8.52651283e-15,24.84 7.16,32 16,32 C24.84,32 32,24.84 32,16 C32,7.16 24.84,0 16,0 C7.16,0 -8.52651283e-15,7.16 -8.52651283e-15,16 Z" id="Fill-1备份" fill="#ED6F21" transform="translate(16.000000, 16.000000) scale(-1, 1) rotate(90.000000) translate(-16.000000, -16.000000) "></path>
            <g id="编组-2" transform="translate(15.976166, 16.167634) rotate(60.000000) translate(-15.976166, -16.167634) translate(4.087945, 6.242736)">
                <path d="M12.2189677,5.80784621 L13.1964644,2.52435166 C13.2561878,2.32373581 13.2011811,2.10652469 13.0531717,1.95851523 L11.2616632,0.167006771 C11.1168014,0.0221449154 10.9053565,-0.0338613892 10.7077793,0.0202971371 L8.21886403,0.702541596 C8.02466963,0.755772844 7.87295364,0.907488824 7.81972239,1.10168324 L7.14155034,3.57574181 C7.08523465,3.78118867 7.14814742,4.00089389 7.30467074,4.14539412 L9.81863739,6.46625442 C9.96320163,6.59971423 10.1663607,6.6492086 10.3561105,6.59719566 L11.8232429,6.19503535 C12.0131667,6.14297476 12.1627787,5.99658976 12.2189677,5.80784621 Z M11.9901908,14.0419507 L11.012694,17.3254453 C10.9529707,17.5260611 11.0079774,17.7432722 11.1559868,17.8912817 L12.9474953,19.6827902 C13.0923571,19.827652 13.3038019,19.8836583 13.5013792,19.8294998 L15.9902945,19.1472554 C16.1844889,19.0940241 16.3362049,18.9423081 16.3894361,18.7481137 L17.0676082,16.2740551 C17.1239239,16.0686082 17.0610111,15.848903 16.9044878,15.7044028 L14.3905211,13.3835425 C14.2459568,13.2500827 14.0427979,13.2005883 13.8530479,13.2526013 L12.3859156,13.6547616 C12.1959919,13.7068222 12.0463798,13.8532072 11.9901908,14.0419507 Z" id="形状结合" fill="#F5B38B"></path>
                <polygon id="路径" fill="#FFFFFF" opacity="0.400000006" transform="translate(12.835048, 9.845195) scale(-1, 1) rotate(105.000000) translate(-12.835048, -9.845195) " points="13.6686676 3.77681674 11.9474216 3.78448092 12.0014287 15.9135736 13.7226747 15.9059094"></polygon>
                <path d="M3.63024522,9.53538893 L9.23885912,9.53538893 C9.41597296,9.53538893 9.55955216,9.67896813 9.55955216,9.85608197 L9.55955216,12.8394172 C9.55955216,13.0165255 9.41596736,13.1601024 9.23885912,13.1601245 L3.63024522,13.1603746 C3.45313133,13.1603746 3.30953786,13.0168241 3.30953786,12.8397101 C3.30953786,12.8397054 3.30953786,12.8397006 3.30953786,12.8396959 L3.30953786,9.85608197 C3.30953786,9.67896813 3.45313133,9.53538893 3.63024522,9.53538893 Z" id="矩形备份" fill="#FFEEE3" transform="translate(6.434545, 11.347882) scale(-1, 1) rotate(105.000000) translate(-6.434545, -11.347882) "></path>
                <path d="M-0.244754781,10.5353889 L5.3638591,10.5353889 C5.54097299,10.5353889 5.68455216,10.6789681 5.68455216,10.856082 L5.68455216,13.8394172 C5.68455216,14.0165255 5.5409674,14.1601024 5.3638591,14.1601245 L-0.244754782,14.1603746 C-0.421868667,14.1603746 -0.565462141,14.0168241 -0.565462141,13.8397101 C-0.565462141,13.8397054 -0.565462141,13.8397006 -0.565462141,13.8396959 L-0.565462141,10.856082 C-0.565462141,10.6789681 -0.421868668,10.5353889 -0.244754781,10.5353889 Z" id="矩形备份-2" fill="#FFEEE3" transform="translate(2.559545, 12.347882) scale(-1, 1) rotate(105.000000) translate(-2.559545, -12.347882) "></path>
                <path d="M18.4125972,5.65613013 L24.0212111,5.65613013 C24.198325,5.65613013 24.3419042,5.79970931 24.3419042,5.97682319 L24.3419042,8.96015837 C24.3419042,9.13726669 24.1983194,9.28084357 24.0212111,9.28086573 L18.4125972,9.28111581 C18.2354833,9.28111581 18.0918899,9.13756525 18.0918899,8.96045133 C18.0918899,8.96044661 18.0918899,8.96044181 18.0918899,8.96043709 L18.0918899,5.97682319 C18.0918899,5.79970931 18.2354833,5.65613013 18.4125972,5.65613013 Z" id="矩形备份-4" fill="#FFEEE3" transform="translate(21.216897, 7.468623) scale(-1, 1) rotate(105.000000) translate(-21.216897, -7.468623) "></path>
                <path d="M14.5375972,6.65613013 L20.1462111,6.65613013 C20.323325,6.65613013 20.4669042,6.79970931 20.4669042,6.97682319 L20.4669042,9.96015837 C20.4669042,10.1372667 20.3233194,10.2808436 20.1462111,10.2808657 L14.5375972,10.2811158 C14.3604833,10.2811158 14.2168899,10.1375653 14.2168899,9.96045133 C14.2168899,9.96044661 14.2168899,9.96044181 14.2168899,9.96043709 L14.2168899,6.97682319 C14.2168899,6.79970931 14.3604833,6.65613013 14.5375972,6.65613013 Z" id="矩形备份-3" fill="#FFEEE3" transform="translate(17.341897, 8.468623) scale(-1, 1) rotate(105.000000) translate(-17.341897, -8.468623) "></path>
                <path d="M8.22038454,7.34076335 L15.6766413,7.34076335 C16.0338986,7.34076335 16.3235129,7.63037764 16.3235129,7.98763497 L16.3235129,11.9735683 C16.3235129,12.330815 16.0338881,12.6204249 15.6766413,12.6204671 L8.22038454,12.62078 C7.86312723,12.62078 7.57348579,12.33122 7.57348579,11.9739627 C7.57348579,11.9739536 7.57348579,11.9739446 7.57348579,11.9739355 L7.57348579,7.98763497 C7.57348579,7.63037764 7.86312723,7.34076335 8.22038454,7.34076335 Z" id="矩形" fill="#FFFFFF" transform="translate(11.948499, 9.980772) scale(-1, 1) rotate(105.000000) translate(-11.948499, -9.980772) "></path>
            </g>
        </g>
    </g>
</svg>