<?xml version="1.0" encoding="UTF-8"?>
<svg width="24px" height="24px" viewBox="0 0 24 24" version="1.1" xmlns="http://www.w3.org/2000/svg" xmlns:xlink="http://www.w3.org/1999/xlink">
    <title>选中/笑脸</title>
    <g id="选中/笑脸" stroke="none" stroke-width="1" fill="none" fill-rule="evenodd">
        <circle id="Oval-5备份" fill="#5291FF" cx="12" cy="12" r="11"></circle>
        <path d="M7.25,8 C6.5596875,8 6,8.5596875 6,9.25 C6,9.9403125 6.5596875,10.5 7.25,10.5 C7.9403125,10.5 8.5,9.9403125 8.5,9.25 C8.5,8.5596875 7.9403125,8 7.25,8 M16.75,8 C16.0596875,8 15.5,8.5596875 15.5,9.25 C15.5,9.9403125 16.0596875,10.5 16.75,10.5 C17.4403125,10.5 18,9.9403125 18,9.25 C18,8.5596875 17.4403125,8 16.75,8 M16.5628648,14.3744851 C16.7702559,14.01593 17.229046,13.8933873 17.5876012,14.1007785 C17.9461563,14.3081696 18.068699,14.7669597 17.8613078,15.1255149 C16.6633549,17.1966361 14.452003,18.5 12.0144761,18.5 C9.57706828,18.5 7.3660233,17.196761 6.16769236,15.125598 C5.96025533,14.7670694 6.08273925,14.3082636 6.44126785,14.1008265 C6.79979644,13.8933895 7.25860223,14.0158734 7.46603926,14.374402 C8.39890515,15.9867424 10.1179744,17 12.0144761,17 C13.911077,17 15.6303753,15.9866509 16.5628648,14.3744851 Z" id="形状结合备份" fill-opacity="0.8" fill="#FFFFFF"></path>
    </g>
</svg>