<?xml version="1.0" encoding="UTF-8"?>
<svg width="24px" height="24px" viewBox="0 0 24 24" version="1.1" xmlns="http://www.w3.org/2000/svg" xmlns:xlink="http://www.w3.org/1999/xlink">
    <title>选中/汽车</title>
    <g id="选中/汽车" stroke="none" stroke-width="1" fill="none" fill-rule="evenodd">
        <path d="M5.15710916,5.1176724 C6.01579133,4.19778681 8.35431186,3.79940355 11.9988746,3.82081757 C15.6434373,3.79940355 17.9819579,4.19778681 18.84064,5.1176724 C19.478525,5.80102327 20.8701714,9.17251035 20.9127904,9.3051698 C21.5746425,9.48776196 22.14816,9.7963157 22.6333429,10.230831 C23.3611172,10.882604 23.4964235,11.4564014 23.4977972,11.6201017 C23.508335,13.2367585 22.8938516,19.4161981 22.7458592,19.7837161 C22.5683504,20.2245338 20.3542713,20.3378181 19.2909706,19.9418522 C19.0165601,19.8364282 18.8793549,19.4776462 18.8793549,18.8655064 L18.8793549,18.5826601 L4.97371434,18.5826601 L4.97371434,18.8655064 C4.97371434,19.4776462 4.8365091,19.8364282 4.56209862,19.9418522 C3.49879796,20.3378181 1.28471877,20.2245338 1.10721003,19.7837161 C0.93495041,19.3559339 0.491865154,12.8704245 0.500113617,11.6201017 C0.501325693,11.4564014 0.80919318,10.7365242 1.37384853,10.230831 C1.75028543,9.8937022 2.32065553,9.58514846 3.08495883,9.3051698 C3.12519062,9.17994094 4.51457003,5.80600914 5.15710916,5.1176724 Z" id="路径" fill="#5291FF"></path>
        <path d="M16.0007927,16.0516116 C16.2857394,16.0516116 16.5167342,15.8196228 16.5167342,15.5334501 C16.5167342,15.2472774 16.2857394,15.0152886 16.0007927,15.0152886 L7.71384629,15.0152886 C7.42889968,15.0152886 7.19790482,15.2472774 7.19790482,15.5334501 C7.19790482,15.8196228 7.42889968,16.0516116 7.71384629,16.0516116 L16.0007927,16.0516116 Z M6.42399261,15.7925309 L6.42399261,15.2743694 C6.42399261,14.9881967 6.19299775,14.7562078 5.90805114,14.7562078 L3.58631452,14.4971271 C3.30136792,14.4971271 3.07037305,14.7291159 3.07037305,15.0152886 L3.07037305,15.7925309 C3.07037305,16.0787036 3.30136792,16.3106924 3.58631452,16.3106924 L5.90805114,16.3106924 C6.19299775,16.3106924 6.42399261,16.0787036 6.42399261,15.7925309 Z M20.644266,15.7925309 L20.644266,15.0152886 C20.644266,14.7291159 20.4132711,14.4971271 20.1283245,14.4971271 L17.8065879,14.7562078 C17.5216413,14.7562078 17.2906464,14.9881967 17.2906464,15.2743694 L17.2906464,15.7925309 C17.2906464,16.0787036 17.5216413,16.3106924 17.8065879,16.3106924 L20.1283245,16.3106924 C20.4132711,16.3106924 20.644266,16.0787036 20.644266,15.7925309 Z M4.74075403,9.90626042 C7.41896175,9.59269314 9.66325654,9.4359095 11.4736384,9.4359095 C14.3928475,9.4359095 16.3430749,9.61694527 19.3314922,9.97890487 C19.3314922,9.97890487 18.3052133,7.13021429 17.4569363,6.22147548 C17.0358108,5.7703339 15.1803011,5.43301073 12.0591159,5.41437517 C8.93793071,5.39573962 6.94911158,5.7703339 6.52798614,6.22147548 C5.96246812,6.82730135 5.36672408,8.055563 4.74075403,9.90626042 Z" id="形状结合" fill-opacity="0.8" fill="#FFFFFF"></path>
    </g>
</svg>