<svg viewBox="0 0 24 24" xmlns="http://www.w3.org/2000/svg" xmlns:xlink="http://www.w3.org/1999/xlink" width="24" height="24" fill="none">
	<rect id="simcard_fill_1_and_simcard_e_dark" width="24" height="24" x="0" y="0" />
	<g id="simcard_fill_1_and_simcard_e">
		<rect id="rect" width="24" height="24" x="0" y="0" opacity="0" fill="rgb(0,0,0)" />
		<g id="g">
			<path id="path" d="M15.0491 14.74C15.0491 15.2333 14.9257 15.6967 14.6791 16.13C14.4257 16.5633 14.0857 16.9033 13.6591 17.15C13.2257 17.3967 12.7591 17.52 12.2591 17.52L4.84906 17.52C4.33573 17.52 3.8624 17.3967 3.42906 17.15C2.99573 16.9033 2.65573 16.5667 2.40906 16.14C2.1624 15.7133 2.03906 15.2467 2.03906 14.74L2.03906 4.42C2.03906 3.90667 2.1624 3.43667 2.40906 3.01C2.65573 2.59 2.99573 2.25334 3.42906 2C3.8624 1.75334 4.33573 1.63 4.84906 1.63L10.3391 1.63C10.5657 1.63 10.7757 1.71 10.9691 1.87L14.8091 5.71C14.9691 5.90334 15.0491 6.11334 15.0491 6.34L15.0491 14.74ZM9.11906 13.82C9.34573 13.82 9.52906 13.7467 9.66906 13.6C9.81573 13.4467 9.88906 13.2667 9.88906 13.06L9.88906 6.24C9.88906 6.01334 9.81906 5.83667 9.67906 5.71C9.54573 5.58334 9.36573 5.50334 9.13906 5.47C8.8724 5.42334 8.64906 5.44 8.46906 5.52C8.4224 5.53334 8.37573 5.55667 8.32906 5.59L6.64906 6.82C6.5024 6.94667 6.38906 7.09667 6.30906 7.27C6.22906 7.45 6.26906 7.66 6.42906 7.9C6.50906 7.99334 6.62573 8.04334 6.77906 8.05C6.9324 8.05667 7.07906 8.03667 7.21906 7.99L8.32906 7.34L8.32906 13.06C8.32906 13.28 8.40573 13.4633 8.55906 13.61C8.70573 13.75 8.8924 13.82 9.11906 13.82Z" fill="rgb(82,145,255)" fill-rule="nonzero" />
		</g>
		<path id="减去顶层" d="M22.9688 11.86C23.1426 12 23.2285 12.2 23.2285 12.46L23.2285 20.88C23.2285 21.3733 23.1055 21.8367 22.8594 22.27C22.6133 22.7034 22.2734 23.0433 21.8398 23.29C21.4062 23.5366 20.9434 23.66 20.4492 23.66L13.0098 23.66C12.4961 23.66 12.0254 23.5366 11.5996 23.29C11.1797 23.0433 10.8398 22.7034 10.5801 22.27C10.3262 21.8367 10.1992 21.3733 10.1992 20.88L10.1992 18.84L12.2598 18.84C12.9316 18.84 13.5586 18.689 14.1406 18.3873C14.3203 18.6246 14.5254 18.8302 14.7539 19.0039C14.8789 19.0992 15.0117 19.1851 15.1523 19.2612C15.2637 19.3221 15.3789 19.3767 15.4961 19.4249L15.5371 19.4417Q16.1973 19.7021 16.9609 19.7021C17.5117 19.7021 18.0176 19.6011 18.4785 19.3988L18.707 19.2886C19.0684 19.099 19.3477 18.8555 19.5488 18.5581C19.6406 18.4231 19.7148 18.2769 19.7734 18.1196L18.6973 17.4907C18.543 17.7719 18.3477 17.9905 18.1113 18.1469C17.8164 18.3429 17.4551 18.4409 17.0293 18.4409C16.6367 18.4409 16.2891 18.3596 15.9844 18.1969C15.832 18.1152 15.6895 18.0132 15.5586 17.8906C15.4492 17.7867 15.3516 17.6687 15.2676 17.5364Q15.5762 17.2014 15.8184 16.79C15.9219 16.6117 16.0098 16.4294 16.084 16.2432L19.9824 16.2432Q20.0527 15.7955 20.0527 15.4741C20.0527 14.8671 19.9336 14.3181 19.6953 13.8274L19.6602 13.7583C19.5137 13.4701 19.332 13.2163 19.1133 12.9969C18.9492 12.8296 18.7637 12.6824 18.5566 12.5552L18.4219 12.4767C17.9766 12.2351 17.4648 12.1143 16.8887 12.1143C16.7129 12.1143 16.5391 12.126 16.3691 12.1495L16.3691 7.75L18.5 7.75Q18.6699 7.75 18.8398 7.81995C18.9531 7.87329 19.0488 7.93994 19.1289 8.02002L22.9688 11.86ZM16.3496 15.1528C16.3633 15.0171 16.3691 14.8794 16.3691 14.74L16.3691 13.4261C16.5156 13.3901 16.6719 13.3721 16.834 13.3721C17.1875 13.3721 17.4902 13.4509 17.7461 13.6086C17.8496 13.672 17.9434 13.748 18.0293 13.8369C18.3398 14.1625 18.5 14.5947 18.5254 15.1528L16.3496 15.1528Z" fill="rgb(255,255,255)" fill-opacity="0.400000006" fill-rule="evenodd" />
	</g>
</svg>
