<svg viewBox="0 0 24 24" xmlns="http://www.w3.org/2000/svg" xmlns:xlink="http://www.w3.org/1999/xlink" width="24" height="24" fill="none">
	<rect id="simcard_fill_e_and_simcard_fill_1_dark" width="24" height="24" x="0" y="0" />
	<g id="simcard_fill_e_and_simcard_fill_1">
		<rect id="rect" width="24" height="24" x="0" y="0" opacity="0" fill="rgb(0,0,0)" />
		<g id="g">
			<path id="减去顶层" d="M22.9688 11.86C23.1426 12 23.2285 12.2 23.2285 12.46L23.2285 20.88C23.2285 21.3733 23.1055 21.8367 22.8594 22.27C22.6133 22.7034 22.2734 23.0433 21.8398 23.29C21.4062 23.5366 20.9434 23.66 20.4492 23.66L13.0098 23.66C12.4961 23.66 12.0254 23.5366 11.5996 23.29C11.1797 23.0433 10.8398 22.7034 10.5801 22.27C10.3262 21.8367 10.1992 21.3733 10.1992 20.88L10.1992 18.84L12.2598 18.84C13 18.84 13.6855 18.6566 14.3184 18.29Q14.75 18.0383 15.1016 17.702Q15.5156 17.3047 15.8184 16.79C16.1855 16.1566 16.3691 15.4734 16.3691 14.74L16.3691 14.0903L16.9648 13.7419L16.9648 19.462C16.9648 19.682 17.041 19.8654 17.1934 20.012C17.3418 20.152 17.5273 20.2219 17.7539 20.2219C17.9805 20.2219 18.1641 20.1487 18.3047 20.002C18.4512 19.8486 18.5234 19.6687 18.5234 19.462L18.5234 12.642C18.5234 12.4153 18.4551 12.2386 18.3145 12.1119C18.1816 11.9854 18 11.9053 17.7734 11.8719C17.5078 11.8253 17.2852 11.842 17.1035 11.922C17.0586 11.9353 17.0117 11.9586 16.9648 11.9919L16.3691 12.4281L16.3691 7.75L18.5 7.75Q18.6699 7.75 18.8398 7.81995C18.9531 7.87329 19.0488 7.93994 19.1289 8.02002L22.9688 11.86Z" fill="rgb(255,255,255)" fill-opacity="0.400000006" fill-rule="evenodd" />
			<path id="减去顶层" d="M14.6797 16.13C14.9258 15.6967 15.0488 15.2333 15.0488 14.74L15.0488 6.33997C15.0488 6.11328 14.9688 5.90332 14.8086 5.70996L10.9688 1.87C10.7754 1.70996 10.5664 1.63 10.3398 1.63L4.84961 1.63C4.33594 1.63 3.86328 1.7533 3.42969 2C2.99609 2.2533 2.65625 2.58997 2.4082 3.01001C2.16211 3.43665 2.03906 3.90662 2.03906 4.42004L2.03906 14.74Q2.03906 15.2009 2.17383 15.6177Q2.26367 15.8882 2.4082 16.14C2.65625 16.5667 2.99609 16.9033 3.42969 17.15C3.86328 17.3967 4.33594 17.52 4.84961 17.52L12.2598 17.52C12.7598 17.52 13.2266 17.3967 13.6582 17.15C14.0859 16.9033 14.4258 16.5634 14.6797 16.13ZM11.8848 9.30042C11.8848 9.51465 11.8594 9.771 11.8125 10.0695L6.70117 10.0695C6.76758 10.7986 6.99805 11.3478 7.38867 11.7169C7.51953 11.8395 7.66211 11.9415 7.81445 12.0232C8.11914 12.1859 8.4668 12.2672 8.85938 12.2672C9.28516 12.2672 9.64648 12.1692 9.94141 11.9731C10.1777 11.8168 10.373 11.5981 10.5273 11.317L11.6035 11.9459C11.5449 12.1031 11.4707 12.2494 11.3789 12.3844C11.1777 12.6818 10.8984 12.9253 10.5371 13.1149L10.3086 13.2251C9.84766 13.4274 9.3418 13.5284 8.79102 13.5284Q8.00391 13.5284 7.32617 13.2512C7.20898 13.203 7.09375 13.1484 6.98242 13.0875C6.8418 13.0114 6.70898 12.9255 6.58398 12.8302C6.22656 12.5577 5.92578 12.2072 5.6875 11.7784C5.36523 11.1997 5.20508 10.5093 5.20508 9.70715C5.20508 8.92334 5.36523 8.24658 5.6875 7.67688C5.92383 7.26001 6.2168 6.91699 6.56836 6.64771C6.69531 6.54907 6.83203 6.46033 6.97461 6.38147Q7.31836 6.19434 7.68359 6.08667C8.01367 5.98926 8.35938 5.94055 8.71875 5.94055C9.29492 5.94055 9.80664 6.0614 10.252 6.30298L10.3867 6.38147C10.5938 6.50867 10.7793 6.65588 10.9434 6.82324C11.1621 7.0426 11.3438 7.29639 11.4902 7.58459L11.5254 7.65369C11.7637 8.14441 11.8848 8.69336 11.8848 9.30042ZM6.74609 8.97913L10.3555 8.97913C10.3301 8.42102 10.1699 7.98877 9.86133 7.66321C9.77344 7.57434 9.67969 7.49829 9.57617 7.43494C9.32031 7.27722 9.01758 7.19836 8.66406 7.19836C8.40234 7.19836 8.16211 7.24487 7.93945 7.33789C7.75586 7.41467 7.58594 7.52307 7.42969 7.66321C7.08594 7.97083 6.85742 8.40942 6.74609 8.97913Z" fill="rgb(82,145,255)" fill-rule="evenodd" />
		</g>
	</g>
</svg>
