<svg viewBox="0 0 24 24" xmlns="http://www.w3.org/2000/svg" xmlns:xlink="http://www.w3.org/1999/xlink" width="24"
     height="24" fill="none">
    <g id="ic_simcard_1" stroke="none" stroke-width="1" fill="none" fill-rule="evenodd">
        <g id="simcard_1-(1)" fill="#ffffff" fill-rule="nonzero">
            <rect id="矩形" opacity="0" x="0" y="0" width="24" height="24"></rect>
            <path d="M15.4609 1.48987C15.2793 1.30994 15.0996 1.18652 14.9199 1.11987C14.7324 1.04651 14.5195 1.00989 14.2793 1.00989L6.83984 1.00989C6.1543 1.00989 5.51367 1.17993 4.91992 1.5199C4.597 1.70846 4.30729 1.93709 4.05078 2.20581C3.84896 2.41992 3.67188 2.65796 3.51953 2.91992C3.17383 3.49988 3 4.14319 3 4.84985L3 19.1299C3 19.8298 3.17383 20.4766 3.51953 21.0698C3.85938 21.6632 4.32617 22.1332 4.91992 22.4799C5.51367 22.8198 6.1543 22.9899 6.83984 22.9899L17.1406 22.9899C17.8398 22.9899 18.4863 22.8198 19.0801 22.4799C19.6738 22.1332 20.1406 21.6632 20.4805 21.0698C20.8262 20.4766 21 19.8298 21 19.1299L21 7.69983C21 7.25317 20.834 6.86328 20.5 6.52991L15.4609 1.48987ZM12.2734 6.9812C13.1191 6.9812 13.8789 7.15112 14.5547 7.49097C14.6432 7.53605 14.7311 7.58415 14.8184 7.63525C15.1289 7.81958 15.4121 8.03491 15.6621 8.28125C16.0059 8.61755 16.293 9.0116 16.5273 9.47266C16.9258 10.2496 17.125 11.1288 17.125 12.1102C17.125 12.4741 17.0898 12.8878 17.0215 13.3512L9.55469 13.3512C9.65365 14.3091 9.96615 15.0301 10.4922 15.514C10.6641 15.6721 10.8516 15.8044 11.0508 15.9109C11.4629 16.1304 11.9355 16.2401 12.4648 16.2401C13.1035 16.2401 13.6367 16.0891 14.0605 15.7871C14.375 15.564 14.6309 15.2584 14.8281 14.8704L16.7285 15.9878C16.6491 16.1974 16.5501 16.3943 16.4316 16.5784L16.3945 16.6345C16.0781 17.1061 15.6328 17.4913 15.0605 17.7902C14.8691 17.8907 14.6719 17.9795 14.4727 18.0565C13.8164 18.3081 13.1133 18.4338 12.3613 18.4338C11.709 18.4338 11.084 18.3352 10.4863 18.1379C10.1914 18.0397 9.90625 17.9169 9.62695 17.7695C9.37891 17.6378 9.14453 17.4872 8.92578 17.3175C8.41016 16.9166 7.97656 16.4099 7.62305 15.7972C7.125 14.9253 6.87695 13.8782 6.87695 12.656C6.87695 11.4613 7.125 10.4382 7.62305 9.58691C7.97461 8.99219 8.40234 8.49707 8.9082 8.10168C9.12695 7.93103 9.35938 7.77905 9.60547 7.64551C9.94922 7.4613 10.3027 7.31543 10.668 7.20789C11.1836 7.05676 11.7188 6.9812 12.2734 6.9812ZM12.1914 9.13379C11.8281 9.13379 11.4902 9.19873 11.1816 9.32874C10.9414 9.4292 10.7188 9.56848 10.5117 9.74658L10.4414 9.81128C10.0117 10.2158 9.72852 10.778 9.5957 11.4974L14.4883 11.4974C14.4355 10.7588 14.2109 10.186 13.8145 9.7793L13.7832 9.74658C13.6484 9.61389 13.5 9.50281 13.3418 9.41321C13.0098 9.22693 12.627 9.13379 12.1914 9.13379Z"
                  id="形状"></path>
        </g>
    </g>
</svg>
