<?xml version="1.0" encoding="UTF-8"?>
<svg width="72px" height="72px" viewBox="0 0 72 72" version="1.1" xmlns="http://www.w3.org/2000/svg" xmlns:xlink="http://www.w3.org/1999/xlink">
    <title>按住说话麦克风icon</title>
    <defs>
        <path d="M46.125,33.75 C46.7463203,33.75 47.25,34.2536797 47.25,34.875 C47.25,40.7083941 42.8101745,45.5048114 37.1253581,46.0694173 L37.125,49.875 C37.125,50.4963203 36.6213203,51 36,51 C35.4008697,51 34.9111272,50.531655 34.8769098,49.9411023 L34.875,49.875 L34.8756378,46.0695162 C29.190344,45.5053716 24.75,40.7087348 24.75,34.875 C24.75,34.2536797 25.2536797,33.75 25.875,33.75 C26.4963203,33.75 27,34.2536797 27,34.875 C27,39.8455627 31.0294373,43.875 36,43.875 C40.9705627,43.875 45,39.8455627 45,34.875 C45,34.2536797 45.5036797,33.75 46.125,33.75 Z M36,21 C39.3137085,21 42,23.6862915 42,27 L42,34.875 C42,38.1887085 39.3137085,40.875 36,40.875 C32.6862915,40.875 30,38.1887085 30,34.875 L30,27 C30,23.6862915 32.6862915,21 36,21 Z M36,23.25 C33.9289322,23.25 32.25,24.9289322 32.25,27 L32.25,34.875 C32.25,36.9460678 33.9289322,38.625 36,38.625 C38.0710678,38.625 39.75,36.9460678 39.75,34.875 L39.75,27 C39.75,24.9289322 38.0710678,23.25 36,23.25 Z" id="path-1"></path>
    </defs>
    <g id="按住说话麦克风icon" stroke="none" stroke-width="1" fill="none" fill-rule="evenodd">
        <path d="M36,0 C55.882251,0 72,16.117749 72,36 C72,55.882251 55.882251,72 36,72 C16.117749,72 0,55.882251 0,36 C0,16.117749 16.117749,0 36,0 Z M36,2 C17.2223185,2 2,17.2223185 2,36 C2,54.7776815 17.2223185,70 36,70 C54.7776815,70 70,54.7776815 70,36 C70,17.2223185 54.7776815,2 36,2 Z" id="合并形状" fill-opacity="0.2" fill="#F2FAFAFA"></path>
        <mask id="mask-2" fill="white">
            <use xlink:href="#path-1"></use>
        </mask>
        <use id="形状结合" fill="#FFFFFF" fill-rule="nonzero" xlink:href="#path-1"></use>
    </g>
</svg>