<?xml version="1.0" encoding="UTF-8"?>
<svg width="24px" height="24px" viewBox="0 0 24 24" version="1.1" xmlns="http://www.w3.org/2000/svg" xmlns:xlink="http://www.w3.org/1999/xlink">
    <title>拍摄照片_选中icon</title>
    <g id="拍摄照片_选中icon" stroke="none" stroke-width="1" fill="none" fill-rule="evenodd">
        <path d="M8.87940078,3 L15.1205992,3 C15.7758689,3 16.3895761,3.32098956 16.7633392,3.85920838 L18.25,6 L18.25,6 L5.75,6 L7.23666085,3.85920838 C7.61042392,3.32098956 8.22413111,3 8.87940078,3 Z" id="Rectangle-18" fill-opacity="0.6" fill="#5291FF"></path>
        <path d="M4,5.5 L20,5.5 C21.6568542,5.5 23,6.84314575 23,8.5 L23,17.5 C23,19.1568542 21.6568542,20.5 20,20.5 L4,20.5 C2.34314575,20.5 1,19.1568542 1,17.5 L1,8.5 C1,6.84314575 2.34314575,5.5 4,5.5 Z" id="Rectangle-17" fill="#5291FF"></path>
        <path d="M12,15.75 C13.7949254,15.75 15.25,14.2949254 15.25,12.5 C15.25,10.7050746 13.7949254,9.25 12,9.25 C10.2050746,9.25 8.75,10.7050746 8.75,12.5 C8.75,14.2949254 10.2050746,15.75 12,15.75 Z M12,17.25 C9.37664744,17.25 7.25,15.1233526 7.25,12.5 C7.25,9.87664744 9.37664744,7.75 12,7.75 C14.6233526,7.75 16.75,9.87664744 16.75,12.5 C16.75,15.1233526 14.6233526,17.25 12,17.25 Z" id="Oval-5-Copy" fill-opacity="0.8" fill="#FFFFFF" fill-rule="nonzero"></path>
    </g>
</svg>