<?xml version="1.0" encoding="UTF-8"?>
<svg fill="#ffffff" width="40px" height="40px" viewBox="0 0 40 40" version="1.1" xmlns="http://www.w3.org/2000/svg" xmlns:xlink="http://www.w3.org/1999/xlink">
    <title>拍照40*40</title>
    <defs>
        <path fill="#ffffff" d="M23.1205992,11 C23.7758689,11 24.3895761,11.3209896 24.7633392,11.8592084 L25.9027778,13.5 L28,13.5 C29.6568542,13.5 31,14.8431458 31,16.5 L31,25.5 C31,27.1568542 29.6568542,28.5 28,28.5 L12,28.5 C10.3431458,28.5 9,27.1568542 9,25.5 L9,16.5 C9,14.8431458 10.3431458,13.5 12,13.5 L14.0972222,13.5 L15.2366608,11.8592084 C15.6104239,11.3209896 16.2241311,11 16.8794008,11 L23.1205992,11 Z M23.1205992,12.5 L16.8794008,12.5 C16.7155834,12.5 16.5621566,12.5802474 16.4687158,12.7148021 L14.8817728,15 L12,15 C11.1715729,15 10.5,15.6715729 10.5,16.5 L10.5,25.5 C10.5,26.3284271 11.1715729,27 12,27 L28,27 C28.8284271,27 29.5,26.3284271 29.5,25.5 L29.5,16.5 C29.5,15.6715729 28.8284271,15 28,15 L25.1182272,15 L23.5312842,12.7148021 C23.4378434,12.5802474 23.2844166,12.5 23.1205992,12.5 Z M20,15.75 C22.6233526,15.75 24.75,17.8766474 24.75,20.5 C24.75,23.1233526 22.6233526,25.25 20,25.25 C17.3766474,25.25 15.25,23.1233526 15.25,20.5 C15.25,17.8766474 17.3766474,15.75 20,15.75 Z M20,17.25 C18.2050746,17.25 16.75,18.7050746 16.75,20.5 C16.75,22.2949254 18.2050746,23.75 20,23.75 C21.7949254,23.75 23.25,22.2949254 23.25,20.5 C23.25,18.7050746 21.7949254,17.25 20,17.25 Z" id="path-1"></path>
    </defs>
    <g id="拍照40*40" stroke="none" stroke-width="1" fill="#ffffff" fill-rule="evenodd">
        <path  d="M20,39.0909091 C30.543618,39.0909091 39.0909091,30.543618 39.0909091,20 C39.0909091,9.45638205 30.543618,0.909090909 20,0.909090909 C9.45638205,0.909090909 0.909090909,9.45638205 0.909090909,20 C0.909090909,30.543618 9.45638205,39.0909091 20,39.0909091 Z M20,40 C8.954305,40 0,31.045695 0,20 C0,8.954305 8.954305,-3.55271368e-15 20,-3.55271368e-15 C31.045695,-3.55271368e-15 40,8.954305 40,20 C40,31.045695 31.045695,40 20,40 Z" id="Oval" fill="#ffffff" fill-rule="nonzero"></path>
        <mask id="mask-2" fill="white">
            <use xlink:href="#path-1"></use>
        </mask>
        <use id="合并形状" fill="#ffffff" fill-rule="nonzero" xlink:href="#path-1"></use>
    </g>
</svg>