<?xml version="1.0" encoding="UTF-8"?>
<svg width="76px" height="76px" viewBox="0 0 76 76" version="1.1" xmlns="http://www.w3.org/2000/svg" xmlns:xlink="http://www.w3.org/1999/xlink">
    <title>录像前76*76</title>
    <g id="录像前76*76" stroke="none" stroke-width="1" fill="none" fill-rule="evenodd">
        <g id="ic_camera_photo备份-2">
            <circle id="Path" fill="#FFFFFF" cx="38" cy="38" r="27"></circle>
            <circle id="Path" fill="#E84026" cx="38" cy="38" r="8"></circle>
            <path d="M38,76 C17.0131795,76 0,58.9868205 0,38 C0,17.0131795 17.0131795,0 38,0 C58.9868205,0 76,17.0131795 76,38 C76,58.9868205 58.9868205,76 38,76 Z M38,75 C58.4345357,75 75,58.4345357 75,38 C75,17.5654643 58.4345357,1 38,1 C17.5654643,1 1,17.5654643 1,38 C1,58.4345357 17.5654643,75 38,75 Z" id="Oval" fill="#FFFFFF" fill-rule="nonzero"></path>
        </g>
    </g>
</svg>