<?xml version="1.0" encoding="UTF-8"?>
<svg  width="24px" height="24px" viewBox="0 0 24 24" version="1.1" xmlns="http://www.w3.org/2000/svg" xmlns:xlink="http://www.w3.org/1999/xlink">
    <title>取消</title>
    <g id="取消" stroke="none" stroke-width="1" fill="none" fill-rule="evenodd">
        <rect id="矩形" x="0" y="0" width="24" height="24"></rect>
        <g id="编组" transform="translate(4.000000, 4.000000)" fill="white" fill-rule="nonzero">
            <path d="M1.70710679,15.8492424 C1.3165825,16.2397667 0.683417518,16.2397667 0.292893218,15.8492424 C-0.0976310725,15.4587181 -0.0976310725,14.8255531 0.292893218,14.4350288 L6.65685422,8.07106781 L0.292893218,1.70710678 C-0.0976310725,1.31658249 -0.0976310725,0.683417508 0.292893218,0.292893218 C0.683417508,-0.0976310725 1.31658249,-0.0976310725 1.70710678,0.292893218 L8.07106782,6.65685421 L14.4350288,0.292893218 C14.8255531,-0.0976310725 15.4587181,-0.0976310725 15.8492424,0.292893218 C16.2397667,0.683417508 16.2397667,1.31658249 15.8492424,1.70710678 L1.70710679,15.8492424 Z M15.8492424,14.4350288 C16.2397667,14.8255531 16.2397667,15.4587181 15.8492424,15.8492424 C15.4587181,16.2397667 14.8255531,16.2397667 14.4350288,15.8492424 L8.77817462,10.1923881 L10.1923881,8.77817461 L15.8492424,14.4350288 Z" id="path-1"></path>
        </g>
    </g>
</svg>