<?xml version="1.0" encoding="UTF-8"?>
<svg width="24px" height="24px" viewBox="0 0 24 24" version="1.1" xmlns="http://www.w3.org/2000/svg" xmlns:xlink="http://www.w3.org/1999/xlink">
    <title>确认</title>
    <g id="确认" stroke="none" stroke-width="1" fill="none" fill-rule="evenodd">
        <rect id="矩形" x="0" y="0" width="24" height="24"></rect>
        <g id="编组" transform="translate(2.220000, 5.500000)" fill="white" fill-rule="nonzero">
            <g id="形状结合" transform="translate(9.781854, 6.496320) rotate(90.000000) translate(-9.781854, -6.496320) translate(3.285534, -3.285534)">
                <path d="M6.95710674,19.2708153 C6.56658245,19.6613396 5.93341755,19.6613396 5.54289324,19.2708153 C5.16420304,18.8921251 5.15272755,18.2852768 5.50846685,17.8927588 L5.54289324,17.8566017 L10.643,12.755 L10.7006425,12.6857432 C10.824812,12.5013591 10.8127657,12.2525381 10.6645036,12.0806567 L10.6390873,12.0533009 L9.22500004,10.639 L6.04289324,7.45710679 L0.292893225,1.70710679 C-0.097631075,1.31658249 -0.097631075,0.683417506 0.292893225,0.292893216 C0.671583445,-0.0857970039 1.27843167,-0.0972724639 1.67094965,0.258466836 L1.70710679,0.292893216 L7.45000005,6.036 L7.45710674,6.04289322 L12.4068542,10.9926407 C13.173166,11.7589525 13.1876247,12.9924059 12.4502303,13.7763457 L12.4068542,13.8210678 L6.95710674,19.2708153 Z" id="path-1"></path>
            </g>
        </g>
    </g>
</svg>