<?xml version="1.0" encoding="UTF-8"?>
<svg width="24px" height="24px" viewBox="0 0 24 24" version="1.1" xmlns="http://www.w3.org/2000/svg" xmlns:xlink="http://www.w3.org/1999/xlink">
    <title>删除</title>
    <defs>
        <path d="M20.0000476,4.5 C21.6569019,4.5 23.0000476,5.84314575 23.0000476,7.5 L23.0000476,16.5 C23.0000476,18.1568542 21.6569019,19.5 20.0000476,19.5 L8.66961893,19.5 C7.88761597,19.5 7.13652088,19.1946501 6.57634572,18.6490015 L1.95658916,14.1490451 C1.93777572,14.1307196 1.91920373,14.1121477 1.90087801,14.0933344 C0.744785446,12.9064831 0.769720328,11.0071519 1.95657162,9.85105931 L6.57634244,5.35101563 C7.13651922,4.80535653 7.88762176,4.5 8.6696332,4.5 Z M19.9998794,6 L8.77029196,6 C8.38031036,6 8.00565974,6.1518816 7.72576861,6.42344486 L3.08772832,10.9234851 C2.49316334,11.5003594 2.47882222,12.4499986 3.05569654,13.0445635 L3.08773711,13.0766039 L7.72577027,17.5765637 C8.00566058,17.8481217 8.38030747,18 8.77028484,18 L19.9998794,18 C20.8283065,18 21.4998794,17.3284271 21.4998794,16.5 L21.4998794,7.5 C21.4998794,6.67157288 20.8283065,6 19.9998794,6 Z M11.3483496,8.2876894 L14,10.9393398 L16.6516504,8.2876894 C16.9445436,7.99479618 17.4194174,7.99479618 17.7123106,8.2876894 C18.0052038,8.58058262 18.0052038,9.05545635 17.7123106,9.34834957 L15.0606602,12 L17.7123106,14.6516504 C18.0052038,14.9445436 18.0052038,15.4194174 17.7123106,15.7123106 C17.4194174,16.0052038 16.9445436,16.0052038 16.6516504,15.7123106 L14,13.0606602 L11.3483496,15.7123106 C11.0554564,16.0052038 10.5805826,16.0052038 10.2876894,15.7123106 C9.99479618,15.4194174 9.99479618,14.9445436 10.2876894,14.6516504 L12.9393398,12 L10.2876894,9.34834957 C9.99479618,9.05545635 9.99479618,8.58058262 10.2876894,8.2876894 C10.5805826,7.99479618 11.0554564,7.99479618 11.3483496,8.2876894 Z" id="path-1"></path>
    </defs>
    <g id="删除" stroke="none" stroke-width="1" fill="none" fill-rule="evenodd">
        <rect id="矩形" fill-opacity="0" fill="#FFFFFF" x="0" y="0" width="24" height="24"></rect>
        <mask id="mask-2" fill="white">
            <use xlink:href="#path-1"></use>
        </mask>
        <use id="Mask" fill="#000000" xlink:href="#path-1"></use>
    </g>
</svg>