<?xml version="1.0" encoding="UTF-8"?>
<svg width="24px" height="24px" viewBox="0 0 24 24" version="1.1" xmlns="http://www.w3.org/2000/svg" xmlns:xlink="http://www.w3.org/1999/xlink">
    <title>未选中/篮球</title>
    <g id="未选中/篮球" stroke="none" stroke-width="1" fill="none" fill-rule="evenodd">
        <rect id="矩形" fill-opacity="0" fill="#F84E4E" x="0" y="0" width="24" height="24"></rect>
        <path d="M12.6124291,12.6124291 L16.4416108,12.612526 C16.631053,14.9222127 17.7114041,16.9741797 19.3321104,18.41091 L19.4675051,18.5265051 L19.2523509,18.7656473 C17.5722792,20.5658036 15.2298981,21.7398361 12.6134575,21.8994949 L12.6124291,12.6124291 Z M11.1514291,12.6124291 L11.1518697,21.8824021 C8.61632052,21.6676735 6.35255937,20.499057 4.720818,18.7367844 C6.44607731,17.2209008 7.56727371,15.0468264 7.68567365,12.6120452 L11.1514291,12.6124291 Z M3.85513257,17.3822134 L3.7375671,17.488458 C2.79764303,16.0763026 2.21009872,14.4094454 2.10050506,12.6134575 L6.08962627,12.6133362 C5.97797978,14.486594 5.14187967,16.1666912 3.85513257,17.3822134 Z M21.8994949,12.6134575 C21.7951843,14.322869 21.257892,15.9152994 20.3958906,17.2824758 C19.0666756,16.1295945 18.169559,14.4784301 17.982101,12.6133901 L21.8994949,12.6134575 Z M3.58718215,6.74446727 L3.44536316,6.62566368 C4.81386902,7.73646557 5.76445746,9.33411809 6.02823334,11.1517688 L2.11759791,11.1518697 C2.25388736,9.54254269 2.77445154,8.04270578 3.58718215,6.74446727 Z M20.2989178,6.56894414 C21.1774836,7.9067309 21.7399244,9.46947097 21.8824021,11.1518697 L17.9821605,11.1513256 C18.1651608,9.33227484 19.0234166,7.71676598 20.2989178,6.56894414 Z M11.1518697,2.11759791 L11.1514291,11.1514291 L7.63533303,11.1506289 C7.36789466,8.89288618 6.23436404,6.89770445 4.57299401,5.50038136 L4.53508432,5.46948988 C6.17855908,3.59239043 8.51864925,2.34059806 11.1518697,2.11759791 Z M12.6134575,2.10050506 C15.280599,2.26325771 17.6629568,3.48007765 19.3492704,5.33970445 C17.7191949,6.77668104 16.6323177,8.8340301 16.4417743,11.1507583 L12.6124291,11.1514291 L12.6134575,2.10050506 Z" id="形状结合备份-5" fill-opacity="0.2" fill="#000000" transform="translate(12.000000, 12.000000) rotate(45.000000) translate(-12.000000, -12.000000) "></path>
    </g>
</svg>