<?xml version="1.0" encoding="UTF-8"?>
<svg width="24px" height="24px" viewBox="0 0 24 24" version="1.1" xmlns="http://www.w3.org/2000/svg" xmlns:xlink="http://www.w3.org/1999/xlink">
    <title>未选中/灯泡</title>
    <g id="未选中/灯泡" stroke="none" stroke-width="1" fill="none" fill-rule="evenodd">
<!--        <rect id="矩形" x="0" y="0" width="24" height="24"></rect>-->
        <path d="M16.0563333,18.956 L16.0605325,18.8364439 C16.0605325,20.33403 14.8490677,21.5480634 13.3546501,21.5480634 L13.1719217,21.5480866 C12.9379868,21.8182421 12.5007649,22 12,22 C11.4992351,22 11.0620132,21.8182421 10.8280783,21.5480866 L10.6453499,21.5480634 C9.19118596,21.5480634 8.00493688,20.3985516 7.94208628,18.9568256 L16.0563333,18.956 Z M12,2 C16.2341831,2 19.6666667,5.43976134 19.6666667,9.68292199 C19.6666667,12.1929915 18.4655063,14.4219201 16.6077809,15.8239577 L16.4456098,15.9411581 C16.2043456,16.1104715 16.0605647,16.38706 16.0605999,16.6822251 L16.0603333,17.652 L7.93933333,17.652 L7.93940016,16.6822251 C7.93955434,16.3868968 7.79572682,16.1101184 7.55425969,15.9408111 L7.37778407,15.8130368 C5.52827388,14.4103613 4.33333333,12.1864842 4.33333333,9.68292199 C4.33333333,5.43976134 7.76581692,2 12,2 Z" id="形状结合备份-6" fill-opacity="0.2" fill="#000000" fill-rule="nonzero"></path>
        <path d="M13.712755,4.75745445 C13.8923053,4.3999565 14.3271222,4.25597663 14.6839456,4.43586641 C16.2433141,5.22200999 17.4560542,6.76689281 17.8059082,8.72216672 C17.8763928,9.1160934 17.6147938,9.49268119 17.2216104,9.56329908 C16.828427,9.63391698 16.4525497,9.37182343 16.3820651,8.97789675 C16.1150709,7.48571221 15.1979477,6.31740922 14.0337363,5.730481 C13.6769128,5.55059122 13.5332046,5.1149524 13.712755,4.75745445 Z" id="路径" fill-opacity="0.250980392" fill="#000000" fill-rule="nonzero"></path>
    </g>
</svg>