<?xml version="1.0" encoding="UTF-8"?>
<svg width="24px" height="24px" viewBox="0 0 24 24" version="1.1" xmlns="http://www.w3.org/2000/svg" xmlns:xlink="http://www.w3.org/1999/xlink">
    <title>未选中/旗帜</title>
    <g id="未选中/旗帜" stroke="none" stroke-width="1" fill="none" fill-rule="evenodd">
<!--        <rect id="矩形" x="0" y="0" width="24" height="24"></rect>-->
        <path d="M11.6570847,3.20112602 C13.841458,3.83289069 16.0667357,3.7503621 18.3329178,2.95354028 C19.0043004,2.74911083 19.3370949,3.20632439 19.3313014,4.32518094 L19.3313758,12.2489097 C19.3313758,12.581791 19.4168106,13.2906332 18.4588611,13.8039309 C16.704449,14.7073232 14.7595495,14.8062567 12.6241626,14.1007317 C11.1660528,13.6189769 9.65463605,13.4629096 8.08991224,13.6325296 L8.0901638,18.9691888 C8.0901638,19.9066799 7.34028889,20.6666667 6.4152713,20.6666667 C5.49025372,20.6666667 4.7403788,19.9066799 4.7403788,18.9691888 L4.73882966,13.583395 C4.69716379,13.4635934 4.67354087,13.3228362 4.66796091,13.1611234 L4.66767797,5.29794965 C4.66768895,4.57294681 5.02898206,3.90122561 5.62078186,3.50719757 L5.76138336,3.42129964 C7.93703492,2.20590557 9.9560553,2.70915412 11.6570847,3.20112602 Z" id="形状结合" fill-opacity="0.2" fill="#000000" fill-rule="nonzero"></path>
        <path d="M4.73933705,13.5848504 C4.90442494,14.0571959 5.35078988,14.2028581 6.07843186,14.021837 C6.75842096,13.8339554 7.42889819,13.7041881 8.08986355,13.6325349 L8.0901638,18.9691888 C8.0901638,19.9066799 7.34028889,20.6666667 6.4152713,20.6666667 C5.49025372,20.6666667 4.7403788,19.9066799 4.7403788,18.9691888 Z" id="形状结合" fill-opacity="0.250980392" fill="#000000" fill-rule="nonzero"></path>
    </g>
</svg>