<?xml version="1.0" encoding="utf-8"?>
<!-- Generator: Adobe Illustrator 19.0.0, SVG Export Plug-In . SVG Version: 6.00 Build 0)  -->
<svg version="1.1"
     id="图层_1"
     xmlns="http://www.w3.org/2000/svg"
     xmlns:xlink="http://www.w3.org/1999/xlink"
     x="0px"
     y="0px"
     viewBox="-257 349 96 96"
     style="enable-background:new -257 349 96 96;"
     xml:space="preserve">
<path
    id="path-1_1_"
    d="M-241,361h64c6.6,0,12,5.4,12,12v48c0,6.6-5.4,12-12,12h-64c-6.6,0-12-5.4-12-12v-48
	C-253,366.4-247.6,361-241,361z M-241,367c-3.3,0-6,2.7-6,6v48c0,3.3,2.7,6,6,6h64c3.3,0,6-2.7,6-6v-48c0-3.3-2.7-6-6-6H-241z
	 M-234,381h12c1.7,0,3,1.3,3,3s-1.3,3-3,3h-12c-1.7,0-3-1.3-3-3S-235.7,381-234,381z M-234,395h12c1.7,0,3,1.3,3,3s-1.3,3-3,3h-12
	c-1.7,0-3-1.3-3-3S-235.7,395-234,395z M-234,409h50c1.7,0,3,1.3,3,3s-1.3,3-3,3h-50c-1.7,0-3-1.3-3-3S-235.7,409-234,409z
	 M-186.1,378.9c1.2-1.2,3.1-1.2,4.2,0c1.2,1.2,1.2,3.1,0,4.2l-17.3,17.3c-1.2,1.2-3.1,1.2-4.2,0l-9.7-9.7c-1.2-1.2-1.2-3.1,0-4.2
	c1.2-1.2,3.1-1.2,4.2,0l7.6,7.6L-186.1,378.9z"/>
</svg>
