<?xml version="1.0" encoding="UTF-8"?>
<svg width="24px" height="24px" viewBox="0 0 24 24" version="1.1" xmlns="http://www.w3.org/2000/svg" xmlns:xlink="http://www.w3.org/1999/xlink">
    <title>画板</title>
    <defs>
        <path d="M3.30460385,8.31628271 L16.7371789,14.2848779 C16.864386,14.3244749 16.9702306,14.3954544 17.0521408,14.4856966 C17.0562173,14.4916748 17.0619192,14.4977879 17.0674891,14.5039732 C17.0758428,14.5129925 17.08348,14.5224524 17.0908733,14.532085 C17.2016061,14.6678664 17.2526213,14.8345676 17.2509619,15.0005034 C17.2527812,15.1665509 17.2017792,15.3335616 17.091257,15.4698615 L17.0831271,15.4794729 L17.0831271,15.4794729 C17.0720436,15.4928683 17.0605693,15.5055481 17.048536,15.5179081 C16.9680768,15.6073493 16.8643887,15.6765658 16.7402161,15.7158108 L3.30460385,21.6853587 C2.76532059,21.9250401 2.18879707,21.4791349 2.2540733,20.9181703 L2.27239312,20.8180983 L3.72600084,15.001 L2.27239312,9.18354309 C2.12084191,8.57733824 2.73359805,8.06250235 3.30460385,8.31628271 Z M12.9610008,15.751 L5.08400084,15.751 L4.1,19.69 L12.9610008,15.751 Z M4.1,10.3116414 L5.08400084,14.25 L12.9610008,14.25 L4.1,10.3116414 Z M7.80460385,2.31628271 L21.2371789,8.28487791 C21.3325842,8.31457562 21.4159731,8.36192605 21.4862607,8.42181607 L21.5795414,8.51779911 L21.5908733,8.53208499 C21.7016061,8.6678664 21.7526213,8.83456763 21.7510088,9.00050337 C21.7524173,9.13334139 21.7200671,9.26679584 21.6504815,9.38464963 L21.5831271,9.47947292 L21.548536,9.51790812 C21.4680768,9.60734931 21.3643887,9.67656582 21.2402161,9.71581082 L14.9700008,12.501 L13.1220008,11.68 L17.4610008,9.751 L9.58400084,9.751 L9.50400084,10.071 L8.11300084,9.453 L8.22600084,9.001 L6.77239312,3.18354309 C6.62084191,2.57733824 7.23359805,2.06250235 7.80460385,2.31628271 Z M8.6,4.31164137 L9.58400084,8.25 L17.4610008,8.25 L8.6,4.31164137 Z" id="path-1"></path>
    </defs>
    <g id="画板" stroke="none" stroke-width="1" fill="none" fill-rule="evenodd">
        <g id="Bottom-tab/item/normal">
            <rect id="矩形" opacity="0" x="0" y="0" width="24" height="24"></rect>
            <mask id="mask-2" fill="white">
                <use xlink:href="#path-1"></use>
            </mask>
            <use id="形状结合" fill="#000000" fill-rule="nonzero" xlink:href="#path-1"></use>
        </g>
    </g>
</svg>