<?xml version="1.0" encoding="UTF-8"?>
<svg width="40px" height="40px" viewBox="0 0 40 40" version="1.1" xmlns="http://www.w3.org/2000/svg" xmlns:xlink="http://www.w3.org/1999/xlink">
    <title>运营商默认头像dark</title>
    <g id="运营商默认头像dark" stroke="none" stroke-width="1" fill="none" fill-rule="evenodd">
        <g id="ic_bell_fill">
            <circle id="椭圆形" fill-opacity="0.19825926" fill="#FFFFFF" cx="20" cy="20" r="20"></circle>
            <rect id="矩形" fill="#000000" fill-rule="nonzero" opacity="0" x="8" y="8" width="24" height="24"></rect>
            <g id="编组" transform="translate(10.550769, 9.080000)" fill="#E5E5E5" fill-rule="nonzero">
                <path d="M17.4692308,14.21 C17.2092308,13.87 17.0792308,13.4933333 17.0792308,13.08 L17.0792308,8.71 C17.0792308,7.67 16.8692308,6.67 16.4492308,5.71 C16.0225641,4.75 15.4025641,3.91 14.5892308,3.19 C13.7692308,2.47 12.7992308,1.95 11.6792308,1.63 C11.5525641,1.15 11.2825641,0.76 10.8692308,0.46 C10.4492308,0.153333333 9.97589744,0 9.44923077,0 C8.9225641,0 8.44589744,0.156666667 8.01923077,0.47 C7.59923077,0.783333333 7.3225641,1.18 7.18923077,1.66 C5.58923077,2.15333333 4.28923077,3.04666667 3.28923077,4.34 C2.28923077,5.64 1.78923077,7.13666667 1.78923077,8.83 L1.78923077,13.08 C1.78923077,13.4933333 1.6625641,13.87 1.40923077,14.21 L0.279230769,15.62 C0.0592307692,15.9133333 -0.0307692308,16.23 0.00923076923,16.57 C0.0492307692,16.9166667 0.192564103,17.21 0.439230769,17.45 C0.685897436,17.69 0.992564103,17.81 1.35923077,17.81 L17.5392308,17.81 C17.9058974,17.81 18.2125641,17.69 18.4592308,17.45 C18.7058974,17.21 18.8458974,16.9133333 18.8792308,16.56 C18.9125641,16.2066667 18.8158974,15.8933333 18.5892308,15.62 L17.4692308,14.21 Z" id="路径"></path>
                <path d="M6.82923077,19.03 C6.76923077,19.03 6.7225641,19.0433333 6.68923077,19.07 C6.65589744,19.09 6.6325641,19.1333333 6.61923077,19.2 L6.61923077,19.22 C6.67923077,19.96 6.9825641,20.5766667 7.52923077,21.07 C8.07589744,21.57 8.71589744,21.82 9.44923077,21.82 C10.2025641,21.82 10.8492308,21.5666667 11.3892308,21.06 C11.9358974,20.5533333 12.2325641,19.9333333 12.2792308,19.2 C12.2792308,19.1533333 12.2625641,19.1133333 12.2292308,19.08 C12.2025641,19.0466667 12.1558974,19.03 12.0892308,19.03 L6.82923077,19.03 Z" id="路径"></path>
            </g>
        </g>
    </g>
</svg>