<?xml version="1.0" encoding="UTF-8"?>
<svg width="24px" height="24px" viewBox="0 0 24 24" version="1.1" xmlns="http://www.w3.org/2000/svg" xmlns:xlink="http://www.w3.org/1999/xlink">
    <title>ic_通话1</title>
    <g id="ic_通话1" stroke="none" stroke-width="1" fill="none" fill-rule="evenodd">
        <g id="phone_badge_1" fill="#000000" fill-rule="nonzero">
            <rect id="矩形" opacity="0" x="0" y="0" width="24" height="24"></rect>
            <g id="编组" transform="translate(2.159286, 2.013077)" fill-opacity="0.90196079">
                <path d="M18.9407143,18.0769231 C19.2740476,17.7369231 19.4940476,17.3402564 19.6007143,16.8869231 C19.7007143,16.4335897 19.6840476,15.9769231 19.5507143,15.5169231 C19.4107143,15.0635897 19.1740476,14.6669231 18.8407143,14.3269231 C18.567381,14.1202564 18.2940476,13.9135897 18.0207143,13.7069231 C17.5607143,13.3402564 17.0907143,12.9802564 16.6107143,12.6269231 C16.1307143,12.2269231 15.587381,12.0435897 14.9807143,12.0769231 C14.367381,12.1102564 13.847381,12.3335897 13.4207143,12.7469231 L12.5007143,13.6369231 C12.4207143,13.7169231 12.3307143,13.7635897 12.2307143,13.7769231 C12.1240476,13.7969231 12.0307143,13.7735897 11.9507143,13.7069231 C11.057381,13.1602564 10.0007143,12.2869231 8.78071429,11.0869231 C7.56738095,9.88692308 6.68738095,8.85692308 6.14071429,7.99692308 C6.09404762,7.89692308 6.07404762,7.80025641 6.08071429,7.70692308 C6.09404762,7.61358974 6.13071429,7.53358974 6.19071429,7.46692308 L7.20071429,6.50692308 C7.64738095,6.06025641 7.88404762,5.52692308 7.91071429,4.90692308 C7.93071429,4.29358974 7.73404762,3.75358974 7.32071429,3.28692308 L5.66071429,1.22692308 C5.28071429,0.78025641 4.84071429,0.476923077 4.34071429,0.316923077 C3.84738095,0.156923077 3.33404762,0.176923077 2.80071429,0.376923077 C2.26071429,0.576923077 1.75071429,0.963589744 1.27071429,1.53692308 C0.730714286,2.09692308 0.360714286,2.73358974 0.160714286,3.44692308 C-0.0392857143,4.16025641 -0.0526190476,4.89358974 0.120714286,5.64692308 C0.534047619,7.50025641 1.53071429,9.46692308 3.11071429,11.5469231 C4.68404762,13.6269231 6.50404762,15.4469231 8.57071429,17.0069231 C10.6307143,18.5669231 12.5507143,19.5235897 14.3307143,19.8769231 C15.257381,20.0035897 16.0607143,19.9435897 16.7407143,19.6969231 C17.4207143,19.4502564 18.1540476,18.9102564 18.9407143,18.0769231 Z M14.5707143,18.3669231 C12.9840476,18.0469231 11.2440476,17.1702564 9.35071429,15.7369231 C7.45071429,14.3035897 5.77404762,12.6235897 4.32071429,10.6969231 C2.86738095,8.77025641 1.94738095,6.97358974 1.56071429,5.30692308 C1.44738095,4.81358974 1.46071429,4.32025641 1.60071429,3.82692308 C1.73404762,3.34025641 1.98404762,2.91358974 2.35071429,2.54692308 L2.54071429,2.32692308 C2.94071429,1.92692308 3.29404762,1.72692308 3.60071429,1.72692308 C3.90738095,1.72692308 4.20404762,1.86358974 4.49071429,2.13692308 L6.19071429,4.27692308 C6.33738095,4.45025641 6.41071429,4.64692308 6.41071429,4.86692308 C6.41071429,5.08025641 6.33071429,5.26692308 6.17071429,5.42692308 L5.16071429,6.38692308 C4.84071429,6.70692308 4.65404762,7.09025641 4.60071429,7.53692308 C4.54071429,7.98358974 4.63071429,8.40025641 4.87071429,8.78692308 C5.46404762,9.74692308 6.41404762,10.8702564 7.72071429,12.1569231 C9.02071429,13.4435897 10.167381,14.3935897 11.1607143,15.0069231 C11.5607143,15.2269231 11.9807143,15.3135897 12.4207143,15.2669231 C12.8607143,15.2202564 13.2407143,15.0369231 13.5607143,14.7169231 L14.4707143,13.8269231 C14.6307143,13.6669231 14.8240476,13.5835897 15.0507143,13.5769231 C15.2707143,13.5702564 15.4707143,13.6369231 15.6507143,13.7769231 C15.7440476,13.8769231 16.0707143,14.1269231 16.6307143,14.5269231 C16.857381,14.7002564 17.0807143,14.8702564 17.3007143,15.0369231 C17.527381,15.2035897 17.727381,15.3602564 17.9007143,15.5069231 C18.0940476,15.7335897 18.1907143,15.9902564 18.1907143,16.2769231 C18.1907143,16.5635897 18.087381,16.8102564 17.8807143,17.0169231 C17.2740476,17.6569231 16.7207143,18.0735897 16.2207143,18.2669231 C15.727381,18.4602564 15.177381,18.4935897 14.5707143,18.3669231 Z" id="形状"></path>
                <path d="M14.0207143,8.83692308 C14.2407143,8.83692308 14.4140476,8.76692308 14.5407143,8.62692308 C14.6740476,8.49358974 14.7407143,8.30025641 14.7407143,8.04692308 L14.7407143,0.916923077 C14.7407143,0.656923077 14.7040476,0.453589744 14.6307143,0.306923077 C14.557381,0.153589744 14.407381,0.0535897436 14.1807143,0.00692307692 C14.167381,0.00692307692 14.1607143,0.00692307692 14.1607143,0.00692307692 C14.1607143,0.00692307692 14.1540476,0.00692307692 14.1407143,0.00692307692 C13.9807143,-0.0130769231 13.8340476,0.0102564103 13.7007143,0.0769230769 C13.5740476,0.136923077 13.4540476,0.20025641 13.3407143,0.266923077 L13.3207143,0.286923077 L11.5007143,1.34692308 C11.207381,1.50692308 11.0307143,1.67025641 10.9707143,1.83692308 C10.9040476,2.00358974 10.9040476,2.17692308 10.9707143,2.35692308 C11.0640476,2.55025641 11.2107143,2.65692308 11.4107143,2.67692308 C11.6107143,2.70358974 11.7907143,2.66025641 11.9507143,2.54692308 L13.2707143,1.82692308 L13.2707143,8.04692308 C13.2707143,8.30025641 13.3340476,8.49358974 13.4607143,8.62692308 C13.5940476,8.76692308 13.7807143,8.83692308 14.0207143,8.83692308 Z" id="路径"></path>
            </g>
        </g>
    </g>
</svg>