<?xml version="1.0" encoding="UTF-8"?>
<svg width="24px" height="24px" viewBox="0 0 24 24" version="1.1" xmlns="http://www.w3.org/2000/svg" xmlns:xlink="http://www.w3.org/1999/xlink">
    <title>ic_通话2</title>
    <g id="ic_通话2" stroke="none" stroke-width="1" fill="none" fill-rule="evenodd">
        <g id="phone_badge_2" fill="#000000" fill-rule="nonzero">
            <rect id="矩形" opacity="0" x="0" y="0" width="24" height="24"></rect>
            <g id="编组" transform="translate(2.159286, 2.090000)" fill-opacity="0.90196079">
                <path d="M18.9407143,18 C19.2740476,17.66 19.4940476,17.2633333 19.6007143,16.81 C19.7007143,16.3566667 19.6840476,15.9 19.5507143,15.44 C19.4107143,14.9866667 19.1740476,14.59 18.8407143,14.25 C18.567381,14.0433333 18.2940476,13.8366667 18.0207143,13.63 C17.5607143,13.2633333 17.0907143,12.9033333 16.6107143,12.55 C16.1307143,12.15 15.587381,11.9666667 14.9807143,12 C14.367381,12.0333333 13.847381,12.2566667 13.4207143,12.67 L12.5007143,13.56 C12.4207143,13.64 12.3307143,13.6866667 12.2307143,13.7 C12.1240476,13.72 12.0307143,13.6966667 11.9507143,13.63 C11.057381,13.0833333 10.0007143,12.21 8.78071429,11.01 C7.56738095,9.81 6.68738095,8.78 6.14071429,7.92 C6.09404762,7.82 6.07404762,7.72333333 6.08071429,7.63 C6.09404762,7.53666667 6.13071429,7.45666667 6.19071429,7.39 L7.20071429,6.43 C7.64738095,5.98333333 7.88404762,5.45 7.91071429,4.83 C7.93071429,4.21666667 7.73404762,3.67666667 7.32071429,3.21 L5.66071429,1.15 C5.28071429,0.703333333 4.84071429,0.4 4.34071429,0.24 C3.84738095,0.08 3.33404762,0.1 2.80071429,0.3 C2.26071429,0.5 1.75071429,0.886666667 1.27071429,1.46 C0.730714286,2.02 0.360714286,2.65666667 0.160714286,3.37 C-0.0392857143,4.08333333 -0.0526190476,4.81666667 0.120714286,5.57 C0.534047619,7.42333333 1.53071429,9.39 3.11071429,11.47 C4.68404762,13.55 6.50404762,15.37 8.57071429,16.93 C10.6307143,18.49 12.5507143,19.4466667 14.3307143,19.8 C15.257381,19.9266667 16.0607143,19.8666667 16.7407143,19.62 C17.4207143,19.3733333 18.1540476,18.8333333 18.9407143,18 Z M14.5707143,18.29 C12.9840476,17.97 11.2440476,17.0933333 9.35071429,15.66 C7.45071429,14.2266667 5.77404762,12.5466667 4.32071429,10.62 C2.86738095,8.69333333 1.94738095,6.89666667 1.56071429,5.23 C1.44738095,4.73666667 1.46071429,4.24333333 1.60071429,3.75 C1.73404762,3.26333333 1.98404762,2.83666667 2.35071429,2.47 L2.54071429,2.25 C2.94071429,1.85 3.29404762,1.65 3.60071429,1.65 C3.90738095,1.65 4.20404762,1.78666667 4.49071429,2.06 L6.19071429,4.2 C6.33738095,4.37333333 6.41071429,4.57 6.41071429,4.79 C6.41071429,5.00333333 6.33071429,5.19 6.17071429,5.35 L5.16071429,6.31 C4.84071429,6.63 4.65404762,7.01333333 4.60071429,7.46 C4.54071429,7.90666667 4.63071429,8.32333333 4.87071429,8.71 C5.46404762,9.67 6.41404762,10.7933333 7.72071429,12.08 C9.02071429,13.3666667 10.167381,14.3166667 11.1607143,14.93 C11.5607143,15.15 11.9807143,15.2366667 12.4207143,15.19 C12.8607143,15.1433333 13.2407143,14.96 13.5607143,14.64 L14.4707143,13.75 C14.6307143,13.59 14.8240476,13.5066667 15.0507143,13.5 C15.2707143,13.4933333 15.4707143,13.56 15.6507143,13.7 C15.7440476,13.8 16.0707143,14.05 16.6307143,14.45 C16.857381,14.6233333 17.0807143,14.7933333 17.3007143,14.96 C17.527381,15.1266667 17.727381,15.2833333 17.9007143,15.43 C18.0940476,15.6566667 18.1907143,15.9133333 18.1907143,16.2 C18.1907143,16.4866667 18.087381,16.7333333 17.8807143,16.94 C17.2740476,17.58 16.7207143,17.9966667 16.2207143,18.19 C15.727381,18.3833333 15.177381,18.4166667 14.5707143,18.29 Z" id="形状"></path>
                <path d="M16.9407143,8.42 C17.1807143,8.42 17.3707143,8.36333333 17.5107143,8.25 C17.6440476,8.14333333 17.7107143,7.99333333 17.7107143,7.8 C17.7107143,7.60666667 17.6440476,7.45333333 17.5107143,7.34 C17.3707143,7.22666667 17.1807143,7.17 16.9407143,7.17 L14.3307143,7.17 L15.8607143,5.47 C16.487381,4.78333333 16.9140476,4.23 17.1407143,3.81 C17.3607143,3.39666667 17.4707143,2.95 17.4707143,2.47 C17.4707143,1.71666667 17.247381,1.11666667 16.8007143,0.67 C16.3540476,0.223333333 15.7540476,0 15.0007143,0 C14.4740476,0 13.9907143,0.126666667 13.5507143,0.38 C13.1107143,0.64 12.7707143,0.993333333 12.5307143,1.44 C12.417381,1.63333333 12.387381,1.82 12.4407143,2 C12.5007143,2.18666667 12.627381,2.32 12.8207143,2.4 C12.947381,2.44666667 13.097381,2.43666667 13.2707143,2.37 C13.4507143,2.31 13.587381,2.2 13.6807143,2.04 C13.827381,1.8 14.0040476,1.61666667 14.2107143,1.49 C14.417381,1.35666667 14.647381,1.29 14.9007143,1.29 C15.2540476,1.29 15.5307143,1.40333333 15.7307143,1.63 C15.9307143,1.85666667 16.0307143,2.15333333 16.0307143,2.52 C16.0307143,2.82 15.9640476,3.1 15.8307143,3.36 C15.6907143,3.61333333 15.437381,3.94 15.0707143,4.34 L14.8107143,4.63 L12.6007143,7.15 C12.3140476,7.43666667 12.2007143,7.71 12.2607143,7.97 C12.2807143,8.11 12.357381,8.22 12.4907143,8.3 C12.6307143,8.38 12.8107143,8.42 13.0307143,8.42 L16.9407143,8.42 Z" id="路径"></path>
            </g>
        </g>
    </g>
</svg>