<?xml version="1.0" encoding="UTF-8"?>
<svg width="24px" height="24px" viewBox="0 0 24 24" version="1.1" xmlns="http://www.w3.org/2000/svg" xmlns:xlink="http://www.w3.org/1999/xlink">
    <title>ic_取消录音</title>
    <defs>
        <path d="M0.6875,7.79166667 C1.06719577,7.79166667 1.375,8.0994709 1.375,8.47916667 C1.375,11.5167328 3.83743388,13.9791667 6.875,13.9791667 C7.82396108,13.9791667 8.71678984,13.7388356 9.49594104,13.3157187 C9.45154583,13.8115459 9.47956912,14.3125841 9.5785597,14.8021245 C8.95016672,15.071342 8.27244024,15.2496838 7.56298117,15.3201734 L7.5625,17.6458333 C7.5625,18.0255291 7.25469577,18.3333333 6.875,18.3333333 C6.5088648,18.3333333 6.20957772,18.0471225 6.18866708,17.6862292 L6.1875,17.6458333 L6.18701883,15.3201734 C2.71309012,14.975015 0,12.0439289 0,8.47916667 C0,8.0994709 0.307804234,7.79166667 0.6875,7.79166667 Z M6.875,0 C8.83472008,0 10.4353566,1.53741969 10.5365842,3.47193384 L10.5416667,3.66666667 L10.5416667,8.47916667 C10.5416667,10.5042107 8.90004408,12.1458333 6.875,12.1458333 C4.91527992,12.1458333 3.31464345,10.6084136 3.21341583,8.6738995 L3.20833333,8.47916667 L3.20833333,3.66666667 C3.20833333,1.64162258 4.84995592,0 6.875,0 Z M6.875,1.375 C5.66208297,1.375 4.66925055,2.31729421 4.58862027,3.5097651 L4.58333333,3.66666667 L4.58333333,8.47916667 C4.58333333,9.74481922 5.60934745,10.7708333 6.875,10.7708333 C8.08791703,10.7708333 9.08074945,9.82853912 9.16137973,8.63606823 L9.16666667,8.47916667 L9.16666667,3.66666667 C9.16666667,2.40101411 8.14065255,1.375 6.875,1.375 Z M13.0625,7.79166667 C13.4421958,7.79166667 13.75,8.0994709 13.75,8.47916667 L13.7466872,8.64972562 C13.2615175,8.73730277 12.7863965,8.89413576 12.3372171,9.1202246 C12.3624195,8.91046035 12.375,8.69628267 12.375,8.47916667 C12.375,8.0994709 12.6828042,7.79166667 13.0625,7.79166667 Z" id="path-1"></path>
    </defs>
    <g id="ic_取消录音" stroke="none" stroke-width="1" fill="none" fill-rule="evenodd">
        <g id="ic_语音取消">
            <rect id="矩形" x="0" y="0" width="24" height="24" rx="0.4"></rect>
            <g id="voice_continue" transform="translate(2.800000, 2.800000)">
                <path d="M11.7758622,16.6658045 C10.1747126,15.0646549 10.1747126,12.4686785 11.7758622,10.8675289 C13.3770118,9.26637927 15.9729882,9.26637927 17.5741378,10.8675289 C19.1752874,12.4686785 19.1752874,15.0646549 17.5741378,16.6658045 C15.9729882,18.2669541 13.3770118,18.2669541 11.7758622,16.6658045 Z M15.5157919,14.0414586 L16.4494278,14.975409 L16.464528,14.9913463 C16.6054639,15.1483953 16.6004305,15.3900917 16.4494278,15.5410944 C16.3127443,15.6777779 16.1017521,15.6948634 15.9464914,15.5923508 L15.8837423,15.5410944 L14.9497919,14.6074586 L15.5157919,14.0414586 Z M13.4576346,15.5337795 C13.3014249,15.6899893 13.0481589,15.6899893 12.8919492,15.5337795 C12.7409464,15.3827768 12.735913,15.1410804 12.8768489,14.9840314 L12.8919492,14.9680941 L14.1007919,13.7584586 L12.8992641,12.5566162 L12.8841638,12.5406789 C12.7432279,12.3836299 12.7482613,12.1419335 12.8992641,11.9909307 C13.0359476,11.8542472 13.2469398,11.8371618 13.4022005,11.9396744 L13.4649495,11.9909307 L14.6667919,13.1924586 L15.8764274,11.9836158 C16.0326372,11.8274061 16.2859032,11.8274061 16.4421129,11.9836158 C16.5931156,12.1346186 16.598149,12.376315 16.4572131,12.533364 L16.4497919,12.5404586 L13.4576346,15.5337795 Z" id="Shape" fill="#FFFFFF"></path>
                <mask id="mask-2" fill="white">
                    <use xlink:href="#path-1"></use>
                </mask>
                <use id="形状结合" fill="#FFFFFF" fill-rule="nonzero" xlink:href="#path-1"></use>
            </g>
        </g>
    </g>
</svg>