<?xml version="1.0" encoding="UTF-8"?>
<svg width="120px" height="120px" viewBox="0 0 120 120" version="1.1" xmlns="http://www.w3.org/2000/svg" xmlns:xlink="http://www.w3.org/1999/xlink">
    <title>我的收藏空白页插画</title>
    <g id="我的收藏空白页插画" stroke="none" stroke-width="1" fill="none" fill-rule="evenodd">
        <rect id="矩形" x="0" y="0" width="120" height="120"></rect>
        <g id="编组" transform="translate(13.000000, 16.000000)" fill="#A1A7B3">
            <path d="M40.4557933,75.7921526 C53.1556268,75.7921526 63.450876,78.7395088 63.450876,82.375257 C63.450876,86.0110051 53.1556268,88.9583613 40.4557933,88.9583613 C27.7559599,88.9583613 17.4607107,86.0110051 17.4607107,82.375257 C17.4607107,79.5885901 23.5088166,77.2063299 32.0520925,76.245622 L32.0523403,81.76 L34.4457899,76.1244048 L35.1169904,83.8721784 L38.0993403,81.359 L38.0990483,75.8263044 C38.8738977,75.8037217 39.6601262,75.7921526 40.4557933,75.7921526 Z" id="形状结合" opacity="0.15"></path>
            <polygon id="路径-23备份" opacity="0.200000003" points="40.0783732 83.1607823 47.2041056 83.1607823 49.3839459 78.5578818 46.7102091 81.4049979 46.2956583 77.2460654 44.6252611 81.0207467 41.9534901 76.1244048 41.2396171 81.4049979 39.4615787 79.508842"></polygon>
            <path d="M7.64231254,34.2456046 C8.69032485,34.7664172 9.53519094,35.3084804 10.1778571,35.8705518 C10.3328488,36.0061064 10.6064838,36.0226977 10.789038,35.9076094 C10.9715922,35.7925211 10.9939361,35.5893348 10.8389443,35.4537802 C10.1410813,34.843434 9.23600087,34.2627375 8.12464941,33.7104483 C7.92563202,33.611546 7.65632176,33.6511687 7.52312811,33.798948 C7.38993446,33.9467274 7.44329515,34.1467023 7.64231254,34.2456046 Z M11.2590177,38.7298844 C11.4245723,39.5516063 11.3281734,40.4165019 10.9654153,41.3300336 C10.8926423,41.5132975 10.9952999,41.7160803 11.1947075,41.7829618 C11.394115,41.8498432 11.614761,41.7554966 11.687534,41.5722327 C12.0958204,40.5440472 12.2064022,39.5519019 12.0148736,38.6012592 C11.9762259,38.4094333 11.7756916,38.2827213 11.5669678,38.3182402 C11.3582439,38.3537591 11.22037,38.5380585 11.2590177,38.7298844 Z M8.91544853,44.3553601 L8.29071577,45.5332975 L7.93220491,46.221443 L7.65504881,46.7654534 L7.48354592,47.1094858 C7.38927239,47.3004283 7.49945199,47.5186122 7.72963895,47.5968131 C7.9598259,47.675014 8.22285308,47.5836189 8.31712661,47.3926763 L8.48660638,47.052709 L8.76089431,46.5143471 L9.2194016,45.6365113 L9.73945298,44.6572196 C9.83994139,44.4684706 9.73694366,44.2478858 9.50940111,44.1645296 C9.28185857,44.0811733 9.01593694,44.1666111 8.91544853,44.3553601 Z M6.73663431,50.2070938 C6.3985791,51.3352088 6.24456215,52.2940424 6.29519963,53.113854 C6.30719524,53.3080607 6.479488,53.4560791 6.68002628,53.4444622 C6.88056456,53.4328453 7.03340858,53.2659923 7.02141297,53.0717855 C6.97650009,52.3446543 7.11847589,51.460783 7.43531959,50.4034523 C7.49131029,50.2166073 7.3802937,50.021183 7.18735709,49.9669601 C6.99442048,49.9127372 6.79262502,50.0202487 6.73663431,50.2070938 Z M7.58196482,55.3822155 C8.34801539,56.1448788 9.31921284,56.6595626 10.4892289,56.9288049 C10.6945235,56.9760469 10.8939675,56.8213221 10.9346998,56.5832172 C10.975432,56.3451123 10.8420278,56.1137929 10.6367333,56.0665509 C9.58913776,55.8254798 8.73754667,55.3741812 8.0756318,54.7151931 C7.91682007,54.5570835 7.67756661,54.5782285 7.54124423,54.7624216 C7.40492186,54.9466148 7.42315309,55.2241059 7.58196482,55.3822155 Z M14.8092194,56.9364826 C15.6792798,56.8761593 16.6246101,56.7342168 17.6455434,56.5109348 C17.8359257,56.4692975 17.9583797,56.2721443 17.919052,56.0705808 C17.8797244,55.8690174 17.6935078,55.7393717 17.5031256,55.781009 C16.512679,55.9976235 15.5992648,56.1347737 14.7632161,56.1927389 C14.5692298,56.2061884 14.4222711,56.3835842 14.4349745,56.5889633 C14.447678,56.7943425 14.6152331,56.9499322 14.8092194,56.9364826 Z M20.7222756,56.9157507 C21.6065481,56.542909 22.5345234,56.1078217 23.506269,55.6105084 C23.6953127,55.5137609 23.7932421,55.218066 23.7250004,54.9500554 C23.6567586,54.6820447 23.4481875,54.5432085 23.2591437,54.6399561 C22.3001349,55.130751 21.3853303,55.5596631 20.5147974,55.9267118 C20.3221528,56.0079378 20.2124291,56.2951885 20.2697226,56.568304 C20.3270162,56.8414196 20.5296311,56.9969768 20.7222756,56.9157507 Z M26.5505758,53.4291434 C27.468539,53.1730063 28.3750549,52.981852 29.2702054,52.8555401 C29.4652456,52.8280185 29.5957175,52.6780797 29.5616227,52.5206423 C29.5275279,52.3632049 29.3417773,52.2578872 29.1467372,52.2854088 C28.2133261,52.4171196 27.2698281,52.6160721 26.3163252,52.8821257 C26.1291922,52.934341 26.0299297,53.0991239 26.0946162,53.2501787 C26.1593027,53.4012334 26.3634427,53.4813586 26.5505758,53.4291434 Z M32.2409131,53.0785067 C33.1597124,53.0942506 34.0663532,53.2133362 34.961187,53.4357975 C35.1505796,53.4828816 35.3377146,53.3466495 35.3791648,53.1315145 C35.420615,52.9163795 35.300684,52.7038088 35.1112915,52.6567246 C34.1705744,52.4228565 33.2171943,52.2976318 32.2515027,52.2810844 C32.0576494,52.2777627 31.8981297,52.4535789 31.8952054,52.673781 C31.8922812,52.8939831 32.0470597,53.075185 32.2409131,53.0785067 Z M37.9488688,54.2190803 C38.8478292,54.6233923 39.7360947,55.1200484 40.6137255,55.7092735 C40.792948,55.8296003 41.0314928,55.7751754 41.14653,55.5877121 C41.2615673,55.4002488 41.2095349,55.1507357 41.0303123,55.030409 C40.1175966,54.4176285 39.1919761,53.9000861 38.2535112,53.4780067 C38.0578652,53.390014 37.8310663,53.4845767 37.7469416,53.6892185 C37.6628169,53.8938603 37.7532228,54.1310875 37.9488688,54.2190803 Z M43.6937308,57.7572729 C44.5573161,58.5193477 45.4115366,59.3618809 46.2563226,60.2849439 C46.4266855,60.4710924 46.7099324,60.4784058 46.8889723,60.3012788 C47.0680122,60.1241519 47.0750464,59.8296589 46.9046835,59.6435104 C46.0384064,58.6969648 45.161158,57.8317188 44.2728685,57.0478438 C44.0844462,56.8815697 43.8020553,56.905589 43.6421309,57.1014924 C43.4822064,57.2973959 43.5053085,57.5909988 43.6937308,57.7572729 Z M47.1515446,62.3672811 C47.9958423,63.2733517 48.8657372,64.1395763 49.7612203,64.9659319 C49.946269,65.1366956 50.2330667,65.123311 50.4018009,64.9360366 C50.5705351,64.7487622 50.5573096,64.4585149 50.3722609,64.2877512 C49.4936867,63.4769992 48.6400439,62.6269582 47.8113238,61.737605 C47.6395101,61.5532206 47.352531,61.5447053 47.170338,61.7185855 C46.9881449,61.8924658 46.9797309,62.1828967 47.1515446,62.3672811 Z M51.8428314,66.8759578 C52.718088,67.4558639 53.6174196,68.0040639 54.5408062,68.5205431 C54.7303279,68.6265485 54.9847711,68.5815103 55.109121,68.4199474 C55.2334708,68.2583845 55.1806387,68.0414775 54.991117,67.935472 C54.0860569,67.4292435 53.2045455,66.891906 52.3465629,66.3234449 C52.1675878,66.204864 51.9097356,66.2324193 51.770634,66.3849915 C51.6315323,66.5375638 51.6638562,66.7573769 51.8428314,66.8759578 Z M57.7028498,69.3644133 C58.599783,69.9036306 59.5187398,70.4052497 60.4596974,70.8692646 C60.6516995,70.9639467 60.8771655,70.8695874 60.9632899,70.6585072 C61.0494143,70.4474271 60.9635835,70.1995578 60.7715815,70.1048757 C59.8488397,69.6498436 58.9478109,69.1580106 58.0684723,68.6293708 C57.8838416,68.5183747 57.6523215,68.5929395 57.5513576,68.7959159 C57.4503937,68.9988922 57.5182191,69.2534172 57.7028498,69.3644133 Z M63.5649313,72.5795109 C64.4755653,72.8166896 65.4059178,73.0316386 66.3559721,73.2243612 C66.5489774,73.2635132 66.7493374,73.1821286 66.8034887,73.0425838 C66.85764,72.9030389 66.7450766,72.7581765 66.5520713,72.7190245 C65.6187651,72.5296994 64.7050663,72.318598 63.8109582,72.0857236 C63.6223639,72.0366034 63.4144031,72.1073217 63.3464647,72.2436773 C63.2785262,72.3800329 63.3763371,72.5303907 63.5649313,72.5795109 Z M69.426603,73.9151394 C70.3448408,74.1014891 71.2805018,74.2613411 72.2335774,74.3947032 C72.4268096,74.4217418 72.6059738,74.2911856 72.633752,74.1030977 C72.6615301,73.9150098 72.5274031,73.7406154 72.3341709,73.7135767 C71.3956423,73.5822502 70.474553,73.4248877 69.5708944,73.2414968 C69.3797853,73.2027126 69.1925601,73.3220718 69.1527151,73.5080931 C69.1128702,73.6941144 69.2354939,73.8763552 69.426603,73.9151394 Z" id="路径-24" opacity="0.300000012" transform="translate(39.461579, 54.027134) scale(-1, 1) rotate(-5.000000) translate(-39.461579, -54.027134) "></path>
            <g id="mailbox">
                <path d="M63.4743648,6.60804744e-12 C68.2581813,0.0879237584 71.9174541,1.17501134 74.4521831,3.26126273 C74.4922692,3.29425628 77.9579492,6.04477223 79.4217303,9.68707482 C80.3975843,12.1152766 80.9766901,14.3806769 81.1590476,16.4832759 L81.159,23.585 L69.5404339,29.2387271 L75.992612,31.2314072 L80.3373017,35.9302714 L81.159,34.621 L81.1590476,41.91 L4.07923606,41.91 C2.20962426,41.91 1.01380238e-10,40.8894061 1.01380238e-10,38.1003737 L1.01380238e-10,16.4832759 C-9.9475983e-14,11.8725311 1.5311387,8.71418999 5.09161034,4.79959793 C7.46525811,2.18986989 10.6518825,0.590003914 14.6514836,6.60804744e-12 L63.4743648,6.60804744e-12 Z" id="形状结合" opacity="0.200000003"></path>
                <path d="M38.1,41.91 L38.0992977,54.735 L37.8113734,54.8898671 C37.6459741,54.9810846 37.5689638,55.1793212 37.6181228,55.3592797 L37.6470258,55.4349204 C37.7452868,55.6316965 37.9781803,55.7067049 38.1672081,55.6024563 L38.0992977,55.631 L38.0992977,81.36 L35.1169904,83.8721784 L34.4457899,76.1244048 L32.0522977,81.76 L32.0531275,59.7355657 C32.0599676,59.7319445 32.0667417,59.7281281 32.0734425,59.724116 L32.1472868,59.6689301 C33.0693083,58.8230075 33.9937099,58.0581307 34.9204282,57.3742222 C35.1226253,57.2250029 35.1712286,56.9345307 35.0289868,56.7254344 C34.886745,56.5163381 34.6075221,56.4677982 34.4053251,56.6170175 C33.4520966,57.3204902 32.5027753,58.1059864 31.5572977,58.973429 L32.0522977,58.527 L32.052381,41.91 L38.1,41.91 Z" id="形状结合" opacity="0.300000012"></path>
                <path d="M63.8628571,-8.38440428e-13 C78.286162,-8.38440428e-13 81.1590476,12.8393124 81.1590476,17.013513 L81.1586667,23.585 L69.5404339,29.2387271 L75.992612,31.2314072 L80.3373017,35.9302714 L81.1586667,34.621 L81.1590476,41.91 L81.1590476,41.91 L91.137619,41.91 C91.137619,44.481806 89.0527584,46.5666667 86.4809524,46.5666667 L51.2233333,46.5666667 C48.6515273,46.5666667 46.5666667,44.481806 46.5666667,41.91 L46.5666667,17.013513 C46.5666667,13.6583543 49.4395523,-8.38440428e-13 63.8628571,-8.38440428e-13 Z" id="形状结合" opacity="0.3"></path>
                <path d="M46.5666667,41.91 L91.137619,41.91 C91.137619,44.481806 89.0527584,46.5666667 86.4809524,46.5666667 L51.2233333,46.5666667 C48.6515273,46.5666667 46.5666667,44.481806 46.5666667,41.91 L46.5666667,41.91 L46.5666667,41.91 Z" id="形状结合" opacity="0.800000012"></path>
            </g>
            <path d="M15.1667508,58.2667663 C14.0502078,59.9206029 13.2293086,60.9144798 12.7040531,61.2483972 C11.2121372,62.1968434 9.86661486,62.4098161 8.95446636,62.4098161 C6.86368294,62.4098161 11.1727867,61.9194348 12.7040531,60.258401 C13.7248974,59.1510451 14.9330702,57.4756257 16.3285714,55.2321429 L15.1667508,55.2321429 L13.883153,56.7990347 C13.482072,56.3052409 12.9633982,56.0583441 12.3271316,56.0583441 C11.3727318,56.0583441 8.90756566,56.4654228 7.96338071,59.0877485 C7.33392407,60.8359657 6.04017812,62.3748892 4.08214286,63.7045192 C6.91117551,65.1080174 9.6595051,65.1080174 12.3271316,63.7045192 C14.9947582,62.3010209 15.9412979,60.4884366 15.1667508,58.2667663 Z" id="路径-14" opacity="0.400000006"></path>
            <path d="M26.5688298,48.8019277 C25.9485282,49.7469771 25.492473,50.3149068 25.2006644,50.5057168 C24.3718223,51.047686 23.6243098,51.1693847 23.1175607,51.1693847 C21.9560143,51.1693847 24.3499609,50.8891668 25.2006644,49.9400046 C25.7678002,49.3072299 26.4390072,48.3498474 27.2142857,47.0678571 L26.5688298,47.0678571 L25.8557199,47.9632239 C25.6328971,47.681056 25.344745,47.5399721 24.9912636,47.5399721 C24.4610415,47.5399721 23.0915047,47.7725885 22.5669575,49.2710604 C22.2172594,50.2700416 21.4985117,51.1494265 20.4107143,51.909215 C21.9823991,52.711214 23.5092489,52.711214 24.9912636,51.909215 C26.4732783,51.107216 26.9991337,50.0714536 26.5688298,48.8019277 Z" id="路径-14备份" opacity="0.400000006" transform="translate(23.812500, 49.789286) rotate(-62.000000) translate(-23.812500, -49.789286) "></path>
            <path d="M15.5540244,28.0211596 C14.8096624,29.2024714 14.2623962,29.9123836 13.9122259,30.1508959 C12.9176153,30.8283576 12.0206004,30.9804809 11.4125014,30.9804809 C10.0186458,30.9804809 12.8913816,30.6302085 13.9122259,29.4437558 C14.5927888,28.6527873 15.3982373,27.4560592 16.3285714,25.8535714 L15.5540244,25.8535714 L14.6982925,26.9727799 C14.4309051,26.6200701 14.0851226,26.4437152 13.6609449,26.4437152 C13.0246783,26.4437152 11.3812343,26.7344857 10.7517776,28.6075755 C10.3321399,29.856302 9.46964256,30.9555331 8.16428571,31.9052688 C10.0503075,32.9077675 11.8825272,32.9077675 13.6609449,31.9052688 C15.4393626,30.90277 16.0703891,29.6080669 15.5540244,28.0211596 Z" id="路径-14备份-2" opacity="0.600000024" transform="translate(12.246429, 29.255357) rotate(80.000000) translate(-12.246429, -29.255357) "></path>
            <polygon id="路径-23" opacity="0.300000012" points="21.1342582 85.7557844 36.7066338 85.7557844 38.7073067 80.8483689 35.1169904 83.8721784 34.4457899 76.1244048 31.3190961 83.4879272 28.647325 78.5915853 27.933452 83.8721784 26.1554137 81.9760225 24.4895869 83.8721784 22.4734679 78.5915853"></polygon>
            <g id="fly" transform="translate(80.629014, 27.673549) scale(-1, 1) translate(-80.629014, -27.673549) translate(69.129014, 18.673549)">
                <path d="M11.790827,17.2583724 L10.1449593,14.6381903 L12.4757243,13.9951903 L11.790827,17.2583724 Z" id="形状结合" opacity="0.800000012"></path>
                <polygon id="路径-3" opacity="0.699999988" points="0.993959263 0.0599020822 4.41826114 16.2191225 12.4757243 13.9951903"></polygon>
                <polygon id="路径-4" opacity="0.699999988" points="0.993959263 0.0599020822 16.1355167 12.5595083 22.5876947 10.5668281"></polygon>
                <polygon id="路径-7" opacity="0.400000006" points="0.993959263 0.0599020822 12.4757243 13.9951903 11.790827 17.2583724 16.1355167 12.5595083"></polygon>
                <path d="M13.1746976,15.7575043 L11.790827,17.2583724 L12.4757243,13.9951903 L1.02774042,0.0991438729 C1.578482,0.705377633 1.87626975,1.03372138 1.92110367,1.08417511 C1.96593759,1.13462884 5.90237712,5.27665176 13.7304223,13.5102439 L13.1746976,15.7575043 Z" id="路径-2" opacity="0.200000003"></path>
            </g>
        </g>
    </g>
</svg>