<?xml version="1.0" encoding="UTF-8"?>
<svg width="24px" height="24px" viewBox="0 0 24 24" version="1.1" xmlns="http://www.w3.org/2000/svg" xmlns:xlink="http://www.w3.org/1999/xlink">
    <title>ic_voice</title>
    <defs>
        <path d="M12,0.25 C18.4893458,0.25 23.75,5.51065419 23.75,12 C23.75,18.4893458 18.4893458,23.75 12,23.75 C5.51065419,23.75 0.25,18.4893458 0.25,12 C0.25,5.51065419 5.51065419,0.25 12,0.25 Z M12,1.75 C6.33908131,1.75 1.75,6.33908131 1.75,12 C1.75,17.6609187 6.33908131,22.25 12,22.25 C17.6609187,22.25 22.25,17.6609187 22.25,12 C22.25,6.33908131 17.6609187,1.75 12,1.75 Z M11.75,6 C12.1642136,6 12.5,6.33578644 12.5,6.75 L12.5,17.25 C12.5,17.6642136 12.1642136,18 11.75,18 C11.3357864,18 11,17.6642136 11,17.25 L11,6.75 C11,6.33578644 11.3357864,6 11.75,6 Z M8.75,8 C9.16421356,8 9.5,8.33578644 9.5,8.75 L9.5,15.25 C9.5,15.6642136 9.16421356,16 8.75,16 C8.33578644,16 8,15.6642136 8,15.25 L8,8.75 C8,8.33578644 8.33578644,8 8.75,8 Z M14.75,8 C15.1642136,8 15.5,8.33578644 15.5,8.75 L15.5,15.25 C15.5,15.6642136 15.1642136,16 14.75,16 C14.3357864,16 14,15.6642136 14,15.25 L14,8.75 C14,8.33578644 14.3357864,8 14.75,8 Z M5.75,9.25 C6.16421356,9.25 6.5,9.58578644 6.5,10 L6.5,13.75 C6.5,14.1642136 6.16421356,14.5 5.75,14.5 C5.33578644,14.5 5,14.1642136 5,13.75 L5,10 C5,9.58578644 5.33578644,9.25 5.75,9.25 Z M17.75,9 C18.1642136,9 18.5,9.33578644 18.5,9.75 L18.5,13.5 C18.5,13.9142136 18.1642136,14.25 17.75,14.25 C17.3357864,14.25 17,13.9142136 17,13.5 L17,9.75 C17,9.33578644 17.3357864,9 17.75,9 Z" id="path-1"></path>
    </defs>
    <g id="ic_voice" stroke="none" stroke-width="1" fill="none" fill-rule="evenodd">
        <mask id="mask-2" fill="white">
            <use xlink:href="#path-1"></use>
        </mask>
        <use id="形状结合" fill="#000000" fill-rule="nonzero" xlink:href="#path-1"></use>
    </g>
</svg>