<?xml version="1.0" encoding="UTF-8"?>
<svg width="24px" height="24px" viewBox="0 0 24 24" version="1.1" xmlns="http://www.w3.org/2000/svg" xmlns:xlink="http://www.w3.org/1999/xlink">
    <title>ic_message_图片下载</title>
    <g id="ic_message_图片下载" stroke="none" stroke-width="1" fill="none" fill-rule="evenodd">
        <g id="ic_gallery_frame_overlay_soundphoto" transform="translate(2.000000, 3.000000)" fill="#000000" fill-rule="nonzero">
            <path d="M15.0588235,0 C17.1380132,0 18.8235294,1.68031402 18.8235294,3.75308642 L18.8235294,7.50617284 C18.8235294,7.8948177 18.5074952,8.20987654 18.1176471,8.20987654 C17.7602863,8.20987654 17.4649497,7.94513955 17.4182086,7.6016613 L17.4117647,7.50617284 L17.4117647,3.75308642 C17.4117647,2.50942298 16.4409074,1.49181557 15.2135301,1.41239684 L15.0588235,1.40740741 L3.76470589,1.40740741 C2.5171921,1.40740741 1.49643419,2.37526829 1.41676958,3.59885738 L1.41176471,3.75308642 L1.41176471,15.0123457 C1.41176471,15.1420569 1.4223257,15.2693091 1.44263724,15.3932943 L5.14792463,11.6999372 C6.46318366,10.3887376 8.56709394,10.8294155 9.88235295,12.1406151 C10.1580171,12.4154285 10.1580171,12.8609891 9.88235295,13.1358025 C9.60668876,13.4106158 9.15974872,13.4106158 8.88408453,13.1358025 C8.15835041,12.4123083 7.03279466,11.9354557 6.2642238,12.5866004 L6.14619303,12.6951245 L2.1297632,16.6992533 C2.51844869,17.0737238 3.03619109,17.3159064 3.60999935,17.3530352 L3.76470589,17.3580247 L10.3529412,17.3580247 C10.7427893,17.3580247 11.0588235,17.6730835 11.0588235,18.0617284 C11.0588235,18.4179862 10.7932669,18.7124113 10.4487253,18.7590081 L10.3529412,18.7654321 L3.76470589,18.7654321 C1.68551624,18.7654321 0,17.0851181 0,15.0123457 L0,3.75308642 C0,1.68031402 1.68551624,0 3.76470589,0 L15.0588235,0 Z M5.88235295,4.92592593 C6.79199842,4.92592593 7.52941177,5.66106331 7.52941177,6.56790123 C7.52941177,7.47473915 6.79199842,8.20987654 5.88235295,8.20987654 C4.97270748,8.20987654 4.23529412,7.47473915 4.23529412,6.56790123 C4.23529412,5.66106331 4.97270748,4.92592593 5.88235295,4.92592593 Z M15.5294118,8.91358025 C15.9190588,8.91358025 16.2352941,9.21301096 16.2352941,9.5819523 L16.2352941,9.5819523 L16.2352941,16.9855309 L18.7949835,14.4342611 L18.8741537,14.3661255 C19.1504939,14.1617189 19.542648,14.1844307 19.7932519,14.4342611 C20.0590709,14.6992596 20.0685644,15.123027 19.8217324,15.3993663 L19.8217324,15.3993663 L19.7932519,15.4294483 L16.6940583,18.5190766 L16.5790894,18.6234956 C15.9463385,19.1463604 15.0132737,19.1246347 14.4054795,18.5583186 L14.4054795,18.5583186 L14.3647653,18.5190766 L11.2655717,15.4294483 L11.1972252,15.3505224 C10.9921857,15.0750351 11.0149679,14.6840914 11.2655717,14.4342611 C11.5313908,14.1692624 11.9564701,14.1597981 12.2336649,14.4058683 L12.2336649,14.4058683 L12.2638401,14.4342611 L14.8235294,16.9864691 L14.8235294,9.5819523 C14.8235294,9.21301096 15.1397647,8.91358025 15.5294118,8.91358025 Z" id="形状结合"></path>
        </g>
    </g>
</svg>