<svg xmlns="http://www.w3.org/2000/svg" xmlns:xlink="http://www.w3.org/1999/xlink" width="24" height="24" version="1.1" viewBox="0 0 24 24">  <defs>    <path id="uxs-a" d="M12.25,1 C12.6642136,1 13,1.33578644 13,1.75 C13,2.12969577 12.7178461,2.44349096 12.3517706,2.49315338 L12.25,2.5 L4.06756757,2.5 C2.67357354,2.5 1.53904456,3.5816677 1.50098641,4.93002379 L1.5,15 C1.5,16.35731 2.61090196,17.4619829 3.99570011,17.4990396 L4.06756757,17.5 L17.9324324,17.5 C19.3264265,17.5 20.4609554,16.4183323 20.4990136,15.0699762 L20.5,15 L20.5,10 L20.5068466,9.89822944 C20.556509,9.53215388 20.8703042,9.25 21.25,9.25 C21.6296958,9.25 21.943491,9.53215388 21.9931534,9.89822944 L22,10 L22,15 C22,17.209139 20.209139,19 18,19 L4,19 C1.790861,19 0,17.209139 0,15 L0,5 C0,2.790861 1.790861,1 4,1 L12.25,1 Z M15.6730926,0 C15.7844618,0 15.8969377,0.0318597497 15.9954682,0.101841966 L16.0665162,0.161574445 L21.836729,5.28359813 C22.040214,5.48528172 22.0546251,5.82066248 21.873045,6.04026718 L21.836729,6.08407434 L16.0665162,11.206098 C15.953533,11.3176071 15.8131687,11.3671035 15.6739573,11.3671035 C15.4070345,11.3671035 15.1454813,11.1839242 15.0958399,10.9030031 L15.0874247,10.8058599 L15.0874247,8.23659868 C13.1159834,8.3091365 11.1554945,8.53243921 9.46045846,9.54000379 C8.58714455,10.0588626 7.81124981,10.6971954 7.11836312,11.4333832 C6.79497757,11.7772978 6.51194316,12.1530722 6.24014942,12.537096 C6.08969732,12.7495891 5.95682679,12.9709006 5.82049759,13.1924965 C5.72307841,13.350373 5.59770166,13.5 5.40891598,13.5 C5.37375284,13.5 5.33657215,13.4948797 5.29679746,13.4837857 C4.75148065,13.3296072 5.1083,12.3442307 5.19217272,11.9835328 C5.31524369,11.4558557 5.47290135,10.9387037 5.67004549,10.4332146 C7.14490067,6.64889802 10.7156695,3.91050827 14.7815781,3.41676394 L15.0874247,3.38396055 L15.0874247,0.56181255 C15.0874247,0.22614733 15.3768,0 15.6730926,0 Z M16.587,2.628 L16.5874247,4.75079223 L15.2264788,4.8775013 C12.816237,5.10190367 10.5838436,6.24255088 8.97401484,7.96460323 L8.741,8.223 L8.97031645,8.09249151 C10.5434558,7.22691334 12.2525732,6.87241202 14.6095113,6.75578127 L15.0322705,6.73761301 L16.5874247,6.68039219 L16.587,8.738 L20.029,5.685 L16.587,2.628 Z"/>  </defs>  <g fill="none" fill-rule="evenodd" stroke="none" stroke-width="1" transform="translate(1 2.5)">    <mask id="uxs-b" fill="#fff">      <use xlink:href="#uxs-a"/>    </mask>    <use fill="#000" xlink:href="#uxs-a"/>    <rect width="24" height="24" x="-1" y="-2" fill="#000" fill-opacity=".9" mask="url(#uxs-b)"/>  </g></svg>