<?xml version="1.0" encoding="UTF-8"?>
<svg width="24px" height="24px" viewBox="0 0 24 24" version="1.1" xmlns="http://www.w3.org/2000/svg" xmlns:xlink="http://www.w3.org/1999/xlink">
    <title>ic_message_Recording playback</title>
    <defs>
        <path d="M11.8086777,15.0392845 C11.2068075,13.7698626 10.9018158,12.4199303 10.9018158,11.0266699 C10.9018158,9.63371678 11.2068075,8.28378448 11.8086777,7.01436261 C12.0688973,6.46431053 12.4771918,6.25136652 13.0147584,6.51686652 C13.5523251,6.78359569 13.3388551,7.4296788 13.0783351,7.97942359 C12.6203969,8.94554859 12.3884229,9.97067359 12.3884229,11.026835 C12.3884229,12.0829965 12.6203969,13.1084288 13.0783351,14.0742465 C13.3388551,14.6242986 13.4746713,15.0392845 13.2884425,15.3507849 C13.1887596,15.5175219 12.8811644,15.6566041 12.7083692,15.6566041 C12.3069221,15.6566041 11.9952786,15.4335397 11.8086777,15.0392845 Z M7.55306659,18.3850147 C6.19968475,16.1795824 5.45261285,13.6353846 5.45261285,11.0267857 C5.45261285,8.41818669 6.19968475,5.87394178 7.55306659,3.66850948 C7.87097911,3.15133761 8.31778551,2.88541659 8.89048874,3.2468426 C9.46319196,3.60826862 8.99344447,4.32786521 8.67583243,4.84534438 C7.53879938,6.69739126 6.93753005,8.83491209 6.93753005,11.0268235 C6.93753005,13.2190423 7.53879938,15.3565631 8.67583243,17.20861 C8.99344447,17.7260892 9.28337851,17.9794769 9.08156636,18.4718383 C8.96614859,18.7534232 8.66696234,18.9031084 8.47044553,18.9031084 C8.11046519,18.9031084 7.75889842,18.7196553 7.55306659,18.3850147 Z M3.26145792,21.6170163 C1.12801852,18.4986204 0,14.8363183 0,11.0268235 C0,7.21702146 1.12801852,3.55471938 3.26145792,0.436323547 C3.60370968,-0.0639472865 4.14839719,-0.123060313 4.57763244,0.202774762 C5.00686768,0.528609837 4.69971712,1.20425607 4.35716488,1.7048342 C2.47943772,4.44956336 1.48663719,7.67305295 1.48663719,11.0268342 C1.48663719,14.3803082 2.47943772,17.6037977 4.35716488,20.3488342 C4.69971712,20.8494123 5.02259634,21.3610925 4.74338509,21.7507018 C4.56098991,22.0052146 4.36273333,22.0893235 4.14878842,22.0893235 C3.80743812,22.0893235 3.4720975,21.9246152 3.26145792,21.6170163 Z" id="path-1"></path>
    </defs>
    <g id="ic_message_Recording-playback" stroke="none" stroke-width="1" fill="none" fill-rule="evenodd">
        <g id="#illustration_ic16dp/voice_left/ic_voice_left" transform="translate(11.562348, 12.169662) scale(-1, 1) translate(-11.562348, -12.169662) translate(4.874970, 1.125000)">
            <g id="矩形" transform="translate(6.687378, 11.044662) rotate(180.000000) translate(-6.687378, -11.044662) translate(0.000000, 0.000000)">
                <mask id="mask-2" fill="white">
                    <use xlink:href="#path-1"></use>
                </mask>
                <use id="Mask" fill="#000000" xlink:href="#path-1"></use>
                <rect fill="#000000" mask="url(#mask-2)" x="-5.24996995" y="-1.16067645" width="24" height="24"></rect>
            </g>
        </g>
    </g>
</svg>