<?xml version="1.0" encoding="UTF-8"?>
<svg width="24px" height="24px" viewBox="0 0 24 24" version="1.1" xmlns="http://www.w3.org/2000/svg" xmlns:xlink="http://www.w3.org/1999/xlink">
    <title>ic_重新发送</title>
    <g id="ic_重新发送" stroke="none" stroke-width="1" fill="none" fill-rule="evenodd">
        <g id="paperplan_right_2" fill="#000000" fill-rule="nonzero">
            <rect id="矩形" opacity="0" x="0" y="0" width="24" height="24"></rect>
            <g id="编组" transform="translate(2.232174, 2.188000)" fill-opacity="0.90196079">
                <path d="M15.0978261,12.862 C15.0978261,12.7353333 15.0611594,12.6153333 14.9878261,12.502 C14.9144928,12.3886667 14.8144928,12.2986667 14.6878261,12.232 L1.05782609,6.192 C0.864492754,6.112 0.68115942,6.09866667 0.507826087,6.152 C0.327826087,6.20533333 0.19115942,6.31866667 0.097826087,6.492 C-0.00217391304,6.65866667 -0.0255072464,6.84533333 0.027826087,7.052 L1.48782609,12.882 L0.027826087,18.692 C-0.0255072464,18.8853333 -0.00217391304,19.0653333 0.097826087,19.232 C0.19115942,19.3986667 0.33115942,19.5153333 0.517826087,19.582 C0.697826087,19.642 0.877826087,19.632 1.05782609,19.552 L14.5678261,13.552 L14.7378261,13.482 C14.9778261,13.322 15.0978261,13.1153333 15.0978261,12.862 Z M2.85782609,12.112 L1.84782609,8.182 L10.7278261,12.112 L2.85782609,12.112 Z M2.85782609,13.602 L10.7478261,13.602 L1.84782609,17.542 L2.85782609,13.602 Z" id="形状"></path>
                <path d="M6.35782609,2.062 L15.2678261,5.992 L7.36782609,5.992 L6.35782609,2.062 Z M19.5878261,6.742 C19.5878261,6.59533333 19.5511594,6.46533333 19.4778261,6.352 C19.4044928,6.24533333 19.3111594,6.16533333 19.1978261,6.112 L5.56782609,0.072 C5.37449275,-0.008 5.19115942,-0.0213333333 5.01782609,0.032 C4.83782609,0.0853333333 4.70115942,0.198666667 4.60782609,0.372 C4.51449275,0.538666667 4.49115942,0.725333333 4.53782609,0.932 L5.99782609,6.742 L5.94782609,6.932 L7.34782609,7.552 L7.48782609,7.552 L15.2178261,7.512 L11.2278261,9.282 L13.0778261,10.102 L19.0778261,7.432 C19.2378261,7.352 19.3611594,7.25866667 19.4478261,7.152 C19.5411594,7.03866667 19.5878261,6.902 19.5878261,6.742 Z" id="形状"></path>
            </g>
        </g>
    </g>
</svg>