<?xml version="1.0" encoding="UTF-8"?>
<svg width="24px" height="24px" viewBox="0 0 24 24" version="1.1" xmlns="http://www.w3.org/2000/svg" xmlns:xlink="http://www.w3.org/1999/xlink">
    <title>收藏icon</title>
    <defs>
        <path d="M11.1275436,0.181102171 C11.4726657,0.35143009 11.7520138,0.630778252 11.9223417,0.975900311 L13.9409872,5.06612273 C14.0866492,5.3612662 14.3682148,5.56583558 14.6939249,5.61316403 L19.2077534,6.2690617 C20.1642069,6.40804253 20.8268994,7.29606752 20.6879186,8.25252103 C20.6325757,8.63338583 20.4532231,8.98538505 20.1776268,9.25402511 L16.9113898,12.4378192 C16.6757038,12.6675564 16.5681553,12.9985566 16.6237932,13.3229507 L17.3948472,17.8185401 C17.5582289,18.7711289 16.9184502,19.6758018 15.9658614,19.8391836 C15.5865356,19.904243 15.1963415,19.8424424 14.8556856,19.663349 L11.7635001,18.0384126 C12.2390143,17.727286 12.7094108,17.4097689 13.1746852,17.0858631 L15.5536973,18.3356518 C15.6023624,18.3612366 15.6581045,18.3700653 15.7122939,18.3607711 C15.8386577,18.339098 15.9264902,18.2261143 15.9197055,18.1011277 L15.9164347,18.0721077 L15.172127,13.7357869 C14.583717,14.1995826 14.001428,14.6423491 13.4252601,15.0640866 L12.545356,15.6954721 L12.545356,15.6954721 L11.6737321,16.2966267 C11.0697717,16.7050358 10.4571016,17.1026504 9.83572203,17.4894705 L8.89712048,18.0616046 L8.89712048,18.0616046 L5.8504216,19.663349 C5.6252958,19.7817046 5.38613819,19.8461366 5.14772797,19.8612389 L5.00488977,19.8644176 C4.38733755,19.8528587 3.79481929,19.514043 3.48709464,18.928716 C3.30800127,18.5880601 3.24620058,18.197866 3.31126006,17.8185401 L4.08231401,13.3229507 C4.13795195,12.9985566 4.03040346,12.6675564 3.79471738,12.4378192 L0.528480438,9.25402511 C-0.163615823,8.57939799 -0.177777359,7.47144978 0.496849762,6.77935351 C0.76548982,6.50375715 1.11748904,6.32440459 1.49835384,6.2690617 L6.01218227,5.61316403 C6.33789244,5.56583558 6.61945802,5.3612662 6.76512003,5.06612273 L8.78376548,0.975900311 C9.21150449,0.109206406 10.2608497,-0.246636842 11.1275436,0.181102171 Z M10.3091458,1.50425974 L10.2795308,1.51144531 C10.2686646,1.5147909 10.2580292,1.518872 10.247705,1.5236613 L10.2795308,1.51144531 C10.2608155,1.51720757 10.2427846,1.52515172 10.2258497,1.53513815 L10.247705,1.5236613 C10.2306657,1.53156568 10.2144742,1.54139912 10.1994929,1.55303877 L10.2258497,1.53513815 C10.2064802,1.54656029 10.1885444,1.56065416 10.1726585,1.57721086 L10.1994929,1.55303877 C10.1849373,1.5643476 10.171524,1.57736142 10.1595853,1.59196759 L10.1288696,1.63974888 L8.11022415,5.7299713 C8.00777458,5.93755679 7.8784333,6.12722008 7.72730841,6.29524989 C7.71689578,6.30682704 7.70639741,6.31828256 7.69579765,6.32963452 C7.67154277,6.35561145 7.64672731,6.38107519 7.62139962,6.40598085 C7.60218069,6.42489265 7.58203893,6.44406097 7.56159254,6.46288014 C7.54083435,6.48198762 7.5196972,6.50079105 7.49825426,6.51922504 C7.47322683,6.54074174 7.44772876,6.56179801 7.42182858,6.58233709 C7.40048782,6.59925748 7.37904998,6.61569642 7.35735242,6.63178345 C7.33070846,6.65153988 7.30357168,6.67083457 7.27605691,6.68958262 C7.25492178,6.70398657 7.23336909,6.71819191 7.211597,6.73206323 C7.18077263,6.75169916 7.14964623,6.77058616 7.11810558,6.78879379 C7.09318259,6.80318221 7.06793447,6.81718179 7.04243707,6.83074714 C7.01690923,6.8443284 6.99115119,6.85746478 6.96515443,6.87015872 C6.93903843,6.88291 6.9127448,6.89518656 6.88622226,6.90701087 C6.85335128,6.92166933 6.81990009,6.93572335 6.78611347,6.94905788 C6.76431502,6.95766158 6.7423271,6.96598386 6.72020461,6.97400115 C6.68780879,6.98573818 6.65534491,6.99675143 6.62261388,7.00710667 C6.59147434,7.01696243 6.55981124,7.02629969 6.52791744,7.03501943 C6.50164244,7.04220208 6.47529134,7.04894641 6.44879321,7.05526794 C6.43290893,7.05905871 6.41677784,7.06273982 6.40059453,7.06626389 L6.34067741,7.0785461 C6.32925198,7.08074299 6.31780208,7.08286197 6.30632837,7.08490255 L6.22787975,7.09757456 L1.71405132,7.75347222 C1.65964206,7.76137835 1.60935646,7.78700014 1.57097931,7.82637105 L1.52890006,7.8840533 C1.52582815,7.88986127 1.52300154,7.89576385 1.52042005,7.90174587 C1.51449622,7.91548938 1.50989,7.92954635 1.50655628,7.94383618 L1.52042005,7.90174587 C1.51039885,7.92496773 1.50407137,7.9493867 1.50142628,7.9741157 L1.50655628,7.94383618 C1.50105904,7.96739981 1.49902189,7.99159663 1.50043452,8.01562019 L1.50142628,7.9741157 C1.49920796,7.99485487 1.49957964,8.0158121 1.50253462,8.03646414 L1.50043452,8.01562019 C1.50177872,8.03848004 1.50624659,8.06118301 1.51382923,8.08303428 L1.50253462,8.03646414 C1.5060908,8.06131792 1.51338839,8.0857297 1.52441573,8.10878746 L1.51382923,8.08303428 C1.52116187,8.10416511 1.53140729,8.12449947 1.54455744,8.14340902 L1.57549797,8.17989556 L4.84173491,11.3636897 C5.01864201,11.5361315 5.16667163,11.7313942 5.28345225,11.9421791 C5.2953283,11.9636243 5.30666735,11.9848165 5.31769281,12.0061559 C5.33476849,12.0391876 5.35132004,12.0730656 5.36708883,12.107279 C5.37632136,12.127309 5.38531842,12.1475304 5.3940433,12.1678619 C5.40986772,12.2047409 5.42476697,12.2419027 5.43876354,12.2793914 C5.4454323,12.2972446 5.45202451,12.315541 5.45840225,12.3339108 C5.47028839,12.3681498 5.48140707,12.402569 5.49177572,12.4372171 C5.50287113,12.4742925 5.51311244,12.5116488 5.52248413,12.5492367 C5.52796581,12.571221 5.53315883,12.5933246 5.53805129,12.6155015 C5.54476714,12.6459428 5.55091922,12.6765363 5.55649928,12.7072522 C5.56303576,12.7432118 5.56882288,12.7795927 5.57380648,12.8161176 C5.57506929,12.8253706 5.57629025,12.8347105 5.57745863,12.8440594 C5.58350998,12.8925009 5.58814084,12.9410487 5.59134826,12.9897755 C5.59232171,13.0045421 5.59317605,13.0195675 5.59389477,13.0346081 C5.59594229,13.0774606 5.59688899,13.120425 5.59672221,13.1634723 C5.59660006,13.1963491 5.59581127,13.2296695 5.59435124,13.2630207 C5.59302405,13.2932641 5.5911662,13.3232665 5.58876161,13.3532801 C5.58781128,13.365151 5.58676123,13.3771738 5.58562319,13.3891974 L5.58116275,13.4323326 C5.57880526,13.4533486 5.57617796,13.4743641 5.57327934,13.4953747 L5.56072649,13.5765183 L4.78967255,18.0721077 C4.78037834,18.1262971 4.789207,18.1820392 4.81479177,18.2307043 C4.82959651,18.2588646 4.84901555,18.2830308 4.87163151,18.3027625 C4.88066279,18.3106526 4.8903436,18.3179241 4.90045515,18.3244389 L4.87163151,18.3027625 C4.88713342,18.3162873 4.90413733,18.3277287 4.92218679,18.3369446 L4.90045515,18.3244389 C4.91710435,18.3351658 4.93492135,18.3438411 4.95348569,18.3503341 L4.92218679,18.3369446 C4.94336524,18.3477582 4.96598318,18.355508 4.98930324,18.3599646 L4.95348569,18.3503341 C4.99312221,18.3641974 5.03616551,18.3681125 5.0785231,18.3608073 L5.04635002,18.3642163 C5.06659512,18.3633976 5.08691947,18.3600992 5.10687892,18.3541829 L5.15240991,18.3356518 L5.449,18.179 L8.155,16.756 L9.03578873,16.2205415 C10.2372014,15.4728893 11.4050101,14.6839498 12.5392882,13.8536925 C13.7571484,12.9622557 15.0054139,11.9726393 16.2443402,10.9211537 L16.862841,10.3904233 L19.1306092,8.17989556 C19.1699802,8.14151841 19.195602,8.09123281 19.2035081,8.03682355 L19.2040354,7.96826842 C19.2029596,7.96005442 19.2014789,7.95194487 19.1996114,7.94396401 C19.1967961,7.93189613 19.1930359,7.91997057 19.188433,7.90843378 L19.1996114,7.94396401 C19.1943233,7.92136415 19.1859338,7.89979633 19.1748541,7.87981143 L19.188433,7.90843378 C19.1810465,7.88991982 19.17149,7.87240705 19.1600323,7.85625577 L19.1748541,7.87981143 C19.1638925,7.86003958 19.1502978,7.84181708 19.1344679,7.82567736 L19.1600323,7.85625577 C19.1486234,7.84017326 19.1353296,7.82544067 19.1204162,7.81241371 L19.1344679,7.82567736 C19.121272,7.81222314 19.1065229,7.80021625 19.0904512,7.78996569 L19.1204162,7.81241371 C19.1031723,7.79735099 19.0837631,7.78456866 19.0625991,7.77461661 L19.0904512,7.78996569 C19.0731627,7.77893901 19.0543437,7.7699447 19.0342813,7.7633674 L18.9920559,7.75347222 L14.4782275,7.09757456 C14.3742447,7.08246498 14.2720617,7.060945 14.172156,7.03336169 C14.1541655,7.02839394 14.1363313,7.02325436 14.118573,7.01792197 C14.0927792,7.01017923 14.0669359,7.00195922 14.0412639,6.993332 C14.0051722,6.98119957 13.9696273,6.96834291 13.9344409,6.95470794 C13.9144506,6.94696519 13.8942118,6.93881917 13.8740975,6.93041592 C13.8402091,6.91625327 13.8069534,6.90149173 13.7740667,6.88602772 C13.7432502,6.87154302 13.7124135,6.85626213 13.6819263,6.84036349 C13.6595091,6.82867187 13.6373855,6.81670493 13.6154562,6.80441232 C13.584202,6.78689392 13.5532705,6.76866954 13.5227562,6.74979556 C13.5014954,6.73664709 13.4802994,6.72309229 13.4593158,6.70922318 C13.4311365,6.69059242 13.4036264,6.67160096 13.3765083,6.65206654 C13.3539806,6.63584401 13.3314273,6.61901824 13.3091617,6.60181494 C13.2876716,6.58520978 13.2665082,6.56830141 13.2456203,6.5510498 C13.2159479,6.52653968 13.1869551,6.50144905 13.1585387,6.47569004 C13.1418677,6.46058545 13.1249603,6.44483483 13.1082675,6.42884579 C13.0825411,6.40420326 13.0573573,6.37902888 13.0327016,6.35330431 C13.0163058,6.33619402 13.0003228,6.31903831 12.984574,6.30164885 C12.9579416,6.27224179 12.9319842,6.24217294 12.9067238,6.21145603 C12.8945629,6.1966683 12.8825647,6.18173177 12.870731,6.1666473 C12.8425821,6.13076686 12.815341,6.09401593 12.7890743,6.05645672 C12.7805576,6.04427461 12.7723634,6.03233404 12.7642676,6.02031385 C12.7396373,5.98374779 12.7158596,5.9463473 12.693035,5.90823318 C12.6882863,5.90030262 12.6836394,5.89244488 12.6790331,5.88455729 L12.6560346,5.84432507 C12.6479469,5.82986762 12.6399937,5.81531364 12.6321768,5.80066451 L12.5958831,5.7299713 L10.5772376,1.63974888 C10.5529051,1.59044573 10.5129982,1.55053885 10.463695,1.52620629 L10.426,1.513 L10.4037618,1.50552491 C10.3924329,1.5031707 10.3810424,1.50163027 10.3696677,1.50087735 C10.3490062,1.49954561 10.3288315,1.50073178 10.3091458,1.50425974 Z" id="path-1"></path>
    </defs>
    <g id="收藏icon" stroke="none" stroke-width="1" fill="none" fill-rule="evenodd">
        <g id="Public/ic_public_collect" transform="translate(1.650000, 1.453825)">
            <mask id="mask-2" fill="white">
                <use xlink:href="#path-1"></use>
            </mask>
            <use id="形状结合" fill="#000000" fill-rule="nonzero" xlink:href="#path-1"></use>
        </g>
<!--        <rect id="矩形" x="0" y="0" width="24" height="24"></rect>-->
    </g>
</svg>