<?xml version="1.0" encoding="UTF-8"?>
<svg width="24px"
     height="24px"
     viewBox="0 0 24 24"
     version="1.1"
     xmlns="http://www.w3.org/2000/svg"
     xmlns:xlink="http://www.w3.org/1999/xlink">
    <title>ic_message_card</title>
    <g
        id="ic_message_card2"
        stroke="none"
        stroke-width="1"
        fill="none"
        fill-rule="evenodd">
        <rect
            id="color/#000000"
            x="0"
            y="0"
            width="24"
            height="24"></rect>
        <path
            d="M11.75,6.5 L18.5,6.5 L18.5,6.5 L23,11 L23,20.75 C23,21.9926407 21.9926407,23 20.75,23 L11.75,23 C10.5073593,23 9.5,21.9926407 9.5,20.75 L9.5,8.75 C9.5,7.50735931 10.5073593,6.5 11.75,6.5 Z"
            id="Mask"
            fill="#182431"
            opacity="0.400000006"></path>
        <path
            d="M16.8923624,20.221483 L15.9576187,20.221483 C15.750512,20.221483 15.5826187,20.0535897 15.5826187,19.846483 L15.5826187,11.9522669 C15.5826187,11.9004902 15.5406454,11.8585169 15.4888687,11.8585169 C15.4750015,11.8585169 15.4613069,11.8615932 15.448772,11.8675242 L13.7516974,12.6705095 C13.6580932,12.7147991 13.5463083,12.6748217 13.5020187,12.5812176 C13.4901567,12.5561478 13.484004,12.5287587 13.484004,12.5010242 L13.484004,11.1352408 C13.484004,11.0041395 13.5524697,10.8825566 13.6645728,10.8145828 L15.3304187,9.80449606 C15.4476673,9.73340229 15.5821622,9.69581197 15.719281,9.69581197 L16.8855776,9.69581197 C17.09259,9.69605377 17.2604441,9.8637997 17.2608194,10.0708119 L17.2671207,19.846483 C17.2674958,20.0535896 17.0997109,20.221591 16.8926041,20.2217245 C16.8925236,20.2217246 16.892443,20.2217246 16.8923624,20.221483 Z"
            id="Fill-1"
            fill="#FFFFFF"></path>
        <path
            d="M3.25,1 L10,1 L10,1 L14.5,5.5 L14.5,15.25 C14.5,16.4926407 13.4926407,17.5 12.25,17.5 L3.25,17.5 C2.00735931,17.5 1,16.4926407 1,15.25 L1,3.25 C1,2.00735931 2.00735931,1 3.25,1 Z"
            id="Mask"
            fill="#00CB87"></path>
        <path
            d="M10.6576387,13.1766875 L10.6576387,13.9339626 C10.6576387,14.1410694 10.4897455,14.3089626 10.2826387,14.3089626 L5.22605664,14.3089626 C5.01894986,14.3089626 4.85105664,14.1410694 4.85105664,13.9339626 L4.85105664,13.1199249 L4.85105664,13.1199249 C4.85105664,13.0100232 4.8803034,12.9158425 4.94039944,12.8385791 C5.70257673,11.8619226 6.84584268,10.3969379 8.37019727,8.443625 C8.75820508,7.95605 9.00224805,7.4837375 9.00224805,6.9070625 C9.00224805,6.1538375 8.52810742,5.577575 7.70943555,5.577575 C6.95484411,5.577575 6.51277945,6.03869703 6.39683925,6.77138509 C6.39642819,6.77398283 6.39568302,6.77856116 6.39460374,6.78512007 L6.39485766,6.78516185 C6.3780209,6.88748137 6.28142566,6.95677883 6.17910615,6.93994208 C6.17730845,6.93964626 6.17551514,6.9393243 6.17372681,6.93897629 C6.1544212,6.9352194 6.14123333,6.93259666 6.1341632,6.93110809 C5.88981187,6.87966141 5.53046755,6.80400366 5.05613023,6.70413484 C5.04769106,6.70235803 5.02955554,6.69851885 5.00172367,6.69261733 L5.00172329,6.69261912 C4.90799605,6.672745 4.84432958,6.58540593 4.85409057,6.49009329 C4.85721501,6.45958419 4.85928756,6.44061724 4.86030821,6.43319245 C5.01950985,5.27507059 5.93817189,4.1 7.7520918,4.1 C9.5764668,4.1 10.6252363,5.3412125 10.6252363,6.9070625 C10.6252363,7.8079625 10.2802949,8.54675 9.70566602,9.25625 L6.83785352,12.7719875 L6.83785352,12.8016875 L10.2826387,12.8016875 C10.4897455,12.8016875 10.6576387,12.9695807 10.6576387,13.1766875 Z"
            id="路径"
            fill="#FFFFFF"></path>
    </g>
</svg>