<?xml version="1.0" encoding="UTF-8"?>
<svg width="24px" height="24px" viewBox="0 0 24 24" version="1.1" xmlns="http://www.w3.org/2000/svg" xmlns:xlink="http://www.w3.org/1999/xlink">
    <title>ic_public_messages</title>
    <defs>
        <path d="M10.7813297,13.4440304 C11.2586045,13.7563662 11.8199547,13.952723 12.4246824,13.9925018 L12.6534091,14 L13.9090909,14 L13.9607367,14.0017785 C14.1115046,14.0121778 14.2551766,14.067876 14.373167,14.1608147 L14.4565541,14.2373754 L16.7974632,16.7373754 L16.8288053,16.7730063 C17.0539391,17.0456617 17.0557142,17.4368446 16.8418783,17.7108072 L16.7626246,17.7974632 L16.7269937,17.8288053 C16.4543383,18.0539391 16.0631554,18.0557142 15.7891928,17.8418783 L15.7025368,17.7626246 L13.58425,15.5 L12.567193,15.4992614 C11.4934607,15.4808506 10.5035477,15.1192079 9.70397908,14.5198057 L10.7813297,13.4440304 Z M19.0009632,6.1313553 C20.762715,6.87025897 22,8.60339845 22,10.625 C22,13.2457463 19.9206452,15.3817094 17.3149199,15.4952526 L17.0965909,15.5 L17,15.5 L16.9559318,15.4987268 C16.56223,15.4759152 16.25,15.1494202 16.25,14.75 C16.25,14.3703042 16.5321539,14.056509 16.8982294,14.0068466 L17,14 L17.1747471,13.999128 C19.0193908,13.9579269 20.5,12.4619321 20.5,10.625 C20.5,9.38604758 19.8264598,8.30219003 18.8219676,7.71518159 C18.921098,7.2797857 18.9805168,6.82902884 18.9959563,6.36723755 L19.0009632,6.1313553 Z M11.875,1.77635684e-15 C15.2577441,1.77635684e-15 18,2.74225591 18,6.125 C18,9.432572 15.3782679,12.1278057 12.0995443,12.2459605 L11.875,12.25 L10.56,12.25 L7.53033009,15.2803301 C7.26406352,15.5465966 6.84739984,15.5708027 6.55378835,15.3529482 L6.46966991,15.2803301 C6.20340335,15.0140635 6.1791973,14.5973998 6.39705176,14.3037883 L6.46966991,14.2196699 L9.71966991,10.9696699 C9.83219174,10.8571481 9.97678598,10.7840724 10.1319659,10.7593431 L10.25,10.75 L11.875,10.75 C14.429317,10.75 16.5,8.67931697 16.5,6.125 C16.5,3.64163628 14.5427572,1.61541112 12.0867062,1.50475923 L11.875,1.5 L6.125,1.5 C3.57068303,1.5 1.5,3.57068303 1.5,6.125 C1.5,8.60836372 3.45724284,10.6345889 5.91329379,10.7452408 L6.125,10.75 L6.25,10.75 C6.66421356,10.75 7,11.0857864 7,11.5 C7,11.8796958 6.71784612,12.193491 6.35177056,12.2431534 L6.25,12.25 L6.125,12.25 C2.74225591,12.25 0,9.50774409 0,6.125 C0,2.817428 2.62173207,0.122194331 5.90045566,0.00403953668 L6.125,1.77635684e-15 L11.875,1.77635684e-15 Z" id="path-1"></path>
    </defs>
    <g id="ic_public_messages" stroke="none" stroke-width="1" fill="none" fill-rule="evenodd">
        <g id="Public/ic_public_community_messages" transform="translate(1.000000, 3.000000)">
            <mask id="mask-2" fill="white">
                <use xlink:href="#path-1"></use>
            </mask>
            <use id="形状结合" fill="#000000" fill-rule="nonzero" xlink:href="#path-1"></use>
        </g>
    </g>
</svg>