<?xml version="1.0" encoding="UTF-8"?>
<svg width="24px" height="24px" viewBox="0 0 24 24" version="1.1" xmlns="http://www.w3.org/2000/svg" xmlns:xlink="http://www.w3.org/1999/xlink">
    <title>ic_public_copy</title>
    <defs>
        <path d="M13.0132009,2.5 C14.5733587,2.5 15.1391096,2.66244482 15.70948,2.96748223 C16.2798504,3.27251964 16.7274804,3.72014965 17.0325178,4.29052002 L17.1342249,4.49326214 C17.3735291,5.00777167 17.5,5.61018928 17.5,6.9867991 L17.5,15.5132009 C17.5,17.0733587 17.3375552,17.6391096 17.0325178,18.20948 C16.7274804,18.7798504 16.2798504,19.2274804 15.70948,19.5325178 L15.5067379,19.6342249 C14.9922283,19.8735291 14.3898107,20 13.0132009,20 L4.4867991,20 C2.92664131,20 2.36089039,19.8375552 1.79052002,19.5325178 C1.22014965,19.2274804 0.772519644,18.7798504 0.467482232,18.20948 L0.365775094,18.0067379 C0.12647088,17.4922283 0,16.8898107 0,15.5132009 L0,6.9867991 C0,5.42664131 0.16244482,4.86089039 0.467482232,4.29052002 C0.772519644,3.72014965 1.22014965,3.27251964 1.79052002,2.96748223 L1.99326214,2.86577509 C2.47347103,2.64242449 3.03025764,2.51736427 4.22159636,2.50168224 L13.0132009,2.5 Z M4.4867991,4 C3.29081707,4 2.8991107,4.07564199 2.49791831,4.29020203 C2.18895065,4.45543974 1.95543974,4.68895065 1.79020203,4.99791831 L1.71163699,5.15981826 C1.56872488,5.49032199 1.50932077,5.88419566 1.50102731,6.75808525 L1.5,15.5132009 C1.5,16.7091829 1.57564199,17.1008893 1.79020203,17.5020817 C1.95543974,17.8110494 2.18895065,18.0445603 2.49791831,18.209798 L2.65981826,18.288363 C2.99032199,18.4312751 3.38419566,18.4906792 4.25808525,18.4989727 L4.4867991,18.5 L13.0132009,18.5 L13.4506279,18.4958158 C14.3138066,18.4773591 14.6543816,18.39575 15.0020817,18.209798 C15.3110494,18.0445603 15.5445603,17.8110494 15.709798,17.5020817 L15.788363,17.3401817 C15.9312751,17.009678 15.9906792,16.6158043 15.9989727,15.7419147 L16,15.5132009 L16,6.9867991 L15.9958158,6.54937207 C15.9773591,5.6861934 15.89575,5.34561838 15.709798,4.99791831 C15.5445603,4.68895065 15.3110494,4.45543974 15.0020817,4.29020203 L14.8401817,4.21163699 C14.509678,4.06872488 14.1158043,4.00932077 13.2419147,4.00102731 L4.4867991,4 Z M13.590287,2.58960077e-16 C15.8190838,-1.50463262e-16 16.6272994,0.232064028 17.4421143,0.667831759 C18.2569291,1.10359949 18.8964005,1.74307093 19.3321682,2.55788574 C19.767936,3.37270056 20,4.18091615 20,6.409713 L20,12.3722296 C20,14.1552671 19.8143488,14.8018396 19.4657346,15.4536914 C19.2202776,15.9126561 18.8940321,16.3020799 18.4949174,16.6140435 C18.4981214,16.4695118 18.5,16.316606 18.5,16.1541722 L18.5,6.3458278 C18.5,4.97563815 18.3663256,4.28341544 17.9811141,3.56313259 C17.6264537,2.89997522 17.1000248,2.3735463 16.4368674,2.01888586 C15.7646034,1.65935514 15.1167829,1.51894119 13.9193798,1.50181725 L3.8458278,1.5 C3.68310622,1.5 3.5299464,1.50188529 3.38516578,1.50585327 C3.69792007,1.10596794 4.0873439,0.779722413 4.54630859,0.534265408 C5.19816044,0.185651222 5.84473292,-1.13535777e-17 7.6277704,1.95404733e-17 L13.590287,2.58960077e-16 Z M8.75,6.25 C9.16421356,6.25 9.5,6.58578644 9.5,7 L9.5,15.5 C9.5,15.9142136 9.16421356,16.25 8.75,16.25 C8.33578644,16.25 8,15.9142136 8,15.5 L8,12 L4.5,12 C4.08578644,12 3.75,11.6642136 3.75,11.25 C3.75,10.8357864 4.08578644,10.5 4.5,10.5 L8,10.5 L8,7 C8,6.58578644 8.33578644,6.25 8.75,6.25 Z M13,10.5 C13.4142136,10.5 13.75,10.8357864 13.75,11.25 C13.75,11.6642136 13.4142136,12 13,12 L10.5,12 L10.5,10.5 L13,10.5 Z" id="path-1"></path>
    </defs>
    <g id="ic_public_copy" stroke="none" stroke-width="1" fill="none" fill-rule="evenodd">
        <g id="Public/ic_public_copy" transform="translate(2.000000, 2.000000)">
            <mask id="mask-2" fill="white">
                <use xlink:href="#path-1"></use>
            </mask>
            <use id="形状结合" fill="#000000" xlink:href="#path-1"></use>
        </g>
    </g>
</svg>