<?xml version="1.0" encoding="UTF-8"?>
<svg width="24px" height="24px" viewBox="0 0 24 24" version="1.1" xmlns="http://www.w3.org/2000/svg" xmlns:xlink="http://www.w3.org/1999/xlink">
    <title>ic_public_contacts_group_filled</title>
    <defs>
        <path d="M8.79292615,10.5 C14.2929261,10.5 16.4381833,14.4535785 17.0282203,15.7777778 C17.240841,16.2549551 17.4130091,16.8854069 17.5447245,17.6691334 C17.7275659,18.7584647 16.9926164,19.7896973 15.9032683,19.9724392 C15.7943575,19.9907093 15.6841205,19.9999276 15.5736879,20 L2.00337537,20 C0.898807233,20.0017379 0.00196695641,19.1077194 0.000226538369,18.0031513 C5.02198508e-05,17.8912496 0.00926569535,17.7795304 0.0275572305,17.6691334 C0.158474651,16.8854069 0.33516625,16.2549551 0.557632029,15.7777778 C1.17498964,14.4535785 3.29292615,10.5 8.79292615,10.5 Z M13.783437,10.3144625 C17.4564098,10.7984599 20.2929261,13.942978 20.2929261,17.75 C20.2929261,18.5595992 19.6515324,19.2193929 18.8491607,19.2489654 L18.7929261,19.250083 L18.725987,19.250083 C18.7614639,19.1887813 18.7842981,19.1192484 18.7909241,19.0450502 L18.7929261,19 L18.7929261,18.5 C18.7929261,15.1281704 16.7326662,12.1894203 13.6833174,10.6478036 L13.6821381,10.6472076 L13.6809658,10.6465918 C13.594057,10.6027174 13.5591707,10.4966966 13.6030452,10.4097878 C13.6283679,10.3596272 13.6753955,10.3255813 13.7286627,10.3158227 L13.783437,10.3144625 L13.783437,10.3144625 Z M11.5429261,-1.38777878e-17 C14.0282075,0 16.0429261,2.01471863 16.0429261,4.5 C16.0429261,5.62311012 15.6314848,6.65012296 14.9511075,7.43853308 C14.4784751,7.98621183 13.8760661,8.41875148 13.1916503,8.68838233 L13.1816399,8.69214294 L13.1816399,8.69214294 L13.1669561,8.69742211 C13.1032312,8.71978858 13.0334404,8.68626097 13.0110739,8.62253608 C13.0016041,8.59555549 13.0020196,8.56658217 13.0114518,8.54047426 L13.0322541,8.50406872 L13.0322541,8.50406872 C13.8197253,7.55263148 14.2929261,6.33157673 14.2929261,5 C14.2929261,2.96455014 13.1872348,1.18734834 11.5437174,0.236259865 L11.5179823,0.221558403 L11.5179823,0.221558403 L11.4898198,0.205893643 C11.4367464,0.17656384 11.4174984,0.109762821 11.4468282,0.0566893907 C11.4661573,0.0217126618 11.5029639,-6.53683362e-18 11.5429261,-1.38777878e-17 Z M8.79292615,0.5 C6.30764477,0.5 4.29292615,2.51471863 4.29292615,5 C4.29292615,7.48528137 6.30764477,9.5 8.79292615,9.5 C11.2782075,9.5 13.2929261,7.48528137 13.2929261,5 C13.2929261,2.51471863 11.2782075,0.5 8.79292615,0.5 Z" id="path-1"></path>
    </defs>
    <g id="ic_public_contacts_group_filled" stroke="none" stroke-width="1" fill="none" fill-rule="evenodd">
        <g id="Public/ic_public_contacts_group_filled" transform="translate(1.957074, 2.000000)">
            <mask id="mask-2" fill="white">
                <use xlink:href="#path-1"></use>
            </mask>
            <use id="蒙版" fill="#000000" xlink:href="#path-1"></use>
        </g>
    </g>
</svg>