<?xml version="1.0" encoding="UTF-8"?>
<svg width="24px" height="24px" viewBox="0 0 24 24" version="1.1" xmlns="http://www.w3.org/2000/svg" xmlns:xlink="http://www.w3.org/1999/xlink">
    <title>ic_public_gps_filled</title>
    <defs>
        <path d="M9.25,0 C14.3554507,0 18.5,4.06620272 18.5,9.08935235 C18.5,11.0455895 17.9074499,12.9570692 16.8076286,14.8889617 C15.9585731,16.3803713 14.8972682,17.7636041 13.3787501,19.4790058 C12.8053145,20.1267901 12.0469026,20.8609366 11.1018942,21.6845394 L11.1018942,21.6845394 L10.826813,21.9222914 C9.95412294,22.6704767 8.67097699,22.6937182 7.75936802,21.9711442 L7.75936802,21.9711442 L7.68825374,21.9118686 L7.35735982,21.6232899 C6.48794876,20.8608237 5.85414027,20.2695718 5.44479534,19.8365261 L5.44479534,19.8365261 L5.35085655,19.735626 L5.11894106,19.4768459 C1.79095381,15.7335288 0,12.5593683 0,9.08935235 C0,4.10298088 3.95791088,0.0810993802 8.98344856,0.00114093147 L8.98344856,0.00114093147 L9.1299375,0 Z M9.25,6.85955634 C8.00735931,6.85955634 7,7.86691565 7,9.10955634 C7,10.352197 8.00735931,11.3595563 9.25,11.3595563 C10.4926407,11.3595563 11.5,10.352197 11.5,9.10955634 C11.5,7.86691565 10.4926407,6.85955634 9.25,6.85955634 Z" id="path-1"></path>
    </defs>
    <g id="ic_public_gps_filled" stroke="none" stroke-width="1" fill="none" fill-rule="evenodd">
        <g id="Public/ic_public_gps_filled" transform="translate(2.750000, 0.890444)">
            <mask id="mask-2" fill="white">
                <use xlink:href="#path-1"></use>
            </mask>
            <use id="路径" fill="#000000" fill-rule="nonzero" xlink:href="#path-1"></use>
        </g>
    </g>
</svg>