<?xml version="1.0" encoding="UTF-8"?>
<svg width="20px" height="20px" viewBox="0 0 20 20" version="1.1" xmlns="http://www.w3.org/2000/svg" xmlns:xlink="http://www.w3.org/1999/xlink">
    <title>ic_public_close_filled备份</title>
    <g id="编组">
        <path fill-rule="evenodd" d="M10,5 C10.345178,5 10.625,5.27982203 10.625,5.625 L10.625,14.375 C10.625,14.720178 10.345178,15 10,15 C9.65482203,15 9.375,14.720178 9.375,14.375 L9.375,10.625 L5.625,10.625 C5.27982203,10.625 5,10.345178 5,10 C5,9.65482203 5.27982203,9.375 5.625,9.375 L9.375,9.375 L9.375,5.625 C9.375,5.27982203 9.65482203,5 10,5 Z M14.375,9.375 C14.720178,9.375 15,9.65482203 15,10 C15,10.345178 14.720178,10.625 14.375,10.625 L11.458,10.625 L11.458,9.375 L14.375,9.375 Z" id="形状结合" fill="#000000" transform="translate(10.000000, 10.000000) rotate(-315.000000) translate(-10.000000, -10.000000) "></path>
    </g>
</svg>