<?xml version="1.0" encoding="UTF-8"?>
<svg width="24px" height="24px" viewBox="0 0 24 24" version="1.1" xmlns="http://www.w3.org/2000/svg" xmlns:xlink="http://www.w3.org/1999/xlink">
    <title>ic_public_error</title>
    <defs>
        <path d="M11,22 C17.0751322,22 22,17.0751322 22,11 C22,4.92486775 17.0751322,0 11,0 C4.92486775,0 0,4.92486775 0,11 C0,17.0751322 4.92486775,22 11,22 Z M11,14.5 C11.6903125,14.5 12.25,15.0596875 12.25,15.75 C12.25,16.4403125 11.6903125,17 11,17 C10.3096875,17 9.75,16.4403125 9.75,15.75 C9.75,15.0596875 10.3096875,14.5 11,14.5 Z M11,5 C11.6414582,5 12.1614628,5.5200046 12.1614628,6.16146279 C12.1614628,6.18988207 12.1604197,6.21829177 12.1583357,6.24663453 L11.6708322,12.8766827 C11.6449936,13.2280877 11.3523536,13.5 11,13.5 C10.6476464,13.5 10.3550064,13.2280877 10.3291678,12.8766827 L9.8416643,6.24663453 C9.79462525,5.60690339 10.2750971,5.05016615 10.9148283,5.00312709 C10.943171,5.00104307 10.9715807,5 11,5 Z" id="path-1"></path>
    </defs>
    <g id="ic_public_error" stroke="none" stroke-width="1" fill="none" fill-rule="evenodd">
        <g id="Public/ic_public_fail_filled" transform="translate(1.000000, 1.208333)">
            <mask id="mask-2" fill="white">
                <use xlink:href="#path-1"></use>
            </mask>
            <use id="Combined-Shape" fill="#000000" xlink:href="#path-1"></use>
        </g>
    </g>
</svg>