<?xml version="1.0" encoding="UTF-8"?>
<svg width="24px" height="24px" viewBox="0 0 24 24" version="1.1" xmlns="http://www.w3.org/2000/svg" xmlns:xlink="http://www.w3.org/1999/xlink">
    <title>ic_录音</title>
    <defs>
        <path d="M14.25,8.5 C14.6642136,8.5 15,8.83578644 15,9.25 C15,13.1388445 12.0402456,16.3364013 8.25048697,16.7129202 L8.25,19.25 C8.25,19.6642136 7.91421356,20 7.5,20 C7.10057978,20 6.77408478,19.68777 6.75127317,19.2940682 L6.75,19.25 L6.75051918,16.7130201 C2.96027831,16.3369673 0,13.1391887 0,9.25 C0,8.83578644 0.335786438,8.5 0.75,8.5 C1.16421356,8.5 1.5,8.83578644 1.5,9.25 C1.5,12.5637085 4.1862915,15.25 7.5,15.25 C10.8137085,15.25 13.5,12.5637085 13.5,9.25 C13.5,8.83578644 13.8357864,8.5 14.25,8.5 Z M7.5,0 C9.64219539,0 11.3910789,1.68396847 11.4951047,3.80035966 L11.5,4 L11.5,9.25 C11.5,11.459139 9.709139,13.25 7.5,13.25 C5.35780461,13.25 3.60892112,11.5660315 3.50489531,9.44964034 L3.5,9.25 L3.5,4 C3.5,1.790861 5.290861,0 7.5,0 Z M7.5,1.5 C6.1745166,1.5 5.08996133,2.53153594 5.00531768,3.83562431 L5,4 L5,9.25 C5,10.6307119 6.11928813,11.75 7.5,11.75 C8.8254834,11.75 9.91003867,10.7184641 9.99468232,9.41437569 L10,9.25 L10,4 C10,2.61928813 8.88071187,1.5 7.5,1.5 Z" id="path-1"></path>
    </defs>
    <g id="ic_录音" stroke="none" stroke-width="1" fill="none" fill-rule="evenodd">
        <g id="Public/ic_public_voice" transform="translate(4.500000, 2.000000)">
            <mask id="mask-2" fill="white">
                <use xlink:href="#path-1"></use>
            </mask>
            <use id="形状结合" fill="#000000" fill-rule="nonzero" xlink:href="#path-1"></use>
        </g>
    </g>
</svg>