<?xml version="1.0" encoding="UTF-8"?>
<svg width="24px" height="24px" viewBox="0 0 24 24" version="1.1" xmlns="http://www.w3.org/2000/svg" xmlns:xlink="http://www.w3.org/1999/xlink">
    <title>ic_simcard_2</title>
    <g id="ic_simcard_2" stroke="none" stroke-width="1" fill="none" fill-rule="evenodd">
        <g id="simcard_2" fill="#000000" fill-rule="nonzero">
            <rect id="矩形" opacity="0" x="0" y="0" width="24" height="24"></rect>
            <path d="M15.46,1.49 C15.28,1.31 15.1,1.18666667 14.92,1.12 C14.7333333,1.04666667 14.52,1.01 14.28,1.01 L6.84,1.01 C6.15333333,1.01 5.51333333,1.18 4.92,1.52 C4.32666667,1.86666667 3.86,2.33333333 3.52,2.92 C3.17333333,3.5 3,4.14333333 3,4.85 L3,19.13 C3,19.83 3.17333333,20.4766667 3.52,21.07 C3.86,21.6633333 4.32666667,22.1333333 4.92,22.48 C5.51333333,22.82 6.15333333,22.99 6.84,22.99 L17.14,22.99 C17.84,22.99 18.4866667,22.82 19.08,22.48 C19.6733333,22.1333333 20.14,21.6633333 20.48,21.07 C20.8266667,20.4766667 21,19.83 21,19.13 L21,7.7 C21,7.25333333 20.8333333,6.86333333 20.5,6.53 L15.46,1.49 Z M11.9,15.82 L14.18,15.82 C14.5666667,15.82 14.8866667,15.9266667 15.14,16.14 C15.4,16.3533333 15.53,16.63 15.53,16.97 C15.53,17.3233333 15.4,17.61 15.14,17.83 C14.8866667,18.0566667 14.5666667,18.17 14.18,18.17 L9.84,18.17 C9.45333333,18.17 9.13,18.0766667 8.87,17.89 C8.60333333,17.71 8.47,17.4833333 8.47,17.21 L8.47,16.56 C8.47,16.3866667 8.51,16.2266667 8.59,16.08 L8.66,15.98 L10.99,12.41 C11.57,11.53 11.9533333,10.8966667 12.14,10.51 C12.3333333,10.13 12.43,9.74 12.43,9.34 C12.43,8.96666667 12.3466667,8.69333333 12.18,8.52 C12.0133333,8.34666667 11.8166667,8.28 11.59,8.32 C11.37,8.36 11.1866667,8.48333333 11.04,8.69 C10.7866667,9.04333333 10.5233333,9.28666667 10.25,9.42 C9.97666667,9.55333333 9.68666667,9.55 9.38,9.41 C9.06,9.26333333 8.83333333,9.04333333 8.7,8.75 C8.56666667,8.45 8.57,8.15 8.71,7.85 C9.01666667,7.17666667 9.44666667,6.67333333 10,6.34 C10.5466667,6 11.18,5.83 11.9,5.83 C12.96,5.83 13.77,6.13 14.33,6.73 C14.89,7.33 15.17,8.13333333 15.17,9.14 C15.17,9.75333333 15.0566667,10.3266667 14.83,10.86 C14.61,11.3933333 14.14,12.2366667 13.42,13.39 L11.9,15.82 Z" id="形状" fill-opacity="0.4"></path>
        </g>
    </g>
</svg>