<?xml version="1.0" encoding="UTF-8"?>
<svg width="24px" height="24px" viewBox="0 0 24 24" version="1.1" xmlns="http://www.w3.org/2000/svg" xmlns:xlink="http://www.w3.org/1999/xlink">
    <title>画板</title>
    <defs>
        <path d="M13.25,3.5 C13.6642136,3.5 14,3.83578644 14,4.25 C14,4.66421356 13.6642136,5 13.25,5 L5,5 C3.61928813,5 2.5,6.11928813 2.5,7.5 L2.5,16.9991676 C2.50011249,18.3798356 3.61933206,19.4991055 5,19.4992801 L18.5,19.4998875 C19.8254834,19.5000551 20.9100851,18.4685723 20.9947874,17.1644879 L21,17 L21,13 L21.0068466,12.8982294 C21.056509,12.5321539 21.3703042,12.25 21.75,12.25 C22.1642136,12.25 22.5,12.5857864 22.5,13 L22.5,17 C22.5,19.209139 20.709139,21 18.5,21 L5,21 C2.790861,21 1,19.209139 1,17 L1,7.5 C1,5.290861 2.790861,3.5 5,3.5 L13.25,3.5 Z M17.0871274,3.01157647 C17.332494,3.01155107 17.5693063,3.10173686 17.7524983,3.2649713 L22.4337309,7.43621434 C22.8460696,7.80363139 22.8824857,8.43574828 22.5150687,8.84808692 C22.4894859,8.87679751 22.4622684,8.90400852 22.4335516,8.92958439 L17.7523344,13.0987975 C17.3399075,13.4661155 16.7077994,13.4295476 16.3404814,13.0171207 C16.1773444,12.8339495 16.0872192,12.5972085 16.0872463,12.3519222 L16.0874247,10.7365987 C14.1159834,10.8091365 12.1554945,11.0324392 10.4604585,12.0400038 C9.58714455,12.5588626 8.81124981,13.1971954 8.11836312,13.9333832 C7.79497757,14.2772978 7.51194316,14.6530722 7.24014942,15.037096 L7.09477858,15.2522125 L6.82049759,15.6924965 C6.72307841,15.850373 6.59770166,16 6.40891598,16 C6.37375284,16 6.33657215,15.9948797 6.29679746,15.9837857 C5.92189215,15.877788 5.97338714,15.3789193 6.06943789,14.9602686 L6.19217272,14.4835328 C6.31524369,13.9558557 6.47290135,13.4387037 6.67004549,12.9332146 C8.14490067,9.14889802 11.7156695,6.41050827 15.7815781,5.91676394 L16.0874247,5.88396055 L16.0872309,4.01167996 C16.0871737,3.45939521 16.5348426,3.01163363 17.0871274,3.01157647 Z M17.6501901,5.51848752 C17.6095434,5.56425334 17.5870991,5.62334092 17.5871113,5.68455095 L17.5873335,6.79509013 C17.5873852,7.0533129 17.3907957,7.26909911 17.1336849,7.29303707 L16.2264788,7.3775013 C13.816237,7.60190367 11.5838436,8.74255088 9.97401484,10.4646032 L9.741,10.723 L9.97031645,10.5924915 C11.5434558,9.72691334 13.2525732,9.37241202 15.6095113,9.25578127 L16.0322705,9.23761301 L17.0685741,9.19939738 C17.3445289,9.18922103 17.576484,9.40467703 17.5866604,9.68063184 L17.587,10.6820813 C17.587,10.8201525 17.6989288,10.9320813 17.837,10.9320813 C17.8981368,10.9320813 17.9571544,10.9096788 18.0028919,10.8691104 L20.6075569,8.55881339 C20.8141436,8.37557428 20.8330705,8.05955807 20.6498314,7.85297143 C20.6366677,7.83813047 20.6226324,7.82408608 20.6078,7.81091274 L18.0031248,5.49757971 C17.899891,5.40589303 17.7418768,5.41525378 17.6501901,5.51848752 Z" id="path-1"></path>
    </defs>
    <g id="画板" stroke="none" stroke-width="1" fill="none" fill-rule="evenodd">
<!--        <rect id="矩形" x="0" y="1.13686838e-13" width="24" height="24"></rect>-->
        <mask id="mask-2" fill="white">
            <use xlink:href="#path-1"></use>
        </mask>
        <use id="形状结合" fill="#000000" xlink:href="#path-1"></use>
    </g>
</svg>