<svg width="32.000000" height="32.000000" viewBox="0 0 32 32" fill="none" xmlns="http://www.w3.org/2000/svg" xmlns:xlink="http://www.w3.org/1999/xlink">
	<desc>
			Created with Pixso.
	</desc>
	<defs>
		<linearGradient x1="16.014648" y1="0.234863" x2="16.014648" y2="31.734863" id="paint_linear_593_67428_0" gradientUnits="userSpaceOnUse">
			<stop stop-color="#FFFFFF" stop-opacity="0.600000"/>
			<stop offset="1.000000" stop-color="#FFFFFF" stop-opacity="0.200000"/>
		</linearGradient>
	</defs>
	<g opacity="0.000000">
		<rect id="矩形" width="32.000000" height="32.000000" fill="#000000" fill-opacity="1.000000"/>
	</g>
	<path id="路径" d="M0.26 16C0.26 18.85 0.96 21.48 2.37 23.88C3.77 26.28 5.68 28.18 8.09 29.6C10.5 31.02 13.14 31.73 16 31.73C18.85 31.73 21.48 31.02 23.9 29.6C26.31 28.18 28.22 26.27 29.64 23.86C31.05 21.45 31.76 18.83 31.76 16C31.76 13.14 31.05 10.5 29.64 8.09C28.22 5.68 26.31 3.77 23.9 2.35C21.48 0.94 18.85 0.23 16 0.23C13.14 0.23 10.5 0.94 8.09 2.35C5.68 3.77 3.77 5.68 2.37 8.09C0.96 10.5 0.26 13.14 0.26 16Z" fill="#999999" fill-opacity="1.000000" fill-rule="evenodd"/>
	<path id="路径" d="M0.26 16C0.26 18.85 0.96 21.48 2.37 23.88C3.77 26.28 5.68 28.18 8.09 29.6C10.5 31.02 13.14 31.73 16 31.73C18.85 31.73 21.48 31.02 23.9 29.6C26.31 28.18 28.22 26.27 29.64 23.86C31.05 21.45 31.76 18.83 31.76 16C31.76 13.14 31.05 10.5 29.64 8.09C28.22 5.68 26.31 3.77 23.9 2.35C21.48 0.94 18.85 0.23 16 0.23C13.14 0.23 10.5 0.94 8.09 2.35C5.68 3.77 3.77 5.68 2.37 8.09C0.96 10.5 0.26 13.14 0.26 16Z" fill="url(#paint_linear_593_67428_0)" fill-opacity="1.000000" fill-rule="evenodd"/>
	<path id="形状" d="M15.9854 6.26514C14.625 6.25 13.4551 6.73486 12.4746 7.72021Q11.668 8.52734 11.3066 9.5Q11.0059 10.3076 11.0127 11.23C11.0273 12.585 11.5254 13.7549 12.5049 14.7397Q13.3145 15.5498 14.291 15.9199Q15.0967 16.2256 16.0146 16.2324C17.375 16.2476 18.5449 15.7627 19.5254 14.7773Q20.332 13.9702 20.6943 12.9976Q20.9941 12.1895 20.9873 11.2676C20.9727 9.9126 20.4746 8.74268 19.4951 7.75732Q18.6855 6.94775 17.709 6.57715Q16.9043 6.27197 15.9854 6.26514ZM6.28027 24.8574Q6.4375 24.3789 6.6543 23.9287L6.6543 23.9287Q7.23438 22.7222 8.24512 21.7227Q8.7793 21.1943 9.37988 20.7573Q10.3301 20.0645 11.4482 19.6001Q13.1318 18.897 14.8359 18.8467L14.8369 18.8467Q14.9688 18.8428 15.1006 18.8428L16.9004 18.8428Q17.0322 18.8428 17.1641 18.8467L17.165 18.8467Q18.8682 18.897 20.5527 19.6001C21.7676 20.105 22.8301 20.8125 23.7402 21.7227Q24.6943 22.6816 25.2637 23.8315L25.2637 23.8315Q25.5088 24.3271 25.6826 24.8574C24.4131 26.2476 22.9502 27.3101 21.2949 28.0449C19.6357 28.7754 17.8701 29.1401 16 29.1401C14.0801 29.1401 12.293 28.7676 10.6377 28.0225Q9.69434 27.5981 8.83887 27.0391L8.83887 27.0391Q7.44238 26.1274 6.28027 24.8574Z" clip-rule="evenodd" fill="#FFFFFF" fill-opacity="0.901961" fill-rule="evenodd"/>
</svg>
