<?xml version="1.0" encoding="utf-8"?>
<!-- Generator: Adobe Illustrator 19.0.0, SVG Export Plug-In . SVG Version: 6.00 Build 0)  -->
<svg version="1.0" id="图层_1" xmlns="http://www.w3.org/2000/svg" xmlns:xlink="http://www.w3.org/1999/xlink" x="0px" y="0px"
	 viewBox="-23 25 48 48" style="enable-background:new -23 25 48 48;" xml:space="preserve">
<g id="ic_contacts_14_mini">
	<g id="Group-3" transform="translate(6.000000, 2.000000)">
		<path id="Combined-Shape" d="M1,25l12,12v26c0,3.3-2.7,6-6,6h-24c-3.3,0-6-2.7-6-6V31c0-3.3,2.7-6,6-6H1z M-3,59.6l0-24.2
			c0-0.2-0.1-0.4-0.4-0.4h-3.5c-0.3,0-0.5,0.1-0.6,0.2l-4.2,2.5c-0.2,0.1-0.3,0.3-0.3,0.5V42c0,0.3,0.2,0.4,0.4,0.2l4.5-2.1H-7v19.6
			c0,0.2,0.1,0.4,0.4,0.4h3.3C-3.2,60-3,59.8-3,59.6z" fill="#A4A4A4"/>
	</g>
</g>
</svg>
