<?xml version="1.0" encoding="UTF-8"?>
<svg width="16px" height="16px" viewBox="0 0 16 16" version="1.1" xmlns="http://www.w3.org/2000/svg" xmlns:xlink="http://www.w3.org/1999/xlink">
    <title>SD2</title>
    <defs>
        <path d="M10.009,0.666666667 L14,4.65666667 L14,12.6666667 C14,14.139426 12.8060927,15.3333333 11.3333333,15.3333333 L4.66666667,15.3333333 C3.19390733,15.3333333 2,14.139426 2,12.6666667 L2,3.33333333 C2,1.860574 3.19390733,0.666666667 4.66666667,0.666666667 L10.009,0.666666667 Z M8.09264305,4 C6.95912807,4 6.27247956,4.67615897 6.03269755,6.0296275 L6.03269755,6.0296275 L7.30790191,6.72726401 C7.38769949,6.26933218 7.47489295,5.93796443 7.56948229,5.7339278 C7.66368237,5.52989117 7.78746594,5.42787286 7.9400545,5.42787286 C8.04904632,5.42787286 8.12884391,5.47811496 8.17983651,5.57821564 C8.23043986,5.67869984 8.25613079,5.83632964 8.25613079,6.05072151 C8.25613079,6.33721655 8.20163488,6.62332806 8.09264305,6.9098231 C7.98365123,7.19631814 7.77267419,7.62586893 7.46049046,8.19847548 L7.46049046,8.19847548 L6,10.8509516 L6,12 L10,12 L10,10.6254375 L7.85286104,10.6254375 L8.79019074,8.8431852 C9.1969638,8.06270675 9.47839626,7.46862266 9.63487738,7.06016588 C9.79096925,6.65247615 9.86920981,6.25130639 9.86920981,5.85742365 C9.86920981,5.29210413 9.72207084,4.84107579 9.42779292,4.50433865 C9.13351499,4.16798504 8.68820553,4 8.09264305,4 Z" id="path-1"></path>
    </defs>
    <g id="SD2" stroke="none" stroke-width="1" fill="none" fill-rule="evenodd">
        <rect id="矩形" x="0" y="0" width="16" height="16"></rect>
        <mask id="mask-2" fill="white">
            <use xlink:href="#path-1"></use>
        </mask>
        <use id="形状结合" fill="#64BB5C" fill-rule="nonzero" xlink:href="#path-1"></use>
    </g>
</svg>