<?xml version="1.0" encoding="UTF-8"?>
<svg width="16px" height="16px" viewBox="0 0 16 16" version="1.1" xmlns="http://www.w3.org/2000/svg" xmlns:xlink="http://www.w3.org/1999/xlink">
    <title>画板</title>
    <defs>
        <path d="M5.87348697,2.153911 L5.90554816,2.18417165 L10.8552956,7.13391912 C11.5244753,7.80309876 11.5384165,8.87939136 10.8971194,9.56553404 L10.8552956,9.60879285 L5.90554816,14.5585403 C5.77667514,14.6874133 5.6125707,14.7595822 5.44423848,14.775047 L5.39824817,14.7778588 L5.35218798,14.7778588 C5.16799379,14.7722352 4.98547673,14.6991291 4.84488799,14.5585403 C4.56245524,14.2761076 4.55236836,13.8244608 4.81462734,13.5299413 L4.84488799,13.4978801 L9.44108207,8.90168607 C9.72351481,8.61925332 9.7336017,8.16760655 9.47134272,7.87308709 L9.44108207,7.8410259 L4.84488799,3.24483182 C4.55199477,2.9519386 4.55199477,2.47706487 4.84488799,2.18417165 C4.98610436,2.04295528 5.16962424,1.96982537 5.35465496,1.96478193 L5.40092051,1.96493953 C5.57050315,1.97071848 5.73849888,2.03370896 5.87348697,2.153911 Z" id="path-1"></path>
    </defs>
    <g id="画板" stroke="none" stroke-width="1" fill="none" fill-rule="evenodd">
        <mask id="mask-2" fill="white">
            <use xlink:href="#path-1" transform="translate(7.996538, 8.371320) scale(-1, -1) rotate(-90.000000) translate(-7.996538, -8.371320) "></use>
        </mask>
        <use id="路径" fill="#330000" fill-opacity="0.2" fill-rule="nonzero" transform="translate(7.996538, 8.371320) scale(-1, -1) rotate(-90.000000) translate(-7.996538, -8.371320) " xlink:href="#path-1"></use>
    </g>
</svg>