<?xml version="1.0" encoding="UTF-8"?>
<svg  width="72px" height="72px" viewBox="0 0 72 72" version="1.1" xmlns="http://www.w3.org/2000/svg" xmlns:xlink="http://www.w3.org/1999/xlink">
    <title>相机权限icon</title>
    <defs>
        <path fill="#909090" d="M45.3617977,9 C47.3276067,9 49.1687282,9.96296867 50.2900175,11.5776251 L53.7083333,16.5 L60,16.5 C64.9705627,16.5 69,20.5294373 69,25.5 L69,52.5 C69,57.4705627 64.9705627,61.5 60,61.5 L12,61.5 C7.02943725,61.5 3,57.4705627 3,52.5 L3,25.5 C3,20.5294373 7.02943725,16.5 12,16.5 L18.2916667,16.5 L21.7099825,11.5776251 C22.8312718,9.96296867 24.6723933,9 26.6382023,9 L45.3617977,9 Z M45.3617977,13.5 L26.6382023,13.5 C26.1467501,13.5 25.6864697,13.7407422 25.4061474,14.1444063 L20.6453184,21 L12,21 C9.51471863,21 7.5,23.0147186 7.5,25.5 L7.5,52.5 C7.5,54.9852814 9.51471863,57 12,57 L60,57 C62.4852814,57 64.5,54.9852814 64.5,52.5 L64.5,25.5 C64.5,23.0147186 62.4852814,21 60,21 L51.3546816,21 L46.5938526,14.1444063 C46.3135303,13.7407422 45.8532499,13.5 45.3617977,13.5 Z M36,23.25 C43.8700577,23.25 50.25,29.6299423 50.25,37.5 C50.25,45.3700577 43.8700577,51.75 36,51.75 C28.1299423,51.75 21.75,45.3700577 21.75,37.5 C21.75,29.6299423 28.1299423,23.25 36,23.25 Z M36,27.75 C30.6152237,27.75 26.25,32.1152237 26.25,37.5 C26.25,42.8847763 30.6152237,47.25 36,47.25 C41.3847763,47.25 45.75,42.8847763 45.75,37.5 C45.75,32.1152237 41.3847763,27.75 36,27.75 Z" id="path-1"></path>
    </defs>
    <g id="相机权限icon" stroke="none" stroke-width="1" fill="#909090" fill-rule="evenodd">
        <mask id="mask-2" fill="#909090">
            <use xlink:href="#path-1"></use>
        </mask>
        <use id="合并形状" fill="#909090" fill-rule="nonzero" xlink:href="#path-1"></use>
    </g>
</svg>