<?xml version="1.0" encoding="UTF-8"?>
<svg width="34px" height="34px" viewBox="0 0 34 34" version="1.1" xmlns="http://www.w3.org/2000/svg" xmlns:xlink="http://www.w3.org/1999/xlink">
    <title>图片加载失败34*34</title>
    <g id="图片加载失败34*34" stroke="none" stroke-width="1" fill="none" fill-rule="evenodd">
        <g id="编组" transform="translate(2.833333, 2.833333)" fill="#000000" fill-rule="nonzero">
            <path d="M12.1253955,0 C11.8888952,0.666963366 11.8168777,1.39659392 11.9409605,2.12565592 L5.66666667,2.12598781 C3.74381086,2.12598781 2.17885752,3.65835039 2.12636064,5.56852152 L2.125,22.6676545 C2.125,22.8732522 2.1425188,23.074758 2.17614508,23.2707609 C2.82325008,22.5760415 3.48393115,21.8910265 4.15877697,21.2142988 C5.40911487,19.960474 6.69794037,18.7452623 8.02522955,17.5686835 C9.1418367,16.5788638 10.5662645,16.1461311 11.9514172,16.2597616 L12.9288376,18.7003506 C11.8094508,18.1383854 10.421358,18.2843463 9.43483735,19.1588505 C8.14014066,20.3065375 6.88302597,21.4918498 5.66346965,22.714807 C4.8341911,23.5463982 4.02700708,24.3906541 3.24190791,25.247578 C3.85419322,25.8239664 4.66907107,26.1832682 5.5675337,26.2079606 L12.0686275,26.2090059 C12.0291198,26.4426273 12.0091301,26.679662 12.0091301,26.9176589 C12.0091301,27.4143453 12.0943324,27.8911317 12.2509185,28.3343211 L5.66666667,28.3343211 C4.31584167,28.3343211 3.07541169,27.8616639 2.10173877,27.0727116 L1.86359583,26.8691665 L1.58207545,26.5958459 L1.32740807,26.3125471 L1.10096294,26.024849 C0.968974202,25.8455046 0.847114038,25.6579728 0.736457822,25.4632426 L0.678920854,25.3594774 C0.245931293,24.5589942 0,23.6420445 0,22.6676545 L0,5.66765448 C0,2.5380409 2.53705308,0.000987813333 5.66666667,0.000987813333 L12.1253955,0 Z M22.6666667,0.0009921625 C25.7962802,0.0009921625 28.3333333,2.53804525 28.3333333,5.66765883 L28.3333333,22.6676589 C28.3333333,25.7972725 25.7962802,28.3343255 22.6666667,28.3343255 L16.2591301,28.3343255 C15.4767266,28.3343255 14.8424634,27.7000622 14.8424634,26.9176589 C14.8424634,26.7374312 14.8768533,26.5588591 14.9437881,26.391522 L16.7895452,21.7771289 C16.9246448,21.43938 16.9246448,21.0626043 16.7895452,20.7248554 L14.4029368,14.7583342 C14.2526522,14.3826229 14.270207,13.960578 14.4511736,13.5986449 L16.737574,9.02584431 C16.9056025,8.68978712 16.9332509,8.30074487 16.8144368,7.94430239 L14.7882187,1.86564817 C14.540801,1.12339513 14.9419443,0.321108509 15.6841973,0.0736908208 C15.8286498,0.0255399925 15.9799204,0.0009921625 16.1321867,0.0009921625 L22.6666667,0.0009921625 Z M22.6666667,2.12599216 L17.11475,2.12599216 L18.8303887,7.27231838 C19.0977207,8.07431397 19.0684658,8.94232409 18.7537094,9.7203704 L18.6382316,9.97617321 L16.49425,14.2639922 L18.7625583,19.9356502 C19.0627796,20.6862035 19.0961375,21.5138465 18.8626321,22.2815308 L18.7625583,22.5663342 L17.3045833,26.2093255 L22.6666667,26.2093255 C24.5444348,26.2093255 26.0808882,24.7479829 26.2007999,22.9005244 L26.2083333,22.6676589 L26.2083333,5.66765883 C26.2083333,3.78989068 24.7469908,2.25343738 22.8995322,2.13352554 L22.6666667,2.12599216 Z M8.85416667,7.43848781 C10.2233726,7.43848781 11.3333333,8.54844854 11.3333333,9.91765448 C11.3333333,11.2868604 10.2233726,12.3968211 8.85416667,12.3968211 C7.48496073,12.3968211 6.375,11.2868604 6.375,9.91765448 C6.375,8.54844854 7.48496073,7.43848781 8.85416667,7.43848781 Z" id="形状结合"></path>
        </g>
    </g>
</svg>