<?xml version="1.0" encoding="UTF-8"?>
<svg width="24px" height="24px" viewBox="0 0 24 24" version="1.1" xmlns="http://www.w3.org/2000/svg" xmlns:xlink="http://www.w3.org/1999/xlink">
    <title>图片加载失败</title>
    <g id="图片加载失败" stroke="none" stroke-width="1" fill="none" fill-rule="evenodd">
        <g id="编组" transform="translate(2.000000, 2.000000)" fill="#000000" fill-rule="nonzero">
            <path d="M8.5591027,0 C8.3921613,0.47079767 8.3413254,0.985831 8.4289133,1.500463 L4,1.50069728 C2.64269002,1.50069728 1.53801707,2.58236498 1.50096045,3.93072107 L1.5,16.0006973 C1.5,16.1458251 1.51236621,16.2880645 1.53610241,16.4264195 C1.99288241,15.9360293 2.45924552,15.4524893 2.93560727,14.9747992 C3.81819873,14.0897464 4.72795791,13.2319499 5.66486792,12.4014237 C6.4530612,11.7027274 7.45853963,11.397269 8.4362945,11.4774788 L9.1262383,13.2002475 C8.3360829,12.8035662 7.3562527,12.9065974 6.65988519,13.5238945 C5.74598164,14.3340265 4.85860657,15.1707175 3.99774328,16.0339814 C3.41237019,16.620987 2.84259323,17.2169323 2.28840558,17.8218198 C2.72060698,18.2286822 3.29581487,18.482307 3.93002379,18.4997369 L8.5190312,18.5004748 C8.4911434,18.665384 8.477033,18.8327026 8.477033,19.0007004 C8.477033,19.3513026 8.5371758,19.6878577 8.6477072,20.0006973 L4,20.0006973 C3.04647647,20.0006973 2.17087884,19.6670569 1.48358031,19.1101494 L1.31547941,18.9664705 L1.11675914,18.7735383 L0.93699393,18.5735627 L0.77715031,18.3704817 C0.68398179,18.2438856 0.59796285,18.1115102 0.51985258,17.9740536 L0.47923825,17.9008076 C0.17359856,17.3357606 0,16.688502 0,16.0006973 L0,4.00069728 C0,1.79155828 1.790861,0.00069728 4,0.00069728 L8.5591027,0 Z M16,0.00070035 C18.209139,0.00070035 20,1.79156135 20,4.00070035 L20,16.0007004 C20,18.2098394 18.209139,20.0007004 16,20.0007004 L11.477033,20.0007004 C10.9247482,20.0007004 10.477033,19.5529851 10.477033,19.0007004 C10.477033,18.8734809 10.5013082,18.74743 10.5485563,18.6293097 L11.8514437,15.372091 C11.9468081,15.13368 11.9468081,14.8677207 11.8514437,14.6293097 L10.1667789,10.4176477 C10.0606957,10.1524397 10.0730873,9.85452568 10.2008284,9.59904348 L11.8147581,6.37118422 C11.9333665,6.13396738 11.952883,5.85934932 11.8690142,5.60774286 L10.4387426,1.31692812 C10.2640948,0.7929848 10.5472548,0.22666483 11.0711981,0.05201705 C11.1731646,0.01802823 11.2799438,0.00070035 11.3874259,0.00070035 L16,0.00070035 Z M16,1.50070035 L12.081,1.50070035 L13.2920391,5.13340121 C13.480744,5.69951574 13.4600935,6.31222877 13.2379125,6.86143793 L13.1563988,7.04200462 L11.643,10.0687004 L13.2441588,14.0722237 C13.4560797,14.602026 13.4796265,15.1862446 13.3147991,15.7281394 L13.2441588,15.9291771 L12.215,18.5007004 L16,18.5007004 C17.3254834,18.5007004 18.4100387,17.4691644 18.4946823,16.1650761 L18.5,16.0007004 L18.5,4.00070035 C18.5,2.67521695 17.4684641,1.59066168 16.1643757,1.50601803 L16,1.50070035 Z M6.25,5.25069728 C7.21649831,5.25069728 8,6.03419897 8,7.00069728 C8,7.96719559 7.21649831,8.75069728 6.25,8.75069728 C5.28350169,8.75069728 4.5,7.96719559 4.5,7.00069728 C4.5,6.03419897 5.28350169,5.25069728 6.25,5.25069728 Z" id="形状结合"></path>
        </g>
    </g>
</svg>