<?xml version="1.0" encoding="UTF-8"?>
<svg width="72px" height="72px" viewBox="0 0 72 72" version="1.1" xmlns="http://www.w3.org/2000/svg" xmlns:xlink="http://www.w3.org/1999/xlink">
    <title>麦克风权限icon</title>
    <defs>
        <path d="M56.25,31.5 C57.4926407,31.5 58.5,32.5073593 58.5,33.75 C58.5,45.4167871 49.6203507,55.009621 38.2507195,56.1388343 L38.25,63.75 C38.25,64.9926407 37.2426407,66 36,66 C34.8017393,66 33.8222543,65.06331 33.7538195,63.8822046 L33.75,63.75 L33.7502813,56.1389336 C22.3801704,55.010184 13.5,45.4171294 13.5,33.75 C13.5,32.5073593 14.5073593,31.5 15.75,31.5 C16.9926407,31.5 18,32.5073593 18,33.75 C18,43.6911255 26.0588745,51.75 36,51.75 C45.9411255,51.75 54,43.6911255 54,33.75 C54,32.5073593 55.0073593,31.5 56.25,31.5 Z M36,6 C42.627417,6 48,11.372583 48,18 L48,33.75 C48,40.377417 42.627417,45.75 36,45.75 C29.372583,45.75 24,40.377417 24,33.75 L24,18 C24,11.372583 29.372583,6 36,6 Z M36,10.5 C31.8578644,10.5 28.5,13.8578644 28.5,18 L28.5,33.75 C28.5,37.8921356 31.8578644,41.25 36,41.25 C40.1421356,41.25 43.5,37.8921356 43.5,33.75 L43.5,18 C43.5,13.8578644 40.1421356,10.5 36,10.5 Z" id="path-1"></path>
    </defs>
    <g id="麦克风权限icon" stroke="none" stroke-width="1" fill="none" fill-rule="evenodd">
        <mask id="mask-2" fill="white">
            <use xlink:href="#path-1"></use>
        </mask>
        <use id="形状结合" fill-opacity="0.4007133" fill="#000000" fill-rule="nonzero" xlink:href="#path-1"></use>
    </g>
</svg>