<?xml version="1.0" encoding="UTF-8"?>
<svg width="22px" height="25px" viewBox="0 0 22 25" version="1.1" xmlns="http://www.w3.org/2000/svg" xmlns:xlink="http://www.w3.org/1999/xlink">
    <title>PPT</title>
    <g id="PPT" stroke="none" stroke-width="1" fill="none" fill-rule="evenodd">
        <g id="download备份-5" transform="translate(0.000000, 0.000000)">
            <path d="M15.1998087,0.556962025 L21.2162339,6.46572017 L21.2162339,23.3118247 C21.2162339,23.6226077 21.0865331,23.9037814 20.8789437,24.1076559 C20.6676776,24.3151412 20.3758177,24.443038 20.0542594,24.443038 L1.71893652,24.443038 C1.39737822,24.443038 1.10551823,24.3151412 0.894252181,24.1076559 C0.686662773,23.9037814 0.556962025,23.6226077 0.556962025,23.3118247 L0.556962025,1.68817527 C0.556962025,1.37739233 0.686662773,1.09621863 0.894252181,0.892344143 C1.10551823,0.684858808 1.39737822,0.556962025 1.71893652,0.556962025 L15.1998087,0.556962025 Z" id="Fill-1" stroke-opacity="0.1" stroke="#000000" stroke-width="1.11392405" fill="#FFFFFF"></path>
            <g id="Page-1" transform="translate(6.293814, 8.370536)">
                <g id="Group-5" stroke="#FFBF00" stroke-linecap="round" stroke-linejoin="round" stroke-width="1.67088608">
                    <line x1="0" y1="0" x2="9.63917526" y2="0" id="Stroke-3"></line>
                </g>
                <g id="Group-16" transform="translate(0.283505, 0.000029)">
                    <g id="编组-3" transform="translate(2.000000, 8.000000)" stroke="#FFBF00" stroke-linecap="round" stroke-width="1.67088608">
                        <line x1="2.06958763" y1="0" x2="0" y2="1.96354524" id="Stroke-8"></line>
                        <line x1="2.80559685" y1="0" x2="4.90457949" y2="1.96354524" id="Stroke-10"></line>
                    </g>
                    <path d="M1.93,7.4 L7.14216495,7.4 C8.20807452,7.4 9.07216495,6.53590957 9.07216495,5.47 L9.07216495,0 L9.07216495,0 L0,0 L0,5.47 C1.30536274e-16,6.53590957 0.864090433,7.4 1.93,7.4 Z M6.65641357,2.07325689 C6.8022491,1.92919074 7.03968391,1.92822214 7.18673906,2.07109346 C7.32042556,2.20097649 7.33339598,2.4050227 7.225081,2.54928764 L7.18894737,2.59063973 L5.5287069,4.23073703 C5.47237587,4.28638461 5.39976201,4.32255539 5.32177103,4.3347978 L5.26244,4.33942348 L3.47918047,4.33930102 L2.56097149,5.22642152 C2.42690391,5.355927 2.218492,5.36634636 2.07245702,5.25862291 L2.03065456,5.22276254 C1.89846218,5.09141997 1.88782665,4.88724417 1.99778507,4.74417745 L2.03438945,4.70322465 L3.0621396,3.71044717 C3.11827419,3.65622275 3.19003323,3.62105856 3.26694463,3.60916186 L3.32543062,3.60466773 L5.10568047,3.60454527 L6.65641357,2.07325689 Z" id="Fill-12" fill="#FFBF00"></path>
                </g>
            </g>
            <path d="M22,6.46883929 L15.4272165,8.92857147e-05 L15.4226804,0.223303571 L15.4226804,4.68758929 C15.4226804,5.66973214 16.2391753,6.47330357 17.2371134,6.47330357 L21.777732,6.47330357 L22,6.46883929 Z" id="Fill-5" fill-opacity="0.1" fill="#000000"></path>
        </g>
    </g>
</svg>