<?xml version="1.0" encoding="UTF-8"?>
<svg width="12px" height="12px" viewBox="0 0 12 12" version="1.1" xmlns="http://www.w3.org/2000/svg" xmlns:xlink="http://www.w3.org/1999/xlink">
    <title>星盾图标dark</title>
    <defs>
        <rect id="path-1" x="0" y="0" width="12" height="12"></rect>
    </defs>
    <g id="页面-1" stroke="none" stroke-width="1" fill="none" fill-rule="evenodd">
        <g id="Clipped">
            <mask id="mask-2" fill="white">
                <use xlink:href="#path-1"></use>
            </mask>
            <g id="星盾图标dark"></g>
            <polygon id="Fill-1" fill="#317AF7" points="5.37 7.37 6.75 7.37 6.75 4.12 5.37 4.12"></polygon>
            <path d="M6.62,1.5 L9.38,2.6 C9.47,2.63 9.54,2.67 9.61,2.75 C9.65,2.8 9.68,2.88 9.69,3 L9.69,3.26 L9.68,6.18 C9.68,7.36 9.2,8.32 8.3,9.27 L8.23,9.34 C7.91,9.6 7.51,9.89 7.05,10.19 L6.96,10.24 L6.89,10.28 L6.83,10.32 L6.62,10.43 L6.62,11.62 L6.95,11.45 L7.13,11.35 L7.24,11.3 L7.34,11.25 L7.4,11.21 L7.45,11.18 L7.54,11.13 C8.09,10.78 8.57,10.43 8.96,10.12 L9.02,10.05 C10.08,8.94 10.72,7.71 10.74,6.24 L10.74,6.18 L10.74,3.21 L10.74,3 L10.75,2.92 L10.74,2.85 L10.74,2.78 L10.74,2.69 C10.73,2.5 10.7,2.37 10.62,2.24 C10.48,2.01 10.16,1.78 9.82,1.63 L9.76,1.61 L6.62,0.37 L6.62,1.5 Z" id="路径" fill="#FFFFFF" fill-rule="nonzero"></path>
            <path d="M5.5,1.5 L2.73,2.6 C2.64,2.63 2.57,2.67 2.51,2.75 C2.46,2.8 2.44,2.88 2.43,3 L2.43,3.26 L2.43,6.18 C2.43,7.36 2.91,8.32 3.81,9.27 L3.88,9.34 C4.21,9.6 4.61,9.89 5.07,10.19 L5.15,10.24 L5.22,10.28 L5.29,10.32 L5.5,10.43 L5.49,11.62 L5.17,11.45 L4.98,11.35 L4.87,11.3 L4.78,11.25 L4.71,11.21 L4.66,11.18 L4.57,11.13 C4.03,10.78 3.55,10.43 3.16,10.12 L3.1,10.05 C2.04,8.94 1.39,7.71 1.37,6.24 L1.37,6.18 L1.37,3.21 L1.37,3 L1.37,2.92 L1.37,2.85 L1.37,2.78 L1.38,2.69 C1.39,2.5 1.42,2.37 1.5,2.24 C1.63,2.01 1.96,1.78 2.3,1.63 L2.35,1.61 L5.5,0.37 L5.5,1.5 Z" id="路径" fill="#FFFFFF" fill-rule="nonzero"></path>
        </g>
    </g>
</svg>