<?xml version="1.0" encoding="UTF-8"?>
<svg width="34px" height="34px" viewBox="0 0 34 34" version="1.1" xmlns="http://www.w3.org/2000/svg" xmlns:xlink="http://www.w3.org/1999/xlink">
    <title>视频播放按钮</title>
    <defs>
        <path d="M17,1.41666667 C25.6064374,1.41666667 32.5833333,8.39356265 32.5833333,17 C32.5833333,25.6064374 25.6064374,32.5833333 17,32.5833333 C8.39356265,32.5833333 1.41666667,25.6064374 1.41666667,17 C1.41666667,8.39356265 8.39356265,1.41666667 17,1.41666667 Z M17,3.54166667 C9.56716774,3.54166667 3.54166667,9.56716774 3.54166667,17 C3.54166667,24.4328323 9.56716774,30.4583333 17,30.4583333 C24.4328323,30.4583333 30.4583333,24.4328323 30.4583333,17 C30.4583333,9.56716774 24.4328323,3.54166667 17,3.54166667 Z M22.8778141,18.5296085 L15.4131049,22.8840221 C14.5683255,23.3768101 13.4840129,23.0914647 12.9912249,22.2466853 C12.833244,21.975861 12.75,21.6679479 12.75,21.3544136 L12.75,12.6455864 C12.75,11.6675821 13.5428291,10.874753 14.5208333,10.874753 C14.8343676,10.874753 15.1422807,10.9579971 15.4131049,11.1159779 L22.8778141,15.4703915 C23.7225935,15.9631795 24.0079389,17.0474922 23.5151509,17.8922716 C23.3612322,18.1561322 23.1416747,18.3756898 22.8778141,18.5296085 Z" id="path-1"></path>
    </defs>
    <g id="视频播放按钮" stroke="none" stroke-width="1" fill="none" fill-rule="evenodd">
        <rect id="矩形" fill-opacity="0" fill="#FFFFFF" x="0" y="0" width="34" height="34"></rect>
        <mask id="mask-2" fill="white">
            <use xlink:href="#path-1"></use>
        </mask>
        <use id="形状结合" fill="#000000" fill-rule="nonzero" xlink:href="#path-1"></use>
    </g>
</svg>