<?xml version="1.0" encoding="UTF-8"?>
<svg width="16px" height="16px" viewBox="0 0 16 16" version="1.1" xmlns="http://www.w3.org/2000/svg" xmlns:xlink="http://www.w3.org/1999/xlink">
    <title>ic_voice_right</title>
    <defs>
        <path d="M7.87245183,10.0261897 C7.47120497,9.17990841 7.26787718,8.27995355 7.26787718,7.35111327 C7.26787718,6.42247785 7.47120497,5.52252299 7.87245183,4.67624174 C8.04593151,4.30954035 8.31812787,4.16757768 8.67650563,4.34457768 C9.03488338,4.52239712 8.89257009,4.9531192 8.71889009,5.31961573 C8.41359792,5.96369906 8.2589486,6.64711573 8.2589486,7.35122337 C8.2589486,8.055331 8.41359792,8.73895253 8.71889009,9.382831 C8.89257009,9.74953239 8.98311422,10.0261897 8.85896165,10.2338566 C8.79250642,10.3450146 8.58744295,10.437736 8.47224616,10.437736 C8.2046147,10.437736 7.99685238,10.2890265 7.87245183,10.0261897 Z M5.03537773,12.2566765 C4.13312317,10.7863883 3.63507523,9.09025641 3.63507523,7.35119043 C3.63507523,5.61212446 4.13312317,3.91596118 5.03537773,2.44567299 C5.24731941,2.10089174 5.54519034,1.92361106 5.92699249,2.16456174 C6.30879464,2.40551241 5.99562964,2.88524348 5.78388829,3.23022959 C5.02586625,4.4649275 4.62502003,5.88994139 4.62502003,7.3512157 C4.62502003,8.81269486 5.02586625,10.2377088 5.78388829,11.4724067 C5.99562964,11.8173928 6.188919,11.986318 6.05437757,12.3145589 C5.97743239,12.5022821 5.7779749,12.6020723 5.64696369,12.6020723 C5.4069768,12.6020723 5.17259895,12.4797702 5.03537773,12.2566765 Z M2.17430528,14.4113442 C0.752012348,12.3324136 0,9.89087889 0,7.3512157 C0,4.81134764 0.752012348,2.36981292 2.17430528,0.290882365 C2.40247312,-0.0426315243 2.76559813,-0.0820402089 3.05175496,0.135183175 C3.33791179,0.352406558 3.13314475,0.80283738 2.90477659,1.13655613 C1.65295848,2.96637557 0.991091461,5.11536863 0.991091461,7.3512228 C0.991091461,9.5868721 1.65295848,11.7358652 2.90477659,13.5658895 C3.13314475,13.8996082 3.34839756,14.2407283 3.16225673,14.5004678 C3.04065994,14.6701431 2.90848889,14.7262157 2.76585895,14.7262157 C2.53829208,14.7262157 2.31473167,14.6164101 2.17430528,14.4113442 Z" id="path-1"></path>
    </defs>
    <g id="ic_voice_right" stroke="none" stroke-width="1" fill="none" fill-rule="evenodd">
        <g id="矩形" transform="translate(8.291768, 8.113108) rotate(180.000000) translate(-8.291768, -8.113108) translate(3.833516, 0.750000)">
            <mask id="mask-2" fill="white">
                <use xlink:href="#path-1"></use>
            </mask>
            <use id="Mask" fill="#000000" xlink:href="#path-1"></use>
            <rect fill="#000000" mask="url(#mask-2)" x="-3.49997997" y="-0.773784302" width="16" height="16"></rect>
        </g>
    </g>
</svg>