<svg width="32.000000" height="32.000000" viewBox="0 0 32 32" fill="none" xmlns="http://www.w3.org/2000/svg" xmlns:xlink="http://www.w3.org/1999/xlink">
	<desc>
			Created with Pixso.
	</desc>
	<defs>
		<clipPath id="clip64_7360">
			<rect id="通知图标2" width="32.000000" height="32.000000" fill="white" fill-opacity="0"/>
		</clipPath>
	</defs>
	<rect id="通知图标2" width="32.000000" height="32.000000" fill="#FFFFFF" fill-opacity="0"/>
	<g clip-path="url(#clip64_7360)">
		<path id="path-2" d="M10.25 0L21.74 0C25.31 0 26.6 0.37 27.9 1.06C29.21 1.76 30.23 2.78 30.93 4.09C31.62 5.39 32 6.68 32 10.25L32 21.74C32 25.31 31.62 26.6 30.93 27.9C30.23 29.21 29.21 30.23 27.9 30.93C26.6 31.62 25.31 32 21.74 32L10.25 32C6.68 32 5.39 31.62 4.09 30.93C2.78 30.23 1.76 29.21 1.06 27.9C0.37 26.6 0 25.31 0 21.74L0 10.25C0 6.68 0.37 5.39 1.06 4.09C1.76 2.78 2.78 1.76 4.09 1.06C5.39 0.37 6.68 0 10.25 0Z" fill="#0A59F7" fill-opacity="1.000000" fill-rule="evenodd"/>
		<rect id="矩形 6" width="32.000000" height="32.000000" fill="#0A59F7" fill-opacity="1.000000"/>
		<path id="󰇒" d="M23.79 21.5Q23.79 21.51 23.7 21.66L11.96 9.83Q12.07 9.74 12.2 9.65L12.31 9.56Q13.11 8.98 14.17 8.65Q14.24 8.39 14.38 8.17Q14.56 7.89 14.85 7.68Q15.05 7.53 15.27 7.44Q15.63 7.3 16.05 7.3Q16.45 7.3 16.78 7.43Q17.01 7.52 17.22 7.68Q17.5 7.88 17.68 8.16Q17.82 8.38 17.89 8.65L18.35 8.78Q19.04 9.03 19.63 9.42Q20.08 9.71 20.47 10.08Q20.95 10.53 21.31 11.06Q21.65 11.55 21.89 12.12Q22.11 12.62 22.24 13.16Q22.4 13.84 22.4 14.56L22.4 18.19Q22.4 18.39 22.45 18.57Q22.46 18.63 22.48 18.69Q22.5 18.73 22.52 18.76Q22.6 18.95 22.73 19.12L23.66 20.29Q23.85 20.55 23.9 20.83Q23.9 20.86 23.91 20.89Q23.91 20.97 23.91 21.06Q23.9 21.28 23.79 21.5ZM24.61 24.68Q24.56 24.79 24.48 24.87Q24.4 24.95 24.3 25Q24.18 25.05 24.03 25.05Q23.9 25.05 23.78 25.01Q23.68 24.96 23.59 24.87L7.47 8.74Q7.41 8.68 7.37 8.61Q7.29 8.48 7.29 8.31Q7.29 8.12 7.38 7.98Q7.42 7.93 7.47 7.88Q7.58 7.76 7.7 7.72Q7.8 7.68 7.91 7.68Q8.03 7.68 8.13 7.72Q8.25 7.76 8.35 7.88L24.48 24Q24.56 24.08 24.61 24.19Q24.66 24.3 24.66 24.43Q24.66 24.57 24.61 24.68ZM9.81 13.36Q9.88 13.06 9.97 12.75L19.33 22.13L9.3 22.13Q9.12 22.13 8.96 22.08Q8.83 22.04 8.7 21.96Q8.64 21.92 8.57 21.87Q8.39 21.72 8.28 21.5Q8.19 21.33 8.17 21.15Q8.15 21.01 8.16 20.87Q8.18 20.72 8.23 20.59Q8.29 20.43 8.4 20.29L9.33 19.12Q9.49 18.93 9.58 18.71Q9.58 18.7 9.58 18.69Q9.61 18.61 9.63 18.54Q9.68 18.37 9.68 18.19L9.68 14.65Q9.68 13.99 9.81 13.36ZM13.75 23.15Q13.79 23.12 13.86 23.12L18.24 23.12Q18.3 23.12 18.33 23.15Q18.34 23.15 18.35 23.16Q18.36 23.17 18.36 23.17Q18.4 23.22 18.4 23.3Q18.37 23.66 18.24 23.99Q18.16 24.2 18.03 24.39Q17.92 24.55 17.79 24.7Q17.53 24.97 17.18 25.16Q16.91 25.31 16.62 25.39Q16.34 25.46 16.05 25.46Q15.57 25.46 15.15 25.29Q14.76 25.13 14.43 24.83Q14.06 24.48 13.87 24.05Q13.71 23.7 13.68 23.3Q13.68 23.23 13.71 23.19Q13.71 23.17 13.72 23.16Q13.73 23.16 13.75 23.15Z" fill="#FFFFFF" fill-opacity="1.000000" fill-rule="evenodd"/>
	</g>
</svg>
