<svg width="32.000000" height="32.000000" viewBox="0 0 32 32" fill="none" xmlns="http://www.w3.org/2000/svg" xmlns:xlink="http://www.w3.org/1999/xlink">
	<desc>
			Created with Pixso.
	</desc>
	<defs>
		<clipPath id="clip64_10093">
			<rect id="通知图标1" width="32.000000" height="32.000000" fill="white" fill-opacity="0"/>
		</clipPath>
	</defs>
	<rect id="通知图标1" width="32.000000" height="32.000000" fill="#FFFFFF" fill-opacity="0"/>
	<g clip-path="url(#clip64_10093)">
		<rect id="矩形 6" width="32.000000" height="32.000000" fill="#0A59F7" fill-opacity="1.000000"/>
		<path id="󰇑" d="M22.43 18.67Q22.51 18.92 22.67 19.14L23.62 20.31Q23.76 20.48 23.82 20.68Q23.88 20.87 23.86 21.09Q23.84 21.33 23.74 21.52Q23.65 21.69 23.5 21.84Q23.39 21.94 23.26 22.01Q23.03 22.13 22.73 22.13L9.26 22.13Q8.96 22.13 8.73 22.02Q8.6 21.95 8.48 21.84Q8.33 21.69 8.24 21.51Q8.15 21.32 8.12 21.1Q8.1 20.93 8.14 20.77Q8.19 20.53 8.35 20.31L9.3 19.14Q9.46 18.92 9.54 18.67Q9.61 18.45 9.61 18.19L9.61 14.65Q9.61 13.42 10.04 12.35Q10.34 11.59 10.86 10.91Q11.41 10.21 12.09 9.69Q12.99 9.02 14.12 8.67Q14.17 8.46 14.28 8.27Q14.47 7.94 14.8 7.69Q15.07 7.49 15.37 7.39Q15.67 7.3 16 7.3Q16.37 7.3 16.7 7.42Q16.95 7.51 17.17 7.68Q17.47 7.89 17.65 8.18Q17.79 8.4 17.86 8.65Q19.04 8.99 19.95 9.69Q20.11 9.82 20.27 9.96Q20.97 10.57 21.44 11.33Q21.66 11.68 21.83 12.06Q22.1 12.68 22.24 13.34Q22.36 13.94 22.36 14.56L22.36 18.19Q22.36 18.45 22.43 18.67ZM13.7 23.18Q13.73 23.16 13.82 23.16L18.2 23.16Q18.28 23.16 18.31 23.19Q18.32 23.2 18.33 23.22Q18.35 23.25 18.35 23.3Q18.32 23.74 18.15 24.12Q17.96 24.52 17.62 24.84Q17.3 25.14 16.92 25.3Q16.5 25.47 16 25.47Q15.55 25.47 15.15 25.33Q14.74 25.17 14.39 24.85Q14.06 24.55 13.87 24.17Q13.68 23.78 13.64 23.32L13.64 23.3Q13.66 23.21 13.7 23.18Z" fill="#FFFFFF" fill-opacity="1.000000" fill-rule="evenodd"/>
	</g>
</svg>
