<?xml version="1.0" encoding="UTF-8"?>
<svg width="18px" height="18px" viewBox="0 0 18 18" version="1.1" xmlns="http://www.w3.org/2000/svg" xmlns:xlink="http://www.w3.org/1999/xlink">
    <title>播放</title>
    <defs>
        <path d="M9,0.75 C13.5563492,0.75 17.25,4.44365081 17.25,9 C17.25,13.5563492 13.5563492,17.25 9,17.25 C4.44365081,17.25 0.75,13.5563492 0.75,9 C0.75,4.44365081 4.44365081,0.75 9,0.75 Z M7.6875,5.75722219 C7.16973305,5.75722219 6.75,6.17695523 6.75,6.69472219 L6.75,11.3052778 C6.75,11.4712665 6.79407037,11.6342793 6.87770728,11.7776569 C7.13859505,12.2248931 7.71264292,12.3759583 8.15987909,12.1150705 L12.1117839,9.80979272 C12.2514748,9.72830636 12.3677112,9.61206999 12.4491975,9.47237909 C12.7100853,9.02514292 12.5590201,8.45109505 12.1117839,8.19020728 L8.15987909,5.88492947 C8.01650153,5.80129256 7.85348872,5.75722219 7.6875,5.75722219 Z" id="path-1"></path>
    </defs>
    <g id="播放" stroke="none" stroke-width="1" fill="none" fill-rule="evenodd">
        <mask id="mask-2" fill="white">
            <use xlink:href="#path-1"></use>
        </mask>
        <use id="形状结合" fill="#FFFFFF" fill-rule="nonzero" xlink:href="#path-1"></use>
    </g>
</svg>