<?xml version="1.0" encoding="UTF-8"?>
<svg width="32px" height="32px" viewBox="0 0 32 32" version="1.1" xmlns="http://www.w3.org/2000/svg" xmlns:xlink="http://www.w3.org/1999/xlink">
    <title>主题32*32</title>
    <g id="主题32*32" stroke="none" stroke-width="1" fill="none" fill-rule="evenodd">
        <path d="M23.7416667,8 C24.0868446,8 24.3666667,8.27982203 24.3666667,8.625 C24.3666667,8.97017797 24.0868446,9.25 23.7416667,9.25 L23.533,9.25 L23.5333333,17.5833333 C23.5333333,19.4242825 22.0409492,20.9166667 20.2,20.9166667 L18.9833333,20.916 L17.7343333,19.666 L20.2,19.6666667 C21.3505932,19.6666667 22.2833333,18.7339266 22.2833333,17.5833333 L22.283,9.25 L9.783,9.25 L9.78333333,17.5833333 C9.78333333,18.7339266 10.7160734,19.6666667 11.8666667,19.6666667 L16.5563333,19.666 L19.0099838,22.120453 L20.5342758,23.6441423 C20.7512337,23.8611003 20.7753402,24.1978808 20.6065951,24.4414659 L20.5342758,24.5280258 C20.2901981,24.7721035 19.89447,24.7721035 19.6503923,24.5280258 L16.1148584,20.9924919 C16.0911676,20.9688011 16.0697763,20.9436815 16.0506844,20.9174106 L16.0151164,20.9174106 C15.9960246,20.9436815 15.9746333,20.9688011 15.9509425,20.9924919 L12.4154085,24.5280258 C12.1713309,24.7721035 11.7756028,24.7721035 11.5315251,24.5280258 C11.2874474,24.2839481 11.2874474,23.88822 11.5315251,23.6441423 L14.2583333,20.916 L11.8666667,20.9166667 C10.0257175,20.9166667 8.53333333,19.4242825 8.53333333,17.5833333 L8.533,9.25 L8.325,9.25 C7.97982203,9.25 7.7,8.97017797 7.7,8.625 C7.7,8.27982203 7.97982203,8 8.325,8 L23.7416667,8 Z M20.3275976,11.7228885 C20.5504085,11.9438514 20.5720258,12.2909842 20.3915009,12.5364142 L20.3312782,12.6067643 L17.5642107,15.3969726 C17.4703257,15.4916429 17.3493026,15.5531782 17.2193176,15.5740056 L17.1204326,15.581875 L14.1483333,15.5816667 L12.617985,17.0908765 C12.3945391,17.3111972 12.0471859,17.328923 11.8037943,17.145659 L11.7341235,17.0846517 C11.5138028,16.8612057 11.496077,16.5138525 11.679341,16.2704609 L11.7403483,16.2007901 L13.4532652,14.5118318 C13.5468229,14.4195827 13.6664213,14.3597598 13.7946069,14.3395206 L13.8920836,14.331875 L16.8591667,14.3316667 L19.4437218,11.726569 C19.6867811,11.4814771 20.0825057,11.4798293 20.3275976,11.7228885 Z" id="形状结合" fill="#FFFFFF"></path>
        <path d="M16,31 C24.2842712,31 31,24.2842712 31,16 C31,7.71572875 24.2842712,1 16,1 C7.71572875,1 1,7.71572875 1,16 C1,24.2842712 7.71572875,31 16,31 Z M16,32 C7.163444,32 0,24.836556 0,16 C0,7.163444 7.163444,0 16,0 C24.836556,0 32,7.163444 32,16 C32,24.836556 24.836556,32 16,32 Z" id="Oval备份" fill="#FFFFFF" fill-rule="nonzero" transform="translate(16.000000, 16.000000) rotate(-360.000000) translate(-16.000000, -16.000000) "></path>
    </g>
</svg>