<?xml version="1.0" encoding="UTF-8"?>
<svg fill="white" width="76px" height="76px" viewBox="0 0 76 76" version="1.1" xmlns="http://www.w3.org/2000/svg" xmlns:xlink="http://www.w3.org/1999/xlink">
    <title>录像按钮76*76</title>
    <defs>
        <path fill="white" d="M50.35,46.075 C50.35,49.7476936 47.3726936,52.725 43.7,52.725 L21.85,52.725 C18.1773064,52.725 15.2,49.7476936 15.2,46.075 L15.2,29.925 C15.2,26.2523064 18.1773064,23.275 21.85,23.275 L43.7,23.275 C47.3726936,23.275 50.35,26.2523064 50.35,29.925 L50.35,46.075 Z M43.7,26.125 L21.85,26.125 C19.7909157,26.125 18.1143421,27.7627229 18.0518082,29.8066398 L18.05,29.925 L18.05,46.075 C18.05,48.1340843 19.6877229,49.8106579 21.7316398,49.8731918 L21.85,49.875 L43.7,49.875 C45.7590843,49.875 47.4356579,48.2372771 47.4981918,46.1933602 L47.5,46.075 L47.5,29.925 C47.5,27.8659157 45.8622771,26.1893421 43.8183602,26.1268082 L43.7,26.125 Z M55.9294273,28.2244798 C57.5553249,27.3708836 59.5653518,27.9969575 60.418948,29.6228551 C60.6692354,30.099593 60.8,30.6299831 60.8,31.1684278 L60.8,44.8315722 C60.8,46.667919 59.3113468,48.1565722 57.475,48.1565722 C56.9365552,48.1565722 56.4061652,48.0258076 55.9294273,47.7755202 L52.249,45.843 L52.249,42.624 L57.2542039,45.2521362 C57.2797434,45.2655444 57.3063608,45.2765516 57.3337125,45.2850729 L57.417627,45.3030946 L57.475,45.3065722 C57.7373353,45.3065722 57.95,45.0939074 57.95,44.8315722 L57.95,31.1684278 C57.95,31.0915071 57.9313193,31.0157371 57.895564,30.9476317 L57.8669851,30.9000705 C57.7328807,30.7036621 57.4698842,30.6346317 57.2542039,30.7478638 L52.249,33.375 L52.249,30.156 Z" id="path-1"></path>
    </defs>
    <g id="录像按钮76*76" stroke="none" stroke-width="1" fill="#f0f0f0" fill-rule="evenodd">
        <mask id="mask-2" fill="#f0f0f0">
            <use xlink:href="#path-1"></use>
        </mask>
        <use id="形状结合" fill="#f0f0f0" fill-rule="nonzero" xlink:href="#path-1"></use>
        <path  d="M38,76 C17.0131795,76 0,58.9868205 0,38 C0,17.0131795 17.0131795,0 38,0 C58.9868205,0 76,17.0131795 76,38 C76,58.9868205 58.9868205,76 38,76 Z M38,75 C58.4345357,75 75,58.4345357 75,38 C75,17.5654643 58.4345357,1 38,1 C17.5654643,1 1,17.5654643 1,38 C1,58.4345357 17.5654643,75 38,75 Z" id="Oval" fill="#f0f0f0" fill-rule="nonzero"></path>
    </g>
</svg>