<?xml version="1.0" encoding="UTF-8"?>
<svg width="40.000000" height="40.000000" viewBox="0 0 40 40" fill="none" xmlns="http://www.w3.org/2000/svg" xmlns:xlink="http://www.w3.org/1999/xlink">
	<desc>
			Created with Pixso.
	</desc>
	<defs>
		<clipPath id="clip466_1543">
			<rect id="bell_fill" width="24.000000" height="24.000000" transform="translate(8.000000 8.000000)" fill="white" fill-opacity="0"/>
		</clipPath>
		<clipPath id="clip463_1675">
			<rect id="user_portrait_bell" width="40.000000" height="40.000000" fill="white" fill-opacity="0"/>
		</clipPath>
	</defs>
	<g clip-path="url(#clip463_1675)">
		<g opacity="0.200000">
			<circle id="circle" cx="20.000000" cy="20.000000" r="20.000000" fill="#000000" fill-opacity="1.000000"/>
			<circle id="circle" cx="20.000000" cy="20.000000" r="20.000000" stroke="#000000" stroke-opacity="0" stroke-width="1.000000"/>
		</g>
		<g clip-path="url(#clip466_1543)">
			<g opacity="0.000000">
				<rect id="rect" x="8.000000" y="8.000000" width="24.000000" height="24.000000" fill="#FFFFFF" fill-opacity="1.000000"/>
			</g>
			<path id="path" d="M28.02 23.28C27.76 22.95 27.62 22.57 27.62 22.15L27.62 17.78C27.62 16.75 27.41 15.75 27 14.78C26.57 13.83 25.95 12.99 25.14 12.26C24.31 11.54 23.35 11.02 22.23 10.71C22.1 10.22 21.83 9.83 21.41 9.53C21 9.23 20.52 9.07 20 9.07C19.47 9.07 18.99 9.23 18.56 9.54C18.14 9.86 17.87 10.26 17.74 10.74C16.14 11.23 14.83 12.12 13.83 13.41C12.83 14.72 12.33 16.21 12.33 17.9L12.33 22.15C12.33 22.57 12.21 22.95 11.96 23.28L10.83 24.7C10.6 24.99 10.52 25.3 10.56 25.64C10.6 25.99 10.74 26.28 10.99 26.52C11.23 26.76 11.54 26.89 11.91 26.89L28.08 26.89C28.45 26.89 28.76 26.76 29.01 26.52C29.25 26.28 29.39 25.99 29.43 25.64C29.46 25.28 29.36 24.97 29.14 24.7L28.02 23.28Z" fill="#FFFFFF" fill-opacity="0.900000" fill-rule="nonzero"/>
			<path id="path" d="M17.37 28.11C17.31 28.11 17.27 28.12 17.23 28.15C17.2 28.17 17.18 28.21 17.16 28.28C17.23 29.02 17.53 29.65 18.08 30.15C18.62 30.65 19.26 30.9 20 30.9C20.75 30.9 21.39 30.64 21.93 30.14C22.48 29.63 22.78 29.01 22.83 28.28C22.83 28.23 22.81 28.19 22.77 28.16C22.75 28.12 22.7 28.11 22.64 28.11L17.37 28.11Z" fill="#FFFFFF" fill-opacity="0.900000" fill-rule="nonzero"/>
		</g>
	</g>
</svg>
