<?xml version="1.0" encoding="UTF-8"?>
<svg width="24px" height="24px" viewBox="0 0 24 24" version="1.1" xmlns="http://www.w3.org/2000/svg" xmlns:xlink="http://www.w3.org/1999/xlink">
    <title>视频</title>
    <g id="视频" stroke="none" stroke-width="1" fill="none" fill-rule="evenodd">
        <g id="编组" transform="translate(1.000000, 3.000000)" fill="#000000" fill-rule="nonzero">
            <path d="M22,3 L22,15 C22,16.6568542 20.6568542,18 19,18 L3,18 C1.34314575,18 0,16.6568542 0,15 L0,3 C0,1.34314575 1.34314575,0 3,0 L19,0 C20.6568542,0 22,1.34314575 22,3 Z M2.99680939,16.4978661 L4,16.5 L4,16.5 C4.27614237,16.5 4.5,16.2761424 4.5,16 L4.5,13.1 C4.5,12.7686292 4.23137085,12.5 3.9,12.5 L2.1,12.5 C1.76862915,12.5 1.5,12.7686292 1.5,13.1 L1.5,14 C1.5,14.3326232 1.5,14.6652464 1.5,14.9978695 C1.5,15.8250509 2.16962987,16.4961067 2.99680939,16.4978661 Z M16,1.5 L6,1.5 L6,16.5 L16,16.5 L16,1.5 Z M19.9,12.5 L18.1,12.5 C17.7686292,12.5 17.5,12.7686292 17.5,13.1 L17.5,16 C17.5,16.2761424 17.7238576,16.5 18,16.5 C18.3400003,16.5 18.6722882,16.4997376 18.9968638,16.4992127 C19.8252908,16.4997724 20.4973159,15.828652 20.4978739,15.0002251 C20.4978742,14.9997659 20.4978743,14.9993066 20.4978708,14.9988474 L20.5,14 L20.5,14 L20.5,13.1 C20.5,12.7686292 20.2313708,12.5 19.9,12.5 Z M9.6,6.84115427 C9.705322,6.84115427 9.8087885,6.86887803 9.9,6.92153903 L12.6,8.4803848 C12.8869756,8.6460702 12.9853007,9.0130244 12.8196152,9.3 C12.7669542,9.3912115 12.6912115,9.4669542 12.6,9.5196152 L9.9,11.078461 C9.6130244,11.2441464 9.2460702,11.1458213 9.0803848,10.8588457 C9.0277238,10.7676342 9,10.6641677 9,10.5588457 L9,7.4411543 C9,7.1097834 9.2686292,6.84115427 9.6,6.84115427 Z M20.5,10.4 L20.5,7.6 C20.5,7.2686292 20.2313708,7 19.9,7 L18.1,7 C17.7686292,7 17.5,7.2686292 17.5,7.6 L17.5,10.4 C17.5,10.7313708 17.7686292,11 18.1,11 L19.9,11 C20.2313708,11 20.5,10.7313708 20.5,10.4 Z M2.1,11 L3.9,11 C4.23137085,11 4.5,10.7313708 4.5,10.4 L4.5,7.6 C4.5,7.2686292 4.23137085,7 3.9,7 L2.1,7 C1.76862915,7 1.5,7.2686292 1.5,7.6 L1.5,10.4 C1.5,10.7313708 1.76862915,11 2.1,11 Z M18.9988474,1.49999997 L18,1.49999997 L18,1.49999997 C17.7238576,1.49999997 17.5,1.72385763 17.5,1.99999997 L17.5,4.9 C17.5,5.23137085 17.7686292,5.49999997 18.1,5.49999997 L19.9,5.49999997 C20.2313708,5.49999997 20.5,5.23137085 20.5,4.9 L20.5,3.99999997 C20.5,3.6599997 20.4997376,3.32744934 20.4992127,3.00234892 C20.5005101,2.17392281 19.8299897,1.50129911 19.0015636,1.49999997 C19.0006582,1.49999997 18.9997528,1.49999997 18.9988474,1.49999997 Z M4,1.5 C3.66666667,1.5 3.33333333,1.5 3,1.5 C2.17157288,1.5 1.5,2.17157288 1.5,3 L1.5,4 L1.5,4 L1.5,4.9 C1.5,5.23137085 1.76862915,5.5 2.1,5.5 L3.9,5.5 C4.23137085,5.5 4.5,5.23137085 4.5,4.9 L4.5,2 C4.5,1.72385763 4.27614237,1.5 4,1.5 Z" id="形状备份-39"></path>
        </g>
    </g>
</svg>