<?xml version="1.0" encoding="UTF-8"?>
<svg width="34px" height="34px" viewBox="0 0 34 34" version="1.1" xmlns="http://www.w3.org/2000/svg" xmlns:xlink="http://www.w3.org/1999/xlink">
    <title>视频加载失败34*34</title>
    <g id="视频加载失败34*34" stroke="none" stroke-width="1" fill="none" fill-rule="evenodd">
        <g id="编组" transform="translate(1.416667, 4.250000)" fill="#000000" fill-rule="nonzero">
            <path d="M31.1666667,4.25 L31.1666667,21.25 C31.1666667,23.5972101 29.2638768,25.5 26.9166667,25.5 L4.25,25.5 C1.90278981,25.5 0,23.5972101 0,21.25 L0,4.25 C0,1.90278981 1.90278981,0 4.25,0 L26.9166667,0 C29.2638768,0 31.1666667,1.90278981 31.1666667,4.25 Z M4.24547997,23.371977 L5.66666667,23.375 L5.66666667,23.375 C6.05786836,23.375 6.375,23.0578684 6.375,22.6666667 L6.375,18.5583333 C6.375,18.0888914 5.99444204,17.7083333 5.525,17.7083333 L2.975,17.7083333 C2.50555796,17.7083333 2.125,18.0888914 2.125,18.5583333 L2.125,19.8333333 C2.125,20.3045495 2.125,20.7757657 2.125,21.2469818 C2.125,22.4188221 3.07364232,23.3694845 4.24547997,23.371977 Z M22.6666667,2.125 L8.5,2.125 L8.5,23.375 L22.6666667,23.375 L22.6666667,2.125 Z M28.1916667,17.7083333 L25.6416667,17.7083333 C25.1722247,17.7083333 24.7916667,18.0888914 24.7916667,18.5583333 L24.7916667,22.6666667 C24.7916667,23.0578684 25.1087983,23.375 25.5,23.375 C25.9816671,23.375 26.4524083,23.3746283 26.9122237,23.3738847 C28.0858286,23.3746776 29.0378642,22.4239237 29.0386547,21.2503189 C29.0386551,21.2496684 29.0386553,21.2490177 29.0386503,21.2483671 L29.0416667,19.8333333 L29.0416667,19.8333333 L29.0416667,18.5583333 C29.0416667,18.0888914 28.6611086,17.7083333 28.1916667,17.7083333 Z M13.6,9.69163522 C13.7492062,9.69163522 13.8957837,9.73091054 14.025,9.80551363 L17.85,12.0138785 C18.2565488,12.2485995 18.3958427,12.7684512 18.1611215,13.175 C18.0865184,13.3042163 17.9792163,13.4115184 17.85,13.4861215 L14.025,15.6944864 C13.6184512,15.9292074 13.0985995,15.7899135 12.8638785,15.3833647 C12.7892754,15.2541484 12.75,15.1075709 12.75,14.9583647 L12.75,10.5416353 C12.75,10.0721931 13.130558,9.69163522 13.6,9.69163522 Z M29.0416667,14.7333333 L29.0416667,10.7666667 C29.0416667,10.2972247 28.6611086,9.91666667 28.1916667,9.91666667 L25.6416667,9.91666667 C25.1722247,9.91666667 24.7916667,10.2972247 24.7916667,10.7666667 L24.7916667,14.7333333 C24.7916667,15.2027753 25.1722247,15.5833333 25.6416667,15.5833333 L28.1916667,15.5833333 C28.6611086,15.5833333 29.0416667,15.2027753 29.0416667,14.7333333 Z M2.975,15.5833333 L5.525,15.5833333 C5.99444204,15.5833333 6.375,15.2027753 6.375,14.7333333 L6.375,10.7666667 C6.375,10.2972247 5.99444204,9.91666667 5.525,9.91666667 L2.975,9.91666667 C2.50555796,9.91666667 2.125,10.2972247 2.125,10.7666667 L2.125,14.7333333 C2.125,15.2027753 2.50555796,15.5833333 2.975,15.5833333 Z M26.9150338,2.12499996 L25.5,2.12499996 L25.5,2.12499996 C25.1087983,2.12499996 24.7916667,2.44213164 24.7916667,2.83333333 L24.7916667,6.94166667 C24.7916667,7.4111087 25.1722247,7.79166667 25.6416667,7.79166667 L28.1916667,7.79166667 C28.6611086,7.79166667 29.0416667,7.4111087 29.0416667,6.94166667 L29.0416667,5.66666667 C29.0416667,5.18499958 29.0412949,4.71388657 29.0405513,4.25332764 C29.0423893,3.07972398 28.0924854,2.12684041 26.9188818,2.12499996 C26.9175991,2.12499996 26.9163165,2.12499996 26.9150338,2.12499996 Z M5.66666667,2.125 C5.19444445,2.125 4.72222222,2.125 4.25,2.125 C3.07639491,2.125 2.125,3.07639491 2.125,4.25 L2.125,5.66666667 L2.125,5.66666667 L2.125,6.94166667 C2.125,7.4111087 2.50555796,7.79166667 2.975,7.79166667 L5.525,7.79166667 C5.99444204,7.79166667 6.375,7.4111087 6.375,6.94166667 L6.375,2.83333333 C6.375,2.44213164 6.05786836,2.125 5.66666667,2.125 Z" id="形状备份-39"></path>
        </g>
    </g>
</svg>